<?xml version="1.0" encoding="utf-8"?>
<!-- Generator: Adobe Illustrator 16.0.0, SVG Export Plug-In . SVG Version: 6.00 Build 0)  -->
<!DOCTYPE svg PUBLIC "-//W3C//DTD SVG 1.1//EN" "http://www.w3.org/Graphics/SVG/1.1/DTD/svg11.dtd">
<svg version="1.1" id="Capa_1" xmlns="http://www.w3.org/2000/svg" xmlns:xlink="http://www.w3.org/1999/xlink" x="0px" y="0px"
	 width="595.28px" height="841.89px" viewBox="0 0 595.28 841.89" enable-background="new 0 0 595.28 841.89" xml:space="preserve">
<g>
	<defs>
		<rect id="SVGID_1_" x="85.417" y="200.373" width="424.447" height="282.965"/>
	</defs>
	<clipPath id="SVGID_2_">
		<use xlink:href="#SVGID_1_"  overflow="visible"/>
	</clipPath>
	<g clip-path="url(#SVGID_2_)">
		<path fill-rule="evenodd" clip-rule="evenodd" fill="#FEFEFE" d="M269.141,475.837c-69.992,0-139.983-0.009-209.974,0.047
			c-1.875,0.001-2.297-0.423-2.296-2.297c0.053-92.822,0.053-185.644,0-278.465c-0.001-1.874,0.422-2.297,2.296-2.296
			c139.982,0.051,279.965,0.051,419.948,0c1.874-0.001,2.298,0.422,2.297,2.296c-0.054,92.822-0.054,185.644,0,278.465
			c0.001,1.874-0.423,2.299-2.297,2.297C409.123,475.829,339.132,475.837,269.141,475.837z"/>
		<path fill-rule="evenodd" clip-rule="evenodd" fill="#FE6600" d="M144.347,378.396c-5.622-1.392-11.023-3.45-16.446-5.443
			c-4.348-2-8.646-4.031-12.339-7.211c-4.55-3.917-7.89-8.446-8.617-14.576c-0.128-3.323,0.834-6.381,2.267-9.324
			c2.521-4.026,5.639-7.509,9.459-10.352c3.456-2.783,7.404-4.787,11.185-7.057c2.883-1.564,6-2.624,8.912-4.126
			c3.439-1.533,7.094-2.478,10.581-3.883c1.196-0.422,2.452-0.639,3.646-1.07c3.586-1.218,7.297-1.973,10.942-2.975
			c2.196-0.548,4.405-1.038,6.613-1.533c4.706-0.861,9.379-1.91,14.143-2.423c1.02-0.267,2.1-0.151,3.109-0.493
			c0.503-0.129,1.017-0.189,1.534-0.209c0.886-0.013,1.773-0.015,2.627-0.316c0.514-0.129,1.037-0.186,1.565-0.203
			c1.096,0.021,2.177-0.067,3.231-0.399c4.077-0.515,8.202-0.421,12.273-1.005c2.982-0.407,5.976-0.015,8.963-0.135
			c0.995-0.04,1.998,0.031,2.959-0.318c3.266-0.311,6.534-0.25,9.803-0.047c2.99,0.721,6.025,0.24,9.039,0.328
			c2.684-0.142,5.307,0.696,7.995,0.495c6.38,0.898,12.869,1.03,19.146,2.707c0.879,0.234,1.684,0.695,2.598,0.782
			c0.814-0.019,1.625,0.015,2.418,0.227c1.305,0.052,2.515,0.674,3.837,0.642c0.526,0.192,0.987,0.463,1.212,1.015
			c-0.076,0.478-0.42,0.693-0.827,0.85c-2.238,0.4-4.445,0.321-6.612-0.412c-0.993-0.464-2.061-0.398-3.117-0.418
			c-0.535-0.011-1.063-0.071-1.584-0.193c-1.163-0.41-2.372-0.259-3.566-0.289c-0.708-0.01-1.413-0.039-2.104-0.211
			c-2.463-0.657-5.014,0.113-7.484-0.453c-4.807-0.745-9.644,0.054-14.458-0.29c-1.077-0.077-2.165-0.01-3.247-0.007
			c-4.281-0.043-8.551,0.201-12.819,0.492c-1.586,0.056-3.193-0.214-4.754,0.291c-0.855,0.198-1.728,0.174-2.595,0.21
			c-4.422,0.195-8.788,0.892-13.166,1.473c-1.247-0.077-2.458,0.158-3.661,0.448c-1.217,0.102-2.399,0.432-3.613,0.562
			c-3.519,0.253-6.803,1.719-10.315,2c-2.215,0.29-4.399,0.731-6.543,1.364c-2.636,0.624-5.272,1.246-7.876,1.994
			c-1.682,0.493-3.407,0.838-5.044,1.484c-1.524,0.446-3.021,0.977-4.522,1.494c-1.483,0.467-2.975,0.909-4.404,1.529
			c-1.225,0.453-2.434,0.946-3.633,1.461c-2.29,0.889-4.481,2.001-6.732,2.976c-1.163,0.708-2.419,1.242-3.581,1.953
			c-1.207,0.57-2.354,1.246-3.48,1.962c-0.388,0.224-0.783,0.438-1.166,0.671c-1.864,1.11-3.565,2.443-5.247,3.802
			c-1.03,0.625-1.807,1.537-2.649,2.373c-0.695,0.667-1.376,1.349-2.044,2.044c-0.784,0.732-1.511,1.512-2.031,2.462
			c-0.878,1.291-1.845,2.528-2.369,4.027c-0.479,1.094-0.699,2.259-0.948,3.417c-0.383,1.333-0.172,2.7-0.226,4.049
			c-0.021,2.907,1.333,5.322,2.758,7.71c1.021,1.739,2.637,2.931,4.005,4.351c3.908,3.868,8.625,6.445,13.591,8.667
			c1.61,0.72,3.58,0.919,4.603,2.681C145.313,378.671,144.873,378.667,144.347,378.396z"/>
		<path fill-rule="evenodd" clip-rule="evenodd" fill="#010066" d="M212.479,356.468c0-5.58,0.121-11.164-0.057-16.738
			c-0.076-2.396,1.332-1.989,2.685-1.947c1.273,0.04,2.875-0.628,2.757,1.868c-0.187,3.989,0.007,7.994-0.081,11.989
			c-0.03,1.392,0.323,1.91,1.785,1.827c2.158-0.123,4.333-0.118,6.493-0.001c1.484,0.081,1.804-0.503,1.778-1.87
			c-0.079-4.08,0.076-8.165-0.065-12.241c-0.09-2.601,1.711-1.605,2.884-1.73c1.226-0.131,2.388-0.341,2.37,1.742
			c-0.103,11.326-0.105,22.653-0.004,33.979c0.021,2.348-1.44,1.735-2.628,1.735c-1.188,0-2.717,0.615-2.628-1.737
			c0.158-4.158-0.027-8.329,0.08-12.49c0.04-1.564-0.444-2.08-1.976-1.939c-2.625,0.241-6.062-1.085-7.655,0.561
			c-1.269,1.311-0.368,4.74-0.396,7.229c-0.026,2.249-0.08,4.5,0.021,6.745c0.064,1.406-0.379,1.849-1.816,1.855
			c-3.547,0.016-3.546,0.093-3.546-3.347C212.479,366.794,212.479,361.631,212.479,356.468z"/>
		<path fill-rule="evenodd" clip-rule="evenodd" fill="#010066" d="M255.903,352.313c-0.192-3.707,2.37-2.084,3.829-2.34
			c1.84-0.323,1.398,1.182,1.401,2.154c0.026,6.998,0.027,13.995-0.005,20.993c-0.003,0.724,0.452,1.96-0.866,1.921
			c-1.408-0.042-3.612,0.912-4.076-0.551c-0.608-1.917-1.23-0.896-1.966-0.556c-5.426,2.508-11.196,1.413-15.026-2.878
			c-3.978-4.457-4.294-11.166-0.748-15.872c3.708-4.922,10.232-6.462,15.89-3.744C254.78,351.653,255.2,351.919,255.903,352.313z"/>
		<path fill-rule="evenodd" clip-rule="evenodd" fill="#010066" d="M378.349,352.201c-0.154-3.696,2.511-1.991,4.038-2.22
			c2.066-0.311,1.373,1.417,1.38,2.388c0.05,6.814,0.049,13.628,0,20.443c-0.006,0.832,0.619,2.374-1.046,2.206
			c-1.422-0.143-3.429,1.223-4.221-1.01c-0.583-1.642-1.198-0.244-1.562-0.081c-5.023,2.251-9.738,1.843-13.959-1.734
			c-4.795-4.063-5.776-11.032-2.463-16.245c3.391-5.335,10.147-7.318,15.967-4.681C377.008,351.505,377.516,351.782,378.349,352.201
			z"/>
		<path fill-rule="evenodd" clip-rule="evenodd" fill="#010066" d="M432.859,366.986c-2.282,5.876-8.229,9.204-14.035,8.029
			c-6.123-1.239-10.409-6.569-10.195-12.678c0.22-6.28,4.742-11.354,10.816-12.132c6.216-0.796,12.056,2.862,13.808,8.653
			c0.072,0.238,0.116,0.485,0.168,0.729c0.922,4.327,0.574,4.764-3.789,4.764c-4.583,0-9.167,0.062-13.747-0.032
			c-1.729-0.035-1.739,0.62-1.236,1.917c1.6,4.128,7.628,5.98,10.826,2.762C427.766,366.692,430.072,366.948,432.859,366.986z"/>
		<path fill-rule="evenodd" clip-rule="evenodd" fill="#020166" d="M293.646,375.268c-1.905,0-3.231-0.107-4.532,0.028
			c-1.582,0.164-2.625-0.387-3.573-1.665c-1.71-2.307-3.599-4.48-5.897-7.307c0,2.924-0.077,5.126,0.021,7.322
			c0.108,2.422-1.649,1.516-2.763,1.59c-1.139,0.076-2.487,0.521-2.471-1.642c0.084-11.413,0.09-22.826,0.001-34.239
			c-0.02-2.587,1.715-1.614,2.896-1.734c1.232-0.125,2.452-0.339,2.359,1.764c-0.176,3.991-0.063,7.995-0.027,11.994
			c0.007,0.779-0.269,1.622,0.336,2.47c1.657-1.311,2.174-3.848,4.125-4.431c1.753-0.524,3.787-0.11,6.194-0.11
			c-2.498,3.27-4.67,6.351-7.108,9.206c-1.291,1.512-1.236,2.439,0.035,3.925C286.695,366.479,289.953,370.684,293.646,375.268z"/>
		<path fill-rule="evenodd" clip-rule="evenodd" fill="#00328B" d="M123.054,362.822c-1.782-2.36-2.973-4.949-3.077-7.958
			c0.678-0.332,1.347-0.162,1.898,0.214c3.849,2.62,8.451,3.275,12.655,4.953c3.993,1.593,8.044,3.093,11.844,5.138
			c0.807,0.435,1.562,0.979,2.463,1.189c5.616,1.307,10.885,3.584,16,6.129c3.241,1.612,6.581,2.661,10.025,3.65
			c2.683,0.77,5.343,1.879,7.776,3.275c1.864,1.069,2.347,0.418,2.584-1.274c0.214-0.583,0.231-1.345,1.157-1.284
			c0.856,4.437-1.358,6.988-6.482,7.469c-0.684-0.555-1.45,0.219-2.153-0.136c-0.463-0.235-0.893-0.513-0.838-1.094
			c0.052-0.548,0.509-0.447,0.434-0.452c-1.873,0.827-4.084-0.127-5.892-1.127c-4.406-2.441-9.251-3.648-13.833-5.562
			c-4.89-2.043-9.668-4.386-14.68-6.099c-5.897-2.015-11.425-4.915-17.311-6.943C124.696,362.59,123.918,362.621,123.054,362.822z"
			/>
		<path fill-rule="evenodd" clip-rule="evenodd" fill="#020166" d="M331.802,359.36c0,4.657-0.131,9.32,0.054,13.97
			c0.096,2.427-1.379,1.935-2.716,1.932c-1.331-0.003-2.764,0.507-2.729-1.919c0.132-9.313-0.001-18.63,0.1-27.944
			c0.021-1.856-0.428-2.559-2.322-2.318c-1.229,0.156-2.512-0.112-3.734,0.059c-2.198,0.309-2.7-0.488-2.755-2.675
			c-0.062-2.509,0.745-2.994,3.072-2.927c5.982,0.172,11.977,0.152,17.961,0.008c2.169-0.052,2.054,1.165,1.882,2.507
			c-0.156,1.227,0.975,3.321-1.788,3.058c-0.083-0.008-0.167-0.007-0.25,0c-2.199,0.182-5.216-0.989-6.384,0.497
			c-1.106,1.406-0.363,4.287-0.383,6.52C331.781,353.206,331.802,356.283,331.802,359.36z"/>
		<path fill-rule="evenodd" clip-rule="evenodd" fill="#003F96" d="M121.411,346.86c0.429-1.603,1.281-2.959,2.424-4.146
			c0.982,1.341,2.526,1.629,3.939,2.263c4.924,2.212,9.993,4.072,15.01,6.023c6.578,2.559,13.035,5.404,19.602,7.981
			c3.542,1.39,7.046,2.921,10.587,4.294c2.415,0.936,4.992,1.629,7.515,2.369c1.412,1.555,2.63,3.24,3.455,5.187
			c0.407,1.293,0.006,1.967-1.407,1.69c-3.583-0.702-7.175-1.35-10.502-3.002c-5.527-2.746-11.344-4.794-17.177-6.758
			c-1.688-0.569-3.13-1.518-4.705-2.241c-4.001-1.84-8.076-3.422-12.268-4.786c-4.171-1.357-8.07-3.451-12.045-5.294
			C124.202,349.682,122.78,348.196,121.411,346.86z"/>
		<path fill-rule="evenodd" clip-rule="evenodd" fill="#9AD700" d="M172.341,291.389c2.125,1.742,4.469,1.829,6.944,0.911
			c3.567-0.572,7.125-0.321,10.67,0.187c2.185,0.313,4.289-0.402,6.462-0.362c6.243,0.115,12.495,0.183,18.731,0.015
			c4.795-0.129,9.569-0.535,14.344,0.184c2.423,0.57,4.752,1.404,6.987,2.502c-1.244,1.299-2.73,1.838-4.56,2.024
			c-5.685,0.578-11.415-0.29-17.081,0.639c-0.731,0.12-1.486-0.016-2.192-0.309c-0.958-0.635-2.042-0.594-3.125-0.626
			c-7.795-0.231-15.59,0.121-23.382,0.027c-13.954-0.168-27.906,0.183-41.858,0.041c-1.335-0.013-2.649-0.143-3.959-0.405
			c-1.085-0.216-1.847-0.712-1.995-1.89c0.547-1.151,1.095-2.301,1.642-3.452c3.582,1.236,7.292,1.331,11.028,1.301
			c4.58-0.036,9.166-0.153,13.737,0.047C167.352,292.337,169.721,290.822,172.341,291.389z"/>
		<path fill-rule="evenodd" clip-rule="evenodd" fill="#010066" d="M314.467,362.719c0,3.576-0.056,7.154,0.028,10.728
			c0.032,1.375-0.336,2.113-1.783,1.81c-3.254-0.683-6.539,0.277-9.783-0.216c-4.183-0.635-6.274-2.688-7.06-6.897
			c-1.047-5.61-0.372-11.276-0.489-16.917c-0.018-0.882,0.388-1.058,1.189-1.149c3.689-0.421,3.857-0.263,3.912,3.453
			c0.062,4.153-0.301,8.318,0.223,12.457c0.442,3.496,2.929,4.961,6.279,3.858c1.78-0.586,2.075-2.084,2.119-3.58
			c0.133-4.568,0.291-9.145,0.136-13.708c-0.076-2.241,0.752-2.56,2.692-2.521c1.829,0.038,2.925,0.111,2.768,2.469
			c-0.228,3.391-0.059,6.808-0.059,10.213C314.582,362.719,314.524,362.719,314.467,362.719z"/>
		<path fill-rule="evenodd" clip-rule="evenodd" fill="#FE9E01" d="M107.42,351.331c0.788,3.576,2.077,6.873,4.438,9.79
			c3.476,4.294,7.982,7.146,12.688,9.802c1.136,0.641,2.531,0.873,3.356,2.031c-8.233-2.539-16.015-6.013-23.028-11.084
			c-1.003-1.359-0.772-3.49-2.692-4.283c-0.229-0.095-0.303-0.385-0.302-0.642c0.027-4.301-2.344-7.804-3.679-11.668
			c-1.618-4.684-4.845-8.79-5.103-13.955c0.829-2.813,3.132-4.424,5.131-6.286c0.235-0.051,0.474-0.069,0.714-0.061
			c0.802,0.118,1.827,0.033,2.021,1.056c0.169,0.89-0.515,1.494-1.223,2c-0.184,0.131-0.87-0.026-0.428,0.695
			c2.429,3.966,3.148,8.667,5.418,12.722c0.68,1.215,1.921,2.373,1.917,3.678c-0.006,2.104,0.964,4.13,0.393,6.242
			c-0.109,0.406-0.122,0.815-0.069,1.23C106.965,352.12,107,351.656,107.42,351.331z"/>
		<path fill-rule="evenodd" clip-rule="evenodd" fill="#01459A" d="M180.488,365.646c-0.268,2.312-1.879,0.295-1.974,0.255
			c-5.023-2.157-10.251-3.777-15.285-5.922c-4.935-2.103-9.902-4.163-14.89-6.156c-7.082-2.831-14.156-5.682-21.257-8.463
			c-1.407-0.551-3.458-0.163-3.248-2.645c0.462-0.998,1.124-1.833,2.02-2.478c7.145,1.995,13.966,4.896,20.679,7.954
			c7.28,3.316,14.973,5.552,22.206,8.971c2.066,0.977,4.372,1.576,6.613,2.209C177.24,361.319,179.057,363.324,180.488,365.646z"/>
		<path fill-rule="evenodd" clip-rule="evenodd" fill="#013B92" d="M121.411,346.86c1.128-0.239,1.748,0.27,2.462,1.179
			c1.964,2.497,5.161,3.264,7.844,4.417c2.295,0.986,4.49,2.388,7.015,2.983c1.518,0.357,2.933,1.129,4.567,0.92
			c0.163-0.021,0.452-0.043,0.481,0.022c1,2.305,3.633,1.599,5.273,2.86c1.545,1.188,3.48,2.031,5.374,2.567
			c3.387,0.957,6.341,3.255,10.035,3.217c0.953,2.125,4.202,0.389,5.102,3.112c0.211,0.641,2.512,0.803,3.858,1.394
			c3.005,1.318,6.41,1.721,9.647,2.521c1.384,0.342,0.136-1.136,0.874-1.219c1.285,1.816,2.241,3.764,2.436,6.021
			c-0.569,0.366-0.46,0.95-0.48,1.493c-4.143-2.742-9.158-3.23-13.543-5.204c-3.211-1.446-6.684-2.241-9.721-4.241
			c-3.602-2.373-8.043-3.009-11.974-4.789c-0.955-0.432-2.002-0.728-3-1.136c-5.966-2.438-11.925-4.894-17.996-7.074
			c-2.808-1.008-5.661-1.95-8.189-3.612c-0.781-0.513-1.614-0.988-1.131-2.158C120.333,348.922,120.687,347.831,121.411,346.86z"/>
		<path fill-rule="evenodd" clip-rule="evenodd" fill="#010166" d="M386.539,350.502c0.33-0.105,0.484-0.19,0.644-0.2
			c4.524-0.265,4.519-0.262,5.772,4.103c0.958,3.34,1.934,6.675,3.069,10.591c1.371-4.747,2.566-8.907,3.777-13.062
			c0.433-1.489,4.103-2.676,5.292-1.719c0.517,0.415,0.182,0.894,0.047,1.349c-2.205,7.486-4.446,14.961-6.584,22.467
			c-0.35,1.227-1.062,1.37-2.013,1.218c-1.042-0.166-2.531,0.722-3.017-0.905C391.16,366.407,388.861,358.451,386.539,350.502z"/>
		<path fill-rule="evenodd" clip-rule="evenodd" fill="#012D88" d="M123.054,362.822c1.21-1.998,2.799-0.53,3.875-0.106
			c8.069,3.176,16.042,6.596,24.075,9.864c5.164,2.1,10.264,4.388,15.648,5.892c1.727,0.482,2.949,1.832,4.597,2.396
			c2.355,0.806,4.766,1.396,7.753,1.624c-0.896,0.305-1.532,0.353-1.603,0.578c-0.23,0.734,0.475,0.686,0.907,0.754
			c0.561,0.089,1.184-0.067,1.59,0.5c-4.776,0.912-9.443,0.169-14.086-0.934c0.039-0.169,0.397-0.279,0.29-0.328
			c-1.119-0.506-2.3-0.137-3.439-1.527c-1.507-1.838-4.122-2.718-6.794-2.356c-1.336,0.181-2.386-0.392-3.419-1.186
			c-2.58-1.985-5.386-3.423-8.596-4.298c-2.106-0.574-4.268-1.376-6.209-2.394c-1.261-0.662-2.772-0.022-3.368-0.527
			c-1.528-1.294-3.574-1.524-4.987-2.89c-0.67-0.647-1.44-1.152-2.461-0.846C125.271,365.899,124.043,364.468,123.054,362.822z"/>
		<path fill-rule="evenodd" clip-rule="evenodd" fill="#030267" d="M346.786,353.01c3.13-1.794,5.875-2.623,8.816-2.856
			c0.961-0.077,1.287,0.126,1.39,1.138c0.358,3.544,0.238,3.769-3.374,4.587c-4.598,1.042-6.477,3.364-6.478,8.008
			c0,2.996-0.134,6,0.043,8.986c0.12,2.025-0.587,2.52-2.508,2.457c-1.737-0.057-2.662-0.179-2.61-2.363
			c0.158-6.738,0.041-13.482,0.073-20.224c0.006-1.1-0.596-2.763,1.601-2.466C345.205,350.473,347.763,349.125,346.786,353.01z"/>
		<path fill-rule="evenodd" clip-rule="evenodd" fill="#8FCE01" d="M104.533,304.38c0.906-1.685,2.07-3.171,3.461-4.482
			c1.785-0.73,3.615-0.15,5.404-0.089c3.707,0.128,7.455-0.513,11.121,0.497c3.259,1.482,6.518,2.53,9.783,0.013
			c0.835-0.359,1.63-0.791,2.602-0.749c4.156,0.179,8.316,0.003,12.472,0.116c0.986,0.027,2.155-0.223,2.665,1.177
			c0.285,0.784,0.612-0.122,0.94-0.169c1.562-0.226,3.193-1.236,4.53,0.513c-1.63,1.779-4.011,1.406-6.018,2.105
			c-3.186,0.736-6.368,1.49-9.492,2.468c-1.014,0.249-2.02,0.554-3.084,0.469c-2.478-0.451-4.795-1.281-7.53-0.583
			c-1.769,0.45-4.083,0.187-5.934-0.921c-0.069-0.041,0.156-0.477-0.257-0.3c-5.494,2.346-11.212,0.69-16.822,0.869
			C107.132,305.353,105.473,306.018,104.533,304.38z"/>
		<path fill-rule="evenodd" clip-rule="evenodd" fill="#020166" d="M435.95,354.002c0-4.661,0.147-9.329-0.062-13.98
			c-0.104-2.329,0.907-2.398,2.745-2.498c2.175-0.117,2.365,0.83,2.352,2.598c-0.069,8.988-0.029,17.978-0.036,26.966
			c0,1.165,0.024,2.15,1.103,3.085c1.321,1.146,1.365,2.905,0.153,4.174c-1.238,1.297-2.731,0.868-4.001-0.254
			c-1.767-1.561-2.238-3.635-2.247-5.859C435.937,363.491,435.951,358.747,435.95,354.002z"/>
		<path fill-rule="evenodd" clip-rule="evenodd" fill="#FE9C01" d="M93.377,331.346c0.914,3.478,3.001,6.59,3.877,9.925
			c0.834,3.177,3.745,5.368,3.537,8.848c-0.059,0.992,0.362,1.927,1.217,2.595c0.702,0.549,0.836,1.321,0.941,2.188
			c0.122,1.005-1.618,2.849,1.225,2.965c0.287,0.012,0.468,2.606,0.698,4.002c-6.721-4.515-12.328-9.892-14.182-18.206
			c-0.576-2.583-0.276-5.129,0.182-7.68c0.441-0.482,0.214-1.118,0.38-1.664C91.878,333.269,91.705,331.647,93.377,331.346z"/>
		<path fill-rule="evenodd" clip-rule="evenodd" fill="#01A0DE" d="M252.097,309.807c2.495-0.043,4.992-0.117,7.446,0.479
			c-1.051,0.625-2.122,0.182-3.089,0.312c1.112,0.047,2.403-0.226,3.566,0.065c3.708,0.929,7.663,0.343,11.224,2.456
			c3.539,2.1,7.787,2.781,11.328,5.043c1.45,0.926,3.048,1.673,4.894,1.634c0.591-0.012,1.404,0.032,1.411,1.009
			c-2.984,0.408-5.976,0.676-8.992,0.533c-0.355-0.287-0.792-0.301-1.187-0.226c-4.323,0.824-8.383,0.042-12.286-1.892
			c-3.948-1.957-8.123-3.419-12.037-5.451c-1.795-0.931-3.616-1.671-5.708-1.504c-0.666,0.053-1.439-0.089-1.4-1.005
			c0.028-0.659,0.653-0.622,1.155-0.627c-1.164-0.158-2.508,0.929-3.792-0.873C247.303,309.544,249.692,309.496,252.097,309.807z"/>
		<path fill-rule="evenodd" clip-rule="evenodd" fill="#004D9F" d="M127.851,338.228c0.678-0.954,1.543-1.696,2.56-2.268
			c1.894-0.584,3.543-0.165,5.059,1.103c0.836,0.699,1.931,0.92,2.949,1.286c5.926,2.128,11.81,4.324,17.464,7.165
			c2.769,1.391,6.003,1.828,8.842,3.229c0.44,0.217,1.042,0.176,1.395,0.502c1.242,1.147,2.476,0.826,3.746,0.115
			c0.501,1.333,1.002,2.666,1.503,4c-0.282,0.629,0.434,1.051,0.336,1.65c-0.084,0.517-0.267,0.98-0.72,1.253
			c-0.541,0.327-0.963-0.017-1.307-0.38c-0.52-0.55-1.008-1.157-1.828-1.202c-3.608-0.197-6.566-2.289-9.774-3.545
			c-7.271-2.849-14.685-5.377-21.676-8.942c-2.198-1.121-4.82-1.271-7.065-2.425C128.644,339.415,127.572,339.491,127.851,338.228z"
			/>
		<path fill-rule="evenodd" clip-rule="evenodd" fill="#9FDB01" d="M229.493,292.323c-3.06,0.342-6.119,0.552-9.189,0.108
			c-2.15-0.31-4.167,0.617-6.37,0.524c-6.32-0.269-12.701-0.543-18.976,0.049c-4.912,0.464-9.685-1.023-14.535-0.24
			c-0.345,0.056-0.757-0.3-1.138-0.464c1.542-0.979,3.083-1.957,4.625-2.936c6.132-1.086,12.421-0.063,18.536-1.383
			c0.409-0.088,0.835-0.104,1.24-0.032c3.462,0.617,7.034-0.302,10.491,1.011c1.812,0.688,3.924,0.237,5.898,0.337
			C223.326,289.959,226.451,291.011,229.493,292.323z"/>
		<path fill-rule="evenodd" clip-rule="evenodd" fill="#01499C" d="M127.851,338.228c1.159,1.166,2.826,1.583,4.212,1.97
			c7.019,1.956,13.323,5.611,20.111,8.092c4.291,1.568,8.759,2.742,12.692,5.23c0.621,0.393,1.58,0.253,2.384,0.356
			c1.41,0.179,2.679,0.571,3.054,2.163c1.753-0.483,0.164-2.015,1.063-2.679c1.328,2.003,2.657,4.008,3.985,6.011
			c-0.676,0.375-1.3,0.495-2.107,0.174c-6.867-2.733-13.788-5.33-20.63-8.124c-6.299-2.572-12.482-5.427-18.796-7.961
			c-1.797-0.72-3.654-1.567-5.678-1.601c-1.162-0.02-1.813-0.675-2.287-1.622C126.36,339.407,127,338.713,127.851,338.228z"/>
		<path fill-rule="evenodd" clip-rule="evenodd" fill="#020166" d="M270.891,362.113c0,3.738-0.062,7.478,0.031,11.213
			c0.037,1.464-0.271,2.044-1.892,1.98c-4.362-0.17-3.516,0.397-3.544-3.565c-0.05-6.895,0.137-13.794-0.086-20.683
			c-0.092-2.823,1.535-2.155,3.103-2.324c1.953-0.21,2.528,0.45,2.437,2.415C270.771,354.796,270.891,358.458,270.891,362.113z"/>
		<path fill-rule="evenodd" clip-rule="evenodd" fill="#97D501" d="M138.326,294.326c1.19,1.33,2.862,1.485,4.421,1.498
			c9.409,0.072,18.82,0.169,28.225-0.02c4.834-0.097,9.658,0.064,14.486,0.059c8.2-0.011,16.4-0.009,24.6,0.004
			c1.045,0.002,2.23-0.299,2.84,0.992c-1.521,1.275-3.502,0.279-5.127,1.046c-1.665,0.337-3.353,0.123-5.029,0.222
			c-4.535,0.045-9.07,0.027-13.603-0.039c-2.696,0-5.358,0.899-8.077,0.324c-3.243-0.995-6.432,0.406-9.64,0.229
			c-3.176-0.174-6.297,0.652-9.528,0.042c-2.396-0.453-4.952-0.035-7.439-0.074c-4.908-0.076-9.819-0.004-14.728-0.036
			c-1.138-0.007-2.358,0.217-3.312-0.711C137.052,296.683,137.689,295.505,138.326,294.326z"/>
		<path fill-rule="evenodd" clip-rule="evenodd" fill="#009BDA" d="M252.097,309.807c-2.231,0-4.461,0-6.691,0
			c1.251,0.858,2.609,0.326,3.917,0.647c-0.243,0.875-1.483-0.056-1.683,1.146c5.514-0.829,9.432,3.056,14.045,4.842
			c3.311,1.283,6.843,2.251,9.908,4.264c0.767,0.504,2.12,0.062,3.193,0.166c1.699,0.164,3.477-0.513,5.099,0.466
			c-4.152,0.567-8.326,0.603-12.504,0.479c-1.119-0.466-2.288-0.12-3.431-0.213c-1.579-0.129-3.121-0.307-4.411-1.39
			c-0.503-0.423-1.126-0.839-1.787-0.817c-4.736,0.161-8.169-3.314-12.444-4.536c-1.584-0.453-3.438-1.487-4.899-2.496
			c-2.111-1.458-4.839-0.437-6.683-2.228c-0.073-0.271-0.015-0.512,0.172-0.721C239.968,309.3,246.042,309.06,252.097,309.807z"/>
		<path fill-rule="evenodd" clip-rule="evenodd" fill="#0051A2" d="M169.865,349.36c-0.727,1.705-1.425,2.434-3.336,0.916
			c-1.514-1.204-3.567-1.846-5.478-2.411c-6.554-1.938-12.532-5.268-18.901-7.647c-2.985-1.116-6.322-1.47-8.765-3.811
			c-0.923-0.884-2.152,0.788-2.974-0.446c1.658-1.577,3.519-2.873,5.521-3.973c1.625,0.773,0.227,1.781,0.18,2.68
			c3.746,0.273,31.295,11.444,32.586,13.204c0.116,0.312,0.27,0,0.188-0.057c-0.508-0.356-0.48-0.996-0.631-1.547
			c-0.019-1.052-0.127-2.128,0.976-3.119c0.564,0.912,0.451,1.666,0.231,2.435C169.596,346.841,169.73,348.1,169.865,349.36z"/>
		<path fill-rule="evenodd" clip-rule="evenodd" fill="#017BC1" d="M176.401,316.352c2.109-0.744,4.272-1.246,6.501-1.458
			c0.194,0.159,0.442,0.382,0.648,0.321c5.997-1.768,10.803,1.812,15.974,3.617c4.163,1.453,7.709,4.417,12.207,5.12
			c0.416,0.065,0.744,0.351,0.659,0.872c-2.17,0.321-4.34,0.643-6.51,0.964c-0.905-0.409-1.787,0.087-2.685,0.098
			c-2.191,0.027-4.185-0.209-6.151-1.46c-3.245-2.064-7.113-2.764-10.613-4.309c-1.063-0.469-2.163-0.85-3.188-1.412
			c-2.008-1.1-4.095-1.81-6.424-1.151C176.219,317.313,175.989,316.943,176.401,316.352z"/>
		<path fill-rule="evenodd" clip-rule="evenodd" fill="#0058A8" d="M169.461,345.582c-0.043-0.558-0.086-1.116-0.13-1.674
			c-0.144,0-0.287,0.001-0.431,0.001c0,0.98,0,1.96,0,2.939c-0.168,0.08-0.403,0.118-0.454,0.004
			c-1.718-3.874-5.447-4.49-8.92-5.483c-1.29-0.369-2.541-0.867-3.725-1.43c-4.44-2.107-9.2-3.394-13.659-5.446
			c-1.382-0.636-2.303-2.371-4.305-1.688c-0.497,0.169-1.146-0.593-0.929-1.432c1.088-0.803,2.215-1.539,3.506-1.982
			c2.512-0.287,4.715,0.795,6.921,1.685c6.25,2.522,12.451,5.166,18.774,7.505c1.153,0.426,2.401,0.829,3.015,2.057
			c0.292,0.585,2.239-0.59,1.286,1.238C170.095,343.112,169.778,344.347,169.461,345.582z"/>
		<path fill-rule="evenodd" clip-rule="evenodd" fill="#022A85" d="M126.826,367.038c0.749-0.773,1.107-1.581,2.384-0.124
			c1.146,1.307,2.822,2.964,5.104,1.966c0.641,0.678-0.59,0.986-0.094,1.678c1.201-0.604,2.081-0.781,3.681,0.099
			c2.092,1.151,4.633,1.965,7.107,2.622c2.601,0.69,5.149,1.872,7.19,3.696c1.32,1.178,2.533,1.961,4.367,1.616
			c3.13-0.589,5.239,1.754,7.729,2.943c0.354,0.169-0.86,0.03-0.862,0.773c1.373-0.037,2.701,0.259,4.005,0.76
			c-0.48,0.496-1.097,0.19-1.625,0.322c-4.128-0.276-7.954-1.812-11.899-2.851c-0.875-0.23-1.751-0.457-2.626-0.685
			c-1.57-0.141-3.005-0.807-4.521-1.157c-0.528-0.292-1.15-0.41-1.595-0.858c-5.287-2.272-10.602-4.496-15.208-8.05
			C128.861,368.938,127.652,368.204,126.826,367.038z"/>
		<path fill-rule="evenodd" clip-rule="evenodd" fill="#A5DF01" d="M220.075,289.297c-2.687,1.07-5.33,0.994-7.93-0.297
			c-0.369-0.183-0.873-0.568-1.12-0.451c-2.798,1.327-5.709-0.705-8.265,0.025c-5.682,1.623-11.511-0.042-17.126,1.338
			c-0.792,0.195-1.242-0.075-1.724-0.548c4.146-5.145,9.717-5.777,15.724-4.905C206.588,285.469,213.447,286.902,220.075,289.297z"
			/>
		<path fill-rule="evenodd" clip-rule="evenodd" fill="#008FD1" d="M213.908,310.417c0.745-0.034,1.491-0.069,2.237-0.104
			c1.386-0.393,2.804-0.114,4.203-0.199c1.953,0.028,3.757,0.863,5.422,1.61c7.05,3.163,14.415,5.549,21.404,8.841
			c0.501,0.236,1.265,0.376,1.172,1.085c-0.103,0.788-1.033,0.227-1.439,0.636c-0.508,0.011-1.016,0.023-1.524,0.035
			c-0.361-0.277-0.802-0.293-1.194-0.211c-5.313,1.117-9.88-1.351-14.7-2.851c-3.835-1.194-7.298-3.224-11.114-4.399
			c-0.482-0.149-1.052-0.303-1.285-0.722c-0.711-1.279-1.732-1.663-3.118-1.403c-0.407,0.076-0.952-0.094-1.039-0.508
			c-0.121-0.577,0.388-0.886,0.887-1.017c1.108-0.289,2.289,0.108,3.394-0.275c0.324-0.101-0.267-0.268-0.064-0.003
			c0.07,0.091-0.007,0.192-0.188,0.143C215.956,310.802,214.675,311.781,213.908,310.417z"/>
		<path fill-rule="evenodd" clip-rule="evenodd" fill="#0194D5" d="M246.907,322.288c0.332-0.216,0.664-0.433,1.045-0.681
			c-9.038-3.758-18.047-7.504-27.058-11.25c-0.175-0.1-0.232-0.199-0.175-0.299c0.058-0.1,0.116-0.149,0.175-0.149
			c4.323-0.439,8.655-0.655,13.001-0.492c0,0.147,0,0.294,0,0.442c-0.303,1.895,1.482,1.961,2.444,2.636
			c2.132,1.496,4.844,1.719,7.106,2.99c3.408,1.915,7.404,2.49,10.675,4.794c1.227,0.865,2.931,0.328,4.418,0.431
			c1.212,0.084,2.582-0.216,3.356,1.16C256.906,322.265,251.909,322.356,246.907,322.288z"/>
		<path fill-rule="evenodd" clip-rule="evenodd" fill="#0160AD" d="M143.908,327.429c2.318-1.046,4.534-2.332,7.007-3.019
			c0.658,2.125,2.652,2.255,4.288,2.571c2.732,0.527,5.197,1.502,7.635,2.84c2.757,1.512,5.694,2.701,8.737,3.62
			c1.418,0.428,3.111,0.651,3.814,2.345c-1.003,1-2.007,2-3.01,2.999c-7.023-1.448-13.237-5.065-19.918-7.431
			c-0.794-0.282-1.493-0.721-2.166-1.207c-1.255-0.908-2.579-1.346-4.187-1.173C144.342,329.164,144.245,328.984,143.908,327.429z"
			/>
		<path fill-rule="evenodd" clip-rule="evenodd" fill="#A6DF00" d="M164.989,284.161c1.7,1.155,3.185,2.535,4.386,4.21
			c-1.281,1.798-3.447,1.261-5.018,1.362c-6.92,0.446-13.884,0.904-20.794-0.306c-0.968-0.169-2.042-0.268-2.207-1.587
			c0.112-1.102,0.759-1.856,1.608-2.48c0.692-0.945,1.654-1.343,2.792-1.301c5.851,0.214,11.698,0.083,17.542-0.209
			C163.888,283.821,164.397,284.208,164.989,284.161z"/>
		<path fill-rule="evenodd" clip-rule="evenodd" fill="#8BCA00" d="M104.533,304.38c3.982,0.738,8.018,0.612,12.01,0.405
			c2.96-0.154,6.175,1.241,8.884-1.08c0.961,1.781,2.845,0.409,4.104,1.201c0.652,0.41,1.449,0.706,2.12,0.273
			c2.609-1.683,4.878-0.033,7.253,0.625c-0.978,1.422-2.774,1.182-4.051,2.003c-1.934,0.47-3.692,1.767-5.839,1.258
			c-0.605-0.307-1.233-0.513-1.922-0.415c-6.464,0.924-12.963,0.346-19.444,0.365c-1.746,0.005-3.941,0.538-5.109-1.636
			C103.204,306.38,103.868,305.38,104.533,304.38z"/>
		<path fill-rule="evenodd" clip-rule="evenodd" fill="#A0DC01" d="M141.356,287.84c1.708,1.242,3.768,1.409,5.713,1.467
			c5.224,0.156,10.459,0.148,15.684,0.008c2.214-0.059,4.415-0.615,6.622-0.944c0.989,1.006,1.978,2.012,2.966,3.019
			c-0.065,0.374-0.129,0.748-0.194,1.122c-2.007-1.474-3.787,0.434-5.731,0.396c-6.482-0.125-12.976,0.126-19.45-0.139
			c-2.354-0.096-5.188,0.605-6.998-1.894C140.241,289.776,140.656,288.743,141.356,287.84z"/>
		<path fill-rule="evenodd" clip-rule="evenodd" fill="#018BCD" d="M213.908,310.417c1.013,0.94,2.406,0.06,3.632,0.707
			c-1.429,0.573-3-0.257-4.254,0.952c0.872,0.526,1.541-0.407,2.292-0.219c0.468,0.117,1.373,0.216,1.37,0.241
			c-0.304,2.614,1.951,1.792,3.145,2.464c5.317,2.996,11.281,4.294,16.84,6.629c1.544,0.649,3.051,0.571,4.607,0.686
			c1.283,0.095,2.656-0.474,3.844,0.445c-3.825,0.306-7.649,0.634-11.493,0.524c-1.139-0.671-2.275,0.237-3.413,0.006
			c-1.817,0.188-3.363-0.332-4.886-1.401c-2.6-1.825-5.607-2.892-8.565-3.994c-2.736-1.019-5.726-1.805-7.863-3.684
			c-1.761-1.548-3.117-1.248-4.911-0.801c-1.402,0.349-2.934,0.612-3.843-1.066C204.867,311.046,209.377,310.634,213.908,310.417z"
			/>
		<path fill-rule="evenodd" clip-rule="evenodd" fill="#0065B0" d="M175.388,335.787c-4.095-2.104-8.79-2.856-12.68-5.331
			c-2.973-1.892-6.333-2.376-9.543-3.394c-1.464-0.464-2.485-0.923-2.251-2.652c1.07-0.729,2.291-1.09,3.513-1.45
			c0.621,0.512,2.011-1.251,2.151,0.698c0.01-0.002-0.043-0.004-0.016,0.033c0.242-0.229-0.066,0.103,0.21-0.117
			c1.802-0.097,3.492,0.017,4.579,1.771c0.26,0.42,0.769,0.72,1.258,0.759c3.716,0.297,6.673,3.017,10.411,3.236
			c0.686,0.04,1.28,0.387,1.745,0.89c1.105,1.194,2.376,2.07,4.029,2.319c0.415,0.062,0.799,0.27,0.621,0.833
			C178.126,334.274,176.904,335.276,175.388,335.787z"/>
		<path fill-rule="evenodd" clip-rule="evenodd" fill="#0087CB" d="M200.408,311.908c1.435,0.56,2.753,1.005,4.373,0.158
			c1.576-0.824,3.085,0.085,4.504,1.014c4.426,2.898,9.582,4.169,14.343,6.326c1.033,0.468,2.064,1.065,2.895,1.824
			c1.154,1.053,2.438,1.249,3.872,1.127c0.607,0.599,1.562-0.108,2.148,0.57c-1.857,0.517-3.757,0.437-5.653,0.409
			c-1.733-0.399-3.476,0.293-5.208-0.039c-0.708-0.268-0.958-1.462-2.101-0.94c-0.406,0.186-0.961-0.145-1.419-0.353
			c-5.144-2.337-10.563-4.058-15.581-6.629c-1.885-0.966-4.146-1.315-5.674-2.973C198.05,312.067,199.2,311.783,200.408,311.908z"/>
		<path fill-rule="evenodd" clip-rule="evenodd" fill="#02AEE9" d="M279.878,310.413c8.734,0.786,17.427,1.833,25.864,4.366
			c1.214,0.364,3.185,0.642,2.974,2.066c-0.255,1.718-2.325,1.707-3.845,1.961c-3.939,0.425-7.583-0.779-11.077-2.309
			c-2.565-1.124-5.334-0.777-7.902-1.601c-0.397-0.228,0.488-0.967-0.406-1.003c-0.644-0.032-1.247-0.223-1.863-0.363
			c-0.682-0.129-1.341-0.342-2.016-0.497c-0.835-0.143-1.63-0.455-2.479-0.54c-0.771-0.147-1.53-0.314-1.866-1.158
			C277.691,309.77,279.146,311.115,279.878,310.413z"/>
		<path fill-rule="evenodd" clip-rule="evenodd" fill="#02A6E2" d="M285.855,313.369c0.461,0.035,1.104,0.034,1.113,0.57
			c0.012,0.692-0.694,0.301-1.072,0.429c0.381,1.993,1.226,3.312,3.616,2.888c1.528-0.271,3.015,0.062,3.291,1.878
			c0.084,0.559,0.03,0.353,0.393,0.305c0.845-0.112,1.829-0.449,2.169,0.821c-2.154,0.29-4.298,0.696-6.489,0.545
			c-2.238-0.594-4.687-0.457-6.661-1.962c-3.709-2.83-8.403-3.506-12.461-5.635c-2.099-1.101-4.538-2.021-7.235-1.432
			c-2.257,0.493-4.165-2.013-6.61-1.318c1.211-0.058,2.422-0.115,3.634-0.172c0.62,0.04,1.239,0.08,1.859,0.121
			c1.181,0.521,2.484-0.083,3.67,0.396c0.443,0.033,0.886,0.067,1.329,0.101c1.003,0.514,2.146-0.066,3.155,0.402
			c2.188,0.593,4.45,0.401,6.673,0.625c0.842,0.109,1.701,0.024,2.535,0.218c0.813,0.208,1.627,0.412,2.466,0.492
			c0.669,0.203,1.313,0.503,2.032,0.507C284.115,313.343,284.931,313.986,285.855,313.369z"/>
		<path fill-rule="evenodd" clip-rule="evenodd" fill="#015BAA" d="M143.908,327.429c0.372,1.333,1.433,1.332,2.347,0.939
			c1.255-0.54,2.55-0.037,3.235,0.493c4.19,3.244,9.473,4.078,14.05,6.493c2.106,1.112,4.692,2.613,7.495,2.275
			c0.949-0.115,1.013,0.638,1.343,1.156c-0.655,1.031-1.311,2.061-1.966,3.092c-1.48-0.909-2.859-2.099-4.459-2.676
			c-6.278-2.263-12.38-4.952-18.58-7.4c-2.281-0.9-4.636-1.611-6.958-2.408C141.368,328.362,142.813,328.208,143.908,327.429z"/>
		<path fill-rule="evenodd" clip-rule="evenodd" fill="#94D300" d="M136.416,297.862c7.387,0.181,14.778-0.043,22.167,0.087
			c2.065,0.037,4.083,0.437,6.128,0.4c0.754-0.013,1.884,0.868,2.093-0.762c0.013-0.097,0.482-0.269,0.635-0.194
			c3.882,1.898,7.744-0.479,11.614-0.04c0.646,0.073,1.35-0.124,1.847,0.491c-0.358,0.458-0.874,0.562-1.405,0.632
			c-0.893,0.051-1.796,0.028-2.66,0.336c-0.633,0.147-1.275,0.202-1.923,0.216c-1.019,0.002-2.046-0.081-3.022,0.329
			c-1.483,0.581-3.093,0.563-4.61,0.99c-2.797,0.417-5.581,0.915-8.361,1.437c-0.575,0.05-1.123,0.015-1.519-0.488
			c-1.608-0.998-3.126-0.141-4.653,0.255c-0.82,0.212-0.783,0.263-1.106-0.706c-0.208-0.625-0.793-0.476-1.257-0.478
			c-5.361-0.024-10.723-0.035-16.083-0.049C135.005,299.5,135.71,298.681,136.416,297.862z"/>
		<path fill-rule="evenodd" clip-rule="evenodd" fill="#0174BC" d="M176.401,316.352c0.01,0.413,0.097,0.789,0.501,1.005
			c5.915,2.211,11.551,5.048,17.247,7.745c1.181,0.559,2.353,0.701,3.604,0.755c0.81,0.035,1.91-0.405,2.141,0.97
			c-2.168,0.494-4.336,0.989-6.504,1.484c-1.309-0.082-2.534-0.371-3.761-0.919c-5.145-2.299-10.854-3.147-15.731-6.188
			c-1.392-0.868-3.208-0.866-4.672-1.701c-0.423-0.242-0.913-0.461-0.813-1.101C171.013,317.479,173.66,316.732,176.401,316.352z"/>
		<path fill-rule="evenodd" clip-rule="evenodd" fill="#0180C6" d="M212.39,324.823c-1.696-0.496-3.395-0.983-5.088-1.489
			c-0.787-0.235-1.721-0.312-2.321-0.793c-3.815-3.063-8.478-4.119-12.896-5.832c-2.839-1.1-5.426-2.184-8.453-1.058
			c-0.529,0.197-0.64-0.351-0.729-0.758c3.57-0.299,6.899-1.879,10.507-1.975c5.338,3.333,11.646,4.484,17.082,7.594
			c1.057,0.605,2.239,0.502,3.363,0.724c1.089,0.215,2.017,0.706,2.799,1.489c0.175,0.17,0.317,0.367,0.438,0.579
			c0.12,0.367,0.097,0.709-0.194,0.998C215.408,324.593,213.927,324.95,212.39,324.823z"/>
		<path fill-rule="evenodd" clip-rule="evenodd" fill="#0170BA" d="M168.411,318.403c5.484,1.936,10.538,4.915,16.195,6.478
			c3.014,0.833,5.861,2.268,8.783,3.431c-2.667,0.826-5.334,1.651-8.002,2.477c-0.286-0.17-0.047,0.178-0.227-0.079
			c-2.478-3.537-6.804-3.578-10.198-5.372c-3.018-1.595-6.646-2.021-9.037-4.83c-0.372-0.437-0.679,0.298-1.085,0.368
			c-1.022,0.177-1.015,0.22-1.436-0.969C164.996,319.151,166.683,318.709,168.411,318.403z"/>
		<path fill-rule="evenodd" clip-rule="evenodd" fill="#86C601" d="M102.54,307.38c1.504,0.998,3.253,0.921,4.915,0.946
			c5.475,0.083,10.952,0.051,16.427,0.011c0.893-0.007,1.779-0.325,2.676-0.411c1.056-0.102,2.199-0.352,2.849,0.895
			c-1.63,1.672-3.888,2.104-5.913,2.998c-1.184,0.436-2.321,1.067-3.654,0.879c-1.208-0.604-2.39-0.571-3.762-0.387
			c-3.424,0.459-6.911,0.362-10.35,0.055c-1.239-0.111-2.45-0.143-3.645,0.012c-1.292,0.167-1.607-0.418-1.577-1.501
			C101.184,309.711,101.861,308.545,102.54,307.38z"/>
		<path fill-rule="evenodd" clip-rule="evenodd" fill="#006CB6" d="M163.404,319.908c0.11,0.203,0.22,0.406,0.33,0.609
			c2.019-1.242,3.137,0.614,4.635,1.291c4.67,2.108,9.271,4.512,14.291,5.591c2.254,0.485,1.526,2.533,2.727,3.389
			c-0.497,0.181-0.994,0.36-1.491,0.541c-2.414,0.492-4.547-0.584-6.573-1.505c-5.511-2.505-11.264-4.352-16.894-6.528
			c-0.976-0.377-1.6-0.792-1.519-1.898C160.334,320.678,161.824,320.155,163.404,319.908z"/>
		<path fill-rule="evenodd" clip-rule="evenodd" fill="#0097D7" d="M261.895,321.869c-0.729-0.834-1.764-0.647-2.573-0.471
			c-3.867,0.841-6.775-1.44-9.997-2.805c-4.362-1.849-8.789-3.547-13.207-5.261c-1.075-0.417-1.765-1.345-2.848-1.822
			c-0.858-0.378-0.051-1.238,0.625-1.652c0.718,0.705,1.704,0.808,2.531,0.636c1.302-0.271,2.277,0.162,3.232,0.879
			c0.894,0.673,1.863,1.063,3.006,0.997c0.406-0.024,1.044-0.074,1.195,0.147c2.565,3.759,7.625,2.967,10.645,5.87
			c0.224,0.215,0.622,0.417,0.903,0.376c4.421-0.642,7.574,3.658,11.972,3.054C265.551,321.834,263.723,321.852,261.895,321.869z"/>
		<path fill-rule="evenodd" clip-rule="evenodd" fill="#ABE401" d="M164.989,284.161c-5.479,0.895-11.002,0.732-16.518,0.624
			c-1.871-0.037-3.733-0.213-5.507,0.576c-0.259-1.357,0.676-2.138,1.449-2.997c4.499-3.537,9.491-3.573,14.7-2.072
			C161.349,281.159,163.257,282.526,164.989,284.161z"/>
		<path fill-rule="evenodd" clip-rule="evenodd" fill="#0168B3" d="M158.911,321.397c0.539,1.708,2.318,1.243,3.46,1.837
			c3.702,1.925,7.898,2.668,11.656,4.57c2.36,1.194,4.961,1.906,7.349,3.051c0.872,0.418,1.866-0.536,2.521,0.474
			c-1.494,0.685-2.988,1.37-4.481,2.054c-1.998-0.37-3.702-1.108-5.112-2.754c-1.286-1.501-3.534-0.77-5.279-1.653
			c-2.19-1.108-4.495-2.247-7.08-2.387c-0.367-0.02-0.919-0.309-1.041-0.611c-0.858-2.134-2.908-1.624-4.499-2.122
			c-0.125-1.476-1.637,0.107-1.977-0.896C155.879,322.317,157.321,321.645,158.911,321.397z"/>
		<path fill-rule="evenodd" clip-rule="evenodd" fill="#0178BE" d="M199.894,326.828c-0.198-0.14-0.408-0.416-0.593-0.4
			c-2.453,0.203-4.606-0.286-6.896-1.47c-4.886-2.524-10.042-4.524-15.071-6.773c-0.222-0.1-0.291-0.544-0.431-0.828
			c2.193-2.013,4.293-0.457,6.099,0.491c3.538,1.855,7.336,2.973,11.019,4.404c1.696,0.659,3.212,1.571,4.803,2.39
			c1.291,0.665,2.764,0.611,4.187,0.724c0.963,0.076,2.007-0.346,2.871,0.421C203.884,326.134,201.889,326.481,199.894,326.828z"/>
		<path fill-rule="evenodd" clip-rule="evenodd" fill="#97D401" d="M207.898,297.31c1.598-0.915,3.338-0.247,5-0.451
			c6.133-1.078,12.353-0.188,18.53-0.761c1.864-0.174,3.312-1.136,5.052-1.272c1.127,0.397,2.253,0.794,3.381,1.192
			c0.692,0.753,1.617,1.095,2.538,1.449c0.569,0.219,1.146,0.6,0.962,1.243c-0.173,0.608-0.9,0.767-1.464,0.659
			c-1.879-0.361-3.777-0.087-5.661-0.255c-1.726-0.154-3.461-0.229-5.161,0.276c-2.601,0.064-5.166-0.453-7.765-0.436
			c-2.929-0.672-5.939-0.057-8.878-0.562c-1.25-0.495-2.558-0.221-3.839-0.295C209.637,298.042,208.625,298.154,207.898,297.31z"/>
		<path fill-rule="evenodd" clip-rule="evenodd" fill="#FCEC02" d="M270.055,309.807c-7.357-1.188-14.738-2.194-22.15-2.975
			c-0.484-0.388,1.187-0.986-0.138-1.314c-0.741-0.183-0.831-0.935-1.163-1.479c-0.231-0.38-0.983-0.579-0.577-1.159
			c0.4-0.571,1-0.378,1.551-0.081c0.25,0.135,0.518,0.478,0.798,0.181c-0.725-0.194-1.557-0.29-0.714-1.376
			c3.34-0.199,6.2,1.547,9.308,2.289c1.645,0.721,3.271,1.494,5.031,1.915c2.458,1.568,5.113,2.698,7.882,3.577
			C270.057,309.478,270.114,309.619,270.055,309.807z"/>
		<path fill-rule="evenodd" clip-rule="evenodd" fill="#82C301" d="M100.506,310.877c0.564,0.028,0.045,0.983,1.22,0.921
			c4.408-0.231,8.84,0.004,13.264,0.053c0.491,0.005,1.156,0.123,1.447-0.138c1.556-1.397,2.486-0.235,3.496,0.726
			c-0.462,1.579-1.766,1.714-3.093,1.812c-2.161-0.017-4.106,1-6.23,1.302c-2.474,0.353-4.926,0.331-7.387,0.503
			c-1.783,0.125-3.115-1.193-4.81-1.199C98.891,313.414,99.589,312.088,100.506,310.877z"/>
		<path fill-rule="evenodd" clip-rule="evenodd" fill="#95D302" d="M124.518,300.306c-2.4,0.828-4.876,0.039-7.32,0.189
			c-2.876,0.177-5.902,0.101-8.84-0.28c-0.133-0.017-0.243-0.208-0.364-0.317c1.027-1.642,2.519-2.82,4.075-3.889
			c2.748-1.888,4.762-1.705,7.362,0.408C121.086,297.763,122.819,299.013,124.518,300.306z"/>
		<path fill-rule="evenodd" clip-rule="evenodd" fill="#02AAE5" d="M295.365,320.259c-1.201-0.871-2.594-0.094-3.893-0.521
			c-0.026-0.696,0.824-0.156,0.989-0.595c-1.052,0.213-0.456-1.35-1.47-1.308c-1.874,0.077-3.753,0.022-5.5,0.022
			c-0.635-0.91,2.129-1.12,0.167-2.144c-0.307-0.16-1.126-1.122,0.238-1.346c0.403,0.557,1.034,0.604,1.571,0.466
			c3.134-0.802,5.577,1.392,8.351,1.821c2.631,0.407,4.905,2.276,7.708,1.721c0.483-0.095,0.997-0.023,1.346,0.43
			C301.766,319.706,298.582,320.095,295.365,320.259z"/>
		<path fill-rule="evenodd" clip-rule="evenodd" fill="#94D104" d="M256.891,304.387c-3.165-0.838-6.33-1.676-9.494-2.515
			c-4.082,0.028-7.977-1.092-11.917-1.934c-0.838-0.447-1.761-0.405-2.669-0.456c-0.544-0.064-1.063-0.182-1.413-0.659
			c3.121-1.018,6.29-0.159,9.434-0.198c0.701-0.008,1.411,0.391,2.192,0.02c-0.572-1.484-2.979-0.747-3.162-2.629
			c5.497,1.954,10.868,4.199,16.039,6.909C256.394,303.302,257.197,303.468,256.891,304.387z"/>
		<path fill-rule="evenodd" clip-rule="evenodd" fill="#7EBF01" d="M98.413,314.856c2.484-0.451,4.799,0.907,7.332,0.555
			c3.243-0.451,6.559-0.393,9.594-1.899c0.547-0.271,1.139-0.234,1.57,0.322c-1.225,1.993-3.613,2.15-5.32,3.384
			c-1.369,0.649-2.5,1.832-4.148,1.865c-1.958-1.064-4.02-0.066-6.025-0.287c-0.963-0.106-2.481,0.941-2.142-1.37
			c0.074-0.506-1.298-0.659-1.349-1.566C98.087,315.526,98.25,315.191,98.413,314.856z"/>
		<path fill-rule="evenodd" clip-rule="evenodd" fill="#7ABC02" d="M97.925,315.86c0.767,0.592,1.558,1.119,2.586,0.776
			c0.151,0.985-1.123,0.918-0.831,1.963c1.994-1.359,4.339,0.349,6.44-0.837c0.18-0.102,0.846,0.658,1.287,1.017
			c-0.552,1.541-1.752,2.182-3.28,2.368c-1.614-0.203-3.426,1.863-4.892-0.432c-0.137-0.214-0.214,0.275-0.34,0.418
			c-0.523,0.597-1.143,1.012-1.94,0.782c-1.035-0.298-0.864-1.256-0.966-2.044C96.475,318.458,97.005,317.065,97.925,315.86z"/>
		<path fill-rule="evenodd" clip-rule="evenodd" fill="#040367" d="M271.394,340.392c-0.022,2.1-1.445,3.489-3.186,3.437
			c-1.681-0.05-3.181-1.614-3.023-3.298c0.171-1.812,1.203-2.921,3.08-2.909C270.241,337.635,271.281,338.747,271.394,340.392z"/>
		<path fill-rule="evenodd" clip-rule="evenodd" fill="#75B802" d="M95.989,319.872c0.635,0.41,0.255,1.684,1.233,1.676
			c1.012-0.008,1.581-0.779,1.866-1.833c0.9,1.883,2.189,1.953,3.723,0.988c0.395-0.249,0.873-1.182,1.099,0.121
			c-0.016,0.369-0.184,0.67-0.415,0.944c-1.513,1.206-2.699,2.845-4.62,3.514c-0.167-0.009-0.334-0.019-0.5-0.027
			c-1.544,0.577-3.125,1.579-4.44-0.398C94.398,323.105,95.057,321.432,95.989,319.872z"/>
		<path fill-rule="evenodd" clip-rule="evenodd" fill="#B0E805" d="M159.112,280.292c-2.125,0.5-4.212-0.212-6.312-0.305
			c-2.807-0.123-5.014,0.79-7.039,2.518c-0.519,0.442-0.907-0.022-1.348-0.141C147.895,277.199,152.939,276.489,159.112,280.292z"/>
		<path fill-rule="evenodd" clip-rule="evenodd" fill="#6FB305" d="M93.934,324.857c1.411,0.91,2.942,0.466,4.44,0.398
			c-1.543,2.13-3.777,3.694-4.997,6.09c-0.644,1.053-1.287,2.105-1.93,3.158c-0.407-0.557-0.344-1.134-0.077-1.721
			C91.847,330.019,92.699,327.376,93.934,324.857z"/>
		<path fill-rule="evenodd" clip-rule="evenodd" fill="#0180C6" d="M221.396,322.857c1.823,0.25,3.738-0.549,5.493,0.478
			c-2.26,0.444-4.541,0.638-6.844,0.567c-1.119,0.216-2.271,0.631-3.148-0.546c0.083-1.162,0.937-0.842,1.623-0.843
			C219.492,322.512,220.407,322.998,221.396,322.857z"/>
		<path fill-rule="evenodd" clip-rule="evenodd" fill="#95CF0D" d="M256.891,304.387c-0.331-0.487-0.661-0.975-0.991-1.461
			c2.227,0.552,4.201,1.64,6.101,2.882C260.107,306.02,258.514,305.147,256.891,304.387z"/>
		<path fill-rule="evenodd" clip-rule="evenodd" fill="#02AEE9" d="M275.715,310.922c-1.271-0.229-2.543-0.457-3.814-0.686
			c0.44-1.178,1.29-0.517,2.008-0.447c1.536,0.104,3.107-0.104,4.583,0.522C277.593,310.634,276.77,311.302,275.715,310.922z"/>
		<path fill-rule="evenodd" clip-rule="evenodd" fill="#EC9353" d="M146.872,378.352c1.541,0.297,3.014,0.797,4.416,1.501
			c-1.808,0.401-3.416-0.348-5.062-0.874C146.273,378.598,146.632,378.537,146.872,378.352z"/>
		<path fill-rule="evenodd" clip-rule="evenodd" fill="#02A6E2" d="M275.715,310.922c0.926-0.204,1.851-0.407,2.777-0.61
			c0.462,0.034,0.924,0.067,1.386,0.101c-0.625,0.867-1.868,0.02-2.49,0.897c-0.136,0.183-0.306,0.225-0.511,0.126
			C276.49,311.264,276.103,311.093,275.715,310.922z"/>
		<path fill-rule="evenodd" clip-rule="evenodd" fill="#3BB8C8" d="M273.909,309.79c-0.653,0.22-1.434-0.132-2.007,0.447
			c-0.616-0.144-1.232-0.287-1.847-0.43c-0.046-0.146-0.104-0.286-0.172-0.423C271.24,309.366,272.615,309.182,273.909,309.79z"/>
		<path fill-rule="evenodd" clip-rule="evenodd" fill="#0180C6" d="M232.543,322.926c-0.719-0.179-1.58,0.179-2.148-0.57
			c1.161,0.192,2.44-0.454,3.495,0.49C233.441,322.873,232.992,322.9,232.543,322.926z"/>
		<path fill-rule="evenodd" clip-rule="evenodd" fill="#F38B46" d="M146.872,378.352c-0.216,0.209-0.431,0.418-0.647,0.627
			c-0.667-0.061-1.354-0.057-1.877-0.583c0.3-0.147,0.794-0.01,0.823-0.558C145.817,377.745,146.371,377.961,146.872,378.352z"/>
		<path fill-rule="evenodd" clip-rule="evenodd" fill="#0083C8" d="M216.897,323.356c0.971,0.633,2.08,0.467,3.148,0.546
			c-1.004,0.49-2.075,0.452-3.148,0.398C216.897,323.986,216.897,323.671,216.897,323.356z"/>
		<path fill-rule="evenodd" clip-rule="evenodd" fill="#8AB92E" d="M91.371,332.783c0.025,0.573,0.051,1.146,0.077,1.719
			c0.003,0.569-0.102,1.095-0.575,1.48C90.793,334.878,90.735,333.777,91.371,332.783z"/>
		<path fill-rule="evenodd" clip-rule="evenodd" fill="#00378F" d="M120.345,350.133c0.587,1.663,2.144,2.139,3.525,2.699
			c4.644,1.882,9.542,3.279,14.018,5.362c3.647,1.697,7.494,2.99,11.154,4.61c3.164,1.401,6.422,3.209,10.056,3.593
			c0.478,0.051,1.022,0.214,1.384,0.51c3.34,2.744,7.679,3.399,11.401,5.394c1.869,1.001,4.187,1.725,6.477,2.103
			c2.898,0.477,5.699,1.347,7.54,3.943c-0.42,2.956-0.737,2.866-3.593,1.543c-3.858-1.787-7.768-3.648-12.026-4.286
			c-2.75-0.412-4.615-2.455-7.12-3.287c-4.589-1.525-8.764-4.148-13.607-5.048c-2.859-0.531-5.053-2.654-7.859-3.487
			c-3.073-0.913-5.937-2.46-8.959-3.598c-3.671-1.381-7.833-1.745-10.936-4.559c-0.459-0.417-1.208-0.516-1.822-0.762
			C119.774,353.262,119.631,351.664,120.345,350.133z"/>
		<path fill-rule="evenodd" clip-rule="evenodd" fill="#FEAC01" d="M111.416,316.858c1.831-1.008,3.661-2.016,5.492-3.024
			c1.134-0.193,2.121-0.703,3.023-1.396c1.162-0.359,2.324-0.719,3.485-1.079c1.081-0.236,2.522-1.065,1.758,1.308
			c-0.472,1.466,0.358,2.809,1.1,3.917c1.174,1.757,1.808,3.809,3.199,5.441c0.671,0.787,0.373,1.893,0.479,2.86
			c-3.676,2.327-7.353,4.654-11.029,6.981c-1.394-0.57-2.114-1.529-2.263-3.106c-0.342-3.634-2.046-6.776-3.886-9.839
			c-0.173-0.131-0.326-0.286-0.465-0.451C112.093,317.892,111.591,317.465,111.416,316.858z"/>
		<path fill-rule="evenodd" clip-rule="evenodd" fill="#FEB200" d="M129.953,324.886c-0.143-0.083-0.389-0.144-0.413-0.254
			c-0.836-3.71-3.756-6.424-4.787-10.037c-0.241-0.844-1.331-1.641,0.043-2.551c0.394-0.261,0.23-0.507-1.38-0.684
			c1.997-0.846,3.993-1.692,5.99-2.539c1.819-0.494,3.639-0.987,5.458-1.481c1.613-0.325,2.273,0.814,2.506,1.986
			c0.523,2.631,1.875,4.878,3.044,7.205c1.045,2.082,1.018,2.429-1.034,3.511c-0.31,0.164-0.438,0.472-0.466,0.817
			C135.927,322.202,132.939,323.543,129.953,324.886z"/>
		<path fill-rule="evenodd" clip-rule="evenodd" fill="#FEA600" d="M112.41,318.357c0.833-0.078,1.562,0.182,1.733,1.037
			c0.686,3.437,3.562,6.177,3.084,10.004c-0.14,1.121,1.5,1.377,1.696,2.469c-3.402,2.97-6.653,6.077-9.029,9.976
			c-1.653-0.543-1.227-1.945-0.771-2.806c1.184-2.238,0.379-4.224-0.706-5.975c-0.952-1.536-1.643-3.091-1.904-4.812
			c-0.267-1.758-0.888-3.125-2.526-4.021c-1.202-0.658-1.576-1.68-0.579-2.879c0.167-0.175,0.334-0.351,0.501-0.526
			c1.465-0.169,2.348-1.335,3.498-2.043c1.336-0.641,2.672-1.282,4.009-1.922C111.949,317.224,113.018,317.235,112.41,318.357
			c-0.376,0.266-0.769,0.5-1.072,0.675C111.796,319.15,111.99,318.538,112.41,318.357z"/>
		<path fill-rule="evenodd" clip-rule="evenodd" fill="#FEA200" d="M103.409,321.351c-0.547,1.392,0.106,2.167,1.344,2.673
			c1.42,0.581,2.044,1.536,2.253,3.181c0.259,2.039,0.779,3.995,2.233,5.844c0.953,1.211,2.153,3.469,0.606,5.581
			c-0.68,0.927-0.81,2.156,0.05,3.214c-1.463,2.996-2.368,6.138-2.475,9.488c0,0.654,0,1.309,0,1.928
			c-0.602,0.178-0.786-0.329-0.737-0.458c0.903-2.371-1.034-4.59-0.354-6.924c0.4-1.374-1.059-1.635-1.469-2.557
			c-1.877-4.218-3.757-8.435-5.111-12.853c-0.349-1.14-1.156-1.643-2.412-2.295c1.679-0.133,2.868-0.64,3.187-1.851
			c0.379-1.441-1.537,0.051-1.648-1.039C100.182,323.736,101.802,322.551,103.409,321.351z"/>
		<path fill-rule="evenodd" clip-rule="evenodd" fill="#FECD00" d="M179.464,297.885c0.479-0.014,0.958-0.027,1.437-0.042
			c2.704,0.335,5.348-0.577,8.045-0.388c2.138-0.159,3.073,1.237,3.771,2.928c0.318,0.771,0.593,1.602,0.576,2.406
			c-0.05,2.35,0.933,3.892,3.184,4.605c-0.953,0.708-2.05,0.383-3.095,0.432c-1.854-0.256-3.67-0.149-5.425,0.558
			c-0.919,0.742-2.012,0.39-3.034,0.482c-2.06,0.771-3.35-0.017-3.883-2.046c-0.486-1.847-1.345-3.52-2.144-5.231
			c-0.443-0.948-1.04-1.921-0.38-3.028C178.751,298.224,179.127,298.083,179.464,297.885z"/>
		<path fill-rule="evenodd" clip-rule="evenodd" fill="#FEC800" d="M178.902,298.352c-0.045,0.7-0.196,1.303,0.164,2.087
			c0.979,2.134,2.255,4.151,2.685,6.535c0.309,1.709,1.605,2.112,3.172,1.893c-4.823,0.845-9.646,1.689-14.47,2.534
			c-0.963-1.294,0.485-0.945,0.885-1.321c0.168-0.159,0.625,0.263,0.514-0.167c-0.933-3.61-2.345-7.016-4.501-10.085
			c1.521-0.329,3.041-0.658,4.562-0.987c0.951-0.57,2.093,0.132,3.041-0.46c0.658-0.027,1.316-0.054,1.975-0.08
			C177.592,298.051,178.253,297.98,178.902,298.352z"/>
		<path fill-rule="evenodd" clip-rule="evenodd" fill="#FED301" d="M196.477,307.395c-2.542,0.225-3.679-0.591-3.711-3.483
			c-0.03-2.596-0.594-5.473-3.82-6.456c4.654-0.023,9.308-0.046,13.961-0.07c1.452,2.375,3.834,4.556,1.585,7.693
			c0.862-0.28-0.423,1.208,0.755,0.861c1.244-0.366,2.589-0.556,3.724,0.451C204.831,307.045,200.662,307.315,196.477,307.395z"/>
		<path fill-rule="evenodd" clip-rule="evenodd" fill="#FEB600" d="M138.914,320.859c-0.416-0.067-0.91-0.129-0.5-0.716
			c0.592-0.848,1.551-0.834,2.472-0.785c-0.067-0.869-1.722-0.325-1.094-1.148c0.524-0.687,0.302-0.703,0.046-1.356
			c-0.946-2.412-2.846-4.454-2.926-7.195c-0.04-1.383-1.26-1.641-2.048-2.318c1.145-1.043,2.714-0.97,4.041-1.536
			c0.975-0.165,1.949-0.329,2.924-0.494c3.141,0.745,4.029,1.644,4.307,4.403c0.185,1.834,0.88,3.333,2.485,4.392
			c0.985,0.65,1.854,1.476,0.847,2.796C145.95,318.221,142.432,319.54,138.914,320.859z"/>
		<path fill-rule="evenodd" clip-rule="evenodd" fill="#FEC300" d="M167.35,299.827c2.718,2.02,3.823,4.926,4.493,8.091
			c0.307,1.45,0.872,2.951-1.498,3.064c-0.02,0.001-0.06,0.154-0.042,0.223c0.019,0.073,0.096,0.131,0.148,0.195
			c-2.132,0.683-4.282,1.282-6.526,1.466c-0.869,0.365-1.636,0.499-1.772-0.786c-0.295-2.778-0.54-5.575-2.994-7.492
			c-0.13-0.102-0.288-0.372-0.272-0.38c1.779-0.993-0.662-1.925-0.039-2.888C161.606,300.389,164.455,299.977,167.35,299.827z"/>
		<path fill-rule="evenodd" clip-rule="evenodd" fill="#FEBF00" d="M158.849,301.321c-0.216,1.019,2.687,1.417,0.56,2.815
			c3.016,0.594,1.856,3.583,3.009,5.247c0.558,0.805,1.096,1.441,0.336,2.617c-0.597,0.923,0.624,0.742,1.172,0.867
			c-3.58,1.329-7.323,2.053-11.008,2.996c-0.878,0.334-1.456,0.153-0.717-0.761c0.758-0.939,2-0.993,3.186-0.976
			c0.259,0.165-0.012-0.479-0.02-0.146c-0.004,0.16-0.076,0.185-0.21,0.066c-1.787-1.575-2.683-3.691-3.517-5.837
			c-0.328-0.844-0.312-1.85-0.818-2.583c-0.835-1.21-0.126-1.956,0.562-2.776c2.006-0.518,4.013-1.035,6.019-1.553
			C157.884,301.305,158.366,301.312,158.849,301.321z"/>
		<path fill-rule="evenodd" clip-rule="evenodd" fill="#0053A4" d="M136.909,331.375c0.254,0.323,0.585,0.963,0.751,0.923
			c3.591-0.874,5.377,2.768,8.503,3.308c4.292,0.742,8.036,3.252,12.136,4.693c1.921,0.676,3.924,1.05,5.825,1.865
			c2.266,0.972,4.271,2.007,4.776,4.685c0,0.487,0,0.975,0,1.639c-1.904-2.303-4.677-2.546-6.96-3.506
			c-6.756-2.84-13.803-4.981-20.381-8.288c-1.706-0.858-3.432-1.745-5.457-1.159c-0.284,0.082-0.652,0.433-0.828-0.022
			c-0.134-0.348-0.237-0.81,0.13-1.155c0.712-0.671,1.227-1.386,0.528-2.371C136.257,331.783,136.583,331.579,136.909,331.375z"/>
		<path fill-rule="evenodd" clip-rule="evenodd" fill="#FEBA01" d="M151.382,302.85c0.248,0.012,0.518-0.036,0.738,0.048
			c0.632,0.241,0.261,0.412-0.08,0.473c-1.617,0.293-0.792,1.156-0.591,2.036c0.596,2.607,1.763,4.936,3.055,7.247
			c0.522,0.935,1.109,1.299,2.646,0.928c-1.742,1.37-3.607,0.837-4.798,1.966c-0.017,0.016,0.041,0.168,0.09,0.188
			c0.151,0.061,0.315,0.087,0.475,0.126c-1.057,0.654-2.243,0.883-3.45,1.04c-0.135-0.904-0.02-1.922-1.154-2.345
			c-1.781-0.664-2.776-2.357-2.604-3.844c0.376-3.241-1.905-4.108-3.88-5.402C144.892,304.019,148.106,303.319,151.382,302.85z"/>
		<path fill-rule="evenodd" clip-rule="evenodd" fill="#FDD800" d="M208.97,306.391c-1.245-0.011-2.494,0.037-3.73-0.069
			c-0.373-0.032-1.101,0.576-1.188-0.382c-0.046-0.512-0.625-1.007,0.478-1.435c0.759-0.294,0.453-1.65,0.148-2.512
			c-0.55-1.55-1.177-3.073-1.772-4.607c1.664-0.025,3.328-0.05,4.991-0.076c2.165,0.334,4.409-0.376,6.532,0.499
			c0.177,0.562-0.161,0.707-0.614,0.781c-0.17,0.028-0.345-0.08-0.507,0.031c2.647,0.268,0.009,1.878,0.691,2.804
			c0.656,0.891,1.091,2.038,1.393,3.151c0.376,1.389-0.885,0.818-1.419,1.097c0.754-0.043,1.517-0.135,2.25-0.419
			c1.49-0.02,3-0.339,4.432,0.348c0.091,0.105,0.182,0.212,0.272,0.319C216.968,306.755,212.953,306.167,208.97,306.391z"/>
		<path fill-rule="evenodd" clip-rule="evenodd" fill="#0083C8" d="M221.396,322.857c-1.348,1.539-3.113-0.688-4.5,0.499
			c-4.226-1.652-8.498-3.199-12.664-4.988c-3.71-1.594-7.963-2.157-10.824-5.45c1.152-0.269,2.286-0.658,3.498-0.516
			c4.292,1.021,7.908,3.667,12.01,5.073c4.063,1.393,7.75,3.843,12.112,4.358C222.066,321.956,220.783,322.703,221.396,322.857z"/>
		<path fill-rule="evenodd" clip-rule="evenodd" fill="#FDE701" d="M235.384,299.336c3.961,1.046,8.136,1.083,12.012,2.537
			c0.173,0.808,1.132,0.757,1.541,1.336c-0.908,0.458-1.604-0.366-2.597-0.133c1.114,0.301,0.888,1.573,1.942,2.076
			c1.658,0.791,0.081,1.18-0.377,1.681c-2.702,0.238-5.342-0.489-8.027-0.513c-2.995-0.617-6.058,0.177-9.054-0.432
			c-3.298,0.011-6.597,0.021-9.896,0.033c0,0-0.041-0.097-0.041-0.097c-0.133-0.317-0.055-0.567,0.233-0.752
			c2.391-0.901,4.872-0.208,7.297-0.409c2.886-0.011,5.781,0.185,8.98-0.114c-1.164-1.907-1.65-4.019-4.124-4.444
			c-0.407-0.07-0.645-0.509-0.226-0.948C233.833,299.161,234.632,298.941,235.384,299.336z"/>
		<path fill-rule="evenodd" clip-rule="evenodd" fill="#FEE201" d="M230.823,305.887c3.016,0.196,6.077-0.563,9.055,0.432
			C236.858,306.2,233.811,306.676,230.823,305.887z"/>
		<path fill-rule="evenodd" clip-rule="evenodd" fill="#FED301" d="M187.957,308.385c-0.208-0.108-0.793-0.338-0.437-0.42
			c1.924-0.443,3.889-1.224,5.862-0.137c-0.477,0.017-0.954,0.035-1.431,0.052c-0.78,0.522-1.755-0.084-2.535,0.437
			C188.93,308.339,188.443,308.362,187.957,308.385z"/>
		<path fill-rule="evenodd" clip-rule="evenodd" fill="#018BCD" d="M220.895,309.908c0.001,0.149,0.001,0.299,0,0.449
			c-1.583-0.015-3.165-0.029-4.748-0.043C217.692,309.759,219.295,309.861,220.895,309.908z"/>
		<path fill-rule="evenodd" clip-rule="evenodd" fill="#F3660A" d="M276.877,311.436c0.171-0.042,0.341-0.084,0.511-0.126
			c0.527,0.608,1.291,0.502,1.969,0.654c0.052,0.435-0.027,0.707-0.543,0.44c-0.881-0.051-1.792,0.059-2.585-0.474
			C276.445,311.765,276.661,311.6,276.877,311.436z"/>
		<path fill-rule="evenodd" clip-rule="evenodd" fill="#01A0DE" d="M265.071,310.802c-1.228-0.088-2.526,0.475-3.67-0.396
			C262.645,310.351,263.888,310.297,265.071,310.802z"/>
		<path fill-rule="evenodd" clip-rule="evenodd" fill="#01A0DE" d="M269.556,311.305c-1.06-0.072-2.192,0.431-3.155-0.402
			C267.478,310.841,268.548,310.827,269.556,311.305z"/>
		<path fill-rule="evenodd" clip-rule="evenodd" fill="#FECD00" d="M189.416,308.316c0.736-0.777,1.678-0.356,2.535-0.437
			C191.198,308.559,190.283,308.298,189.416,308.316z"/>
		<path fill-rule="evenodd" clip-rule="evenodd" fill="#FEFEFE" d="M248.501,369.904c-4.004-0.049-7.153-3.327-7.106-7.399
			c0.045-3.995,3.374-7.22,7.381-7.151c3.99,0.068,7.167,3.381,7.116,7.42C255.841,366.771,252.545,369.953,248.501,369.904z"/>
		<path fill-rule="evenodd" clip-rule="evenodd" fill="#FEFEFE" d="M371.221,369.908c-3.962,0.004-7.335-3.344-7.33-7.275
			c0.005-3.954,3.337-7.267,7.32-7.28c4.016-0.013,7.25,3.232,7.247,7.272C378.455,366.687,375.259,369.904,371.221,369.908z"/>
		<path fill-rule="evenodd" clip-rule="evenodd" fill="#FDFDFD" d="M427.513,360.352c-3.824,0-7.627-0.029-11.428,0.018
			c-1.154,0.014-1.504-0.337-1.084-1.442c0.846-2.228,4.381-4.335,6.87-4.064C424.729,355.175,427.041,357.37,427.513,360.352z"/>
		<path fill-rule="evenodd" clip-rule="evenodd" fill="#0168B3" d="M157.197,324.603c-0.36,0.104-0.573,0.242-0.706,0.187
			c-0.267-0.109-0.49-0.323-0.73-0.494c0.137-0.139,0.346-0.421,0.4-0.394C156.475,324.059,156.752,324.289,157.197,324.603z"/>
		<path fill-rule="evenodd" clip-rule="evenodd" fill="#D27226" d="M278.813,312.404c0.181-0.146,0.362-0.293,0.543-0.44
			c0.816,0.174,1.632,0.348,2.448,0.521c0.103,0.43,0.028,0.668-0.478,0.446C280.475,312.826,279.569,312.974,278.813,312.404z"/>
		<path fill-rule="evenodd" clip-rule="evenodd" fill="#8B8566" d="M281.327,312.931c0.159-0.149,0.318-0.297,0.478-0.446
			c0.671,0.149,1.342,0.298,2.014,0.446c0.145,0.454,0.034,0.664-0.473,0.498C282.65,313.356,281.903,313.488,281.327,312.931z"/>
		<path fill-rule="evenodd" clip-rule="evenodd" fill="#53939E" d="M283.346,313.429c0.157-0.166,0.315-0.332,0.473-0.498
			c0.679,0.146,1.358,0.292,2.037,0.438C285.038,314.213,284.195,313.953,283.346,313.429z"/>
		<path fill-rule="evenodd" clip-rule="evenodd" fill="#97D501" d="M174.952,298.379c-0.921,0.768-2.016,0.38-3.041,0.46
			C172.816,297.965,173.934,298.504,174.952,298.379z"/>
		<path fill-rule="evenodd" clip-rule="evenodd" fill="#97D501" d="M178.902,298.352c-0.659-0.018-1.317-0.035-1.975-0.053
			c0.745-0.751,1.681-0.339,2.536-0.414C179.276,298.041,179.089,298.196,178.902,298.352z"/>
		<path fill-rule="evenodd" clip-rule="evenodd" fill="#FEDC00" d="M228.894,305.357c-2.666,0.001-5.332,0.001-7.997,0.002
			c-1.612,0.678-3.377-0.199-4.989,0.489c-0.822,0-1.643,0-2.465,0c1.106-0.398,1.835-0.541,1.022-2.147
			c-0.607-1.199-2.741-2.709-0.466-4.379c-1.991-1.111,0.393-0.978,0.43-1.512c2.987,0.208,6.021-0.374,8.966,0.534
			c0.428,0.612,1.044,0.663,1.739,0.735c0.994,0.104,1.198,0.577,0.59,1.527c-1.009,1.578-0.459,2.796,1.363,3.543
			C227.759,304.424,228.895,304.062,228.894,305.357z"/>
		<path fill-rule="evenodd" clip-rule="evenodd" fill="#FEE201" d="M228.894,305.357c-1.205-0.993-3.469,0.031-4.058-2.14
			c-0.35-1.288-1.64-2.78,1.178-3.418c-1.264-0.305-2.891,0.584-2.619-1.456c2.691-0.239,5.33,0.401,8.001,0.481
			c0.48,0.02,0.96,0.039,1.441,0.059c0.192,0.064,0.267,0.149,0.226,0.255c-0.045,0.115-0.095,0.173-0.15,0.173
			c3.346,0.455,4.084,3.437,5.95,6.046C235.276,305.357,232.085,305.357,228.894,305.357z"/>
		<path fill-rule="evenodd" clip-rule="evenodd" fill="#FDE701" d="M250.406,305.986c1.157,0,2.313,0,3.47,0
			c0,0.082,0.001,0.163,0.001,0.244c-1.156,0-2.313,0-3.47,0C250.407,306.149,250.407,306.068,250.406,305.986z"/>
		<path fill-rule="evenodd" clip-rule="evenodd" fill="#97D401" d="M232.913,299.312c-0.013-0.145-0.038-0.288-0.075-0.429
			c0.861,0.083,1.813-0.351,2.546,0.454C234.561,299.328,233.737,299.32,232.913,299.312z"/>
		<path fill-rule="evenodd" clip-rule="evenodd" fill="#FEAC01" d="M112.41,318.357c-0.48,2.473-1.669,0.77-2.638,0.382
			C110.651,318.612,111.531,318.484,112.41,318.357L112.41,318.357z"/>
		<path fill-rule="evenodd" clip-rule="evenodd" fill="#FEE201" d="M215.908,305.848c1.582-0.999,3.332-0.268,4.989-0.489
			c0,0.155-0.004,0.31-0.01,0.464C219.227,305.832,217.568,305.84,215.908,305.848z"/>
	</g>
</g>
</svg>
