<?xml version="1.0" encoding="utf-8"?>
<!-- Generator: Adobe Illustrator 16.0.0, SVG Export Plug-In . SVG Version: 6.00 Build 0)  -->
<!DOCTYPE svg PUBLIC "-//W3C//DTD SVG 1.1//EN" "http://www.w3.org/Graphics/SVG/1.1/DTD/svg11.dtd">
<svg version="1.1" id="Layer_1" xmlns="http://www.w3.org/2000/svg" xmlns:xlink="http://www.w3.org/1999/xlink" x="0px" y="0px"
	 width="232px" height="259px" viewBox="0 0 232 259" enable-background="new 0 0 232 259" xml:space="preserve">
<path d="M78.938,111.573c-11.141-12.547-21.665-24.397-23.102-39.1c-0.264-2.669-2.646-4.622-5.273-4.354
	c-2.652,0.262-4.589,2.641-4.329,5.307c1.751,17.856,13.293,30.854,25.515,44.612l0.359,0.406
	c5.605,6.312,9.505,18.483,10.435,32.545c0.169,2.569,2.288,4.535,4.806,4.535c0.109,0,0.217-0.008,0.326-0.013
	c2.655-0.181,4.667-2.494,4.49-5.164c-1.085-16.394-5.775-30.378-12.867-38.37L78.938,111.573z"/>
<path d="M203.648,28.783c-0.473-1.542-1.681-2.741-3.208-3.206c-1.531-0.472-3.199-0.137-4.44,0.883l-19.218,15.759l-20.983-5.612
	c-2.469-0.662-5.028,0.733-5.821,3.182l-12.415,38.215L118.34,50.508c-0.991-1.428-2.658-2.197-4.411-2.039l-23.205,2.283
	L73.323,21.607c-0.729-1.225-1.958-2.063-3.359-2.29c-1.399-0.229-2.828,0.171-3.909,1.104L46.488,37.27l-8.712-23.384
	c-0.671-1.799-2.332-3.031-4.242-3.141c-1.908-0.137-3.694,0.922-4.568,2.636C21.935,27.226,18.37,42.145,18.37,57.721
	c0,17.909,8.566,40.333,16.625,52.336c5.832,8.691,10.613,15.216,14.457,20.456c9.514,12.979,13.075,17.841,14.485,30.307
	c1.949,17.252,8.682,25.681,13.653,29.63c-3.191,3.018-5.22,7.263-5.22,12.008v7.703c0,0.29,0.068,0.564,0.084,0.846
	c-0.047,0.269-0.081,0.543-0.081,0.826v6.089c0,0.013-0.004,0.021-0.004,0.034v7.708c0,0.01,0.004,0.019,0.004,0.033v1.664
	c0,0.723,0.17,1.409,0.457,2.032c1.689,7.3,8.172,12.769,15.932,12.769H89.1c1.795,3.43,5.732,7.278,8.412,7.278h36.712
	c2.677,0,6.616-3.849,8.412-7.278h0.336c7.756,0,14.234-5.463,15.932-12.756c0.291-0.623,0.461-1.312,0.461-2.045v-1.697v-7.708
	v-6.123c0-0.289-0.036-0.57-0.085-0.839c0.019-0.286,0.085-0.55,0.085-0.836v-7.703c0-5.639-2.835-10.62-7.138-13.598
	c4.724-4.478,10.183-12.817,11.769-28.088c1.343-12.898,4.739-17.633,14.837-31.684c3.56-4.945,7.987-11.109,13.306-19.034
	c9.023-13.44,15.832-35.94,15.832-52.337C207.984,47.857,206.522,38.124,203.648,28.783z M149.734,202.962
	c-2.062-0.947-4.336-1.503-6.75-1.503H88.771c-2.409,0-4.685,0.556-6.75,1.503v-0.501c0-3.747,3.029-6.793,6.75-6.793h54.214
	c3.723,0,6.75,3.046,6.75,6.793V202.962z M148.499,214.061c-1.221,1.748-3.231,2.902-5.509,2.902H88.774
	c-2.279,0-4.291-1.154-5.511-2.902c1.224-1.749,3.232-2.896,5.511-2.896h54.216C145.268,211.164,147.278,212.312,148.499,214.061z
	 M142.984,232.459H88.771c-3.709,0-6.729-3.033-6.747-6.763v-0.533c2.062,0.942,4.334,1.504,6.747,1.504h54.214
	c2.41,0,4.688-0.562,6.75-1.507v0.506C149.734,229.411,146.707,232.459,142.984,232.459z M184.163,104.626
	c-5.233,7.797-9.612,13.884-13.124,18.779c-10.31,14.34-15.017,20.883-16.62,36.362c-1.91,18.395-9.858,23.395-12.005,24.425H85.529
	c-1.997-0.979-9.911-5.987-12.001-24.469c-1.705-15.046-6.582-21.704-16.311-34.973c-3.791-5.168-8.501-11.603-14.228-20.125
	C35.634,93.664,28.021,73.12,28.021,57.721c0-10.073,1.654-19.838,4.933-29.16l6.931,18.605c0.553,1.481,1.789,2.6,3.31,2.994
	c1.525,0.391,3.143,0.017,4.34-1.012l20.461-17.626l16.032,26.854c0.958,1.602,2.738,2.502,4.602,2.33l23.444-2.303l23.142,33.107
	c1.05,1.5,2.869,2.291,4.652,2.005c1.807-0.271,3.302-1.546,3.868-3.29l13.985-43.063l18.954,5.071
	c1.502,0.403,3.094,0.057,4.285-0.927l15.338-12.575c1.358,6.206,2.044,12.565,2.044,18.988
	C198.342,72.183,192.114,92.782,184.163,104.626z"/>
</svg>
