<?xml version="1.0" encoding="utf-8"?>
<!-- Generator: Adobe Illustrator 16.0.0, SVG Export Plug-In . SVG Version: 6.00 Build 0)  -->
<!DOCTYPE svg PUBLIC "-//W3C//DTD SVG 1.1//EN" "http://www.w3.org/Graphics/SVG/1.1/DTD/svg11.dtd">
<svg version="1.1" id="Layer_1" xmlns="http://www.w3.org/2000/svg" xmlns:xlink="http://www.w3.org/1999/xlink" x="0px" y="0px"
	 width="254.988px" height="256px" viewBox="0 0 254.988 256" enable-background="new 0 0 254.988 256" xml:space="preserve">
<g>
	<path d="M50.686,61.44c16.942,0,30.72-13.778,30.72-30.72C81.406,13.778,67.628,0,50.686,0c-16.942,0-30.72,13.778-30.72,30.72
		C19.966,47.662,33.744,61.44,50.686,61.44z M50.686,10.24c11.294,0,20.48,9.185,20.48,20.48c0,11.294-9.186,20.48-20.48,20.48
		c-11.295,0-20.48-9.186-20.48-20.48C30.206,19.425,39.391,10.24,50.686,10.24z"/>
	<path d="M204.286,61.44c16.942,0,30.72-13.778,30.72-30.72c0-16.942-13.777-30.72-30.72-30.72s-30.72,13.778-30.72,30.72
		C173.566,47.662,187.343,61.44,204.286,61.44z M204.286,10.24c11.295,0,20.479,9.185,20.479,20.48
		c0,11.294-9.185,20.48-20.479,20.48c-11.294,0-20.479-9.186-20.479-20.48C183.806,19.425,192.992,10.24,204.286,10.24z"/>
	<path d="M236.88,79.094c-2.407-4.157-6.37-7.649-10.871-9.574c-0.517-0.226-1.059-0.292-1.592-0.333
		c-5.273-1.905-15.626-2.872-30.914-2.872c-1.562,0-7.071,0.368-12.109,1.597c-0.076,0.016-0.148-0.005-0.225,0.016
		c-0.144,0.036-0.282,0.097-0.42,0.138c-2.483,0.65-4.741,1.536-6.344,2.703c-4.199,2.417-7.501,5.714-8.658,8.976
		c-2.365,4.864-11.74,24.264-14.197,31.662c-2.908,2.196-12.263,8.115-16.983,11.105c-4.429,2.801-6.267,3.973-7.071,4.557
		c-0.804-0.584-2.642-1.756-7.05-4.547c-4.731-2.99-14.09-8.919-17.003-11.115c-2.458-7.388-11.833-26.798-14.198-31.662
		c-1.157-3.267-4.465-6.564-8.663-8.98c-1.598-1.163-3.85-2.048-6.323-2.693c-0.148-0.041-0.287-0.103-0.435-0.143
		c-0.082-0.021-0.159,0-0.236-0.016c-5.038-1.229-10.542-1.597-12.104-1.597c-15.293,0-25.641,0.962-30.915,2.872
		c-0.538,0.046-1.075,0.113-1.598,0.333c-4.495,1.925-8.458,5.417-10.864,9.569c-1.797,3.092-17.551,30.469-18.094,39.583
		c-0.215,3.789,2.181,8.238,6.805,16.424c3.379,6.021,8.028,14.255,8.028,17.967c0,12.836,6.518,15.801,12.211,15.964
		c-1.382,34.095-4.219,54.702-5.473,63.831c-0.256,1.854-0.446,3.256-0.558,4.225c-0.62,5.605,0.742,10.588,3.834,14.044
		c2.76,3.087,6.621,4.716,11.167,4.716c5.483,0,10.649-3.457,13.44-8.315c0.583,1.552,1.393,2.938,2.417,4.111
		c1.73,1.991,4.92,4.362,10.276,4.362c12.053,0,14.51-9.882,15.785-15.043c4.864-29.818,7.327-74.296,8.197-108.282
		c8.289,6.65,25.692,15.749,25.912,15.856c4.091,2.002,7.798,3,11.11,3c1.541,0,2.97-0.291,4.336-0.727
		c1.377,0.439,2.806,0.737,4.347,0.737c3.287,0,6.958-0.999,11.079-3.017c0.211-0.107,17.613-9.189,25.902-15.841
		c0.876,34.002,3.354,78.546,8.279,108.688c1.188,4.746,3.65,14.628,15.703,14.628c5.355,0,8.545-2.371,10.275-4.362
		c1.024-1.173,1.838-2.565,2.428-4.116c2.79,4.859,7.956,8.314,13.439,8.314c4.547,0,8.407-1.628,11.167-4.715
		c3.093-3.451,4.449-8.438,3.829-14.039c-0.107-0.963-0.302-2.365-0.553-4.219c-1.254-9.129-4.086-29.737-5.473-63.842
		c5.693-0.164,12.211-3.129,12.211-15.965c0-3.711,4.644-11.944,8.038-17.961c4.618-8.191,7.02-12.641,6.8-16.435
		C254.431,109.537,238.671,82.176,236.88,79.094z M67.925,238.889c-1.546,6.195-2.534,6.871-5.765,6.871
		c-1.823,0-2.355-0.614-2.56-0.845c-0.865-0.993-1.218-3.138-0.896-5.463c3.303-23.987,4.383-48.845,3.215-73.887
		c-0.128-2.729-2.713-4.88-5.448-4.88c-2.652,0-4.869,2.027-5.099,4.67c-3.262,36.895-9.866,73.492-9.933,73.861
		c-0.041,0.23-0.066,0.461-0.077,0.691c-0.107,2.514-2.647,5.698-5.34,5.698c-1.592,0-2.749-0.425-3.533-1.306
		c-1.106-1.234-1.577-3.456-1.285-6.082c0.103-0.906,0.287-2.223,0.522-3.959c1.341-9.728,4.439-32.327,5.75-69.984
		c1.726-2.35,2.97-5.816,2.97-10.992c0-2.848-1.003-6.492-2.458-10.466c0.062-4.517,0.097-9.181,0.097-14.028
		c0.057-0.328,0.092-0.672,0.092-0.948v-23.439h-0.097c-0.005-1.654-0.712-3.282-2.197-4.265c-2.35-1.566-5.535-0.916-7.096,1.439
		l-2.585,3.886c-4.946,7.409-6.728,10.143-7.316,11.714c-0.062,0.164-0.118,0.333-0.159,0.507
		c-0.932,3.563,0.921,8.059,5.202,17.879c2.647,6.082,6.277,14.418,6.277,17.721c0,5.539-1.71,5.539-2.627,5.539
		c-1.28,0-2.493,0-2.493-5.76c0-6.4-4.762-14.832-9.365-22.988c-2.109-3.738-5.294-9.386-5.499-10.799
		c0.271-4.526,9.887-23.255,16.727-35.046c0.491-0.845,2.371-3.722,6.042-5.294c0.819-0.348,1.434-0.927,1.945-1.582l0.241,0.179
		c-0.645,0.86-1.347,1.162-1.362,1.167c1.848-0.768,12.667-2.14,27.648-2.14c3.272,0,7.132,0.65,9.866,1.326
		c0.86,0.241,1.618,0.563,2.366,0.891c0.886,3.323,2.59,11.735,2.59,27.167C76.286,138.721,74.038,201.287,67.925,238.889z
		 M91.257,123.873c-0.354-0.701-1.275-2.345-4.797-7.956c0.041-3.528,0.066-6.917,0.066-9.974c0-3.051-0.066-5.842-0.174-8.412
		c3.758,8.095,7.102,15.688,7.562,17.756c0.594,2.647,0.666,2.985,21.048,15.887c3.261,2.064,5.857,3.702,6.507,4.174
		c2.729,2.073,3.938,4.055,4.245,5.012c-1.065,0.968-3.2,1.879-9.149-1.023C112.709,137.441,93.438,126.397,91.257,123.873z
		 M163.971,123.458c-2.442,2.944-21.704,13.977-25.544,15.872c-0.875,0.426-1.674,0.758-2.438,1.045c-0.005-0.21,0.021-0.414,0-0.63
		c-0.158-1.628-0.803-3.292-1.679-4.94c1.162-0.764,3.246-2.074,5.724-3.646c20.367-12.892,20.439-13.23,21.023-15.877
		c0.461-2.063,3.804-9.651,7.562-17.746c-0.108,2.57-0.175,5.355-0.175,8.407c0,3.062,0.025,6.451,0.066,9.984
		C165.031,121.472,164.115,123.095,163.971,123.458z M239.25,130.063c-4.599,8.161-9.359,16.594-9.359,22.993
		c0,5.761-1.208,5.761-2.493,5.761c-0.917,0-2.627,0-2.627-5.55c0-3.303,3.635-11.633,6.287-17.721
		c4.28-9.82,6.134-14.311,5.207-17.874c-0.046-0.174-0.102-0.343-0.164-0.517c-0.588-1.562-2.359-4.275-7.27-11.638l-2.633-3.948
		c-1.561-2.355-4.73-3.01-7.101-1.438c-1.485,0.983-2.196,2.611-2.196,4.27h-0.103l0.01,23.747c0.011,0.174,0.041,0.399,0.082,0.625
		c0,4.854,0.036,9.518,0.098,14.039c-1.449,3.973-2.452,7.613-2.452,10.455c0,5.182,1.244,8.652,2.969,10.998
		c1.311,37.662,4.408,60.267,5.745,69.99c0.24,1.735,0.419,3.051,0.522,3.952c0.297,2.632-0.174,4.843-1.28,6.083
		c-0.784,0.875-1.94,1.3-3.532,1.3c-2.693,0-5.229-3.185-5.341-5.693c-0.011-0.235-0.036-0.466-0.082-0.696
		c-0.066-0.363-6.677-36.945-9.933-73.861c-0.236-2.646-2.78-4.669-5.438-4.669c-2.734,0-4.986,2.15-5.115,4.88
		c-1.167,25.051-0.082,49.909,3.221,73.887c0.317,2.329-0.031,4.475-0.9,5.467c-0.205,0.241-0.743,0.855-2.561,0.855
		c-3.23,0-4.219-0.676-5.673-6.456c-6.206-38.017-8.453-100.583-8.453-133.361c0-15.462,1.71-23.875,2.585-27.162
		c0.748-0.333,1.511-0.655,2.371-0.896c2.734-0.681,6.594-1.326,9.861-1.326c14.986,0,25.805,1.372,27.647,2.14
		c-0.01-0.005-0.717-0.308-1.356-1.167l0.235-0.179c0.513,0.655,1.132,1.229,1.946,1.577c3.67,1.577,5.549,4.455,6.046,5.305
		c6.835,11.771,16.456,30.5,16.728,34.785C244.544,120.688,241.36,126.331,239.25,130.063z"/>
</g>
</svg>
