<?xml version="1.0" encoding="utf-8"?>
<!-- Generator: Adobe Illustrator 16.0.0, SVG Export Plug-In . SVG Version: 6.00 Build 0)  -->
<!DOCTYPE svg PUBLIC "-//W3C//DTD SVG 1.1//EN" "http://www.w3.org/Graphics/SVG/1.1/DTD/svg11.dtd">
<svg version="1.1" id="Layer_1" xmlns="http://www.w3.org/2000/svg" xmlns:xlink="http://www.w3.org/1999/xlink" x="0px" y="0px"
	 width="256px" height="256px" viewBox="0 0 256 256" enable-background="new 0 0 256 256" xml:space="preserve">
<path d="M128,0C57.421,0,0,57.421,0,128s57.421,128,128,128s128-57.421,128-128S198.579,0,128,0z M128,245.76
	c-64.932,0-117.76-52.822-117.76-117.76C10.24,63.068,63.068,10.24,128,10.24c64.938,0,117.76,52.828,117.76,117.76
	C245.76,192.938,192.938,245.76,128,245.76z M197.684,52.925c2.068,1.92,2.191,5.161,0.271,7.235l-56.397,60.764
	c1.111,2.125,1.802,4.511,1.802,7.076c0,3.947-1.53,7.516-3.982,10.234l21.201,39.086c1.352,2.484,0.426,5.592-2.058,6.938
	c-0.773,0.419-1.608,0.619-2.438,0.619c-1.817,0-3.579-0.968-4.505-2.678l-21.203-39.081c-0.777,0.123-1.561,0.24-2.375,0.24
	c-8.484,0-15.36-6.875-15.36-15.359c0-8.484,6.876-15.36,15.36-15.36c2.166,0,4.225,0.46,6.093,1.27l56.351-60.713
	C192.369,51.113,195.6,51,197.684,52.925z"/>
</svg>
