<?xml version="1.0" encoding="utf-8"?>
<!-- Generator: Adobe Illustrator 16.0.0, SVG Export Plug-In . SVG Version: 6.00 Build 0)  -->
<!DOCTYPE svg PUBLIC "-//W3C//DTD SVG 1.1//EN" "http://www.w3.org/Graphics/SVG/1.1/DTD/svg11.dtd">
<svg version="1.1" id="Layer_1" xmlns="http://www.w3.org/2000/svg" xmlns:xlink="http://www.w3.org/1999/xlink" x="0px" y="0px"
	 width="235.52px" height="235.017px" viewBox="0 0 235.52 235.017" enable-background="new 0 0 235.52 235.017"
	 xml:space="preserve">
<path d="M49.884,62.096C47.36,56.92,46.08,51.344,46.08,45.518c0-21.176,17.224-38.4,38.4-38.4c21.176,0,38.4,17.224,38.4,38.4
	h-10.24c0-15.529-12.631-28.16-28.16-28.16c-15.529,0-28.16,12.631-28.16,28.16c0,4.254,0.932,8.32,2.77,12.088L49.884,62.096z
	 M235.52,125.369v24.98c0,7.408-6.031,13.435-13.439,13.435h-8.33c-2.054,0-2.565,0.604-3.702,2.995
	c-6.17,12.872-15.821,23.148-27.925,29.732c-0.855,0.461-1.045,0.793-1.049,0.799c0.143,0.245,0.225,0.357,0.322,0.624l2.642,6.989
	c1.321,3.445,1.208,7.225-0.312,10.619c-1.53,3.404-4.29,6.01-7.782,7.331l-16.455,6.236c-1.588,0.599-3.252,0.906-4.946,0.906
	c-5.765,0-10.993-3.609-13.021-8.991c-0.01-0.004-2.022-4.756-3.666-9.687c-0.092-0.256-0.168-0.466-0.235-0.624
	c-1.142,0-2.585,0.168-4.49,0.368c-4.07,0.435-10.22,1.096-19.287,1.096c-10.076,0-16.328-1.312-20.47-2.177
	c-1.055-0.225-2.063-0.435-2.785-0.537c-0.118,0.262-0.271,0.614-0.451,1.096c-1.787,4.767-3.983,10.496-3.983,10.496
	c-2.637,6.933-10.977,10.711-17.961,8.049l-16.46-6.227c-3.482-1.326-6.231-3.922-7.757-7.316
	c-1.531-3.399-1.639-7.178-0.317-10.654c0.087-0.221,2.969-7.133,4.536-11.961c0.435-1.346,0.41-1.367-1.024-2.467
	c-10.445-8.352-27.464-25.385-28.457-49.096c-0.369-8.854,0.466-17.158,2.243-24.894C12.523,113.685,0,105.611,0,90.097
	c0-9.539,5.156-17.925,13.138-21.371c2.591-1.122,5.606,0.071,6.728,2.667c1.122,2.596-0.077,5.611-2.667,6.728
	c-4.291,1.858-6.958,6.446-6.958,11.976c0,10.517,9.446,15.048,13.635,16.548c4.326-11.551,11.228-21.34,20.608-28.646
	c19.712-15.339,42.398-22.799,69.366-22.799c9.472,0,18.806,0.958,27.802,2.852c7.787-14.623,20.111-23.89,37.539-28.263
	c1.833-0.466,3.789,0.133,5.054,1.546c1.27,1.413,1.648,3.415,0.987,5.197c-5.186,14.003-7.633,22.19-7.93,32.097
	c26.828,11.07,33.233,34.801,34.667,43.044c0.317,0.107,0.886,0.236,1.771,0.236h8.33
	C229.488,111.909,235.52,117.945,235.52,125.369z M225.279,125.369c0-1.777-1.434-3.226-3.199-3.226h-8.33
	c-7.706,0-11.162-4.414-11.776-8.197c-1.312-8.279-7.005-28.411-31.493-36.961c-2.022-0.707-3.39-2.601-3.431-4.746
	c-0.185-10.803,1.762-19.461,5.033-29.281c-10.589,4.659-18.007,12.16-22.958,23.096c-1.014,2.243-3.477,3.456-5.878,2.857
	c-9.426-2.304-19.312-3.471-29.394-3.471c-24.602,0-45.235,6.748-63.078,20.639C35.712,97.808,27.96,117.3,28.954,140.954
	c0.824,19.661,15.534,34.263,24.228,41.222c2.022,1.561,7.414,5.719,4.762,13.932c-1.7,5.237-4.644,12.303-4.772,12.605
	c-0.292,0.758-0.256,1.761,0.144,2.656c0.41,0.906,1.137,1.593,2.048,1.941l16.466,6.226c1.936,0.742,4.065-0.297,4.762-2.13
	c0.005-0.021,2.186-5.703,3.963-10.445c0.886-2.345,2.949-7.793,9.329-7.793c1.679,0,3.405,0.364,5.591,0.82
	c3.727,0.777,9.359,1.961,18.37,1.961c8.524,0,14.116-0.6,18.202-1.035c2.359-0.256,4.157-0.43,5.575-0.43
	c6.472,0,8.647,3.835,9.933,7.588c1.525,4.566,3.451,9.108,3.472,9.154c0.783,2.079,2.944,3.026,4.823,2.314l16.461-6.236
	c0.926-0.348,1.658-1.039,2.062-1.945c0.4-0.896,0.431-1.885,0.088-2.791l-2.551-6.742c-0.572-1.188-1.612-3.988-0.69-7.307
	c0.558-2.012,2.058-4.859,6.006-7.004c10.347-5.627,18.272-14.085,23.572-25.139c1.137-2.402,4.183-8.828,12.938-8.828h8.33
	c1.767,0,3.2-1.434,3.2-3.194v-24.985H225.279z M176.537,112.251c-5.422,0-9.81,4.388-9.81,9.79c0,5.412,4.388,9.8,9.81,9.8
	c5.406,0,9.785-4.394,9.779-9.8C186.316,116.639,181.943,112.251,176.537,112.251z"/>
</svg>
