<?xml version="1.0" encoding="utf-8"?>
<!-- Generator: Adobe Illustrator 16.0.0, SVG Export Plug-In . SVG Version: 6.00 Build 0)  -->
<!DOCTYPE svg PUBLIC "-//W3C//DTD SVG 1.1//EN" "http://www.w3.org/Graphics/SVG/1.1/DTD/svg11.dtd">
<svg version="1.1" id="Layer_1" xmlns="http://www.w3.org/2000/svg" xmlns:xlink="http://www.w3.org/1999/xlink" x="0px" y="0px"
	 width="256px" height="225.281px" viewBox="0 0 256 225.281" enable-background="new 0 0 256 225.281" xml:space="preserve">
<g>
	<path d="M179.2,143.361V40.96c0-2.826-2.289-5.12-5.12-5.12H40.96c-2.826,0-5.12,2.293-5.12,5.12v102.401
		c0,2.83,2.294,5.119,5.12,5.119h133.12C176.911,148.48,179.2,146.191,179.2,143.361z M168.96,138.24H46.08V46.08h122.88V138.24z"/>
	<path d="M256,133.121c0-12.062-3.912-20.767-7.051-27.751c-1.914-4.265-3.568-7.951-3.568-10.936c0-4.009,2.848-9.493,5.355-14.326
		C253.439,74.89,256,69.96,256,65.418c0-13.486-10.649-24.458-23.736-24.458c-4.793,0-8.207,2.903-11.218,5.468
		c-3.364,2.862-6.538,5.561-12.053,5.561c-1.47,0-2.872-0.251-4.26-0.64c0.706-3.707,2.938-8.156,5.038-12.201
		C212.48,33.93,215.04,29,215.04,24.458C215.04,10.972,204.396,0,191.304,0c-4.787,0-8.208,2.903-11.213,5.463
		c-3.364,2.862-6.544,5.56-12.052,5.56c-5.192,0-8.68-2.36-12.719-5.089C151.193,3.154,146.529,0,140.104,0
		c-6.123,0-11.607,2.877-16.901,5.658c-5.264,2.765-10.235,5.371-15.683,5.371S97.101,8.422,91.843,5.658
		C86.543,2.877,81.065,0,74.937,0C68.167,0,62.336,3.497,57.19,6.584c-3.814,2.284-7.414,4.444-10.179,4.444
		c-2.985,0-6.569-2.565-10.04-5.048C32.86,3.042,28.61,0,23.736,0C10.649,0,0,10.978,0,24.463c0,4.583,2.616,9.708,5.381,15.14
		c2.452,4.812,5.237,10.266,5.237,13.875c0,2.55-1.459,5.709-3.307,9.708C4.229,69.868,0,79.022,0,92.16
		c0,12.984,3.988,21.56,7.199,28.457c1.915,4.111,3.42,7.357,3.42,10.23c0,4.009-2.847,9.492-5.355,14.325
		C2.56,150.39,0,155.316,0,159.857c0,13.486,10.649,24.463,23.736,24.463c4.767,0,8.182-2.861,11.192-5.386
		c3.369-2.827,6.554-5.494,12.078-5.494c1.551,0,2.929,0.257,4.239,0.62c-0.737,3.681-2.944,8.074-5.018,12.078
		c-2.708,5.212-5.269,10.143-5.269,14.684c0,13.48,10.649,24.459,23.736,24.459c4.767,0,8.182-2.863,11.192-5.387
		c3.369-2.826,6.554-5.494,12.078-5.494c5.202,0,8.699,2.33,12.744,5.023c4.111,2.749,8.776,5.857,15.186,5.857
		c6.113,0,11.586-2.837,16.875-5.576c5.264-2.729,10.24-5.305,15.709-5.305c5.468,0,10.439,2.576,15.703,5.305
		c5.299,2.739,10.767,5.576,16.88,5.576c6.753,0,12.58-3.446,17.721-6.488c3.819-2.258,7.424-4.393,10.209-4.393
		c3.001,0,6.595,2.535,10.065,4.992c4.107,2.893,8.346,5.889,13.205,5.889c13.087,0,23.736-10.979,23.736-24.464
		c0-4.583-2.616-9.708-5.381-15.135c-2.453-4.808-5.238-10.271-5.238-13.88c0-2.652,1.598-6.236,3.451-10.384
		C252.027,154.25,256,145.336,256,133.121z M28.35,171.085c-1.838,1.541-3.574,2.994-4.613,2.994
		c-7.439,0-13.496-6.379-13.496-14.223c0-2.038,2.186-6.252,4.116-9.964c3.046-5.878,6.507-12.534,6.507-19.046
		c0-5.141-2.13-9.708-4.377-14.551c-2.934-6.293-6.246-13.42-6.246-24.136c0-10.885,3.384-18.217,6.374-24.684
		c2.187-4.731,4.25-9.201,4.25-13.998c0-6.072-3.23-12.406-6.354-18.529c-1.905-3.728-4.27-8.366-4.27-10.486
		c0-7.844,6.057-14.223,13.496-14.223c1.592,0,4.741,2.253,7.275,4.065c4.562,3.267,9.728,6.963,16,6.963
		c5.602,0,10.609-3,15.447-5.903c4.388-2.637,8.54-5.125,12.478-5.125c3.604,0,7.757,2.176,12.149,4.485
		c5.837,3.067,12.457,6.543,20.434,6.543s14.597-3.477,20.439-6.543c4.398-2.309,8.545-4.485,12.145-4.485
		c3.293,0,6.021,1.843,9.477,4.178c4.512,3.052,10.128,6.846,18.453,6.846c9.277,0,14.715-4.624,18.684-7.998
		c1.832-1.557,3.562-3.026,4.587-3.026c7.439,0,13.496,6.379,13.496,14.218c0,2.043-2.187,6.256-4.116,9.974
		c-3.052,5.873-6.508,12.534-6.508,19.042c0,5.181,2.171,10.015,4.47,15.129c2.888,6.416,6.154,13.686,6.154,23.557
		c0,10.035-3.338,17.521-6.287,24.125c-2.325,5.222-4.337,9.723-4.337,14.556c0,6.072,3.23,12.411,6.354,18.535
		c1.905,3.722,4.271,8.361,4.271,10.48c0,7.844-6.057,14.223-13.496,14.223c-1.603,0-4.762-2.227-7.296-4.014
		c-4.557-3.221-9.723-6.865-15.975-6.865c-5.586,0-10.588,2.959-15.426,5.82c-4.398,2.602-8.551,5.059-12.504,5.059
		c-3.619,0-7.771-2.15-12.165-4.428c-5.837-3.026-12.452-6.451-20.418-6.451s-14.582,3.43-20.418,6.451
		c-4.398,2.277-8.55,4.428-12.165,4.428c-3.308,0-6.042-1.822-9.503-4.137c-4.505-3.005-10.117-6.742-18.422-6.742
		C37.755,163.201,32.317,167.762,28.35,171.085z M239.473,157.246c-2.324,5.223-4.337,9.723-4.337,14.557
		c0,6.072,3.231,12.41,6.354,18.533c1.904,3.723,4.27,8.361,4.27,10.481c0,7.844-6.057,14.224-13.496,14.224
		c-1.603,0-4.762-2.228-7.296-4.015c-4.562-3.22-9.724-6.866-15.975-6.866c-5.586,0-10.588,2.96-15.427,5.822
		c-4.398,2.601-8.551,5.059-12.503,5.059c-3.62,0-7.772-2.15-12.17-4.43c-5.837-3.025-12.452-6.451-20.413-6.451
		c-7.962,0-14.582,3.431-20.419,6.451c-4.398,2.279-8.55,4.43-12.165,4.43c-3.308,0-6.042-1.823-9.503-4.137
		c-4.505-3.006-10.117-6.744-18.422-6.744c-9.251,0-14.689,4.562-18.657,7.885c-1.843,1.541-3.579,2.996-4.618,2.996
		c-7.439,0-13.496-6.38-13.496-14.219c0-2.037,2.186-6.256,4.116-9.969c1.925-3.707,4.004-7.727,5.284-11.822
		c3.912,2.592,8.361,5.295,14.336,5.295c6.113,0,11.586-2.837,16.875-5.576c5.268-2.729,10.24-5.305,15.708-5.305
		s10.445,2.576,15.708,5.305c5.294,2.734,10.762,5.57,16.875,5.57c6.754,0,12.58-3.445,17.721-6.486
		c3.819-2.258,7.424-4.394,10.209-4.394c3,0,6.595,2.534,10.071,4.992c4.106,2.893,8.345,5.888,13.199,5.888
		c13.092,0,23.736-10.977,23.736-24.463c0-4.582-2.616-9.707-5.382-15.135c-2.451-4.808-5.237-10.271-5.237-13.881
		c0-2.652,1.598-6.23,3.451-10.383c3.194-7.163,7.168-16.082,7.168-28.298c0-12.068-3.911-20.767-7.05-27.755
		c-0.354-0.794-0.687-1.542-1.014-2.294c0.67,0.051,1.336,0.118,2.017,0.118c9.272,0,14.71-4.623,18.678-7.998
		c1.839-1.556,3.569-3.031,4.593-3.031c7.439,0,13.496,6.379,13.496,14.218c0,2.043-2.186,6.256-4.116,9.974
		c-3.052,5.873-6.508,12.534-6.508,19.042c0,5.181,2.171,10.015,4.47,15.134c2.889,6.41,6.154,13.681,6.154,23.553
		C245.76,143.156,242.422,150.64,239.473,157.246z"/>
</g>
</svg>
