<?xml version="1.0" encoding="utf-8"?>
<!-- Generator: Adobe Illustrator 16.0.0, SVG Export Plug-In . SVG Version: 6.00 Build 0)  -->
<!DOCTYPE svg PUBLIC "-//W3C//DTD SVG 1.1//EN" "http://www.w3.org/Graphics/SVG/1.1/DTD/svg11.dtd">
<svg version="1.1" id="Layer_1" xmlns="http://www.w3.org/2000/svg" xmlns:xlink="http://www.w3.org/1999/xlink" x="0px" y="0px"
	 width="277.603px" height="302.999px" viewBox="-2.763 -39.646 277.603 302.999"
	 enable-background="new -2.763 -39.646 277.603 302.999" xml:space="preserve">
<g>
	<path fill="#1E1B1C" d="M166.473,112.846h-62.849c-9.643,0-17.486,7.585-17.486,16.905v96.44c0,9.322,7.844,16.906,17.486,16.906
		h62.849c9.641,0,17.486-7.587,17.486-16.906v-96.44C183.96,120.431,176.115,112.846,166.473,112.846z M141.329,207.936
		l37.04-17.185v34.366L141.329,207.936z M91.73,184.923v-2.42l42.956-19.93l43.682,20.263v1.747l-43.682,20.268L91.73,184.923z
		 M128.048,207.936L91.73,224.781v-33.694L128.048,207.936z M91.73,176.35v-33.7l36.318,16.846L91.73,176.35z M141.329,159.498
		l37.04-17.187v34.367L141.329,159.498z M103.624,118.433h62.849c6.56,0,11.895,5.076,11.895,11.318v6.399l-43.682,20.264
		L91.73,136.486v-6.735C91.73,123.509,97.066,118.433,103.624,118.433z M166.473,237.508h-62.849c-4.944,0-9.193-2.892-10.986-6.989
		l42.048-19.51l42.644,19.784C175.471,234.746,171.309,237.508,166.473,237.508z"/>
	<path fill="#1E1B1C" d="M214.33,81.716h-4.452V7.196c0-14.896-12.119-27.015-27.012-27.015h-12.363
		c-0.48-11.003-10.229-19.827-22.178-19.827H121.98c-11.949,0-21.697,8.823-22.179,19.827H87.232
		c-14.895,0-27.015,12.119-27.015,27.015v74.52h-4.242c-16.95,0-30.738,13.789-30.738,30.739v104.326
		c0,16.952,13.788,30.739,30.738,30.739h6.694c4.262,9.329,13.657,15.833,24.562,15.833h95.635c10.904,0,20.298-6.511,24.562-15.833
		h6.9c16.951,0,30.738-13.789,30.738-30.739V112.455C245.068,95.505,231.28,81.716,214.33,81.716z M121.98-30.331h26.346
		c6.796,0,12.385,4.645,12.874,10.512h-52.092C109.595-25.687,115.184-30.331,121.98-30.331z M87.232-10.5h12.524h70.797h12.314
		c9.761,0,17.696,7.939,17.696,17.697v44.018c-5.64,0.893-25.729,4.978-29.58,18.396h-3.731c-2.325-6.619-9.624-18.63-31.939-18.63
		c-22.313,0-29.612,12.012-31.94,18.63H99.64c-3.981-13.882-25.344-17.774-30.107-18.478V7.196
		C69.535-2.562,77.473-10.5,87.232-10.5z M163.412,78.921h11.462v10.554h-11.462V78.921z M95.097,78.921h11.465v10.554H95.097
		V78.921z M60.281,238.212h-4.31c-11.809,0-21.421-9.615-21.421-21.425V112.458c0-11.813,9.612-21.422,21.421-21.422h4.242V236.35
		C60.217,236.969,60.242,237.587,60.281,238.212z M182.866,254.043H87.232c-7.906,0-14.617-5.213-16.88-12.385l-0.041-0.137
		c-0.002-0.018-0.008-0.029-0.015-0.048c-0.225-0.737-0.382-1.491-0.508-2.251c-0.028-0.178-0.056-0.353-0.081-0.531
		c-0.104-0.777-0.175-1.565-0.175-2.35V81.714V60.555c5.961,1.023,16.735,4.063,20.258,9.82h-0.282v24.687h22.644V72.388
		c1.418-4.154,6.33-12.098,23.163-12.098c14.868,0,20.43,6.194,22.506,10.484v24.29h22.645V70.996
		c3.005-5.963,13.821-9.18,20.098-10.34v21.062V236.35c0,0.785-0.071,1.568-0.175,2.348c-0.027,0.179-0.054,0.358-0.081,0.535
		c-0.123,0.754-0.285,1.508-0.507,2.246c-0.008,0.017-0.008,0.032-0.015,0.049l-0.041,0.137
		C197.485,248.83,190.774,254.043,182.866,254.043z M235.757,216.783c0,11.815-9.613,21.421-21.425,21.421h-4.515
		c0.041-0.619,0.062-1.241,0.062-1.86V91.029h4.452c11.812,0,21.425,9.613,21.425,21.423V216.783L235.757,216.783z"/>
</g>
</svg>
