<?xml version="1.0" encoding="utf-8"?>
<!-- Generator: Adobe Illustrator 16.0.0, SVG Export Plug-In . SVG Version: 6.00 Build 0)  -->
<!DOCTYPE svg PUBLIC "-//W3C//DTD SVG 1.1//EN" "http://www.w3.org/Graphics/SVG/1.1/DTD/svg11.dtd">
<svg version="1.1" id="Layer_1" xmlns="http://www.w3.org/2000/svg" xmlns:xlink="http://www.w3.org/1999/xlink" x="0px" y="0px"
	 width="256px" height="237.374px" viewBox="0 0 256 237.374" enable-background="new 0 0 256 237.374" xml:space="preserve">
<path d="M255.969,128.806c0.098-0.881-0.035-1.802-0.424-2.667c-3.732-8.259-36.604-80.876-40.756-87.614
	c-3.846-6.241-7.285-10.112-12.549-10.112c-4.936,0-8.248,3.65-12.068,9.656c-2.965,4.946-4.956,7.931-4.992,7.987
	c-1.571,2.35-0.932,5.529,1.419,7.096c2.345,1.567,5.524,0.932,7.101-1.413c0,0,2.105-3.149,5.182-8.284
	c1.844-2.898,2.934-4.106,3.467-4.593c0.543,0.486,1.71,1.771,3.727,5.043c2.576,4.173,20.932,44.114,35.195,75.54
	c-9.994-2.293-26.762-3.993-54.901-3.993c-10.788,0-21.991,1.808-31.878,3.395c-3.436,0.553-6.732,1.085-9.835,1.511
	c-2.919-1.859-8.888-4.905-16.655-4.905c-7.762,0-13.737,3.046-16.661,4.905c-3.092-0.426-6.395-0.958-9.825-1.511
	c-9.887-1.587-21.094-3.395-31.882-3.395c-28.124,0-44.887,1.694-54.881,3.947c14.265-31.421,32.609-71.327,35.175-75.5
	c2.109-3.43,3.297-4.674,3.691-5.074c0.517,0.461,1.597,1.633,3.43,4.511c3.149,5.248,5.248,8.396,5.248,8.396
	c1.562,2.35,4.741,2.985,7.097,1.418c2.35-1.567,2.99-4.746,1.423-7.096c-0.036-0.051-2.022-3.042-5.059-8.105
	c-3.748-5.888-7.061-9.539-11.997-9.539c-5.263,0-8.709,3.871-12.554,10.117c-4.147,6.738-37.018,79.354-40.75,87.613
	c-0.363,0.809-0.501,1.658-0.44,2.483C0,128.868,0,129.083,0,129.277c0,4.742,3.973,6.523,5.888,7.379
	c2.529,1.137,4.352,1.955,4.352,7.982c0,25.497,15.334,52.735,58.368,52.735c32.614,0,49.152-18.949,49.152-56.319v-12.616
	c2.069-1.163,5.714-2.745,10.24-2.745c4.531,0,8.182,1.588,10.24,2.745v12.616c0,37.37,16.532,56.319,49.152,56.319
	c43.033,0,58.367-26.982,58.367-52.224c0-6.303,1.792-7.041,4.266-8.059c1.787-0.738,5.975-2.463,5.975-7.302
	C256,129.493,256,129.166,255.969,128.806z"/>
</svg>
