<?xml version="1.0" encoding="utf-8"?>
<!-- Generator: Adobe Illustrator 16.0.0, SVG Export Plug-In . SVG Version: 6.00 Build 0)  -->
<!DOCTYPE svg PUBLIC "-//W3C//DTD SVG 1.1//EN" "http://www.w3.org/Graphics/SVG/1.1/DTD/svg11.dtd">
<svg version="1.1" id="Layer_1" xmlns="http://www.w3.org/2000/svg" xmlns:xlink="http://www.w3.org/1999/xlink" x="0px" y="0px"
	 width="255.99px" height="232.52px" viewBox="0 0 255.99 232.52" enable-background="new 0 0 255.99 232.52" xml:space="preserve">
<path d="M254.681,168.14c-16.635-18.509-29.44-57.942-39.727-89.63c-7.711-23.742-14.371-44.252-21.473-53.443
	c-1.449-1.884-4.01-2.514-6.149-1.541c-11.064,4.977-80.389,13.819-113.505-0.036c-0.113-0.046-0.225-0.092-0.343-0.133
	c-1.163-0.41-2.391-0.358-3.472,0.041c0,0-0.005,0-0.01,0.005l0,0c0,0-0.01,0.005-0.015,0.005c0,0-0.005,0-0.01,0l0,0
	c-0.051,0.021-0.107,0.041-0.159,0.066c0,0-0.005,0-0.01,0.005c0,0-0.005,0-0.01,0.005c-0.005,0-0.016,0-0.016,0.005
	c0,0-0.005,0-0.01,0c-0.88,0.384-1.653,1.014-2.211,1.843C62.154,33.105,52.4,54.547,41.11,79.364
	c-14.131,31.067-31.718,69.739-39.557,77.343c-1.3,1.265-1.838,3.118-1.408,4.879c0.425,1.762,1.751,3.164,3.486,3.697
	c0.297,0.092,29.44,8.944,36.526,11.243c0.599,0.189,1.203,0.271,1.843,0.245c3.256-0.168,9.037-0.465,24.335-50.56
	c16.139,64.917,23.307,67.272,25.795,68.091l54.661,17.915c0.521,0.2,1.09,0.302,1.674,0.302c0.189,0,0.379-0.01,0.568-0.03
	c0.129-0.015,0.267-0.036,0.389-0.062c3.738-0.691,82.182-15.396,104.98-37.166C256.406,173.352,256.529,170.193,254.681,168.14z
	 M95.987,184.811c-4.808-5.606-16.189-45.266-24.167-79.606c-0.533-2.273-2.529-3.901-4.864-3.958
	c-2.381-0.235-4.413,1.475-5.048,3.722c-7.086,24.986-16.793,53.77-21.366,60.954c-6.559-2.058-18.939-5.853-26.803-8.243
	c8.653-12.964,21.013-39.578,36.69-74.056c7.604-16.722,14.91-32.778,20.234-43.116c12.309,33.623,48.205,122.778,66.489,157.798
	L95.987,184.811z M150.765,201.742c-14.244-22.472-57.42-128.328-70.784-165.401c34.791,9.323,88.888,3.399,107.397-2.007
	c5.494,9.318,11.51,27.848,17.838,47.339c10.425,32.113,22.154,68.229,38.441,89.221
	C221.791,186.833,164.927,198.916,150.765,201.742z"/>
</svg>
