<?xml version="1.0" encoding="utf-8"?>
<!-- Generator: Adobe Illustrator 16.0.0, SVG Export Plug-In . SVG Version: 6.00 Build 0)  -->
<!DOCTYPE svg PUBLIC "-//W3C//DTD SVG 1.1//EN" "http://www.w3.org/Graphics/SVG/1.1/DTD/svg11.dtd">
<svg version="1.1" id="Layer_1" xmlns="http://www.w3.org/2000/svg" xmlns:xlink="http://www.w3.org/1999/xlink" x="0px" y="0px"
	 width="255.872px" height="256px" viewBox="0 0 255.872 256" enable-background="new 0 0 255.872 256" xml:space="preserve">
<path d="M236.938,96.72h-3.526c-1.315-6.622-3.362-13.372-6.249-20.388c4.432-1.162,7.896-4.769,8.68-9.477
	c0.047-0.276,0.072-0.558,0.072-0.839V54.757c0-10.44-8.496-18.935-18.936-18.935h-13.816c-1.715,0-3.352,0.302-4.943,0.727
	c-12.646-11.402-28.366-19.436-45.679-23.433C150.135,5.532,143.268,0,135.1,0h-13.817c-8.397,0-15.449,5.527-17.921,13.106
	c-16.877,3.899-32.193,11.719-45.57,23.335c-1.469-0.369-2.984-0.619-4.57-0.619H39.404c-10.439,0-18.935,8.265-18.935,18.423
	v11.258c0,5.358,3.393,9.569,8.239,10.833c-2.963,7.195-5.036,14.109-6.341,20.895h-3.434C8.495,97.231,0,105.496,0,115.654v11.258
	c0,6.417,4.841,11.258,11.258,11.258h11.253c2.379,11.438,6.223,22.005,11.519,31.554c-7.814,2.268-13.561,9.242-13.561,17.574
	v11.258c0,6.418,4.841,11.258,11.258,11.258h21.964L32.946,245.51h-2.242c-2.896,0-5.245,2.348-5.245,5.244S27.808,256,30.705,256
	h35.822c2.896,0,5.245-2.35,5.245-5.246c0-1.719-0.88-3.172-2.159-4.129l16.908-29.979c5.189,2.242,10.261,4.013,15.316,5.297v7.318
	c0,6.207,5.051,11.258,11.258,11.258h29.169c6.418,0,11.26-4.841,11.26-11.258v-7.221c5.685-1.412,10.807-3.137,15.715-5.281
	l16.995,29.881c-1.265,0.957-2.14,2.404-2.14,4.113c0,2.896,2.35,5.246,5.246,5.246h35.822c2.896,0,5.245-2.35,5.245-5.246
	s-2.344-5.244-5.24-5.244h-2.252l-20.511-35.184h22.251c6.208,0,11.253-5.045,11.253-11.252v-11.259
	c0-8.679-5.905-15.94-13.883-18.167c5.664-10.051,9.543-20.588,11.56-31.473h11.028c6.417,0,11.258-4.841,11.258-11.258v-11.258
	C255.872,105.215,247.377,96.72,236.938,96.72z M196.51,56.292h1.023c4.094,0,7.164-3.071,7.164-7.165v-1.023
	c0-0.737-0.205-1.387-0.389-2.047h11.018c-0.189,0.66-0.395,1.31-0.395,2.047v1.023c0,4.094,3.07,7.165,7.165,7.165h1.023
	c0.921,0,1.765-0.2,2.559-0.486v9.646c-0.144,0.404-0.522,1.075-1.535,1.075h-29.169c-0.308,0-1.02-0.348-1.02-1.023l-0.015-9.703
	C194.734,56.092,195.583,56.292,196.51,56.292z M112.583,20.081c0.66,0.184,1.31,0.389,2.047,0.389h1.023
	c4.094,0,7.164-3.07,7.164-7.165v-1.023c0-0.737-0.205-1.387-0.389-2.047h11.018c-0.189,0.66-0.395,1.31-0.395,2.047v1.023
	c0,4.094,3.07,7.165,7.164,7.165h1.023c0.738,0,1.388-0.205,2.048-0.389v10.112c0,0.251-0.384,0.512-1.024,0.512h-29.169
	c-0.25,0-0.512-0.384-0.512-1.023V20.081z M31.728,66.527c-0.757,0-1.023-0.266-1.023-1.023v-9.601
	c0.66,0.184,1.31,0.389,2.047,0.389h1.023c4.094,0,7.165-3.071,7.165-7.165v-1.023c0-0.737-0.205-1.387-0.389-2.047h11.018
	c-0.189,0.66-0.394,1.31-0.394,2.047v1.023c0,4.094,3.07,7.165,7.165,7.165h1.023c0.921,0,1.766-0.2,2.559-0.491v9.641
	c-0.138,0.415-0.522,1.085-1.535,1.085H31.728z M10.235,126.913v-9.601c0.66,0.185,1.31,0.389,2.047,0.389h1.023
	c4.094,0,7.165-3.07,7.165-7.165v-1.023c0-0.737-0.205-1.387-0.389-2.047h11.018c-0.189,0.66-0.394,1.31-0.394,2.047v1.023
	c0,4.094,3.07,7.165,7.165,7.165h1.023c0.737,0,1.387-0.205,2.047-0.389v10.112c0,0.25-0.384,0.512-1.023,0.512H11.258
	C10.501,127.936,10.235,127.67,10.235,126.913z M31.728,199.58c-0.757,0-1.023-0.271-1.023-1.023v-9.6
	c0.66,0.184,1.31,0.389,2.047,0.389h1.023c4.094,0,7.165-3.07,7.165-7.165v-1.023c0-0.737-0.205-1.387-0.389-2.047h11.018
	c-0.189,0.66-0.394,1.31-0.394,2.047v1.023c0,4.095,3.07,7.165,7.165,7.165h1.023c0.921,0,1.766-0.2,2.559-0.492v6.807l-2.277,3.92
	H31.728z M70.022,202.093c1.11-0.819,1.853-2.036,2.021-3.479l34.333-59.07c2.466,2.436,5.348,4.457,8.521,5.951L58.492,245.51
	H44.793L70.022,202.093z M107.466,117.701c0-11.289,9.181-20.47,20.47-20.47s20.47,9.181,20.47,20.47
	c0,3.377-0.819,6.565-2.272,9.375c-0.471,0.522-0.818,1.131-1.039,1.781c-3.658,5.604-9.983,9.313-17.158,9.313
	C116.647,138.171,107.466,128.99,107.466,117.701z M142.264,230.285h-29.169c-0.307,0-1.023-0.348-1.023-1.023v-9.201
	c0.067-0.154,0.128-0.308,0.185-0.466c0.742,0.251,1.52,0.455,2.375,0.455h1.023c4.094,0,7.164-3.07,7.164-7.164v-1.023
	c0-0.921-0.199-1.766-0.486-2.56h11.213c-0.287,0.794-0.492,1.639-0.492,2.56v1.023c0,4.094,3.07,7.164,7.164,7.164h1.023
	c0.738,0,1.388-0.204,2.048-0.389v9.601C143.289,230.014,143.017,230.285,142.264,230.285z M152.392,211.791
	c-2.584-7.38-9.549-12.723-17.804-12.723h-13.817c-8.213,0-15.153,5.287-17.768,12.604c-3.756-1.023-7.553-2.37-11.427-3.997
	l33.504-59.408c1.719,0.154,3.506,0.169,5.23,0.041l33.831,59.485C160.452,209.359,156.609,210.686,152.392,211.791z
	 M197.364,245.51l-56.772-99.832c3.271-1.483,6.238-3.525,8.776-6.008l39.354,67.504c0.021,0.052,0.057,0.093,0.082,0.139
	l22.266,38.197H197.364L197.364,245.51z M224.656,200.092h-28.223l-1.97-3.388v-7.747c0.66,0.184,1.31,0.389,2.047,0.389h1.023
	c4.094,0,7.164-3.07,7.164-7.165v-1.023c0-0.737-0.205-1.387-0.389-2.047h11.018c-0.189,0.66-0.395,1.31-0.395,2.047v1.023
	c0,4.095,3.07,7.165,7.165,7.165h1.023c0.921,0,1.765-0.2,2.559-0.486v10.209C225.679,199.375,225.331,200.092,224.656,200.092z
	 M210.578,168.875h-7.415c-8.132,0-15.025,5.18-17.701,12.395l-29.609-50.79c1.791-3.895,2.789-8.219,2.789-12.778
	c0-16.934-13.771-30.705-30.705-30.705s-30.705,13.771-30.705,30.705c0,4.478,0.962,8.735,2.692,12.574l-29.226,50.283
	c-2.85-6.852-9.605-11.684-17.476-11.684h-7.83c-5.696-9.119-9.835-19.415-12.41-30.704h6.934c6.315,0,11.258-4.724,11.258-10.747
	v-11.258c0-10.435-8.254-18.919-18.402-18.935c1.423-6.566,3.731-13.346,6.909-20.47h20.705c5.824,0,10.747-4.166,11.704-9.907
	c0.046-0.276,0.066-0.558,0.066-0.839V54.757c0-4.934-1.939-9.386-5.035-12.758c10.567-8.577,22.363-14.688,35.228-18.146v5.829
	c0,6.315,4.718,11.258,10.747,11.258h29.169c6.311,0,11.26-4.718,11.26-10.747v-6.34c13.279,3.546,25.367,9.8,35.479,18.269
	c-2.963,3.204-4.949,7.375-5.281,12.128v11.258c0,6.208,5.046,11.258,11.254,11.258h21.217c3.096,6.944,5.383,13.566,6.811,19.968
	c-10.389,0.062-18.816,8.521-18.816,18.924v11.258c0,6.208,5.046,11.258,11.253,11.258h7.728
	C220.956,148.82,216.723,159.111,210.578,168.875z M244.614,127.936h-29.17c-0.307,0-1.018-0.348-1.018-1.023v-9.698
	c0.787,0.287,1.633,0.486,2.553,0.486h1.023c4.095,0,7.165-3.07,7.165-7.165v-1.023c0-0.921-0.2-1.766-0.491-2.559h2.467
	c0.654,0.302,1.355,0.512,2.107,0.512c0.241,0,0.486-0.015,0.732-0.051c0.477-0.066,0.881-0.276,1.3-0.46h4.61
	c-0.291,0.793-0.49,1.638-0.49,2.559v1.023c0,4.094,3.07,7.165,7.164,7.165h1.023c0.736,0,1.387-0.205,2.047-0.389v9.601
	C245.637,127.67,245.366,127.936,244.614,127.936z"/>
</svg>
