<?xml version="1.0" encoding="utf-8"?>
<!-- Generator: Adobe Illustrator 16.0.0, SVG Export Plug-In . SVG Version: 6.00 Build 0)  -->
<!DOCTYPE svg PUBLIC "-//W3C//DTD SVG 1.1//EN" "http://www.w3.org/Graphics/SVG/1.1/DTD/svg11.dtd">
<svg version="1.1" id="Layer_1" xmlns="http://www.w3.org/2000/svg" xmlns:xlink="http://www.w3.org/1999/xlink" x="0px" y="0px"
	 width="256px" height="255.816px" viewBox="0 0 256 255.816" enable-background="new 0 0 256 255.816" xml:space="preserve">
<path d="M255.99,142.976c-1.091-18.222-13.333-24.013-22.277-28.242c-4.645-2.202-8.693-4.117-10.158-7.071
	c-0.226-2.862-0.205-5.166-0.18-7.803v-0.436c2.555-2.979,4.727-7.828,5.745-12.242c2.253-1.546,4.623-4.639,5.37-10.809
	c0.375-3.128-0.348-5.688-1.515-7.593c1.761-6.42,4.53-20.414-1.312-29.809c-2.57-4.137-6.507-6.902-11.483-8.09
	c-3.185-3.476-8.628-5.36-15.729-5.36h-0.004c-10.988,0.205-19.094,3.64-24.09,10.219c-5.684,7.491-6.902,18.545-3.631,32.871
	c-1.219,1.92-2.002,4.536-1.612,7.757c0.742,6.2,3.123,9.292,5.392,10.834c1.049,4.357,3.287,9.231,5.867,12.227l0.006,0.379
	c0.02,2.642,0.04,4.956-0.18,7.823c-0.696,1.28-2.146,2.417-4.173,3.522c-4.798-13.046-16-18.207-24.474-22.108
	c-5.013-2.309-9.375-4.321-10.793-7.009c-0.221-2.852-0.199-5.151-0.174-7.783V73.82c2.56-2.98,4.726-7.829,5.744-12.242
	c2.253-1.546,4.623-4.639,5.371-10.813c0.373-3.128-0.348-5.688-1.516-7.593c1.762-6.42,4.531-20.414-1.311-29.809
	c-2.57-4.137-6.508-6.902-11.484-8.089C140.887,2.54,136.248,0,127.657,0c-11.002,0.205-19.113,3.635-24.105,10.214
	c-5.667,7.465-6.881,18.494-3.614,32.799c-1.219,1.92-2.002,4.537-1.613,7.757c0.742,6.195,3.128,9.288,5.391,10.829
	c1.05,4.357,3.282,9.231,5.868,12.227v0.404c0.021,2.637,0.041,4.946-0.179,7.808c-1.418,2.688-5.801,4.7-10.834,7.009
	c-8.51,3.901-19.753,9.062-24.561,22.108c-2.033-1.111-3.492-2.248-4.183-3.528c-0.226-2.877-0.21-5.191-0.185-7.844V99.42
	c2.591-2.995,4.823-7.88,5.868-12.237c2.258-1.541,4.644-4.634,5.386-10.824c0.389-3.221-0.394-5.837-1.613-7.757
	c3.271-14.331,2.053-25.385-3.63-32.871c-5.002-6.569-13.107-10.004-24.192-10.209c-7.024,0-12.462,1.884-15.642,5.355
	c-4.977,1.188-8.919,3.958-11.489,8.095c-5.842,9.405-3.067,23.388-1.306,29.809c-1.162,1.905-1.884,4.465-1.51,7.593
	c0.743,6.18,3.113,9.272,5.371,10.819c1.024,4.408,3.189,9.252,5.739,12.231v0.44c0.026,2.637,0.046,4.946-0.179,7.808
	c-1.464,2.954-5.514,4.869-10.158,7.065C13.348,118.963,1.106,124.754,0,143.283v56.32c0,0.338,0.036,0.687,0.103,1.014
	c0.328,1.623,8.76,39.885,70.354,55.041c1.521,0.383,3.144,0.035,4.377-0.943c1.244-0.967,1.966-2.451,1.966-4.023l-0.01-4.7
	c0.794-13.215,11.003-17.353,21.816-21.729c8.115-3.292,16.507-6.691,19.42-14.531c0.159-0.424,0.256-0.869,0.302-1.325
	c0.364-4.07,0.338-7.168,0.312-10.45l-0.015-2.75c0-1.904-0.681-3.409-2.366-4.295c-1.142-0.998-4.157-6.339-4.659-11.039
	c-0.235-2.242-1.915-4.039-4.086-4.475c-0.261-0.363-0.88-1.475-1.198-4.121c-0.113-0.969,0.092-1.321,0-1.326
	c1.869-1.188,2.76-3.451,2.202-5.602c-3.507-13.496-3.021-23.711,1.403-29.543c3.354-4.413,9.37-6.732,17.792-6.891
	c5.421,0,8.632,1.372,9.406,2.729c0.783,1.388,2.17,2.319,3.742,2.539c3.441,0.482,5.75,1.849,7.281,4.312
	c4.249,6.845,1.479,20.342-0.579,26.521c-0.747,2.263-0.118,4.536,1.92,5.775c0.011,0.021,0.317,0.395,0.185,1.479
	c-0.317,2.643-0.938,3.754-1.193,4.122c-2.17,0.435-3.845,2.231-4.086,4.475c-0.512,4.741-3.43,10.076-4.127,10.798
	c-1.689,0.887-2.744,2.632-2.744,4.537l-0.015,2.77c-0.03,3.277-0.057,6.369,0.312,10.43c0.041,0.455,0.145,0.9,0.308,1.331
	c2.919,7.833,11.274,11.228,19.358,14.521c10.768,4.377,20.936,8.514,21.72,21.432v5.013c0,1.577,0.728,3.062,1.961,4.029
	c0.911,0.717,2.027,1.091,3.159,1.091c0.409,0,0.818-0.051,1.223-0.148c61.59-15.16,70.027-53.422,70.354-55.04
	c0.067-0.338,0.103-0.687,0.103-1.024L255.99,142.976z M245.76,199c-0.988,3.722-9.892,31.482-56.428,45.051
	c-1.791-18.627-16.896-24.771-27.996-29.287c-5.995-2.437-11.678-4.751-13.389-8.079c-0.25-3.175-0.225-5.714-0.199-8.627
	l0.005-0.62c2.78-3.209,5.192-8.611,6.292-13.398c2.406-1.592,4.998-4.849,5.801-11.541c0.41-3.384-0.404-6.128-1.679-8.146
	c1.895-6.835,5.007-22.077-1.315-32.256c-2.755-4.439-7-7.398-12.365-8.643c-3.358-3.743-9.205-5.775-16.855-5.775l0,0
	c-11.812,0.215-20.511,3.896-25.856,10.941c-6.129,8.074-7.409,20.034-3.825,35.579c-1.331,2.027-2.207,4.822-1.787,8.294
	c0.804,6.702,3.395,9.958,5.806,11.551c1.116,4.798,3.589,10.22,6.441,13.435v0.559c0.025,2.913,0.046,5.463-0.205,8.647
	c-1.705,3.323-7.409,5.638-13.435,8.079c-11.084,4.49-26.147,10.589-28.068,29.287c-46.725-13.573-55.449-41.135-56.463-45.041
	l-0.01-55.419c0.732-12.165,8.007-15.61,16.435-19.594c6.364-3.005,12.938-6.118,15.611-13.296c0.159-0.425,0.261-0.871,0.302-1.326
	c0.338-3.737,0.312-6.589,0.287-9.6l-0.016-2.57c0-1.761-0.901-3.384-2.371-4.321c-1.034-1.09-3.507-5.755-3.942-9.825
	c-0.235-2.186-1.833-3.953-3.922-4.439c-0.23-0.384-0.686-1.362-0.937-3.461c-0.071-0.589,0.195-0.947-0.102-0.875
	c1.915-1.275,2.754-3.682,2.022-5.878c-1.869-5.617-4.393-17.869-0.568-24.028c1.331-2.145,3.364-3.343,6.395-3.763
	c1.577-0.22,2.959-1.162,3.748-2.544c0.63-1.111,3.492-2.304,8.197-2.304c7.69,0.138,13.117,2.217,16.118,6.17
	c3.988,5.253,4.408,14.52,1.218,26.798c-0.568,2.187-0.005,4.188,1.92,5.366c0,0,0.189,0.287,0.097,1.055
	c-0.256,2.109-0.712,3.087-0.942,3.466c-2.089,0.492-3.686,2.253-3.922,4.439c-0.435,4.04-2.99,8.714-4.06,9.81
	c-1.485,0.932-2.396,2.565-2.396,4.336l-0.01,2.509c-0.026,3.037-0.051,5.904,0.292,9.667c0.041,0.45,0.144,0.896,0.302,1.315
	c2.463,6.63,9.267,9.872,15.452,12.385c1.429,0.584,3.052,0.492,4.408-0.261c1.352-0.748,2.294-2.069,2.56-3.594
	c2.191-12.493,11.049-16.553,20.424-20.859c6.794-3.118,13.824-6.344,16.399-13.266c0.159-0.425,0.256-0.871,0.302-1.326
	c0.338-3.748,0.312-6.604,0.287-9.62l-0.021-2.55c0-1.9-0.63-3.369-2.309-4.255c-1.019-0.927-3.707-5.745-4.152-9.892
	c-0.23-2.191-1.833-3.952-3.927-4.444c-0.23-0.384-0.686-1.362-0.937-3.461c-0.072-0.604-0.01-0.911-0.102-0.875
	c1.807-1.203,2.667-3.43,2.114-5.545c-3.179-12.252-2.765-21.494,1.203-26.726c2.995-3.948,8.428-6.021,16.041-6.165
	c5.561,0,7.854,1.454,8.289,2.217c0.783,1.388,2.176,2.33,3.748,2.545c3.031,0.425,5.059,1.618,6.395,3.763
	c3.82,6.149,1.301,18.411-0.568,24.033c-0.747,2.268-0.215,4.454,1.828,5.693c0,0,0.185,0.287,0.092,1.055
	c-0.25,2.109-0.706,3.087-0.937,3.466c-2.094,0.486-3.696,2.253-3.927,4.444c-0.436,4.065-2.893,8.725-3.938,9.815
	c-1.469,0.932-2.375,2.56-2.375,4.321l-0.016,2.565c-0.025,3.016-0.052,5.862,0.287,9.6c0.04,0.456,0.143,0.901,0.301,1.326
	c2.581,6.917,9.575,10.137,16.338,13.255c9.34,4.301,18.161,8.361,20.342,20.859c0.271,1.526,1.209,2.847,2.566,3.6
	c1.361,0.748,2.979,0.845,4.408,0.261c6.18-2.514,12.984-5.755,15.451-12.375c0.154-0.425,0.262-0.87,0.303-1.326
	c0.338-3.758,0.317-6.615,0.291-9.646l-0.004-2.509c0-1.904-0.631-3.369-2.314-4.254c-1.014-0.922-3.707-5.745-4.152-9.892
	c-0.236-2.191-1.828-3.953-3.922-4.439c-0.236-0.384-0.687-1.362-0.938-3.461c-0.076-0.604-0.005-0.891-0.103-0.875
	c1.812-1.203,2.668-3.431,2.114-5.545c-3.189-12.278-2.77-21.545,1.214-26.798c3.011-3.958,8.433-6.037,16.036-6.175
	c4.797,0,7.659,1.193,8.284,2.299c0.783,1.388,2.176,2.33,3.747,2.545c3.031,0.425,5.059,1.618,6.396,3.763
	c3.819,6.149,1.3,18.412-0.568,24.033c-0.747,2.268-0.215,4.455,1.827,5.693c0,0,0.186,0.287,0.093,1.055
	c-0.251,2.109-0.706,3.087-0.942,3.466c-2.084,0.492-3.682,2.253-3.916,4.439c-0.436,4.07-2.903,8.73-3.943,9.82
	c-1.469,0.932-2.375,2.56-2.375,4.321l-0.016,2.565c-0.025,3.016-0.051,5.862,0.287,9.6c0.041,0.456,0.143,0.901,0.302,1.326
	c2.667,7.178,9.252,10.291,15.616,13.302c8.433,3.989,15.713,7.434,16.43,19.292V199z"/>
</svg>
