<?xml version="1.0" encoding="utf-8"?>
<!-- Generator: Adobe Illustrator 16.0.0, SVG Export Plug-In . SVG Version: 6.00 Build 0)  -->
<!DOCTYPE svg PUBLIC "-//W3C//DTD SVG 1.1//EN" "http://www.w3.org/Graphics/SVG/1.1/DTD/svg11.dtd">
<svg version="1.1" id="Layer_1" xmlns="http://www.w3.org/2000/svg" xmlns:xlink="http://www.w3.org/1999/xlink" x="0px" y="0px"
	 width="256px" height="256px" viewBox="0 0 256 256" enable-background="new 0 0 256 256" xml:space="preserve">
<path d="M204.8,113.6c-3.343,0-6.604,0.349-9.774,0.963c-8.125-31.646-10.7-52.285-10.721-52.521
	c-0.185-2.683-2.416-4.762-5.104-4.762c-23.48,0-23.48,0-27.101-3.62c-2.002-2.002-5.237-2.002-7.239,0s-2.002,5.238,0,7.24
	c6.221,6.221,7.977,6.594,29.896,6.615c0.645,4.271,1.803,11.285,3.66,20.48H90.163L82.371,72.43
	c0.404-0.026,0.814-0.072,1.219-0.072c13.107,0,18.806-3.349,18.806-7.02c0.005-2.832-2.499-2.939-6.201-2.939
	c0,0-30.679,0-32.983,0c-5.821,0-6.892,2.555-6.892,7.301c0,11.658,6.907,8.11,15.775,5.069L81.3,93.161l-11.919,23.833
	c-5.663-2.16-11.771-3.395-18.181-3.395C22.968,113.6,0,136.568,0,164.8S22.968,216,51.2,216c26.506,0,48.363-20.244,50.938-46.08
	h20.639c0.768,0.031,1.623-0.153,2.396-0.537c0.666-0.333,1.224-0.794,1.669-1.337l55.024-64.194
	c0.998,4.291,2.109,8.853,3.349,13.66c-18.54,7.711-31.616,25.994-31.616,47.288c0,28.231,22.969,51.2,51.2,51.2
	s51.2-22.969,51.2-51.2S233.031,113.6,204.8,113.6z M51.2,205.76c-22.584,0-40.96-18.375-40.96-40.96
	c0-22.584,18.375-40.96,40.96-40.96c4.761,0,9.318,0.86,13.573,2.36l-18.155,36.312c-0.793,1.587-0.707,3.471,0.225,4.981
	c0.932,1.511,2.581,2.427,4.357,2.427h40.606C89.272,190.093,72.049,205.76,51.2,205.76z M73.943,130.758
	c9.631,6.455,16.348,16.885,17.859,28.922H59.484L73.943,130.758z M102.139,159.68c-1.597-16.035-10.649-29.875-23.608-38.098
	L87.02,104.6l27.571,55.08H102.139z M124.006,155.615L95.288,98.24h77.901L124.006,155.615z M204.8,205.76
	c-22.584,0-40.96-18.375-40.96-40.96c0-16.553,9.887-30.812,24.054-37.263c3.276,11.908,7.245,24.99,12.067,38.938
	c0.732,2.114,2.719,3.445,4.839,3.445c0.554,0,1.122-0.092,1.675-0.281c2.667-0.927,4.09-3.84,3.164-6.513
	c-4.793-13.845-8.725-26.834-11.961-38.626c2.32-0.409,4.69-0.66,7.122-0.66c22.585,0,40.96,18.376,40.96,40.96
	C245.76,187.385,227.385,205.76,204.8,205.76z"/>
</svg>
