<?xml version="1.0" encoding="utf-8"?>
<!-- Generator: Adobe Illustrator 16.0.0, SVG Export Plug-In . SVG Version: 6.00 Build 0)  -->
<!DOCTYPE svg PUBLIC "-//W3C//DTD SVG 1.1//EN" "http://www.w3.org/Graphics/SVG/1.1/DTD/svg11.dtd">
<svg version="1.1" id="Layer_1" xmlns="http://www.w3.org/2000/svg" xmlns:xlink="http://www.w3.org/1999/xlink" x="0px" y="0px"
	 width="235.289px" height="256px" viewBox="0 0 235.289 256" enable-background="new 0 0 235.289 256" xml:space="preserve">
<path d="M62.835,141.312c5.586,6.041,11.356,12.287,18.852,12.287c7.444,0,13.061-6.154,18.488-12.104
	c3.405-3.732,7.644-8.376,10.184-8.376h28.16c7.434,0,14.438-3.113,19.21-8.551c4.618-5.258,6.743-12.272,5.821-19.364
	l-5.104-33.177c-1.274-9.564-8.581-17.47-18.837-20.199c-12.067-2.621-31.907-5.75-57.922-5.75c-31.12,0-50.693,4.424-57.641,6.318
	C14.021,55.071,6.715,62.976,5.461,72.438l-5.1,33.142c-1.198,6.605,0.614,13.389,4.977,18.622
	c4.736,5.668,11.848,8.919,19.518,8.919h28.16C55.263,133.12,59.641,137.855,62.835,141.312z M92.613,134.59
	c-3.563,3.911-7.997,8.77-10.926,8.77c-3.016,0-7.629-4.991-11.331-9c-1.685-1.818-3.39-3.661-5.146-5.32
	c3.154-3.01,5.699-7.255,8.069-11.202c2.314-3.86,6.185-10.317,8.407-10.317c2.222,0,6.093,6.457,8.412,10.317
	c2.345,3.901,4.854,8.089,7.957,11.095C96.182,130.678,94.385,132.648,92.613,134.59z M13.202,117.637
	c-2.453-2.934-3.43-6.564-2.744-10.363l5.135-33.383c0.712-5.355,5.171-10.02,11.121-11.607c6.574-1.797,25.098-5.965,54.974-5.965
	c25.103,0,44.17,3,55.511,5.458c5.919,1.577,10.378,6.241,11.11,11.705l5.105,33.167c0.531,4.111-0.666,8.074-3.38,11.167
	c-2.826,3.215-7.024,5.063-11.515,5.063h-28.16h-3.072c-2.222,0-6.093-6.456-8.412-10.317C94.58,105.4,89.705,97.28,81.688,97.28
	c-8.018,0-12.892,8.121-17.188,15.283c-2.319,3.861-6.19,10.317-8.412,10.317H24.855C20.232,122.88,15.982,120.97,13.202,117.637z
	 M234.172,1.93C233.203,0.712,231.729,0,230.168,0h-27.137c-2.35,0-4.393,1.598-4.967,3.876L188.85,40.74
	c-0.334,1.332-0.119,2.739,0.594,3.912l4.535,7.424c-3.799,16.261-29.024,124.068-32.798,138.235
	c-7.496,31.719-20.839,35.994-32.906,35.994c-16.973,0-30.971-12.975-32.604-29.527c13.988-6.083,20.946-19.677,21.314-20.408
	c1.26-2.524,0.241-5.586-2.278-6.856c-2.519-1.254-5.591-0.251-6.871,2.259c-0.092,0.184-9.17,17.668-26.147,17.668
	c-16.978,0-26.056-17.484-26.148-17.664c-1.27-2.514-4.332-3.527-6.861-2.272c-2.529,1.265-3.553,4.342-2.289,6.87
	c0.358,0.717,6.881,13.461,19.973,19.795C67.479,229.351,94.825,256,128.279,256c21.842,0,50.207-10.107,61.297-58.174
	c5.468-22.445,38.134-159.283,45.583-191.554C235.508,4.751,235.148,3.154,234.172,1.93z M222.523,15.36h-7.717
	c-2.83,0-5.119,2.294-5.119,5.12s2.289,5.12,5.119,5.12h5.311c-0.39,1.654-0.794,3.358-1.209,5.12h-7.168
	c-2.831,0-5.119,2.293-5.119,5.12s2.288,5.12,5.119,5.12h4.752c-12.539,52.987-32.682,137.272-36.88,154.501
	c-7.706,33.373-24.976,50.299-51.333,50.299c-26.727,0-48.778-20.372-51.44-46.407c2.831,0.389,5.975,0.435,8.842,0.107
	c2.893,20.921,20.895,37.084,42.598,37.084c22.175,0,35.799-13.942,42.834-43.735c4.07-15.258,32.128-135.342,33.32-140.446
	c0.308-1.311,0.088-2.688-0.613-3.835l-4.516-7.383l7.726-30.904h16.69C223.353,11.827,222.953,13.537,222.523,15.36z"/>
</svg>
