<?xml version="1.0" encoding="utf-8"?>
<!-- Generator: Adobe Illustrator 16.0.0, SVG Export Plug-In . SVG Version: 6.00 Build 0)  -->
<!DOCTYPE svg PUBLIC "-//W3C//DTD SVG 1.1//EN" "http://www.w3.org/Graphics/SVG/1.1/DTD/svg11.dtd">
<svg version="1.1" id="Layer_1" xmlns="http://www.w3.org/2000/svg" xmlns:xlink="http://www.w3.org/1999/xlink" x="0px" y="0px"
	 width="256.003px" height="256.013px" viewBox="0 0 256.003 256.013" enable-background="new 0 0 256.003 256.013"
	 xml:space="preserve">
<path d="M252.369,93.374l-122.88-37.396c-0.968-0.292-2.007-0.297-2.98,0L3.629,93.374c-2.089,0.635-3.543,2.519-3.625,4.7
	c-0.087,2.176,1.219,4.167,3.251,4.966l47.944,18.76v40.694c0,21.617,39.572,33.279,76.8,33.279s76.8-11.662,76.8-33.279V121.8
	l13.968-5.468c0.855,1.992,1.393,4.659,1.393,8.55v41.595c-3.047,1.776-5.12,5.038-5.12,8.816c0,5.652,10.25,30.72,10.25,30.72
	s10.229-25.067,10.229-30.72c0-3.778-2.073-7.045-5.119-8.821v-41.595c0-5.12-0.82-9.108-2.115-12.268l24.464-9.569
	c2.027-0.793,3.333-2.785,3.251-4.966C255.907,95.897,254.452,94.014,252.369,93.374z M194.56,162.494
	c0,10.875-28.468,23.04-66.561,23.04s-66.56-12.165-66.56-23.04v-36.685l64.696,25.314c0.599,0.234,1.234,0.348,1.864,0.348
	c0.635,0,1.265-0.113,1.863-0.348l64.697-25.314V162.494z M221.603,104.233c-4.131-2.754-8.699-3.343-11.273-3.65
	c-7.061-0.855-80.656-10.455-81.398-10.552c-2.821-0.379-5.371,1.607-5.739,4.413c-0.369,2.806,1.613,5.376,4.414,5.74
	c2.775,0.363,62.771,8.187,78.357,10.168l-77.963,30.5L20.714,98.877l107.285-32.65l107.285,32.65L221.603,104.233z"/>
</svg>
