<?xml version="1.0" encoding="utf-8"?>
<!-- Generator: Adobe Illustrator 16.0.0, SVG Export Plug-In . SVG Version: 6.00 Build 0)  -->
<!DOCTYPE svg PUBLIC "-//W3C//DTD SVG 1.1//EN" "http://www.w3.org/Graphics/SVG/1.1/DTD/svg11.dtd">
<svg version="1.1" id="Layer_1" xmlns="http://www.w3.org/2000/svg" xmlns:xlink="http://www.w3.org/1999/xlink" x="0px" y="0px"
	 width="257.398px" height="256px" viewBox="0 0 257.398 256" enable-background="new 0 0 257.398 256" xml:space="preserve">
<path d="M164.587,154.708c0.368-0.144,0.717-0.323,1.029-0.543c38.639-16.199,66.18-57.532,66.18-105.838
	c0-15.59-2.862-30.76-8.504-45.086C222.519,1.285,220.629,0,218.525,0H40.271c-2.104,0-3.994,1.285-4.762,3.241
	C29.862,17.561,27,32.731,27,48.327c0,48.224,27.443,89.501,65.985,105.757c0.328,0.229,0.691,0.424,1.08,0.572
	c7.459,2.903,19.973,9.385,19.973,20.209v38.205c0,6.748-18.089,14.458-28.902,19.066c-12.702,5.411-21.099,8.984-22.01,15.309
	c-0.225,1.592-0.118,4.664,3.195,7.387c0.917,0.754,2.063,1.168,3.251,1.168h119.652c1.162,0,2.283-0.395,3.189-1.116
	c3.338-2.662,3.481-5.714,3.267-7.301c-0.845-6.267-8.739-9.646-21.815-15.247c-10.885-4.659-29.107-12.462-29.107-19.271v-38.205
	C144.757,164.093,157.183,157.611,164.587,154.708z M37.24,48.327c0-13.132,2.212-25.927,6.574-38.087h171.168
	c4.362,12.165,6.574,24.959,6.574,38.087c0,2.821-0.103,5.622-0.307,8.386H37.542C37.342,53.948,37.24,51.148,37.24,48.327z
	 M169.83,241.756c2.847,1.214,6.17,2.643,9.067,4.004h-99.28c3.01-1.428,6.538-2.928,9.533-4.203
	c16.466-7.014,35.127-14.965,35.127-28.486v-38.205c0-5.402-1.694-9.994-4.321-13.87c6.221,0.635,12.667,0.635,18.883,0
	c-2.627,3.87-4.321,8.468-4.321,13.864v38.205C134.518,226.627,153.283,234.666,169.83,241.756z M129.398,151.231
	c-45.122,0-82.773-36.397-90.648-84.278h181.291C212.171,114.834,174.519,151.231,129.398,151.231z"/>
</svg>
