<?xml version="1.0" encoding="utf-8"?>
<!-- Generator: Adobe Illustrator 16.0.0, SVG Export Plug-In . SVG Version: 6.00 Build 0)  -->
<!DOCTYPE svg PUBLIC "-//W3C//DTD SVG 1.1//EN" "http://www.w3.org/Graphics/SVG/1.1/DTD/svg11.dtd">
<svg version="1.1" id="Layer_1" xmlns="http://www.w3.org/2000/svg" xmlns:xlink="http://www.w3.org/1999/xlink" x="0px" y="0px"
	 width="255.312px" height="245.899px" viewBox="0 0 255.312 245.899" enable-background="new 0 0 255.312 245.899"
	 xml:space="preserve">
<g>
	<circle cx="225.772" cy="68.678" r="29.538"/>
	<path d="M211.831,109.008c-0.178-0.069-0.246-0.207-0.434-0.266l0,0c-35.416-11.55-45.735-22.341-51.928-27.156
		c0-10.063,3.691-33.999,6.459-69.543c0.423-5.435-0.119-10.506-5.387-11.845c-5.248-1.349-8.497,4.431-9.846,9.688
		c-11.707,46.041-13.598,77.509-13.529,78.946c0.129,2.462,1.162,4.795,2.925,6.528c0.61,0.601,12.052,17.034,37.208,32.079
		c-5.365,23.285-17.674,40.201-27.431,50.51c-0.089,0.05-0.147,0.04-0.236,0.1c-7.001,3.908-35.791,4.057-45.794,1.693
		c-19.998-12.269-56.231-41.305-60.15-44.456c-3.929-3.131-9.708-6.36-13.607-2.579c-3.909,3.791-1.979,9.009,1.802,12.928
		c1.625,1.664,40.428,44.563,62.533,57.275c1.034,0.6,2.235,0.975,3.357,1.191c12.396,2.49,21.799,3.889,29.135,4.539
		c-10.604,5.967-24.852,11.688-37.416,12.17c-22.036-8.084-69.907-34.698-74.368-37.012c-4.46-2.314-10.772-4.322-13.844,0.157
		c-3.092,4.479-0.167,9.216,4.312,12.308c1.92,1.319,55.06,41.02,79.222,49.133c1.123,0.373,2.363,0.512,3.515,0.502
		c28.603,0,51.387-10.162,70.863-23.7c9.472-5.504,56.487-34.629,66.294-91.087C227.2,121.227,221.185,111.883,211.831,109.008z"/>
</g>
</svg>
