
<?xml version="1.0" encoding="utf-8"?>
<!-- Generator: Adobe Illustrator 16.0.0, SVG Export Plug-In . SVG Version: 6.00 Build 0)  -->
<!DOCTYPE svg PUBLIC "-//W3C//DTD SVG 1.1//EN" "http://www.w3.org/Graphics/SVG/1.1/DTD/svg11.dtd">
<svg version="1.1" id="Layer_1" xmlns="http://www.w3.org/2000/svg" xmlns:xlink="http://www.w3.org/1999/xlink" x="0px" y="0px"
	 width="256px" height="220.009px" viewBox="0 0 256 220.009" enable-background="new 0 0 256 220.009" xml:space="preserve">
<path d="M255.529,194.241c0-0.459,0.066-0.914-0.061-1.369l-10.224-35.781c-0.613-2.137-2.565-3.609-4.79-3.609H15.544
	c-2.224,0-4.171,1.473-4.785,3.609L0.537,192.872c-0.127,0.455-0.066,0.91-0.066,1.369H0v20.447c0,2.939,2.382,5.321,5.321,5.321
	h245.357c2.939,0,5.321-2.382,5.321-5.321v-20.447H255.529z M19.296,163.439h217.403l7.375,25.829H11.92L19.296,163.439z
	 M10.643,209.367V199.22h234.715v10.146H10.643z M179.116,148.237v-35.781c0-28.186-22.931-51.116-51.116-51.116
	S76.884,84.27,76.884,112.456v35.781H66.661v-35.781c0-33.824,27.516-61.339,61.339-61.339c33.824,0,61.34,27.516,61.34,61.339
	v35.781H179.116z M204.674,148.237v-35.781c0-42.278-34.396-76.674-76.674-76.674s-76.674,34.396-76.674,76.674v35.781H41.103
	v-35.781c0-47.917,38.981-86.897,86.897-86.897c47.916,0,86.897,38.981,86.897,86.897v35.781H204.674z M153.559,148.237v-35.781
	c0-14.093-11.466-25.558-25.559-25.558s-25.558,11.465-25.558,25.558v35.781H92.219v-35.781c0-19.731,16.05-35.781,35.781-35.781
	c19.726,0,35.781,16.05,35.781,35.781v35.781H153.559z M25.768,148.237H15.544v-35.781C15.544,50.447,65.991,0,128,0
	s112.455,50.447,112.455,112.456v35.781h-10.223v-35.781c0-56.371-45.861-102.232-102.232-102.232S25.768,56.084,25.768,112.456
	V148.237z M128,102.232c5.623,0,10.223,4.6,10.223,10.223c0,0.512,0,35.781,0,35.781h-20.446c0,0,0-35.27,0-35.781
	C117.777,106.833,122.377,102.232,128,102.232z"/>
</svg>
