<?xml version="1.0" encoding="utf-8"?>
<!-- Generator: Adobe Illustrator 16.0.0, SVG Export Plug-In . SVG Version: 6.00 Build 0)  -->
<!DOCTYPE svg PUBLIC "-//W3C//DTD SVG 1.1//EN" "http://www.w3.org/Graphics/SVG/1.1/DTD/svg11.dtd">
<svg version="1.1" id="Layer_1" xmlns="http://www.w3.org/2000/svg" xmlns:xlink="http://www.w3.org/1999/xlink" x="0px" y="0px"
	 width="256px" height="220.008px" viewBox="0 0 256 220.008" enable-background="new 0 0 256 220.008" xml:space="preserve">
<path d="M246.662,87.466c0-11.112-4.319-21.552-12.171-29.391c-16.193-16.199-42.565-16.208-58.796,0L108.764,125.1L81.943,98.268
	l17.932-17.93c11.675-11.679,34.663-7.652,42.218-6.331l0.473,0.086c6.674,1.166,9.455-1.23,10.614-3.446
	c1.455-2.802,0.667-6.336-2.021-9.02c-2.066-2.062-52.053-52.058-54.811-54.82c-3.133-3.128-6.516-2.899-8.641-1.647
	c-3.295,1.951-4.324,6.37-2.744,11.828c1.395,4.823,5.942,31.836-6.127,43.9L23.124,116.61c-0.301,0.306-0.556,0.64-0.76,0.991
	c-17.635,18.567-17.348,48.017,0.864,66.231c18.337,18.335,48.067,18.502,66.613,0.491c0.19-0.13,0.371-0.288,0.542-0.464
	l56.521-56.535l18.28,18.299l-35.102,35.038c-4.208-1.641-9.402-0.621-12.695,2.67c-2.241,2.243-3.474,5.219-3.474,8.389
	c0,3.18,1.233,6.155,3.474,8.39l13.424,13.422c2.243,2.243,5.219,3.476,8.39,3.476c3.17,0,6.146-1.242,8.389-3.476
	c2.243-2.243,3.476-5.219,3.476-8.389c0-1.475-0.269-2.901-0.778-4.236l84.214-84.047
	C242.343,109.022,246.662,98.576,246.662,87.466z M102.058,131.812l-19.559,19.586l-26.837-26.845l19.577-19.575L102.058,131.812z
	 M75.793,158.109l-5.581,5.59c-7.404,7.416-19.445,7.406-26.849,0c-7.399-7.397-7.399-19.447,0-26.845
	c0.044-0.046,0.086-0.083,0.125-0.13l5.462-5.459L75.793,158.109z M153.615,120.624l42.306-42.322c5.08-5.059,13.302-5.05,18.354,0
	c2.456,2.449,3.801,5.705,3.801,9.165s-1.345,6.716-3.801,9.158l-42.371,42.297L153.615,120.624z M140.86,206.83
	c-0.603,0.603-1.308,0.695-1.678,0.695c-0.371,0-1.075-0.093-1.678-0.695l-13.42-13.432c-0.603-0.603-0.693-1.298-0.693-1.668
	c0-0.371,0.09-1.075,0.698-1.688c0.603-0.603,1.305-0.686,1.675-0.686c0.313,0,0.876,0.064,1.409,0.463
	c0.072,0.084,0.141,0.158,0.213,0.232c0.144,0.139,0.294,0.277,0.447,0.389l12.581,12.588c0.139,0.195,0.297,0.381,0.473,0.548
	c0.093,0.092,0.177,0.176,0.269,0.25c0.344,0.51,0.399,1.028,0.399,1.325C141.564,205.513,141.463,206.218,140.86,206.83z
	 M144.299,193.482l-6.812-6.813l83.49-83.323c4.255-4.243,6.591-9.881,6.591-15.879c0-6-2.336-11.638-6.582-15.876
	c-8.76-8.755-23.007-8.755-31.767-0.004L84.142,176.676c-0.181,0.13-0.348,0.287-0.507,0.444c-14.803,14.804-38.89,14.804-53.698,0
	c-14.796-14.803-14.796-38.895,0-53.698c0.29-0.287,0.528-0.593,0.728-0.927L85.551,67.6c13.73-13.73,11.214-38.538,9.459-48.714
	c10.906,10.913,35.12,35.129,45.145,45.168c-10.993-1.733-33.518-3.902-46.987,9.573l-56.516,56.507
	c-0.046,0.056-0.095,0.102-0.137,0.139c-10.964,11.114-10.919,29.078,0.137,40.137c11.103,11.105,29.169,11.105,40.271,0l0,0
	L182.396,64.789c12.523-12.505,32.879-12.505,45.384,0c6.053,6.048,9.39,14.106,9.39,22.678c0,8.57-3.337,16.629-9.39,22.683
	L144.299,193.482z"/>
</svg>
