<?xml version="1.0" encoding="utf-8"?>
<!-- Generator: Adobe Illustrator 16.0.0, SVG Export Plug-In . SVG Version: 6.00 Build 0)  -->
<!DOCTYPE svg PUBLIC "-//W3C//DTD SVG 1.1//EN" "http://www.w3.org/Graphics/SVG/1.1/DTD/svg11.dtd">
<svg version="1.1" id="Layer_1" xmlns="http://www.w3.org/2000/svg" xmlns:xlink="http://www.w3.org/1999/xlink" x="0px" y="0px"
	 width="209.156px" height="256px" viewBox="0 0 209.156 256" enable-background="new 0 0 209.156 256" xml:space="preserve">
<path d="M207.922,232.541l-38.518-102.868c-0.43-3.914-1.166-7.767-2.338-11.507l-11.4-35.56l16.491-7.424
	c6.835-3.418,10.079-9.148,8.872-15.794c-5.424-27.655-26.591-48.193-58.359-56.968C118.884,0.88,114.786,0,110.519,0
	c-9.113,0-17.938,3.72-24.211,10.208c-6.12,6.324-9.333,14.572-9.046,23.05c0,10.924,5.316,20.604,13.472,26.667L18.186,89.856
	c-5.986,2.205-10.78,6.703-13.502,12.653c-2.711,5.936-2.988,12.495-0.803,18.43l2.574,7.214
	c3.551,9.635,13.073,15.733,22.973,15.733c2.727,0,5.485-0.461,8.156-1.443l0.527-0.225c4.17-2.088,6.319-6.585,5.229-10.939
	l-11.113-21.463c0.077-0.107,0.189-0.23,0.343-0.358l69.902-27.143c-0.727,4.052-0.353,8.304,1.239,12.167l21.188,53.97
	l1.938,37.842l-20.016,44.539c-3.644,8.738,0.204,19.248,8.714,23.5c2.414,1.115,4.973,1.668,7.541,1.668
	c2.195,0,4.385-0.404,6.504-1.223c4.492-1.745,8.094-5.152,10.212-9.736l19.878-46.689l17.125,46.305
	c1.442,4.34,4.497,7.752,8.596,9.614c2.159,0.982,4.456,1.464,6.718,1.464c2.067,0,4.114-0.399,5.997-1.188
	c4.18-1.392,7.659-4.554,9.526-8.662C209.57,241.612,209.651,236.69,207.922,232.541z M151.267,52.731l-24.36,9.43
	c7.695-4.385,13.457-11.743,15.749-20.507C146.663,44.79,149.655,49.144,151.267,52.731z M93.66,17.319
	c4.42-4.569,10.407-7.086,16.859-7.086c1.341,0,2.64,0.179,3.925,0.41c0.348,0.174,0.67,0.394,1.068,0.486
	c1.382,0.317,2.723,0.686,4.062,1.054c8.125,3.597,13.969,11.788,13.969,21.075c0,12.694-10.33,23.024-23.024,23.024
	s-23.024-10.33-23.024-23.193C87.3,27.235,89.485,21.633,93.66,17.319z M28.337,100.12l-0.778,0.384
	c-2.256,1.351-4.006,3.372-4.932,5.685c-1.136,2.85-0.911,5.945,0.476,8.243l9.844,18.762c-6.846,1.893-14.408-1.848-16.869-8.529
	l-2.574-7.214c-1.264-3.433-1.09-7.225,0.491-10.683c1.581-3.454,4.324-6.048,7.916-7.373l81.552-33.641
	c2.271,0.486,4.631,0.762,7.056,0.762c1.954,0,3.862-0.205,5.73-0.527L28.337,100.12z M130.432,240.886
	c-0.936,2.026-2.553,3.571-4.563,4.354c-1.97,0.752-4.124,0.695-5.899-0.128c-3.598-1.796-5.291-6.528-3.761-10.208l20.466-45.537
	c0.333-0.742,0.486-1.55,0.445-2.358l-2.041-39.909c-0.031-0.553-0.144-1.095-0.348-1.606L113.21,90.67
	c-1.238-3.009-1.218-6.232,0.051-9.077c1.187-2.666,3.366-4.667,6.146-5.649l7.162-2.558c0.303-0.107,0.625-0.281,0.947-0.486
	c0.072-0.026,0.133-0.051,0.205-0.077l31.722-12.279c2.257-0.875,3.597-3.218,3.198-5.613c-1.182-7.066-7.992-19.116-19.023-24.672
	c-0.297-3.157-1.069-6.196-2.226-9.062c15.856,9.353,26.273,23.204,29.583,40.088c0.164,0.906,0.512,2.793-3.202,4.656
	l-20.466,9.209c-2.375,1.069-3.566,3.75-2.773,6.227l12.781,39.873c0.91,2.911,1.479,5.863,1.852,8.846
	c-0.051,0.717,0.016,1.448,0.281,2.164l0.006,0.016c0.297,3.658,0.209,7.389-0.271,11.236l-7.066,46.432L130.432,240.886z
	 M198.313,241.638c-0.705,1.556-1.934,2.687-3.801,3.326c-1.633,0.681-3.377,0.681-4.893-0.011
	c-1.479-0.675-2.588-1.929-3.182-3.693l-22.513-60.882l3.914-25.721l30.571,81.644C199.117,238.01,199.081,239.949,198.313,241.638z
	 M35.818,68.05c0-44.8,26.862-61.966,28.002-62.677c2.405-1.484,5.557-0.747,7.045,1.652c1.489,2.4,0.747,5.557-1.652,7.045
	c-0.926,0.583-23.163,15.15-23.163,53.979c0,2.824-2.292,5.116-5.117,5.116C38.11,73.166,35.818,70.874,35.818,68.05z M4.541,86.95
	c-2.809-0.317-4.825-2.855-4.508-5.659C5.313,34.844,36.232,7.045,37.547,5.884c2.123-1.867,5.347-1.668,7.214,0.445
	c1.873,2.113,1.678,5.342-0.435,7.219c-0.292,0.261-29.308,26.483-34.122,68.889c-0.297,2.614-2.512,4.543-5.081,4.543
	C4.929,86.981,4.735,86.971,4.541,86.95z"/>
</svg>
