<?xml version="1.0" encoding="utf-8"?>
<!-- Generator: Adobe Illustrator 16.0.0, SVG Export Plug-In . SVG Version: 6.00 Build 0)  -->
<!DOCTYPE svg PUBLIC "-//W3C//DTD SVG 1.1//EN" "http://www.w3.org/Graphics/SVG/1.1/DTD/svg11.dtd">
<svg version="1.1" id="Layer_1" xmlns="http://www.w3.org/2000/svg" xmlns:xlink="http://www.w3.org/1999/xlink" x="0px" y="0px"
	 width="256px" height="255.489px" viewBox="0 0 256 255.489" enable-background="new 0 0 256 255.489" xml:space="preserve">
<g>
	<path d="M20.076,76.57c6.929,1.211,13.95-0.685,19.295-5.176c1.369-1.155,2.59-2.442,3.658-3.837c4.4,5.539,11.19,9.09,18.799,9.09
		c7.747,0,14.783-3.899,19.203-9.795c5.156,5.973,13.551,9.795,23.209,9.795c6.929,0,13.382-2.197,18.395-5.784v37.976
		c0,2.821,2.289,5.11,5.11,5.11c2.826,0,5.11-2.289,5.11-5.11V71.164c4.94,3.439,11.328,5.483,18.396,5.483
		c9.289,0,17.726-3.945,22.988-9.908c4.369,5.999,11.451,9.908,19.422,9.908c7.512,0,14.349-3.659,18.789-9.259
		c0.936,1.216,1.988,2.34,3.148,3.368c5.299,4.65,12.478,6.781,19.774,5.82c11.472-1.906,20.117-12.642,20.117-24.966
		c0-7.394-4.481-13.863-11.277-16.126L129.242,0.225c-0.971-0.296-2.009-0.302-2.975-0.005L11.298,34.966
		c-0.205,0.062-0.404,0.133-0.603,0.22C4.2,38.078,0,44.521,0,51.609C0,63.934,8.646,74.669,20.076,76.57z M14.599,44.644
		l113.136-34.189L241.1,45.217c2.453,0.817,4.17,3.444,4.17,6.392c0,7.389-4.977,13.792-11.39,14.859
		c-4.262,0.552-8.446-0.685-11.532-3.393c-3.016-2.642-4.671-6.352-4.671-10.444c0-2.821-2.284-5.11-5.11-5.11
		c-2.825,0-5.109,2.289-5.109,5.11c0,7.348-6.448,13.796-13.791,13.796c-7.609,0-13.797-6.188-13.797-13.796
		c0-2.821-2.283-5.11-5.109-5.11s-5.109,2.289-5.109,5.11c0,7.348-8.601,13.796-18.4,13.796c-10.139,0-18.396-6.188-18.396-13.796
		c0-2.821-2.284-5.11-5.11-5.11c-2.821,0-5.11,2.289-5.11,5.11c0,7.348-8.595,13.796-18.396,13.796
		c-10.143,0-18.395-6.188-18.395-13.796c0-2.821-2.289-5.11-5.11-5.11c-2.82,0-5.11,2.289-5.11,5.11
		c0,7.348-6.448,13.796-13.796,13.796c-7.608,0-13.796-6.188-13.796-13.796c0-2.821-2.289-5.11-5.109-5.11
		c-2.821,0-5.11,2.289-5.11,5.11c0,4.267-1.83,8.257-5.023,10.945c-3.071,2.585-6.955,3.633-11.001,2.923
		C15.196,65.4,10.22,58.998,10.22,51.609C10.22,48.65,11.931,45.947,14.599,44.644z"/>
	<path d="M242.715,219.721h-109.86v-40.879c0-2.826-2.284-5.109-5.11-5.109c-2.821,0-5.11,2.283-5.11,5.109v40.879H13.286
		C5.835,219.721,0,225.556,0,233.006v17.373c0,2.826,2.289,5.109,5.11,5.109h245.781c2.825,0,5.109-2.283,5.109-5.109v-17.373
		C256,225.556,250.164,219.721,242.715,219.721z M245.78,245.27H10.22v-12.264c0-1.778,1.288-3.066,3.066-3.066h229.429
		c1.777,0,3.065,1.288,3.065,3.066V245.27z"/>
	<path d="M182.174,132.318c3.061,1.533,4.43,2.989,6.919,5.636c0.879,0.94,1.845,1.968,3.005,3.123
		c2.773,2.773,6.78,3.556,10.469,2.027c4.277-1.777,6.935-6.096,6.935-11.271l0.011-1.538c0.076-7.159,0.178-17.945-11.446-33.801
		c-0.026-0.419,0.015-0.986,0.107-1.329c0.716-0.904,1.108-2.023,1.108-3.188c0-3.562-3.285-6.576-6.852-6.081
		c-0.251,0.051-0.608-0.015-1.037-0.031c-5.831-0.225-23.73-0.894-36.219,17.588c-4.977,7.465-11.824,15.094-24.875,15.094
		c-4.731,0-8.042-0.531-11.246-1.047c-3.05-0.491-6.203-0.997-10.214-0.997c-7.185,0-13.066,1.094-18.242,3.414
		c-4.491-2.294-9.249-3.414-14.46-3.414c-15.559,0-26.331,10.48-29.483,28.4c-0.854,3.419-0.143,8.467,3.168,11.768
		c2.974,2.551,10.935,7.094,16.556,4.865c2.575-1.018,4.303-3.311,4.619-6.143c0.669-5.993,2.381-10.143,4.957-12.013
		c0.47-0.337,0.981-0.608,1.538-0.808c-0.342,2.545-0.45,4.84-0.542,6.745c-0.062,1.257-0.092,2.325-0.286,3.612
		c-0.276,3.838-9.755,19.98-13.802,26.873c-2.933,4.997-4.497,7.675-5.289,9.474c-3.577,9.294,0.414,16.157,5.958,18.829
		c6.627,3.204,14.778,0.689,18.472-5.6l1.211-1.957c7.864-12.714,19.739-31.926,45.042-31.926c20.567,0,38.482,23.474,45.227,32.303
		c1.017,1.34,1.844,2.423,2.504,3.209c2.988,3.49,7.025,5.361,10.99,5.361c2.075-0.006,4.135-0.517,6.004-1.58
		c4.845-2.738,6.863-8.298,5.003-13.867c-3.419-10.01-8.053-19.407-12.151-27.7c-3.607-7.308-7.695-15.59-7.506-18.446
		c0.435-9.57,2.463-14.512,3.551-15.718C182.025,132.251,182.174,132.318,182.174,132.318z M177.049,123.09
		c-6.643,3.786-8.523,15.329-8.927,24.241c-0.362,5.488,3.372,13.065,8.549,23.546c3.954,8.013,8.437,17.097,11.63,26.442
		c0.419,1.268-0.107,1.564-0.357,1.707c-0.92,0.531-2.647,0.276-4.149-1.481c-0.547-0.659-1.282-1.62-2.192-2.815
		c-8.293-10.869-27.726-36.326-53.346-36.326c-30.996,0-45.784,23.92-53.729,36.766l-1.257,2.028
		c-1.349,2.278-3.909,2.366-5.299,1.696c-2.31-1.119-1.533-4.211-0.96-5.713c0.49-1.104,2.611-4.716,4.66-8.206
		c8.349-14.216,14.772-25.554,15.125-30.837c0.189-1.125,0.276-2.602,0.353-4.344c0.143-3.081,0.322-6.914,1.533-10.838
		c0.424-1.375,0.25-2.861-0.48-4.098c-0.73-1.236-1.947-2.111-3.352-2.407c-5.682-1.206-10.843-0.286-14.895,2.647
		c-4.517,3.27-7.45,8.783-8.738,16.412c-1.385-0.485-3.153-1.35-4.44-2.351c-0.194-0.409-0.322-1.354-0.138-2.136
		c2.381-13.47,8.942-20.301,19.499-20.301c4.297,0,7.981,1.053,11.604,3.311c1.568,0.977,3.562,1.032,5.191,0.133
		c4.231-2.355,9.284-3.449,15.912-3.449c3.199,0,5.698,0.403,8.59,0.869c3.434,0.552,7.322,1.175,12.872,1.175
		c18.176,0,27.756-11.216,33.356-19.621c7.777-11.513,17.92-13.051,24.18-13.127c0,0.062,0,0.118,0,0.179
		c0,1.839,0.332,4.338,1.839,6.147c9.76,13.219,9.678,21.328,9.611,27.848l-0.01,1.646c0,0.828-0.204,1.323-0.383,1.589
		c-0.889-0.899-1.65-1.717-2.355-2.463c-2.739-2.913-5.105-5.432-9.678-7.716C183.513,121.455,180.033,121.398,177.049,123.09z"/>
</g>
</svg>
