<?xml version="1.0" encoding="utf-8"?>
<!-- Generator: Adobe Illustrator 16.0.0, SVG Export Plug-In . SVG Version: 6.00 Build 0)  -->
<!DOCTYPE svg PUBLIC "-//W3C//DTD SVG 1.1//EN" "http://www.w3.org/Graphics/SVG/1.1/DTD/svg11.dtd">
<svg version="1.1" id="Layer_1" xmlns="http://www.w3.org/2000/svg" xmlns:xlink="http://www.w3.org/1999/xlink" x="0px" y="0px"
	 width="271.681px" height="233px" viewBox="-30.196 -25.897 271.681 233" enable-background="new -30.196 -25.897 271.681 233"
	 xml:space="preserve">
<path d="M240.802,49.302c0.018,0-40.723-67.951-40.723-67.951c-2.393-3.987-8.148-7.249-12.8-7.249H24.057
	c-4.649,0-10.407,3.261-12.801,7.244l-40.768,67.955l0,0c0,0-2.387,4.473,1.757,9.207l127.82,145.97
	c1.532,1.748,3.549,2.624,5.568,2.624c2.022,0,4.041-0.876,5.573-2.624L238.859,58.764c0.065-0.087,0.11-0.172,0.188-0.255
	C243.186,53.775,240.802,49.302,240.802,49.302z M66.185,50.125l16.16-67.567h46.648l16.177,67.567H66.185z M146.299,58.609
	l-40.625,129.644L65.058,58.609H146.299z M18.503-14.303c0.865-1.439,3.875-3.142,5.553-3.142h49.597L57.493,50.123H-20.15
	L18.503-14.303z M56.2,58.609l40.468,129.159L-16.429,58.609H56.2z M114.726,187.63l40.431-129.02h72.6L114.726,187.63z
	 M153.863,50.125l-16.176-67.567h49.591c1.679,0,4.688,1.705,5.553,3.144l38.647,64.424H153.863z"/>
</svg>
