<?xml version="1.0" encoding="utf-8"?>
<!-- Generator: Adobe Illustrator 16.0.0, SVG Export Plug-In . SVG Version: 6.00 Build 0)  -->
<!DOCTYPE svg PUBLIC "-//W3C//DTD SVG 1.1//EN" "http://www.w3.org/Graphics/SVG/1.1/DTD/svg11.dtd">
<svg version="1.1" id="Layer_1" xmlns="http://www.w3.org/2000/svg" xmlns:xlink="http://www.w3.org/1999/xlink" x="0px" y="0px"
	 width="256.001px" height="256px" viewBox="0 0 256.001 256" enable-background="new 0 0 256.001 256" xml:space="preserve">
<path d="M209.921,123.84c-7.178,0-13.947,1.689-20.004,4.613c-3.589-7.015-6.84-14.188-9.59-21.228
	c4.184,0.845,8.633,1.265,12.15,1.265c6.568,0,10.972-1.347,13.844-4.229c3.65-3.666,3.625-8.484,3.609-12.739l-0.004-0.962
	l0.004-0.963c0.016-4.255,0.041-9.068-3.609-12.733c-2.877-2.888-7.275-4.234-13.844-4.234c-8.494,0-15.944,2.068-21.264,5.739
	c-1.551-6.006-2.586-10.337-2.611-10.455c-0.098-0.409-0.24-0.793-0.425-1.157c-1.598-5.581-4.792-11.607-4.937-11.878
	c-0.891-1.674-2.626-2.719-4.52-2.719c-0.717,0-17.613,0.133-29.221,11.74c-2.002,2.001-2.002,5.237,0,7.239s5.238,2.002,7.24,0
	c6.041-6.042,14.448-7.905,18.913-8.483c1.044,2.278,2.278,5.263,2.888,7.721c-0.098,2.232-1.321,6.554-4.04,9.584
	c-1.761,1.961-3.732,2.918-6.021,2.918c-31.412,0-37.294,14.776-40.454,22.712c-0.384,0.958-0.871,2.191-1.25,2.883
	c-16.466-0.123-28.892-4.465-30.617-7.588C69.306,88.471,63.684,88,40.961,88C5.5,88,0.57,105.377,0.125,107.359
	c-0.364,1.623,0.082,3.322,1.198,4.557c0.635,0.701,6.533,6.805,19.159,6.805c1.874,0,3.779-0.052,5.714-0.104
	c9.923-0.286,19.492-0.496,28.682,6.083c-2.852-0.548-5.786-0.86-8.796-0.86c-25.457,0-46.08,20.623-46.08,46.08
	S20.625,216,46.082,216c22.385,0,41.016-15.949,45.194-37.104c10.178,4.71,25.687,6.333,34.099,6.333c0.23,0,0.46-0.005,0.686-0.005
	c9.415-0.118,22.421-2.381,28.078-8.366c2.519-2.668,2.954-5.365,2.831-7.639c-4.168-30.023,10.24-44.145,17.566-49.265
	c2.064,4.664,4.337,9.323,6.718,13.927c-10.604,8.442-17.413,21.432-17.413,36.039c0,25.457,20.623,46.08,46.08,46.08
	s46.08-20.623,46.08-46.08S235.378,123.84,209.921,123.84z M175.039,88.481c3.134-3.446,9.82-5.591,17.439-5.591
	c5.109,0,6.369,1.009,6.574,1.208c0.64,0.645,0.624,3.308,0.619,5.448l-0.006,1.003l0.006,1.009
	c0.005,2.145,0.021,4.808-0.619,5.453c-0.205,0.199-1.465,1.208-6.574,1.208c-5.842,0-12.908-1.265-16.088-2.878
	c-0.179-0.092-0.373-0.087-0.558-0.158c-0.589-2.002-1.167-4.029-1.726-6.037C174.424,88.941,174.767,88.773,175.039,88.481z
	 M46.082,205.76c-19.763,0-35.84-16.082-35.84-35.84s16.077-35.84,35.84-35.84c9.344,0,17.833,3.625,24.223,9.502
	c0.354,0.431,0.732,0.805,1.183,1.092c5.304,5.334,8.904,12.334,10.025,20.126H71.165c-2.371-11.684-12.703-20.479-25.083-20.479
	c-14.136,0-25.6,11.458-25.6,25.6c0,14.137,11.464,25.6,25.6,25.6c12.38,0,22.712-8.796,25.083-20.479h10.347
	C79.013,192.377,64.104,205.76,46.082,205.76z M46.082,175.04H60.5c-2.12,5.944-7.752,10.239-14.418,10.239
	c-8.469,0-15.36-6.891-15.36-15.359s6.891-15.359,15.36-15.359c6.666,0,12.293,4.295,14.418,10.239H46.082
	c-2.826,0-5.12,2.289-5.12,5.12C40.961,172.752,43.255,175.04,46.082,175.04z M146.736,169.812c-1.485,1.844-9.4,5.033-20.798,5.176
	c-13.292,0.318-29.727-3.527-33.895-7.484c-0.629-12.114-5.903-22.979-14.11-30.844c-16.42-29.163-36.127-28.677-52.009-28.277
	c-1.843,0.046-3.655,0.098-5.442,0.098c-3.871,0-6.682-0.783-8.561-1.598c3.021-3.415,10.645-8.643,29.041-8.643
	c22.042,0,22.359,0.573,26.24,7.593c5.611,10.173,27.986,12.888,40.32,12.888c6.297,0,8.448-5.402,10.02-9.345
	c2.734-6.86,6.477-16.256,30.94-16.256c5.217,0,9.932-2.187,13.645-6.318c0.184-0.205,0.369-0.415,0.543-0.629
	c2.155,8.064,4.874,17.582,7.413,24.535C161.159,116.646,141.861,133.881,146.736,169.812z M209.921,205.76
	c-19.758,0-35.84-16.082-35.84-35.84c0-10.676,4.721-20.244,12.15-26.818c1.74,3.072,3.517,6.093,5.34,9.016
	c-4.471,4.608-7.25,10.87-7.25,17.803c0,14.137,11.463,25.6,25.6,25.6s25.6-11.463,25.6-25.6c0-14.142-11.463-25.6-25.6-25.6
	c-3.518,0-6.865,0.711-9.918,1.996c-1.781-2.867-3.527-5.816-5.227-8.832c4.607-2.16,9.728-3.404,15.145-3.404
	c19.758,0,35.84,16.082,35.84,35.84S229.679,205.76,209.921,205.76z M197.444,161.031c4.603,6.651,9.293,12.646,13.865,17.516
	c1.94,2.063,5.177,2.166,7.239,0.23c2.059-1.936,2.166-5.176,0.23-7.239c-4.265-4.547-8.652-10.133-12.959-16.349
	c1.311-0.368,2.674-0.629,4.102-0.629c8.469,0,15.359,6.891,15.359,15.359s-6.891,15.359-15.359,15.359s-15.359-6.891-15.359-15.359
	C194.562,166.602,195.647,163.545,197.444,161.031z"/>
</svg>
