<?xml version="1.0" encoding="utf-8"?>
<!-- Generator: Adobe Illustrator 16.0.0, SVG Export Plug-In . SVG Version: 6.00 Build 0)  -->
<!DOCTYPE svg PUBLIC "-//W3C//DTD SVG 1.1//EN" "http://www.w3.org/Graphics/SVG/1.1/DTD/svg11.dtd">
<svg version="1.1" id="Layer_1" xmlns="http://www.w3.org/2000/svg" xmlns:xlink="http://www.w3.org/1999/xlink" x="0px" y="0px"
	 width="256.001px" height="256.009px" viewBox="0 0 256.001 256.009" enable-background="new 0 0 256.001 256.009"
	 xml:space="preserve">
<path d="M200.377,215.957c39.889-3.113,53.365-15.242,54-15.826c1.812-1.695,2.15-4.449,0.799-6.528l-28.247-43.54
	c9.222-3.631,12.928-7.471,13.619-8.248c1.454-1.654,1.689-4.056,0.579-5.961L210.15,82.585c7.496-2.278,13.287-5.243,13.287-8.678
	c0-0.871-0.227-1.73-0.646-2.494L184.458,2.626C183.557,1.003,181.842,0,179.983,0s-3.569,1.003-4.47,2.626L137.18,71.414
	c-0.695,1.244-0.84,2.719-0.398,4.071c0.439,1.356,1.418,2.462,2.708,3.066c0.354,0.164,4.362,2.007,10.624,3.974l-8.715,14.863
	c-2.877-3.999-6.896-6.395-10.214-7.859c1.274-3.395,1.936-7.004,1.936-10.686c0-12.657-7.736-23.7-18.959-27.878
	c0.031-0.532,0.051-1.065,0.051-1.613c0-21.796-17.137-39.526-38.2-39.526c-13.742,0-26.486,7.839-33.214,20.193
	c-13.619,2.406-23.895,14.659-23.895,29.164c0,1.101,0.062,2.207,0.179,3.297c-6.226,7.24-9.625,16.44-9.625,26.194
	c0,3.323,0.486,6.723,1.48,10.353c-0.978,3.036-1.48,6.159-1.48,9.308c0,2.268,0.271,4.552,0.809,6.815
	C3.778,120.76,0,128.982,0,137.825c0,12.667,7.726,23.695,18.949,27.874c-0.031,0.537-0.046,1.08-0.046,1.612
	c0,16.374,12.897,29.696,28.749,29.696c1.306,0,2.581,0.045,3.814,0.086c3.84,0.123,7.992,0.277,11.796-1.028
	c5.1,32.281-3.784,38.205-9.805,42.22c-3.563,2.381-8.945,5.97-7.071,13.783c0.563,2.35,2.663,3.926,4.977,3.926
	c0.395,0,0.799-0.045,1.198-0.138c2.75-0.66,4.444-3.425,3.784-6.175c-0.107-0.43-0.103-0.645-0.113-0.65
	c0.297-0.48,1.802-1.484,2.908-2.227c9.206-6.139,18.406-15.299,15.191-45.139c3.513,0.999,7.209,0.999,10.537,0.497
	c1.408,32.538,13.143,41.835,19.63,46.976c0.875,0.697,2.043,1.618,2.478,2.12c0.195,2.652,2.407,4.741,5.105,4.741
	c2.826,0,5.12-2.289,5.12-5.12c0-4.741-3.369-7.409-6.344-9.769c-5.438-4.312-14.239-11.279-15.683-37.775
	c5.319,1.203,10.173,0.322,13.66-0.953c6.461,3.922,23.818,12.119,58.02,13.942l0.395,2.478c1.418,13.764-0.723,19.334-2.76,21.581
	c-1.94,2.13-4.797,2.288-8.775,2.253c-3.18-0.035-6.8-0.051-9.16,2.801c-0.978,1.178-2.022,3.262-1.393,6.431
	c0.533,2.719,3.093,4.397,5.857,3.911c1.689-0.286,3.041-1.423,3.732-2.902c0.312,0.016,0.619,0,0.901,0.005
	c4.198-0.005,11.259,0.077,16.425-5.611c5.079-5.591,6.835-15.247,5.33-29.794l-0.129-0.813c4.301,0.052,8.787,0.005,12.877-0.128
	c0.006,1.762-0.02,3.66-0.066,6.154c-0.276,14.965,1.291,22.769,5.396,26.941c3.369,3.426,7.531,3.533,10.261,3.404
	c2.897,0.025,3.364,0.133,4.101,1.05c1.762,2.207,4.982,2.575,7.194,0.794c2.212-1.767,2.565-4.992,0.794-7.193
	c-3.928-4.905-9.058-4.891-12.109-4.891c-1.658,0.072-2.621-0.02-2.939-0.342c-0.649-0.661-2.738-4.015-2.451-19.574
	C200.361,220.032,200.387,217.933,200.377,215.957z M148.961,71.312l31.027-55.675l31.068,55.756
	c-6.282,2.35-17.803,5.868-30.587,5.868c-7.675,0-15.053-1.27-21.161-2.801c-0.107-0.03-0.225-0.061-0.338-0.087
	C154.973,73.364,151.542,72.243,148.961,71.312z M160.389,85.248c6.001,1.295,12.888,2.258,20.081,2.258
	c4.204,0,11.729-0.845,19.317-2.365l30.229,51.968c-5.529,3.421-19.727,9.708-49.315,9.708c-14.849,0-27.663-1.567-38.088-4.66
	c0,0,0,0-0.005,0c-6.011-1.781-10.066-3.737-12.549-5.191L160.389,85.248z M105.339,192.773c-2.565,0.993-7.403,1.971-12.657-1.525
	c-0.855-0.568-1.843-0.861-2.836-0.861c-0.707,0-1.408,0.145-2.074,0.441c-1.613,0.645-12.021,4.464-15.646-3.688
	c-0.026-0.066-0.062-0.127-0.092-0.193c-0.056-0.303-0.118-0.6-0.179-0.902c-0.41-2.027-2.002-3.614-4.029-4.014
	c-2.028-0.395-4.106,0.466-5.248,2.187c-1.797,2.692-4.239,2.878-10.762,2.642c-1.347-0.046-2.739-0.092-4.163-0.092
	c-10.209,0-18.509-8.725-18.509-19.456c0-1.353,0.159-2.745,0.486-4.271c0.292-1.356,0.021-2.77-0.748-3.922
	s-1.971-1.94-3.333-2.191c-8.873-1.623-15.309-9.656-15.309-19.103c0-6.718,3.271-12.867,8.75-16.466
	c1.997-1.306,2.821-3.814,1.997-6.052c-0.86-2.335-1.295-4.68-1.295-6.974c0-2.468,0.466-4.931,1.388-7.311
	c0.42-1.075,0.456-2.263,0.113-3.364c-1.014-3.261-1.505-6.2-1.505-8.985c0-7.941,3.005-15.38,8.468-20.951
	c1.183-1.208,1.695-2.923,1.367-4.583c-0.256-1.29-0.384-2.621-0.384-3.958c0-10.179,7.619-18.663,17.352-19.308
	c1.884-0.123,3.543-1.275,4.326-2.995c4.695-10.368,14.346-16.814,25.196-16.814c15.416,0,27.96,13.138,27.96,29.286
	c0,1.423-0.2,2.862-0.46,4.593c-0.415,2.724,1.408,5.289,4.122,5.796c8.837,1.654,15.247,9.687,15.247,19.103
	c0,3.845-1.08,7.578-3.133,10.798c-0.84,1.321-1.029,2.959-0.517,4.439c0.517,1.479,1.685,2.642,3.164,3.154l1.07,0.348
	c5.218,1.679,10.793,4.045,11.407,10.941l-16.01,27.311c-1.178,2.018-0.85,4.572,0.804,6.215c0.486,0.486,4.362,4.158,13.619,7.752
	L105.339,192.773z M180.885,206.438c-37.617,0-57.078-7.659-64.65-11.638l27.182-41.8c10.614,2.693,23.143,4.06,37.289,4.06
	c15.52,0,27.279-1.617,36.091-3.809l27.039,41.688C236.729,198.887,218.25,206.438,180.885,206.438z"/>
</svg>
