<?xml version="1.0" encoding="utf-8"?>
<!-- Generator: Adobe Illustrator 16.0.0, SVG Export Plug-In . SVG Version: 6.00 Build 0)  -->
<!DOCTYPE svg PUBLIC "-//W3C//DTD SVG 1.1//EN" "http://www.w3.org/Graphics/SVG/1.1/DTD/svg11.dtd">
<svg version="1.1" id="Layer_1" xmlns="http://www.w3.org/2000/svg" xmlns:xlink="http://www.w3.org/1999/xlink" x="0px" y="0px"
	 width="300px" height="300px" viewBox="0 0 300 300" enable-background="new 0 0 300 300" xml:space="preserve">
<g>
	<path d="M150,8.84C72.361,8.84,8.84,72.361,8.84,150c0,77.634,63.521,141.16,141.16,141.16c77.634,0,141.16-63.526,141.16-141.16
		C291.16,72.361,227.634,8.84,150,8.84z M150,267.633c-64.699,0-117.633-52.935-117.633-117.633
		C32.367,85.301,85.301,32.367,150,32.367c64.698,0,117.633,52.935,117.633,117.633C267.633,214.698,214.698,267.633,150,267.633z"
		/>
	<path d="M79.42,220.58l92.936-48.225L220.58,79.42l-92.93,48.23L79.42,220.58z M150,137.06c7.054,0,12.935,5.881,12.935,12.94
		c0,7.054-5.881,12.935-12.935,12.935c-7.059,0-12.94-5.881-12.94-12.935C137.06,142.941,142.941,137.06,150,137.06z"/>
</g>
</svg>
