<?xml version="1.0" encoding="utf-8"?>
<!-- Generator: Adobe Illustrator 16.0.0, SVG Export Plug-In . SVG Version: 6.00 Build 0)  -->
<!DOCTYPE svg PUBLIC "-//W3C//DTD SVG 1.1//EN" "http://www.w3.org/Graphics/SVG/1.1/DTD/svg11.dtd">
<svg version="1.1" id="Layer_1" xmlns="http://www.w3.org/2000/svg" xmlns:xlink="http://www.w3.org/1999/xlink" x="0px" y="0px"
	 width="230.451px" height="256px" viewBox="0 0 230.451 256" enable-background="new 0 0 230.451 256" xml:space="preserve">
<path d="M229.96,59.646c-0.843-1.789-2.641-2.928-4.619-2.928H123.376C120.765,24.721,94.255,0,61.828,0C27.736,0,0,27.736,0,61.828
	c0,34.093,27.736,61.829,61.828,61.829c12.729,0,24.803-3.833,35.155-11.022l41.625,50.628c-0.088,0.373-0.134,0.757-0.134,1.155
	v56.646c-21.343,3.971-61.317,13.582-61.317,29.826c0,2.825,2.29,5.109,5.11,5.109h122.634c2.826,0,5.11-2.284,5.11-5.109
	c0-16.244-39.974-25.855-61.317-29.826v-56.646c0-0.398-0.046-0.782-0.127-1.155l80.724-98.189
	C230.548,63.545,230.804,61.43,229.96,59.646z M61.828,112.415c-27.895,0-50.587-22.692-50.587-50.587
	c0-27.894,22.692-50.586,50.587-50.586c26.218,0,47.71,19.749,50.275,45.477H89.835c2.044-1.748,2.938-3.822,1.655-6.295
	c-4.271-8.227-19.581,3.342-25.574,8.334l-0.143-0.174c-0.475-0.577-1.053-1.001-1.681-1.313c1.252-8.043,3.255-26.837-5.692-25.881
	c-9.034,0.966-2.902,19.274-0.015,26.734c-0.557,0.516-0.951,1.125-1.221,1.789c-6.709-3.521-24.757-12.018-27.092-2.923
	c-2.581,10.056,22.636,8.528,27.828,8.109l0.398,0.485c-3.342,3.24-20.71,20.689-12.637,26.27
	c7.338,5.063,13.792-15.079,15.846-22.36l28.323,34.45C81.537,109.477,71.93,112.415,61.828,112.415z M194.36,245.78H92.814
	c8.927-5.003,27.981-11.241,50.771-15.253C166.38,234.533,185.434,240.773,194.36,245.78z M143.585,153.232L93.646,92.487h99.871
	L143.585,153.232z M201.923,82.268H85.246l-12.601-15.33h141.883L201.923,82.268z"/>
</svg>
