<?xml version="1.0" encoding="utf-8"?>
<!-- Generator: Adobe Illustrator 16.0.0, SVG Export Plug-In . SVG Version: 6.00 Build 0)  -->
<!DOCTYPE svg PUBLIC "-//W3C//DTD SVG 1.1//EN" "http://www.w3.org/Graphics/SVG/1.1/DTD/svg11.dtd">
<svg version="1.1" id="Layer_1" xmlns="http://www.w3.org/2000/svg" xmlns:xlink="http://www.w3.org/1999/xlink" x="0px" y="0px"
	 width="255.996px" height="236.867px" viewBox="0 0 255.996 236.867" enable-background="new 0 0 255.996 236.867"
	 xml:space="preserve">
<path d="M254.08,195.533c-2.202-1.756-5.422-1.414-7.198,0.788c-0.072,0.093-2.473,3.005-7.03,6.979
	c-3.333-8.54-11.279-23.265-27.766-30.259c0.056-0.701,0.011-1.424-0.241-2.135c-0.184-0.518-0.45-0.983-0.762-1.393l-24.371-103.25
	c8.109-6.554,8.053-20.961,8.018-29.358c-0.066-14.771-6.134-31.785-6.395-32.502L186.747,0l-47.447,12.447l1.244,4.92
	c0.174,0.696,4.373,17.121,10.502,29.891c1.653,3.461,3.768,7.004,6.246,10.214c-18.637,3.999-60.145,17.224-69.653,56.725
	c-32.21,22.752-39.275,59.725-40.596,69.318c-32.399,5.172-46.024,36.111-46.633,37.545c-1.106,2.602,0.108,5.597,2.704,6.708
	c2.591,1.137,5.601-0.097,6.717-2.683c0.558-1.316,14.188-32.139,46.484-32.139c16.399,0,35.195,9.984,55.097,20.557
	c21.632,11.484,43.996,23.363,65.751,23.363c49.73,0,76.584-32.742,77.705-34.136C256.639,200.525,256.287,197.305,254.08,195.533z
	 M231.321,209.854c-6.262,4.301-14.32,8.766-24.176,12.012c-4.88-26.164-0.656-35.148,2.196-38.896
	C223.508,189.67,229.504,204.334,231.321,209.854z M177.536,226.611c-4.531-8.115-21.131-34.253-52.214-45.061
	c0.743-1.992,2.022-4.245,3.344-6.206c6.927,2.837,22.216,8.12,39.89,8.12c12.729,0,23.281-1.715,30.402-3.317
	c-3.527,6.436-6.574,18.724-1.721,44.323C191.175,225.762,184.631,226.586,177.536,226.611z M196.09,150.6
	c-4.736,1.9-14.863,5.191-28.236,5.191c-5.376,0-10.777-1.898-15.678-4.505c12.529-2.857,21.898-14.085,21.898-27.459
	c0-15.38-12.4-27.924-27.73-28.16c7.777-5.555,18.059-8.812,34.351-10.296L196.09,150.6z M145.915,141.748
	c-9.881,0-17.92-8.039-17.92-17.921s8.039-17.92,17.92-17.92c9.882,0,17.92,8.038,17.92,17.92S155.796,141.748,145.915,141.748z
	 M151.829,19.748l28.298-7.424c1.7,5.678,4.315,15.831,4.356,24.622c0.047,10.788-0.676,20.956-6.158,22.262
	c-5.197,1.254-12.979-5.791-18.049-16.374C156.534,35.036,153.487,25.437,151.829,19.748z M57.533,182.789
	c1.905-10.987,9.641-42.521,37.514-61.266l1.73-1.168l0.425-2.037c8.653-41.575,61.301-50.914,69.252-52.086
	c3.257,2.104,6.785,3.379,10.486,3.379c0.01,0,0.025,0,0.035,0l1.348,5.698c-28.482,2.801-42.502,11.126-55.906,32.369
	c-0.348,0.553-0.579,1.152-0.696,1.756c-2.519,4.213-3.968,9.139-3.968,14.392c0,7.547,2.985,14.403,7.829,19.466
	c0.031,0.041,0.062,0.077,0.097,0.107c0.83,0.928,20.572,22.626,42.174,22.626c13.762,0,24.555-3.103,30.607-5.371l2.027,8.587
	c-6.119,1.598-17.633,3.982-31.934,3.982c-21.156,0-39.096-8.703-39.271-8.791l-3.584-1.766l-2.58,3.035
	c-1.546,1.812-9.221,11.285-8.663,19.733l0.235,3.584l3.456,0.993c23.721,6.835,38.963,24.463,46.305,35.066
	c-15.641-3.389-32.148-12.083-48.235-20.628C95.601,193.511,76.114,183.225,57.533,182.789z"/>
</svg>
