<?xml version="1.0" encoding="utf-8"?>
<!-- Generator: Adobe Illustrator 16.0.0, SVG Export Plug-In . SVG Version: 6.00 Build 0)  -->
<!DOCTYPE svg PUBLIC "-//W3C//DTD SVG 1.1//EN" "http://www.w3.org/Graphics/SVG/1.1/DTD/svg11.dtd">
<svg version="1.1" id="Layer_1" xmlns="http://www.w3.org/2000/svg" xmlns:xlink="http://www.w3.org/1999/xlink" x="0px" y="0px"
	 width="256px" height="262.279px" viewBox="0 0 256 262.279" enable-background="new 0 0 256 262.279" xml:space="preserve">
<path d="M58.88,204.68c0,2.832-2.293,5.12-5.12,5.12c-18.038,0-33.28-15.242-33.28-33.28c0-2.831,2.294-5.119,5.12-5.119
	s5.12,2.288,5.12,5.119c0,12.488,10.552,23.041,23.04,23.041C56.586,199.561,58.88,201.849,58.88,204.68z M202.24,199.561
	c-12.488,0-23.04-10.553-23.04-23.041c0-2.831-2.289-5.119-5.12-5.119c-2.832,0-5.12,2.288-5.12,5.119
	c0,18.038,15.242,33.28,33.28,33.28c2.831,0,5.119-2.288,5.119-5.12C207.359,201.849,205.071,199.561,202.24,199.561z M256,176.52
	c0,29.646-24.115,53.76-53.76,53.76c-28.109,0-51.205-21.688-53.529-49.207c-5.402,4.966-12.632,7.986-20.711,7.986
	c-8.08,0-15.309-3.021-20.71-7.986c-2.324,27.52-25.426,49.207-53.53,49.207C24.115,230.279,0,206.165,0,176.52
	c0-9.748,2.647-18.872,7.204-26.768l28.457-74.89c2.975-7.654,8.755-13.399,15.826-16.379C52.92,45.719,63.657,35.72,76.8,35.72
	c12.36,0,22.702,8.812,25.083,20.48h6.257c2.217-8.93,10.153-15.36,19.86-15.36c9.707,0,17.639,6.431,19.86,15.36h6.257
	c2.381-11.668,12.723-20.48,25.083-20.48c13.144,0,23.88,9.994,25.313,22.763c7.065,2.975,12.846,8.714,15.811,16.343l29.701,76.81
	c0.071,0.185,0.045,0.379,0.097,0.563C253.85,159.512,256,167.765,256,176.52z M164.782,56.2h28.754c0.03,0,0.056,0.005,0.081,0.005
	c-2.119-5.949-7.751-10.245-14.417-10.245C172.533,45.96,166.902,50.256,164.782,56.2z M149.043,66.44l8.453,80.328
	c9.651-14.459,26.097-24.008,44.744-24.008c10.654,0,20.572,3.154,28.938,8.525l-20.402-52.756
	c-2.852-7.342-9.621-12.088-17.239-12.088H149.043z M110.162,133.793c4.987-3.553,11.115-5.652,17.838-5.652
	s12.856,2.094,17.844,5.652l-7.568-71.869c-0.01-0.108-0.02-0.215-0.03-0.323c-0.005-0.118-0.005-0.23-0.005-0.343
	c-0.031-5.806-4.419-10.179-10.24-10.179s-10.214,4.373-10.24,10.184c0,0.103,0,0.21-0.005,0.312
	c-0.005,0.118-0.015,0.24-0.031,0.358L110.162,133.793z M62.382,56.205c0.026,0,0.057-0.005,0.082-0.005h28.754
	c-2.12-5.944-7.751-10.24-14.418-10.24C70.134,45.96,64.502,50.256,62.382,56.205z M25.283,131.003
	c8.269-5.192,18.012-8.244,28.477-8.244c18.642,0,35.093,9.549,44.739,24.003l8.453-80.323H62.464
	c-7.619,0-14.387,4.746-17.244,12.099L25.283,131.003z M97.28,176.52c0-23.997-19.522-43.52-43.52-43.52
	c-15.836,0-29.68,8.529-37.294,21.207l-0.415,1.096c-0.266,0.696-0.676,1.29-1.172,1.787c-2.944,5.852-4.639,12.441-4.639,19.43
	c0,23.998,19.522,43.521,43.52,43.521C77.757,220.04,97.28,200.518,97.28,176.52z M148.645,159.583
	c-0.031-0.153-0.119-0.286-0.134-0.445l-0.671-6.364c-2.473-8.684-10.256-14.909-19.84-14.909c-9.58,0-17.357,6.221-19.835,14.899
	l-0.671,6.374c-0.015,0.159-0.107,0.286-0.138,0.44c0.502,11.151,9.349,19.768,20.644,19.768
	C139.295,179.342,148.137,170.729,148.645,159.583z M245.76,176.52c0-23.997-19.522-43.52-43.52-43.52
	c-23.998,0-43.52,19.522-43.52,43.52c0,23.998,19.521,43.521,43.52,43.521C226.237,220.04,245.76,200.518,245.76,176.52z"/>
</svg>
