<?xml version="1.0" encoding="utf-8"?>
<!-- Generator: Adobe Illustrator 16.0.0, SVG Export Plug-In . SVG Version: 6.00 Build 0)  -->
<!DOCTYPE svg PUBLIC "-//W3C//DTD SVG 1.1//EN" "http://www.w3.org/Graphics/SVG/1.1/DTD/svg11.dtd">
<svg version="1.1" id="Layer_1" xmlns="http://www.w3.org/2000/svg" xmlns:xlink="http://www.w3.org/1999/xlink" x="0px" y="0px"
	 width="256.004px" height="240.342px" viewBox="0 0 256.004 240.342" enable-background="new 0 0 256.004 240.342"
	 xml:space="preserve">
<g>
	<path d="M4.345,219.048c3.63,0.553,6.881,0.813,10.23,0.813c8.187,0,19.477-2.048,28.36-7.623
		c8.883,5.575,20.167,7.623,28.354,7.623c8.187,0,19.471-2.048,28.354-7.623c8.888,5.575,20.178,7.623,28.359,7.623
		c8.187,0,19.477-2.048,28.354-7.623c8.883,5.575,20.173,7.623,28.359,7.623c8.188,0,19.473-2.048,28.355-7.623
		c8.878,5.575,20.168,7.623,28.359,7.623c4.05,0,7.695-0.588,11.151-1.807c2.667-0.942,4.07-3.861,3.128-6.528
		c-0.937-2.667-3.85-4.081-6.527-3.128c-2.34,0.824-4.875,1.223-7.752,1.223c-7.143,0-18.022-2.006-25.19-7.654
		c-1.858-1.469-4.479-1.469-6.339,0c-7.173,5.652-18.048,7.654-25.186,7.654c-1.428,0-3.035-0.107-4.705-0.281
		c16.041-6.82,36.977-18.381,54.186-36.854c3.957-4.255,8.447-9.078,6.226-14.188c-2.073-4.762-8.054-4.762-10.02-4.762h-9.769
		c0.588-18.345-3.918-75.761-73.861-136.96c-1.659-1.454-4.055-1.7-5.98-0.599c-1.915,1.096-2.929,3.287-2.524,5.453
		c10.671,56.929,1.015,90.946-5.15,105.467V5.119c0-2.509-1.817-4.654-4.301-5.053c-2.463-0.399-4.885,1.055-5.678,3.436
		c-27.668,83.005-89.257,119.71-89.876,120.074c-1.741,1.014-2.729,2.964-2.514,4.972c0.215,2.007,1.587,3.701,3.507,4.326
		l63.458,20.67H35.838c-8.212,0-15.421,7.203-15.421,15.421c0,18.013,23.864,31.61,45.993,40.366
		c-6.636-0.717-14.623-2.877-20.311-7.357c-1.859-1.47-4.48-1.47-6.339,0c-7.168,5.652-18.048,7.654-25.185,7.654
		c-2.816,0-5.576-0.221-8.678-0.696c-2.765-0.425-5.407,1.489-5.837,4.285C-0.37,216.006,1.55,218.624,4.345,219.048z
		 M150.89,34.457c54.579,52.951,59.428,101.442,59.335,117.72l-69.258-17.316C147.229,122.101,158.575,89.917,150.89,34.457z
		 M122.878,32.132v118.83l-75.428-24.561C63.896,114.472,99.014,84.515,122.878,32.132z M133.119,143.579l39.828,9.965h-39.828
		V143.579z M30.78,168.959c0-2.412,2.647-5.059,5.059-5.059h179.18c0.01,0,0.031,0,0.041,0h12.948
		c-0.573,0.64-1.096,1.197-1.397,1.531c-20.972,22.518-48.082,34.062-63.073,39.101c-1.413-0.763-2.78-1.587-4.015-2.56
		c-1.858-1.47-4.479-1.47-6.338,0c-7.168,5.652-18.049,7.654-25.186,7.654c-7.137,0-18.017-2.008-25.19-7.654
		c-1.858-1.47-4.48-1.47-6.338,0c-2.248,1.771-4.875,3.148-7.624,4.254c-0.061-0.02-0.102-0.066-0.164-0.086
		C53.508,195.352,30.78,180.76,30.78,168.959z"/>
	<path d="M249.178,228.878c-2.34,0.824-4.874,1.224-7.751,1.224c-7.143,0-18.022-2.007-25.19-7.654c-1.859-1.469-4.48-1.469-6.339,0
		c-7.173,5.652-18.048,7.654-25.185,7.654c-7.138,0-18.018-2.007-25.191-7.654c-1.858-1.469-4.479-1.469-6.338,0
		c-7.168,5.652-18.049,7.654-25.186,7.654c-7.137,0-18.017-2.007-25.19-7.654c-1.858-1.469-4.48-1.469-6.338,0
		c-7.168,5.652-18.048,7.654-25.186,7.654s-18.017-2.007-25.185-7.654c-1.859-1.469-4.48-1.469-6.339,0
		c-7.168,5.652-18.048,7.654-25.185,7.654c-2.816,0-5.576-0.221-8.678-0.696c-2.765-0.42-5.407,1.49-5.837,4.286
		c-0.43,2.795,1.49,5.411,4.285,5.836c3.63,0.553,6.881,0.814,10.23,0.814c8.187,0,19.477-2.049,28.36-7.624
		c8.883,5.576,20.167,7.624,28.354,7.624c8.187,0,19.471-2.049,28.354-7.624c8.888,5.576,20.178,7.624,28.359,7.624
		c8.187,0,19.477-2.049,28.354-7.624c8.883,5.576,20.173,7.624,28.359,7.624c8.188,0,19.473-2.049,28.355-7.624
		c8.878,5.576,20.168,7.624,28.359,7.624c4.05,0,7.695-0.589,11.151-1.808c2.667-0.942,4.07-3.86,3.128-6.528
		C254.775,229.339,251.856,227.942,249.178,228.878z"/>
</g>
</svg>
