<?xml version="1.0" encoding="utf-8"?>
<!-- Generator: Adobe Illustrator 16.0.0, SVG Export Plug-In . SVG Version: 6.00 Build 0)  -->
<!DOCTYPE svg PUBLIC "-//W3C//DTD SVG 1.1//EN" "http://www.w3.org/Graphics/SVG/1.1/DTD/svg11.dtd">
<svg version="1.1" id="Layer_1" xmlns="http://www.w3.org/2000/svg" xmlns:xlink="http://www.w3.org/1999/xlink" x="0px" y="0px"
	 width="256px" height="256px" viewBox="0 0 256 256" enable-background="new 0 0 256 256" xml:space="preserve">
<g>
	<path d="M128,25.6C71.537,25.6,25.6,71.537,25.6,128c0,56.463,45.937,102.4,102.4,102.4c56.463,0,102.4-45.938,102.4-102.4
		C230.4,71.537,184.463,25.6,128,25.6z M128,35.84c43.74,0,80.466,30.633,89.846,71.573c-18.171-0.875-31.979-7.117-45.363-13.164
		C159.059,88.192,145.183,81.92,128,81.92c-16.958,0-29.604,5.862-42.987,12.063c-13.394,6.205-27.208,12.61-46.854,13.445
		C47.524,66.478,84.255,35.84,128,35.84z M39.46,153.6h42.46c11.674,0,20.48,8.807,20.48,20.48v40.96
		c0,0.548,0.087,1.08,0.246,1.577C72.259,207.902,48.246,183.957,39.46,153.6z M153.354,216.617c0.16-0.497,0.246-1.029,0.246-1.577
		v-40.96c0-10.91,9.57-20.48,20.48-20.48h42.465C207.754,183.957,183.741,207.902,153.354,216.617z M174.08,143.359
		c-16.65,0-30.721,14.07-30.721,30.721v40.96c0,1.393,0.554,2.662,1.46,3.579c-10.911,2.021-22.728,2.021-33.644,0
		c0.906-0.917,1.464-2.187,1.464-3.579v-40.96c0-17.516-13.21-30.721-30.72-30.721h-44.8c-0.845-4.996-1.28-10.132-1.28-15.359
		c0-3.471,0.195-6.896,0.568-10.271c22.851-0.527,38.789-7.911,52.905-14.454C102.185,97.311,113.3,92.16,128,92.16
		c14.98,0,27.259,5.55,40.264,11.422c14.137,6.39,30.074,13.589,51.322,14.142c0.379,3.374,0.574,6.799,0.574,10.276
		c0,5.228-0.44,10.363-1.28,15.359H174.08z"/>
	<path d="M128,102.4c-14.116,0-25.6,11.484-25.6,25.6c0,14.115,11.484,25.6,25.6,25.6c14.115,0,25.6-11.484,25.6-25.6
		C153.6,113.884,142.115,102.4,128,102.4z M128,143.359c-8.468,0-15.36-6.891-15.36-15.359c0-8.468,6.892-15.36,15.36-15.36
		c8.469,0,15.359,6.892,15.359,15.36C143.359,136.469,136.469,143.359,128,143.359z"/>
	<path d="M128,0C57.421,0,0,57.421,0,128s57.421,128,128,128s128-57.421,128-128S198.579,0,128,0z M128,245.76
		c-64.932,0-117.76-52.822-117.76-117.76C10.24,63.068,63.068,10.24,128,10.24c64.938,0,117.76,52.828,117.76,117.76
		C245.76,192.938,192.938,245.76,128,245.76z"/>
</g>
</svg>
