<?xml version="1.0" encoding="utf-8"?>
<!-- Generator: Adobe Illustrator 16.0.0, SVG Export Plug-In . SVG Version: 6.00 Build 0)  -->
<!DOCTYPE svg PUBLIC "-//W3C//DTD SVG 1.1//EN" "http://www.w3.org/Graphics/SVG/1.1/DTD/svg11.dtd">
<svg version="1.1" id="Layer_1" xmlns="http://www.w3.org/2000/svg" xmlns:xlink="http://www.w3.org/1999/xlink" x="0px" y="0px"
	 width="226.52px" height="250.88px" viewBox="0 0 226.52 250.88" enable-background="new 0 0 226.52 250.88" xml:space="preserve">
<path d="M204.872,61.44H164.46V51.2c0-28.231-22.969-51.2-51.2-51.2s-51.2,22.968-51.2,51.2v10.24H21.653L0,250.88h226.52
	L204.872,61.44z M72.3,51.2c0-22.584,18.375-40.96,40.96-40.96c22.584,0,40.96,18.376,40.96,40.96v10.24H72.3V51.2z M30.787,71.68
	H62.06v11.658c-3.046,1.772-5.12,5.038-5.12,8.822c0,5.658,4.582,10.24,10.24,10.24s10.24-4.583,10.24-10.24
	c0-3.784-2.074-7.05-5.12-8.822V71.68h81.92v11.658c-3.046,1.772-5.12,5.038-5.12,8.822c0,5.658,4.582,10.24,10.24,10.24
	s10.24-4.583,10.24-10.24c0-3.784-2.074-7.05-5.12-8.822V71.68h31.268l19.308,168.96H11.479L30.787,71.68z"/>
</svg>
