<?xml version="1.0" encoding="utf-8"?>
<!-- Generator: Adobe Illustrator 16.0.0, SVG Export Plug-In . SVG Version: 6.00 Build 0)  -->
<!DOCTYPE svg PUBLIC "-//W3C//DTD SVG 1.1//EN" "http://www.w3.org/Graphics/SVG/1.1/DTD/svg11.dtd">
<svg version="1.1" id="Layer_1" xmlns="http://www.w3.org/2000/svg" xmlns:xlink="http://www.w3.org/1999/xlink" x="0px" y="0px"
	 width="180.378px" height="255.019px" viewBox="0 0 180.378 255.019" enable-background="new 0 0 180.378 255.019"
	 xml:space="preserve">
<g>
	<path d="M83.118,57.991c-2.063,2.667-50.56,65.72-50.56,105.866c0,54.938,50.473,62.833,50.98,62.91
		c0.246,0.035,0.492,0.051,0.737,0.051c2.503,0,4.695-1.838,5.059-4.388c0.404-2.801-1.541-5.396-4.337-5.801
		c-1.725-0.246-42.199-6.595-42.199-52.772c0-36.648,47.934-98.969,48.42-99.594c1.73-2.237,1.32-5.448-0.917-7.184
		C88.059,55.339,84.849,55.749,83.118,57.991z"/>
	<path d="M94.136,1.769c-1.945-2.355-5.954-2.36-7.9,0C82.719,6.034,0,106.943,0,164.826c0,49.735,40.458,90.193,90.189,90.193
		s90.189-40.458,90.189-90.189C180.378,106.943,97.66,6.034,94.136,1.769z M90.189,244.779c-44.083,0-79.949-35.871-79.949-79.953
		c0-47.34,63.324-130.586,79.949-151.619c16.619,21.028,79.949,104.274,79.949,151.619
		C170.138,208.914,134.272,244.779,90.189,244.779z"/>
</g>
</svg>
