<?xml version="1.0" encoding="utf-8"?>
<!-- Generator: Adobe Illustrator 16.0.0, SVG Export Plug-In . SVG Version: 6.00 Build 0)  -->
<!DOCTYPE svg PUBLIC "-//W3C//DTD SVG 1.1//EN" "http://www.w3.org/Graphics/SVG/1.1/DTD/svg11.dtd">
<svg version="1.1" id="Layer_1" xmlns="http://www.w3.org/2000/svg" xmlns:xlink="http://www.w3.org/1999/xlink" x="0px" y="0px"
	 width="224.91px" height="215.04px" viewBox="0 0 224.91 215.04" enable-background="new 0 0 224.91 215.04" xml:space="preserve">
<path d="M218.68,147.532c-5.053-4.121-24.561-21.237-29.097-25.226l-16.379-42.568c-0.108-0.287-0.257-0.563-0.42-0.824
	c-2.821-7.854-9.431-13.66-17.567-15.365c-3.281-1.239-13.736-4.966-25.988-7.132c8.387-5.484,13.947-14.945,13.947-25.697
	c0-16.942-13.779-30.72-30.721-30.72c-16.942,0-30.72,13.778-30.72,30.72c0,10.731,5.54,20.178,13.896,25.671
	c-14.285,2.473-25.902,7.015-26.562,7.275c-0.016,0.005-0.031,0.011-0.046,0.021c-7.777,1.874-14.09,7.542-16.855,15.12
	c-0.184,0.292-0.338,0.599-0.466,0.921l-16.384,42.567c-4.537,3.984-24.044,21.105-29.097,25.232
	c-3.835,3.128-6.098,7.715-6.216,12.568c-0.112,4.828,1.833,9.411,5.34,12.57c6.579,5.898,15.56,5.212,24.627-1.93
	c11.633-9.16,26.061-20.613,28.693-23.148c3.973-3.824,6.502-8.131,7.659-10.353c0.369-0.717,1.587-2.985,3.195-5.985v16.589
	c-0.348,3.385-13.097,11.085-18.539,14.372c-1.511,0.916-2.975,1.797-4.332,2.643l-2.407,1.489
	c-11.796,7.28-21.985,13.563-21.985,26.337c0,15.365,15.079,22.359,29.092,22.359h47.55c0.189,0,0.379,0,0.563,0h62.177
	c33.895,0,41.011-11.382,41.011-20.926c0-12.391-9.538-18.738-19.645-25.467l-6.451-4.27c-9.923-6.549-21.172-13.968-21.172-16.942
	v-16.189c1.607,3.001,2.826,5.269,3.195,5.98c1.146,2.228,3.666,6.522,7.659,10.368c2.073,1.996,11.726,9.783,28.692,23.152
	c9.072,7.137,18.053,7.823,24.627,1.925c3.518-3.153,5.459-7.731,5.352-12.554C224.788,155.259,222.525,150.677,218.68,147.532z
	 M112.455,10.24c11.295,0,20.48,9.185,20.48,20.48c0,11.294-9.186,20.48-20.48,20.48s-20.48-9.186-20.48-20.48
	C91.975,19.425,101.16,10.24,112.455,10.24z M212.715,165.059c-3.271,2.913-8.033,0.323-11.448-2.351
	c-22.718-17.898-27.101-21.688-27.93-22.492c-2.929-2.82-4.803-6.025-5.663-7.695c-1.014-1.95-8.319-15.503-12.907-24.012
	c-1.11-2.059-3.491-3.104-5.755-2.535c-2.273,0.574-3.871,2.621-3.871,4.967v36.5c0,8.484,9.155,14.525,25.77,25.488l6.426,4.254
	c9.625,6.405,15.068,10.348,15.068,16.938c0,6.789-11.213,10.686-30.771,10.686h-61.609c-0.077-0.006-0.149-0.006-0.226-0.006
	h-0.748c-5.918-0.139-20.07-3.154-20.07-9.748c0-6.252,9.81-9.186,25.636-11.898c21.136-3.625,36.183-5.976,36.204-5.976
	c2.795-0.436,4.705-3.057,4.27-5.853c-0.436-2.79-3.006-4.68-5.852-4.27c0,0-15.119,2.359-36.357,6.006
	c-13.599,2.329-34.146,5.852-34.146,21.99c0,3.901,1.382,7.121,3.6,9.748H51.348c-6.518,0-18.852-2.534-18.852-12.119
	c0-6.738,5.873-10.68,17.121-17.617l2.438-1.506c1.321-0.824,2.749-1.684,4.224-2.575c11.546-6.968,23.48-14.183,23.48-23.116
	v-36.932c0-2.344-1.598-4.387-3.866-4.966c-2.278-0.573-4.649,0.472-5.76,2.534l-0.594,1.102
	c-4.48,8.324-11.325,21.032-12.303,22.922c-0.865,1.664-2.754,4.885-5.668,7.689c-1.766,1.7-12.206,10.107-27.929,22.488
	c-3.425,2.692-8.197,5.268-11.449,2.359c-1.265-1.142-1.997-2.897-1.951-4.71c0.046-1.895,0.917-3.63,2.453-4.885
	c5.842-4.771,29.333-25.426,30.326-26.302c0.62-0.543,1.101-1.233,1.393-2.007l16.425-42.68c0.302-0.43,0.538-0.911,0.696-1.434
	c1.495-4.895,5.488-8.54,10.414-9.513c0.563-0.113,1.085-0.318,1.562-0.594c3.697-1.382,21.975-7.879,38.943-7.879
	c17.224,0,35.933,6.84,39.506,8.212c0.286,0.107,0.578,0.194,0.886,0.251c4.986,0.947,9.021,4.592,10.526,9.518
	c0.139,0.466,0.354,0.906,0.63,1.306l16.481,42.818c0.302,0.769,0.778,1.459,1.397,2.008c0.994,0.875,24.479,21.529,30.326,26.301
	c1.546,1.26,2.416,3,2.457,4.895C214.712,162.171,213.979,163.927,212.715,165.059z"/>
</svg>
