<?xml version="1.0" encoding="utf-8"?>
<!-- Generator: Adobe Illustrator 16.0.0, SVG Export Plug-In . SVG Version: 6.00 Build 0)  -->
<!DOCTYPE svg PUBLIC "-//W3C//DTD SVG 1.1//EN" "http://www.w3.org/Graphics/SVG/1.1/DTD/svg11.dtd">
<svg version="1.1" id="Layer_1" xmlns="http://www.w3.org/2000/svg" xmlns:xlink="http://www.w3.org/1999/xlink" x="0px" y="0px"
	 width="300px" height="300px" viewBox="0 0 300 300" enable-background="new 0 0 300 300" xml:space="preserve">
<path d="M269.417,137.029h-60.715v88.472h60.715v-77.554h11.477v-10.918H269.417z M252.756,181.264h-33.687v-31.648h33.687V181.264z
	"/>
<path d="M82.847,159.61v-27.393H58.048v27.393h-8.517c-6.589,0-11.938,14.75-11.938,32.94c0,18.192,5.35,32.946,11.938,32.946
	h147.701V159.61H82.847z"/>
<circle cx="83.59" cy="270.412" r="7.646"/>
<circle cx="147.259" cy="270.412" r="7.646"/>
<path d="M269.417,234.875H41.387v12.348H19.423v33.066h39.944c3.898,9.555,13.266,16.292,24.218,16.292
	c14.452,0,26.164-11.711,26.164-26.164c0-0.502-0.046-0.989-0.074-1.478h11.503c-0.028,0.488-0.075,0.976-0.075,1.478
	c0,14.453,11.708,26.164,26.16,26.164c14.453,0,26.165-11.711,26.165-26.164c0-0.502-0.053-0.989-0.075-1.478h11.859
	c-0.022,0.488-0.07,0.976-0.07,1.478c0,14.453,11.712,26.164,26.16,26.164c14.442,0,26.167-11.711,26.167-26.164
	c0-0.502-0.05-0.989-0.077-1.478h32.028v-34.064H269.417z M83.585,289.909c-10.762,0-19.491-8.725-19.491-19.497
	c0-10.764,8.729-19.49,19.491-19.49c10.771,0,19.5,8.727,19.5,19.49C103.086,281.188,94.356,289.909,83.585,289.909z
	 M147.259,289.909c-10.767,0-19.496-8.725-19.496-19.497c0-10.764,8.725-19.49,19.496-19.49c10.765,0,19.496,8.727,19.496,19.49
	C166.755,281.188,158.023,289.909,147.259,289.909z M211.302,289.909c-10.771,0-19.503-8.725-19.503-19.497
	c0-10.764,8.731-19.49,19.503-19.49c10.764,0,19.495,8.727,19.495,19.49C230.797,281.188,222.065,289.909,211.302,289.909z"/>
<path d="M211.294,262.759c4.228,0,7.654,3.426,7.654,7.653c0,4.224-3.427,7.651-7.654,7.651c-4.224,0-7.646-3.428-7.646-7.651
	C203.647,266.185,207.07,262.759,211.294,262.759z"/>
<path d="M149.381,5.188c-8.628,2.857-16.376,9.758-20.573,19.453c-2.624,6.051-3.483,12.354-2.847,18.25
	c-1.207-0.033-2.428-0.013-3.667,0.121c-13.964,1.493-24.151,13.19-22.77,26.133c0.012,0.096,0.036,0.19,0.049,0.292
	c-0.432,0.777-0.8,1.571-1.124,2.383l0,0c-9.94-0.241-39.483,18.008-39.483,52.066h23.14c13.324-24.248,42.938-22.914,42.938-22.914
	v-0.016c1.841,0.059,3.72,0.004,5.635-0.194c17.127-1.833,29.892-13.786,28.515-26.698c-0.109-1.049-0.349-2.058-0.636-3.048
	c2.478,0.78,5.077,1.203,7.768,1.203c16.041,0,29.054-14.806,29.054-33.068c0-14.879-8.627-27.462-20.501-31.617
	C161.376,0.707,149.381,5.188,149.381,5.188z"/>
</svg>
