<?xml version="1.0" encoding="utf-8"?>
<!-- Generator: Adobe Illustrator 16.0.0, SVG Export Plug-In . SVG Version: 6.00 Build 0)  -->
<!DOCTYPE svg PUBLIC "-//W3C//DTD SVG 1.1//EN" "http://www.w3.org/Graphics/SVG/1.1/DTD/svg11.dtd">
<svg version="1.1" id="Layer_1" xmlns="http://www.w3.org/2000/svg" xmlns:xlink="http://www.w3.org/1999/xlink" x="0px" y="0px"
	 width="255.959px" height="255.981px" viewBox="0 0 255.959 255.981" enable-background="new 0 0 255.959 255.981"
	 xml:space="preserve">
<path d="M252.683,161.609c-3.543-4.639-11.837-10.542-29.081-2.555c-1.459-5.662-5.089-10.85-10.056-14.033
	c-5.965-3.825-13.354-4.558-21.172-2.141c-3.271-5.156-7.833-7.834-12.303-9.277c2.877-9.242,5.018-17.736,6.482-25.6
	c2.58,1.075,5.605,1.843,9.021,1.843c6.753,0,13.342-2.965,19.578-8.807c6.16-5.771,12.345-18.473,9.523-35.297
	c-2.468-14.725-14.121-42.783-64.44-65.295c-1.7-0.758-3.681-0.542-5.166,0.579c-1.489,1.116-2.253,2.954-1.997,4.803
	c1.045,7.49-4.064,15.191-9.983,24.105c-8.74,13.168-19.62,29.553-15.417,53.115c3.271,18.309,16.333,29.235,34.949,29.235
	c4.557,0,9.032-0.737,13.051-1.93c-1.418,6.666-3.354,13.85-5.82,21.616c-1.01-0.021-1.932-0.025-2.668-0.015
	c-4.885,0.035-11.484,3.143-15.929,8.012c-3.584-1.909-8.207-2.8-12.907-2.329c-6.257,0.646-11.274,3.604-14.295,8.305
	c-5.76-0.558-11.125,0.824-15.109,3.948c-1.92,1.5-3.446,3.338-4.542,5.437c-6.282-5.862-16.148-11.966-35.466-11.966
	c-12.913,0-19,2.52-25.446,5.192l-2.944,1.198c-13.46,5.335-36.659,16.466-37.643,16.937c-2.549,1.224-3.625,4.286-2.396,6.83
	c1.229,2.556,4.291,3.63,6.83,2.401c0.235-0.112,23.854-11.443,36.977-16.645c1.07-0.42,2.089-0.846,3.093-1.26
	c5.949-2.469,10.654-4.414,21.529-4.414c20.342,0,26.85,7.152,32.589,13.466c2.263,2.488,4.403,4.839,7.184,6.508
	c7.398,4.444,31.866,10.747,44.892,10.747c5.734,0,15.36,0.998,15.36,7.68c0,1.899,0,7.68-15.36,7.68H123.9
	c-12.908,0-30.162-4.874-30.336-4.926c-2.719-0.752-5.55,0.799-6.329,3.523c-0.778,2.724,0.799,5.55,3.518,6.328
	c0.763,0.215,18.791,5.314,33.147,5.314h29.701c11.838,0,18.324-3.17,21.807-7.147c0.261-0.112,0.518-0.256,0.758-0.42l46.09-31.007
	c10.932-6.477,19.052-7.752,22.293-3.518c1.264,1.654,1.238,2.949,1.115,3.784c-0.271,1.797-1.827,5.586-9.221,10.818
	c-6.62,4.7-72.766,48.696-81.746,53.894c-1.464,0.844-2.902,1.756-4.361,2.667c-9.068,5.709-16.912,10.655-34.013,2.325
	c-5.355-2.611-22.666-11.603-35.302-18.166L70.13,217.5c-11.996-6.195-18.222-4.66-26.9,0.881l-13.813,9.011
	c-2.366,1.546-3.036,4.72-1.49,7.086c1.546,2.37,4.721,3.03,7.086,1.495l13.772-8.986c6.303-4.023,8.597-4.541,16.646-0.383
	l10.87,5.637c12.687,6.594,30.064,15.621,35.543,18.289c8.146,3.963,14.925,5.452,20.721,5.452c10.02,0,17.105-4.465,23.234-8.325
	c1.346-0.85,2.678-1.689,4.029-2.473c9.518-5.51,75.633-49.5,82.539-54.405c7.987-5.657,12.498-11.592,13.42-17.634
	C256.412,169.069,255.335,165.081,252.683,161.609z M162.628,102.048c-7.9,0-21.643-2.698-24.868-20.798
	c-3.481-19.517,5.34-32.804,13.864-45.655c4.998-7.526,9.79-14.746,11.331-22.564c40.131,19.83,49.612,42.358,51.63,54.395
	c2.018,12.006-1.776,21.775-6.426,26.132c-4.275,4.009-8.509,6.037-12.579,6.037c-2.965,0-5.499-1.075-7.398-2.253
	c2.959-25.206-1.347-44.237-9.165-63.815c-1.05-2.626-4.035-3.891-6.656-2.857c-2.627,1.049-3.906,4.029-2.856,6.656
	c7.618,19.067,11.581,36.885,8.278,61.209C174.726,100.282,169.043,102.048,162.628,102.048z M178.761,188.263
	c-1.331-5.667-6.446-14.182-25.16-14.182c-10.961,0-33.653-5.703-39.623-9.283c-0.436-0.261-0.881-0.594-1.336-0.982
	c0.005-2.524,0.891-4.496,2.631-5.857c2.438-1.904,6.252-2.401,10.471-1.367c2.57,0.66,5.191-0.788,6.057-3.292
	c1.398-4.019,4.905-5.196,7.598-5.468c4.342-0.44,7.922,1.315,8.535,2.34c0.983,1.648,2.766,2.56,4.746,2.478
	c1.921-0.133,3.605-1.336,4.363-3.107c1.705-4.024,7.403-7.327,10.225-7.348c1.653,0.011,3.128,0.103,4.516,0.241
	c0.016,0.005,0.025,0.016,0.035,0.02c0.538,0.18,1.086,0.268,1.619,0.268c0.111,0,0.22-0.047,0.332-0.052
	c6.093,0.962,9.421,3.502,11.33,8.479c0.508,1.321,1.537,2.37,2.848,2.903c1.311,0.532,2.779,0.496,4.07-0.088
	c6.292-2.887,11.837-3,15.994-0.322c4.168,2.673,6.042,7.383,6.053,10.87L178.761,188.263z"/>
</svg>
