<?xml version="1.0" encoding="utf-8"?>
<!-- Generator: Adobe Illustrator 16.0.0, SVG Export Plug-In . SVG Version: 6.00 Build 0)  -->
<!DOCTYPE svg PUBLIC "-//W3C//DTD SVG 1.1//EN" "http://www.w3.org/Graphics/SVG/1.1/DTD/svg11.dtd">
<svg version="1.1" id="Layer_1" xmlns="http://www.w3.org/2000/svg" xmlns:xlink="http://www.w3.org/1999/xlink" x="0px" y="0px"
	 width="256px" height="220.956px" viewBox="0 0 256 220.956" enable-background="new 0 0 256 220.956" xml:space="preserve">
<g>
	<path d="M254.247,171.985c-1.214-1.064-30.224-26.005-67.933-26.005c-3,0-5.976,0.118-8.924,0.338
		c4.055-9.057,0.322-17.325-3.825-24.627c-2.667-4.68-9.928-15.995-17.617-27.97c-8.484-13.22-17.26-26.885-21.474-34.109
		c-6.195-10.593-14.735-13.061-25.395-7.342c-1.275,0.681-4.286,2.212-8.376,4.286c-12.605,6.39-36.065,18.284-50.115,26.491
		c-10.357,6.037-11.986,15.222-9.113,21.202c2.724,5.678,10.388,9.979,20.782,5.985c2.555-0.978,8.93-4.086,19.124-9.073
		c10.885-5.33,24.438-11.96,28.231-13.22c0.282-0.097,0.789-0.226,1.024-0.103c0.661,0.354,1.393,1.838,1.623,2.693
		c0.077,0.312,0.179,0.619,0.312,0.911l7.675,17.009l-82.744,49.31c-18.842-6.066-28.913-14.355-29.066-14.479
		c-2.155-1.828-5.386-1.566-7.219,0.584c-1.828,2.154-1.567,5.386,0.589,7.213c1.116,0.953,27.868,23.199,77.025,23.199
		c21.13,0,39.726-4.844,57.708-9.528c16.845-4.383,32.758-8.53,49.776-8.53c33.787,0,60.929,23.245,61.204,23.48
		c0.969,0.846,2.166,1.255,3.354,1.255c1.43,0,2.853-0.595,3.866-1.757C256.597,177.07,256.376,173.839,254.247,171.985z
		 M163.592,148.045c-10.127,1.72-19.973,4.285-29.63,6.799c-17.356,4.521-35.307,9.195-55.126,9.195
		c-10.173,0-19.328-1.044-27.402-2.662l77.962-46.464c2.237-1.332,3.118-4.132,2.043-6.502l-9.39-20.818
		c-0.497-1.68-2.222-6.354-6.451-8.704c-1.92-1.06-5.084-2.038-9.231-0.661c-4.122,1.372-14.828,6.559-29.496,13.737
		c-7.88,3.855-16.031,7.844-18.289,8.709c-4.332,1.664-7.122,0.727-7.88-0.855c-0.932-1.936,0.502-5.279,5.043-7.926
		c13.789-8.054,37.074-19.86,49.587-26.204c4.193-2.125,7.275-3.692,8.586-4.393c5.191-2.785,7.967-2.923,11.714,3.481
		c4.322,7.404,13.159,21.166,21.704,34.473c7.614,11.858,14.808,23.061,17.337,27.505
		C169.721,135.648,171.262,140.651,163.592,148.045z"/>
	<path d="M202.243,130.359c15.523,0,28.16-12.636,28.16-28.169c0-15.524-12.637-28.15-28.16-28.15s-28.16,12.626-28.16,28.15
		C174.083,117.724,186.72,130.359,202.243,130.359z M202.243,84.28c9.881,0,17.92,8.034,17.92,17.91
		c0,9.887-8.039,17.93-17.92,17.93c-9.882,0-17.92-8.043-17.92-17.93C184.323,92.313,192.361,84.28,202.243,84.28z"/>
</g>
</svg>
