<?xml version="1.0" encoding="utf-8"?>
<!-- Generator: Adobe Illustrator 16.0.0, SVG Export Plug-In . SVG Version: 6.00 Build 0)  -->
<!DOCTYPE svg PUBLIC "-//W3C//DTD SVG 1.1//EN" "http://www.w3.org/Graphics/SVG/1.1/DTD/svg11.dtd">
<svg version="1.1" id="Layer_1" xmlns="http://www.w3.org/2000/svg" xmlns:xlink="http://www.w3.org/1999/xlink" x="0px" y="0px"
	 width="255.994px" height="254.22px" viewBox="0 0 255.994 254.22" enable-background="new 0 0 255.994 254.22"
	 xml:space="preserve">
<path d="M254.241,245.245c-1.152-1.009-27.402-23.573-62.617-25.687c21.514-16.426,46.059-41.166,55.09-59.229
	c3.959-7.588,3.61-15.918-0.916-21.745c-4.812-6.205-13.281-8.417-23.255-6.083c-21.335,5.141-45.532,15.31-70.175,28.166
	c-11.571-8.218-44.37-30.848-55.357-31.371c-7.158-0.327-17.607,1.367-24.509,2.715l2.186-18.12
	c13.194-0.43,50.683-4.014,73.856-29.435l13.676,9.119c0.654,0.435,1.393,0.645,2.124,0.645c1.233,0,2.452-0.594,3.19-1.694
	l36.863-54.784c1.184-1.761,0.723-4.147-1.039-5.33c-1.767-1.183-4.152-0.717-5.33,1.04L163.3,85.065l-10.035-6.692
	c3.521-6.282,2.109-11.602-0.835-14.74c-4.936-5.269-14.577-5.504-21.366-0.728l-4.352-2.826l26.486-39.239
	c1.182-1.756,0.721-4.147-1.035-5.33c-1.761-1.188-4.146-0.727-5.334,1.034l-26.563,39.357l-4.603-2.99
	c0.046-0.184,0.077-0.333,0.082-0.435c2.268-7.224,0.86-12.749-4.183-16.42c-3.507-2.555-7.859-3.369-12.242-2.304
	c-2.54,0.619-4.91,1.874-6.922,3.522l-4.137-2.76l18.883-28.554c1.172-1.767,0.686-4.152-1.085-5.32
	c-1.772-1.178-4.158-0.686-5.32,1.085L79.746,33.471c-1.167,1.766-0.686,4.142,1.07,5.314l6.83,4.552
	c-4.511,8.32-24.392,37.028-29.778,38.835c-0.205,0-0.415,0-0.62,0c5.734-5.576,9.308-13.378,9.308-22
	c0-16.942-13.778-30.72-30.72-30.72c-16.942,0-30.72,13.778-30.72,30.72c0,11.965,6.876,22.354,16.88,27.423
	c-3.051,2.181-5.238,5.238-6.425,9.508c-1.582,5.273-5.873,29-5.335,45.159c0.604,18.062,21.12,52.598,56.955,71.239
	c-8.894,6.329-17.413,12.646-25.395,18.801c-21.54-6.113-33.213-15.657-33.377-15.79c-2.161-1.822-5.391-1.541-7.214,0.614
	c-1.823,2.161-1.546,5.392,0.614,7.214c1.121,0.953,28.104,23.225,77.025,23.225c21.089,0,39.654-4.803,57.605-9.441
	c16.875-4.362,32.814-8.479,49.915-8.479c33.909,0,60.882,23.092,61.147,23.321c0.963,0.845,2.166,1.255,3.354,1.255
	c1.43,0,2.853-0.594,3.866-1.756C256.591,250.333,256.37,247.103,254.241,245.245z M124.044,67.514
	c-0.783,0.522-1.603,1.07-2.33,1.562c-8.397,5.642-13.235,8.898-21.545,10.752c4.925-6.457,9.431-14.183,12.319-19.804
	L124.044,67.514z M97.251,47.101c0.768-1.541,2.616-2.939,4.49-3.395c0.451-0.107,0.886-0.164,1.306-0.164
	c0.921,0,1.751,0.267,2.483,0.799c1.147,0.834,1.48,1.761,0.44,5.069c-0.138,0.445-0.276,0.881-0.374,1.341
	c-2.519,6.251-15.975,29.015-21.228,30.925c-3.405,0.179-7.255,0.302-11.658,0.379C84.697,68.773,97.093,47.413,97.251,47.101z
	 M15.357,60.172c0-11.294,9.186-20.48,20.48-20.48c11.295,0,20.48,9.186,20.48,20.48c0,11.295-9.185,20.48-20.48,20.48
	C24.542,80.652,15.357,71.467,15.357,60.172z M20.477,141.923c-0.497-14.818,3.497-37.171,4.936-41.979
	c1.47-5.304,5.734-7.516,28.344-7.516c1.332,0,2.632,0,3.896-0.005c0.144,0.005,0.292,0.005,0.435,0
	C69.02,92.397,77.596,92.264,84.59,91.9c0.399,0.021,0.819,0.01,1.244-0.056c0.036-0.005,0.072-0.01,0.107-0.015
	c21.089-1.224,27.325-4.741,41.487-14.259c2.602-1.751,5.524-3.717,9.195-6.078c3.527-2.55,7.357-1.905,8.336-0.855
	c0.496,0.527-0.025,2.36-1.972,4.715c-24.166,29.374-72.207,28.339-72.693,28.339c-2.535-0.082-4.916,1.874-5.233,4.506
	l-3.584,29.69c-0.2,1.664,0.425,3.312,1.669,4.43c1.25,1.115,2.965,1.556,4.588,1.166c0.189-0.04,18.872-4.434,28.79-3.957
	c5.217,0.246,26.727,13.338,45.727,26.547c-3.901,2.141-7.808,4.342-11.709,6.584c-8.673-5.391-29.62-18.488-32.748-20.832
	c-1.254-0.953-2.877-1.26-4.388-0.855c-13.655,3.641-30.909,9.323-35.594,15.764c-0.814,1.122-1.137,2.52-0.901,3.881
	c2.237,12.959,20.68,23.507,31.135,28.514c-3.804,2.54-7.567,5.095-11.27,7.654C40.168,190.097,20.953,156.279,20.477,141.923z
	 M120.568,178.51c-7.531,4.511-15.012,9.181-22.369,13.937c-8.95-3.63-26.204-12.789-30.377-21.15
	c3.809-2.473,12.974-6.227,25.933-9.814C99.448,165.296,112.934,173.75,120.568,178.51z M172.945,220.146
	c-13.485,1.455-26.435,4.803-39.056,8.059c-17.336,4.48-35.261,9.114-55.044,9.114c-8.781,0-16.814-0.783-24.049-2.054
	c50.396-37.984,119.03-80.501,170.123-92.799c5.857-1.389,10.531-0.518,12.795,2.4c2.032,2.621,2.007,6.729-0.118,10.804
	C227.638,175.587,195.274,206.118,172.945,220.146z"/>
</svg>
