<svg xmlns="http://www.w3.org/2000/svg" xmlns:xlink="http://www.w3.org/1999/xlink" version="1.1" id="Layer_1" x="0px" y="0px" width="100px" height="100px" viewBox="5.0 -10.0 100.0 135.0" enable-background="new 0 0 100 100" xml:space="preserve">
<path d="M68.447,31.718c4.939,0,9.112,2.529,9.112,5.522v5.683v2h2h4.289c4.939,0,9.112,2.529,9.112,5.523v5.841  c0,2.994-4.173,5.523-9.112,5.523h-11.16H70.97l-0.259,1.699c-0.423,2.781-4.494,5.044-9.076,5.044H33.085  c-4.582,0-8.653-2.263-9.076-5.044l-0.258-1.699h-1.719h-7.548c-4.061,0-7.624-2.11-7.624-4.516v-5.059  c0-2.405,3.562-4.515,7.624-4.515h7.488h2v-2v-2.02c0-2.993,4.173-5.522,9.113-5.522h7.574h1.626l0.332-1.592  c0.499-2.394,4.018-4.871,9.042-4.871H68.447 M68.447,29.718H51.659c-5.605,0-10.239,2.81-11,6.462h-7.574  c-6.138,0-11.113,3.368-11.113,7.522v2.02h-7.488c-5.315,0-9.624,2.917-9.624,6.515v5.059c0,3.599,4.309,6.516,9.624,6.516h7.548  c0.576,3.788,5.304,6.743,11.053,6.743h28.549c5.748,0,10.478-2.955,11.054-6.743h11.16c6.137,0,11.112-3.368,11.112-7.523v-5.841  c0-4.155-4.976-7.523-11.112-7.523H79.56v-5.683C79.56,33.087,74.584,29.718,68.447,29.718L68.447,29.718z"/>
<text x="0.0" y="117.5" font-size="5.0" font-weight="bold" font-family="Helvetica Neue, Helvetica, Arial-Unicode, Arial, Sans-serif" fill="#000000">Created by mor rabinov</text><text x="0.0" y="122.5" font-size="5.0" font-weight="bold" font-family="Helvetica Neue, Helvetica, Arial-Unicode, Arial, Sans-serif" fill="#000000">from the Noun Project</text></svg>