<svg version="1.0" id="Layer_1" xmlns="http://www.w3.org/2000/svg" xmlns:xlink="http://www.w3.org/1999/xlink" x="0px" y="0px" viewBox="0 0 50.062 50" style="enable-background:new 0 0 50.062 50;" xml:space="preserve">
<path d="M42.893,33.596l1.573,1.235l-6.774,8.622l-6.042-5.37l1.329-1.495l4.453,3.959L42.893,33.596z M50.062,38
	c0,6.617-5.383,12-12,12s-12-5.383-12-12s5.383-12,12-12S50.062,31.383,50.062,38z M48.062,38c0-5.514-4.486-10-10-10
	s-10,4.486-10,10s4.486,10,10,10S48.062,43.514,48.062,38z M25.979,29.298c-0.097-1.137-0.089-2.018-0.08-3.032l0.003-0.479
	c0.896-0.916,1.816-2.857,2.155-4.59c0.723-0.361,1.578-1.26,1.844-3.464c0.132-1.091-0.186-1.93-0.624-2.481
	c0.581-1.98,1.78-7.124-0.27-10.423c-0.859-1.384-2.161-2.255-3.874-2.594c-0.944-1.193-2.754-1.843-5.184-1.843
	c-3.681,0.068-6.375,1.193-8.006,3.343c-1.933,2.548-2.292,6.41-1.069,11.484c-0.451,0.551-0.783,1.401-0.65,2.513
	c0.265,2.205,1.122,3.104,1.844,3.465c0.343,1.73,1.288,3.679,2.208,4.596l0.002,0.468c0.009,1.015,0.017,1.896-0.08,3.032
	c-0.612,1.406-2.649,2.208-4.999,3.132c-3.907,1.537-8.771,3.45-9.135,9.516L0,43h22.062h3l-0.641-2h-2.359H2.19
	c0.756-3.967,4.302-5.361,7.74-6.714c2.74-1.077,5.327-2.096,6.188-4.41l0.059-0.259c0.118-1.305,0.109-2.31,0.1-3.374l-0.005-0.925
	l0.018-0.594l-0.535-0.281c-0.438-0.297-1.607-2.315-1.8-4.119l-0.087-0.823l-0.825-0.068c-0.128-0.011-0.645-0.371-0.833-1.94
	c-0.096-0.807,0.296-1.091,0.298-1.092l0.635-0.386l-0.187-0.719c-1.214-4.671-1.013-8.251,0.582-10.352
	c1.243-1.638,3.413-2.497,6.432-2.552c1.877,0,3.265,0.469,3.712,1.253l0.244,0.428l0.488,0.067
	c1.336,0.186,2.284,0.756,2.897,1.743c1.536,2.473,0.647,7.04-0.12,9.349l-0.211,0.747l0.64,0.422
	c0.004,0.003,0.396,0.286,0.298,1.092c-0.188,1.57-0.705,1.93-0.833,1.941l-0.824,0.068l-0.088,0.822
	c-0.194,1.814-1.329,3.829-1.73,4.11l-0.535,0.281l-0.005,1.533c-0.009,1.062-0.018,2.066,0.1,3.37l0.059,0.259
	c0.375,1.007,1.004,1.795,1.82,2.28l1.021-1.721C26.503,30.202,26.195,29.819,25.979,29.298z"></path>
</svg>