<svg xmlns="http://www.w3.org/2000/svg" xmlns:xlink="http://www.w3.org/1999/xlink" version="1.1" id="Layer_1" x="0px" y="0px" viewBox="1.75 -3.5 35.0 47.25" enable-background="new 0 0 35 35" xml:space="preserve" height="100px" width="100px">
<path fill="#000000" d="M29,27.5h-3v-2c0-0.4,0.2-0.7,0.6-0.9L26,23.5h-6l2,4h-3v-2c0-0.4,0.2-0.7,0.6-0.9L19,23.5H3v4V28h30v-0.5  v-4h-6L29,27.5z M6,27.5H4v-2c0-0.6,0.4-1,1-1s1,0.4,1,1V27.5z M9,27.5H7v-2c0-0.6,0.4-1,1-1s1,0.4,1,1V27.5z M12,27.5h-2v-2  c0-0.6,0.4-1,1-1s1,0.4,1,1V27.5z M15,27.5h-2v-2c0-0.6,0.4-1,1-1s1,0.4,1,1V27.5z M18,27.5h-2v-2c0-0.6,0.4-1,1-1s1,0.4,1,1V27.5z   M25,27.5h-2v-2c0-0.6,0.4-1,1-1s1,0.4,1,1V27.5z M30,25.5c0-0.6,0.4-1,1-1s1,0.4,1,1v2h-2V25.5z"/>
<path fill="#000000" d="M18.5,22.5H16v-2c0-0.4,0.2-0.7,0.6-0.9L16,18.5H3v4H2.5V23h16.2L18.5,22.5z M6,22.5H4v-2c0-0.6,0.4-1,1-1  s1,0.4,1,1V22.5z M9,22.5H7v-2c0-0.6,0.4-1,1-1s1,0.4,1,1V22.5z M12,22.5h-2v-2c0-0.6,0.4-1,1-1s1,0.4,1,1V22.5z M15,22.5h-2v-2  c0-0.6,0.4-1,1-1s1,0.4,1,1V22.5z"/>
<path fill="#000000" d="M15.5,17.5H13v-2c0-0.4,0.2-0.7,0.6-0.9L13,13.5H3v4H2.5V18h13.2L15.5,17.5z M6,17.5H4v-2c0-0.6,0.4-1,1-1  s1,0.4,1,1V17.5z M9,17.5H7v-2c0-0.6,0.4-1,1-1s1,0.4,1,1V17.5z M12,17.5h-2v-2c0-0.6,0.4-1,1-1s1,0.4,1,1V17.5z"/>
<polygon fill="#000000" points="12.5,12.5 10.5,8.5 3,8.5 3,12.5 2.5,12.5 2.5,13 12.8,13 "/>
<path fill="#000000" d="M19.3,23h6.5l-0.3-0.5H23v-2c0-0.4,0.2-0.7,0.6-0.9L23,18.5h-6l2,4L19.3,23z M20,20.5c0-0.6,0.4-1,1-1  s1,0.4,1,1v2h-2V20.5z"/>
<path fill="#000000" d="M33,22.5v-4h-9l2,4l0.2,0.5h7.2v-0.5H33z M29,22.5h-2v-2c0-0.6,0.4-1,1-1s1,0.4,1,1V22.5z M32,22.5h-2v-2  c0-0.6,0.4-1,1-1s1,0.4,1,1V22.5z"/>
<text x="0.0" y="41.125" font-size="1.75" font-weight="bold" font-family="Helvetica Neue, Helvetica, Arial-Unicode, Arial, Sans-serif" fill="#000000">Created by Roman Gerz</text><text x="0.0" y="42.875" font-size="1.75" font-weight="bold" font-family="Helvetica Neue, Helvetica, Arial-Unicode, Arial, Sans-serif" fill="#000000">from the Noun Project</text></svg>