<svg xmlns="http://www.w3.org/2000/svg" xmlns:xlink="http://www.w3.org/1999/xlink" version="1.1" id="Layer_1" x="0px" y="0px" width="100px" height="100px" viewBox="5.0 -10.0 100.0 135.0" enable-background="new 0 0 100 100" xml:space="preserve">
<path fill="#000000" d="M48.512,20.828H2.733v23.567l52.404,0.074L48.512,20.828z M17.326,41.952H5.942V31.244  c0-3.711,2.59-6.72,5.786-6.72c2.696,0,4.953,2.142,5.598,5.036V41.952z M32.703,41.952h-11.37V31.244  c0-3.671,2.537-6.651,5.686-6.715c3.149,0.063,5.684,3.044,5.684,6.715V41.952z M47.892,41.952H36.518V31.244  c0.001-3.67,2.54-6.65,5.688-6.715c3.15,0.064,5.686,3.044,5.686,6.715V41.952z"/>
<path fill="#000000" d="M96.848,46.66H67.623l1.565,4.273c0.946-0.835,2.118-1.346,3.395-1.372c3.147,0.064,5.687,3.044,5.687,6.715  v10.708h-4.13l0.785,2.546l21.923,0.03V46.66z M93.661,66.983H82.083V56.275c0-3.711,2.592-6.721,5.79-6.721  c3.195,0,5.788,3.01,5.788,6.721V66.983z"/>
<path fill="#000000" d="M63.443,46.66H2.733v22.767l68.01,0.097L63.443,46.66z M51.706,56.275c0-3.044,1.748-5.608,4.14-6.433  c0.548-0.213,1.131-0.335,1.738-0.348c3.151,0.064,5.687,3.045,5.687,6.716v10.707h-0.189v0.066H51.706V56.275z M36.518,56.275  c0.001-3.041,1.746-5.603,4.134-6.43c0.55-0.215,1.135-0.339,1.745-0.351c3.149,0.063,5.684,3.044,5.684,6.716v10.707h-0.189v0.066  H36.518V56.275z M21.32,56.21c0-3.712,2.59-6.722,5.786-6.722c2.696,0,4.953,2.142,5.598,5.036v12.393h-0.001v0.066h-11.37v-0.066  H21.32V56.21z M17.326,66.983H5.942V56.275c0-3.711,2.59-6.721,5.786-6.721c2.696,0,4.953,2.142,5.598,5.036V66.983z"/>
<path fill="#000000" d="M38.693,5.644h-0.001H2.733v13.274h35.959V5.644z M13.515,13.392h-3.272V10.12h3.272V13.392z M23.002,13.392  h-3.271V10.12h3.271V13.392z M32.489,13.392h-3.27V10.12h3.27V13.392z"/>
<path fill="#000000" d="M2.733,94.459l94.114,0.133V71.69H2.733V94.459z M82.083,81.308c0-3.711,2.592-6.722,5.79-6.722  c3.195,0,5.788,3.011,5.788,6.722v10.708H82.083V81.308z M66.896,81.308c0-3.672,2.538-6.65,5.688-6.715  c3.147,0.064,5.687,3.043,5.687,6.715v10.708H66.896V81.308z M51.706,81.308c0-3.672,2.539-6.652,5.688-6.715  c3.152,0.062,5.688,3.043,5.688,6.715v10.708H51.706V81.308z M36.518,81.308c0.001-3.671,2.54-6.65,5.688-6.715  c3.15,0.064,5.686,3.044,5.686,6.715v10.708H36.518V81.308z M21.333,81.308c0-3.672,2.537-6.651,5.686-6.715  c3.149,0.063,5.684,3.043,5.684,6.715v10.708h-11.37V81.308z M11.728,74.586c2.696,0,4.953,2.142,5.598,5.037v12.393H5.942V81.308  C5.942,77.597,8.532,74.586,11.728,74.586z"/>
<text x="0.0" y="117.5" font-size="5.0" font-weight="bold" font-family="Helvetica Neue, Helvetica, Arial-Unicode, Arial, Sans-serif" fill="#000000">Created by Kenneth Appiah</text><text x="0.0" y="122.5" font-size="5.0" font-weight="bold" font-family="Helvetica Neue, Helvetica, Arial-Unicode, Arial, Sans-serif" fill="#000000">from the Noun Project</text></svg>