<?xml version="1.0" encoding="utf-8"?>
<!-- Generator: Adobe Illustrator 16.0.0, SVG Export Plug-In . SVG Version: 6.00 Build 0)  -->
<!DOCTYPE svg PUBLIC "-//W3C//DTD SVG 1.1//EN" "http://www.w3.org/Graphics/SVG/1.1/DTD/svg11.dtd">
<svg version="1.1" id="Layer_1" xmlns="http://www.w3.org/2000/svg" xmlns:xlink="http://www.w3.org/1999/xlink" x="0px" y="0px"
	 width="256px" height="256px" viewBox="0 0 256 256" enable-background="new 0 0 256 256" xml:space="preserve">
<g>
	<path d="M128,0C57.421,0,0,57.421,0,128s57.421,128,128,128s128-57.421,128-128S198.579,0,128,0z M128,245.76
		c-64.932,0-117.76-52.822-117.76-117.76C10.24,63.068,63.068,10.24,128,10.24c64.938,0,117.76,52.828,117.76,117.76
		C245.76,192.938,192.938,245.76,128,245.76z"/>
	<path d="M134.236,66.074h-12.488c-1.101,0-1.828,0.737-1.828,1.838v13.404c0,1.101,0.722,1.838,1.828,1.838h12.488
		c1.096,0,1.838-0.737,1.838-1.838V67.912C136.074,66.811,135.337,66.074,134.236,66.074z"/>
	<path d="M133.873,102.984h-11.751c-1.096,0-1.833,0.737-1.833,1.838v84.286c0,1.101,0.732,1.832,1.833,1.832h11.751
		c1.101,0,1.838-0.727,1.838-1.832v-84.286C135.711,103.721,134.979,102.984,133.873,102.984z"/>
</g>
</svg>
