<?xml version="1.0" encoding="utf-8"?>
<!-- Generator: Adobe Illustrator 16.0.0, SVG Export Plug-In . SVG Version: 6.00 Build 0)  -->
<!DOCTYPE svg PUBLIC "-//W3C//DTD SVG 1.1//EN" "http://www.w3.org/Graphics/SVG/1.1/DTD/svg11.dtd">
<svg version="1.1" id="Layer_1" xmlns="http://www.w3.org/2000/svg" xmlns:xlink="http://www.w3.org/1999/xlink" x="0px" y="0px"
	 width="225.281px" height="235.52px" viewBox="0 0 225.281 235.52" enable-background="new 0 0 225.281 235.52"
	 xml:space="preserve">
<path d="M220.16,0H5.12C2.294,0,0,2.293,0,5.12v15.36c0,1.305,0.497,2.56,1.393,3.512l80.527,85.555v90.132
	c0,1.803,0.942,3.467,2.483,4.388l51.2,30.72c0.814,0.486,1.726,0.732,2.637,0.732c0.871,0,1.741-0.22,2.524-0.666
	c1.608-0.91,2.597-2.61,2.597-4.453V109.547l80.531-85.555c0.887-0.953,1.389-2.207,1.389-3.512V5.12
	C225.281,2.293,222.992,0,220.16,0z M133.121,221.353l-40.96-24.575V112.64h40.96V221.353z M215.041,18.452L136.029,102.4H89.252
	L10.24,18.452V10.24h204.8V18.452z"/>
</svg>
