<?xml version="1.0" encoding="utf-8"?>
<!-- Generator: Adobe Illustrator 16.0.0, SVG Export Plug-In . SVG Version: 6.00 Build 0)  -->
<!DOCTYPE svg PUBLIC "-//W3C//DTD SVG 1.1//EN" "http://www.w3.org/Graphics/SVG/1.1/DTD/svg11.dtd">
<svg version="1.1" id="Layer_1" xmlns="http://www.w3.org/2000/svg" xmlns:xlink="http://www.w3.org/1999/xlink" x="0px" y="0px"
	 width="254.869px" height="255.729px" viewBox="0 0 254.869 255.729" enable-background="new 0 0 254.869 255.729"
	 xml:space="preserve">
<g>
	<polygon points="188.876,35.568 199.116,35.568 199.116,62.208 209.356,72.771 209.356,25.329 178.637,25.329 178.637,40.771 
		188.876,51.41 	"/>
	<path d="M253.444,129.014L131.128,1.577C130.165,0.568,128.829,0,127.437,0s-2.729,0.568-3.697,1.577L1.428,129.008
		c-1.961,2.039-1.895,5.279,0.148,7.24c2.038,1.951,5.279,1.895,7.24-0.148l16.22-16.901v136.53h204.8V119.204l16.22,16.902
		c1.003,1.049,2.351,1.576,3.696,1.576c1.275,0,2.555-0.477,3.543-1.424C255.334,134.293,255.401,131.051,253.444,129.014z
		 M153.036,245.488h-51.2v-97.279h51.2V245.488z M219.597,245.488h-56.32v-107.52h-71.68v107.52h-56.32v-136.96l92.16-96.01
		l92.16,96.021V245.488z"/>
</g>
</svg>
