<?xml version="1.0" encoding="utf-8"?>
<!-- Generator: Adobe Illustrator 16.0.0, SVG Export Plug-In . SVG Version: 6.00 Build 0)  -->
<!DOCTYPE svg PUBLIC "-//W3C//DTD SVG 1.1//EN" "http://www.w3.org/Graphics/SVG/1.1/DTD/svg11.dtd">
<svg version="1.1" id="Layer_1" xmlns="http://www.w3.org/2000/svg" xmlns:xlink="http://www.w3.org/1999/xlink" x="0px" y="0px"
	 width="255.651px" height="253.957px" viewBox="0 0 255.651 253.957" enable-background="new 0 0 255.651 253.957"
	 xml:space="preserve">
<path d="M253.693,132.438l-13.22-20.848l7.859-23.435c1.884-5.708-0.527-12.027-5.725-15.022l-21.396-12.339l-3.938-24.387
	c-0.978-5.934-6.047-10.414-12.053-10.655l-24.673-0.973L165.742,5.028c-3.522-4.69-10.409-6.364-15.632-3.851l-22.287,10.609
	L105.53,1.183c-5.31-2.54-12.088-0.865-15.637,3.845L75.087,24.781l-24.673,0.973c-6.011,0.241-11.069,4.731-12.032,10.68
	L34.444,60.8L13.048,73.139c-5.217,3.005-7.619,9.329-5.714,15.042l7.854,23.409L1.963,132.444
	c-3.226,5.094-2.406,11.816,1.946,15.975l17.817,17.085l-2.007,24.616c-0.486,5.991,3.354,11.562,9.139,13.246l23.716,6.835
	l9.651,22.733c2.018,4.705,6.59,7.746,11.653,7.746c0.886,0,1.777-0.098,2.585-0.271l24.212-4.961l19.098,15.637
	c2.263,1.848,5.12,2.872,8.044,2.872c2.918,0,5.774-1.019,8.048-2.878l19.098-15.631l24.162,4.951
	c5.867,1.244,11.935-1.951,14.295-7.476l9.646-22.723l23.726-6.841c5.78-1.679,9.62-7.249,9.129-13.244l-2.013-24.612l17.818-17.081
	C256.094,144.261,256.913,137.538,253.693,132.438z M244.881,141.261l-21.228,20.357l2.401,29.312
	c0.107,1.315-0.748,2.54-2.012,2.908l-28.248,8.146l-11.488,27.06c-0.518,1.203-1.541,2.017-3.134,1.648l-28.825-5.897
	l-22.738,18.611c-1.291,1.049-2.273,1.039-3.548,0.01l-22.743-18.621l-28.887,5.913c-1.249,0.271-2.565-0.466-3.072-1.659
	L59.87,201.983l-28.242-8.141c-1.275-0.369-2.125-1.598-2.018-2.913l2.391-29.312l-21.228-20.363
	c-0.958-0.91-1.131-2.385-0.425-3.502l15.749-24.837L16.75,85.038c-0.42-1.255,0.107-2.647,1.259-3.308l25.482-14.694l4.68-29.021
	c0.215-1.311,1.321-2.299,2.637-2.35l29.384-1.157l17.628-23.521c0.773-1.034,2.243-1.434,3.441-0.855l26.562,12.641l26.572-12.646
	c1.152-0.553,2.647-0.174,3.41,0.855l17.639,23.531l29.384,1.157c1.326,0.051,2.442,1.044,2.657,2.345l4.685,29.021l25.487,14.699
	c1.146,0.661,1.674,2.053,1.266,3.297l-9.35,27.889l15.738,24.832C246.018,138.864,245.844,140.339,244.881,141.261z"/>
<polygon points="121.591,153.836 166.071,84.844 174.674,90.389 123.67,169.515 83.57,133.244 90.441,125.651 "/>
</svg>
