<?xml version="1.0" encoding="utf-8"?>
<!-- Generator: Adobe Illustrator 16.0.0, SVG Export Plug-In . SVG Version: 6.00 Build 0)  -->
<!DOCTYPE svg PUBLIC "-//W3C//DTD SVG 1.1//EN" "http://www.w3.org/Graphics/SVG/1.1/DTD/svg11.dtd">
<svg version="1.1" id="Layer_1" xmlns="http://www.w3.org/2000/svg" xmlns:xlink="http://www.w3.org/1999/xlink" x="0px" y="0px"
	 width="308.408px" height="308.408px" viewBox="0 0 308.408 308.408" enable-background="new 0 0 308.408 308.408"
	 xml:space="preserve">
<g id="Layer_1_1_">
	<polygon points="193.121,222.594 178.976,229.629 211.362,263.895 237.982,239.197 	"/>
	<polygon points="157.049,299.223 174.559,272.963 156.847,262.707 137.971,276.252 	"/>
	<polygon points="88.382,114.74 51.776,111.216 69.765,85.611 	"/>
	<polygon points="224.515,180.053 191.625,196.499 193.271,165.25 	"/>
</g>
<g id="Layer_2">
	<path d="M169.633,32.71c0.933-0.142,1.627-0.236,2.783-0.408c2.788-0.405,5.85-0.616,8.734-0.327
		c2.126-0.066,4.318,0.327,6.482,0.477c2.933-5.879,6.104-11.792,9.301-17.483c0,0,0,0-0.027-0.228
		c7.375,1.776,14.418,4.542,21.21,8.771c-1.682,6.41-3.63,12.631-5.572,18.843c1.86,1.385,3.729,2.783,5.361,4.204
		c1.937,1.843,3.862,3.708,5.363,5.855c0.797,0.599,1.392,1.459,1.957,2.092c6.376-1.876,12.714-3.982,19.081-5.849
		c1.562,2.619,3.166,5.461,4.535,8.346c0.332,0.661,0.695,1.565,0.801,2.253c0.605,0.871,0.938,1.52,1.037,2.22
		c1.1,2.691,1.971,5.411,2.842,8.13c-5.898,3.463-11.631,6.432-17.379,9.404c0.17,1.157,0.342,2.328,0.479,3.26
		c0.064,0.466,0.102,0.688,0.133,0.929c0.174,2.816,0.312,5.406,0.225,8.028c0.061,2.131-0.324,4.323-0.719,6.515
		c5.885,2.933,11.801,6.11,17.451,9.084c0.266,0.206,0.266,0.206,0.266,0.206c-0.256,1.448-0.518,2.919-1.043,4.173
		c-0.6,2.458-1.449,4.711-2.537,7.017c-1.158,3.494-2.807,6.807-4.961,9.973c0,0,0,0-0.232,0.036
		c-6.211-1.95-12.391-3.663-18.612-5.594c-1.382,1.854-2.57,3.446-4.235,5.117c-1.569,2.103-3.629,4.054-5.737,5.782l-19.13-22.964
		c3.514-2.905,6.282-6.604,8.164-11.232c2.779-7.042,2.663-14.387-0.245-21.321c-3.18-7.126-8.202-12.333-15.483-15.061
		c-7.305-2.981-14.417-2.886-21.542,0.283c-7.165,2.941-12.104,8.169-14.87,15.214c-2.933,7.536-2.855,14.648,0.284,21.546
		c2.939,7.164,8.204,12.325,15.246,15.095c2.886,1.176,5.732,1.731,8.568,1.958l5.838,29.99c-1.92,0.177-3.901,0.244-5.966,0.042
		c-2.353,0.103-4.775-0.247-7.203-0.613c-2.933,5.888-5.909,11.537-9.076,17.459c-7.383-1.787-14.457-4.781-21.174-8.544
		c0,0,0,0-0.041-0.236c1.947-6.215,3.663-12.4,5.561-18.849c-1.591-1.185-2.955-2.406-4.555-3.599
		c-2.161-1.823-4.156-4.14-6.19-6.69c-0.569-0.63-1.168-1.49-2.001-2.339c-6.103,2.082-12.474,3.968-18.838,5.838
		c-1.532-2.381-2.839-4.812-3.941-7.495c-0.329-0.658-0.998-1.995-1.807-4.254c-1.398-3.116-2.339-6.299-3.239-9.245
		c5.899-3.475,11.596-6.666,17.577-9.673c-0.139-0.932-0.271-1.859-0.409-2.783l-0.035-0.239c-0.405-2.783-0.542-5.375-0.451-8
		c0.128-2.389,0.486-4.812,0.847-7.245c0,0-0.23,0.03-0.264-0.191c-5.888-2.947-11.803-6.104-17.688-9.06
		c0.531-1.257,0.83-2.483,1.153-3.482c0.591-2.453,1.45-4.722,2.302-6.981c1.594-3.784,3.441-7.381,5.555-10.771
		c6.407,1.679,12.618,3.615,19.065,5.527c1.199-1.584,2.418-2.952,3.614-4.556c1.85-1.925,3.936-3.896,5.826-5.588
		c0.241-0.033,0.434-0.3,0.667-0.335c0.627-0.569,1.489-1.166,2.117-1.729c-2.101-6.338-3.979-12.703-6.089-19.041
		c2.619-1.567,5.271-2.913,8.161-4.268c0.656-0.338,1.326-0.677,2.221-1.043c0.659-0.328,1.358-0.428,2.223-1.038
		c2.953-0.888,5.875-2.037,8.627-2.678C163.426,21.031,166.431,27.008,169.633,32.71z"/>
	<path d="M139.48,197.143c0.252-0.766,0.312-1.593,0.12-2.295c0.165-1.615,0.108-3.161-0.029-4.845l-20.022,0.875
		c0.517,2.932,0.341,5.874-0.688,8.973c-1.579,4.78-4.694,8.417-9.265,10.712c-4.646,2.488-9.411,2.812-14.128,1.045
		c-5.032-1.457-8.467-4.509-10.894-9.339c-2.302-4.574-2.625-9.347-1.044-14.122c1.647-4.969,4.69-8.41,9.335-10.898
		c4.771-2.237,9.345-2.634,14.31-0.985c2.361,0.779,4.41,1.97,6.189,3.493l13.541-14.44c-1.201-1.046-2.462-2.08-3.715-2.822
		c-0.699-0.449-1.217-0.826-1.721-1.209c0.94-4.138,1.953-8.463,2.773-12.861c-1.646-0.763-3.308-1.518-5.219-2.153
		c-0.383-0.128-1.529-0.508-2.861-0.949c-2.104-0.693-4.268-1.207-6.493-1.518c-1.708,3.89-3.492,7.963-5.262,12.042
		c-0.636-0.006-1.27,0-1.903-0.006c-1.85-0.188-3.56-0.116-5.344,0.142c-1.526,0.125-3.12,0.45-4.774,0.955
		c0.062-0.192,0.062-0.192-0.125-0.256c-2.171-3.679-4.533-7.431-6.955-10.991c-0.702,0.189-1.398,0.383-2.356,0.708
		c-1.464,0.566-2.99,1.346-4.325,2.167c-2.285,1.149-4.638,2.486-6.865,4.087c1.597,4.131,3.196,8.263,4.858,12.211
		c-0.062,0.189-0.062,0.189-0.062,0.189c-0.891,0.76-1.84,1.715-2.794,2.669c-1.082,1.34-2.351,2.611-3.238,4.018
		c-0.063,0.188-0.125,0.381-0.317,0.32c-0.25,0.762-0.635,1.272-0.954,1.586c-4.33-1.004-8.657-2.022-12.795-2.96
		c-1.017,1.778-1.65,3.692-2.472,5.539c-0.19,0.571-0.38,1.143-0.568,1.717c-0.125,0.386-0.319,0.951-0.509,1.526
		c-0.445,1.975-1.077,3.881-1.327,5.921c3.89,1.712,7.961,3.485,12.039,5.262c0.002,0.637,0.002,1.274-0.187,1.844
		c0,1.915,0,3.819,0.204,5.784c0.188,1.345,0.509,2.93,0.708,4.27c-3.498,2.229-7.248,4.584-11,6.954
		c-0.064,0.193-0.064,0.193-0.064,0.193c1.606,4.762,3.964,9.146,6.965,13.539l0.06-0.191c4.075-1.404,8.207-3.002,12.141-4.668
		c1.092,1.207,2.047,2.156,3.004,3.113c1.279,1.273,2.546,2.543,4.143,3.494c0.512,0.377,1.014,0.758,1.591,0.949
		c-1.012,4.326-2.017,8.654-2.841,13.047c1.784,1.023,3.69,1.654,5.739,2.535c0.57,0.191,1.139,0.389,1.522,0.508
		c0.569,0.189,1.14,0.387,1.525,0.512c1.976,0.439,3.698,1.012,5.539,1.201c1.903-3.824,3.679-7.895,5.268-12.041
		c0.759,0.256,1.394,0.256,2.224,0.314c0.191,0.066,0.384,0.131,0.631,0c1.656,0.131,3.443-0.133,5.225-0.385
		c1.526-0.137,2.859-0.328,4.259-0.715c2.353,3.758,4.595,7.246,6.954,11c0,0,0,0,0.13,0.256c0.949-0.322,1.9-0.65,2.66-1.029
		c1.66-0.512,3.188-1.271,4.52-2.102c2.225-0.961,4.197-2.428,6.35-3.832c0,0,0,0-0.193-0.057c-1.395-4.082-3.063-8.018-4.66-12.148
		c1.143-0.885,2.356-1.973,3.308-2.939c1.265-1.27,2.407-2.799,3.296-4.203c0.637-0.635,1.082-1.328,1.272-1.906
		c4.329,1.012,8.656,2.02,12.853,2.777c1.022-1.787,1.841-3.633,2.536-5.734c0.952-2.867,1.713-5.787,2.024-8.656
		C147.436,200.625,143.543,198.916,139.48,197.143z"/>
</g>
</svg>
