<?xml version="1.0" encoding="utf-8"?>
<!-- Generator: Adobe Illustrator 16.0.0, SVG Export Plug-In . SVG Version: 6.00 Build 0)  -->
<!DOCTYPE svg PUBLIC "-//W3C//DTD SVG 1.1//EN" "http://www.w3.org/Graphics/SVG/1.1/DTD/svg11.dtd">
<svg version="1.1" id="Layer_1" xmlns="http://www.w3.org/2000/svg" xmlns:xlink="http://www.w3.org/1999/xlink" x="0px" y="0px"
	 width="163.84px" height="256px" viewBox="0 0 163.84 256" enable-background="new 0 0 163.84 256" xml:space="preserve">
<path d="M10.24,163.819h0.016v10.261c0,2.821,2.283,5.1,5.104,5.1v61.461H25.6V179.18h10.24v61.461h10.24V179.18h10.24v61.461h10.24
	V179.18H76.8v61.461h10.24V179.18h10.239v61.461h10.24V179.18h10.24v61.461H128V179.18h10.24v61.461h10.24V179.18
	c2.82,0,5.1-2.278,5.1-5.1v-10.261h0.02c2.821,0,5.1-2.278,5.1-5.099c0-2.822-2.278-5.1-5.1-5.1H10.24
	c-2.816,0-5.104,2.277-5.104,5.1C5.135,161.541,7.424,163.819,10.24,163.819z M143.381,168.98H20.464v-5.161h122.917V168.98
	L143.381,168.98z M25.6,97.265h0.015v10.255H25.6v40.96h10.24v-35.856h10.24v35.856h10.24v-35.856h10.24v35.856H76.8v-35.856h10.24
	v35.856h10.239v-35.856h10.24v35.856h10.24v-35.856H128v35.856h10.24v-40.96h-0.021V97.265h0.021c2.82,0,5.1-2.284,5.1-5.104
	c0-2.821-2.279-5.105-5.1-5.105h-0.328c-2.304-20.664-18.258-41.892-40.633-48.829V25.6h2.049c0-8.755-5.633-13.737-13.343-15.007
	c-0.067-1.741-1.214-3.159-2.796-3.681c1.347-0.512,2.314-1.797,2.314-3.328C85.504,1.603,83.901,0,81.92,0
	s-3.584,1.603-3.584,3.584c0,1.531,0.962,2.816,2.314,3.328c-1.583,0.522-2.724,1.945-2.796,3.681
	c-7.71,1.27-13.343,6.251-13.343,15.007h2.048v12.636c-22.37,6.932-38.359,28.16-40.668,48.819H25.6
	c-2.816,0-5.105,2.284-5.105,5.105C20.495,94.981,22.784,97.265,25.6,97.265z M35.825,97.28h92.196v5.136H35.825V97.28z M76.8,25.6
	h10.24v10.527c-1.685-0.164-3.384-0.287-5.12-0.287c-1.736,0-3.436,0.128-5.12,0.292V25.6z M81.92,46.08
	c23.895,0,42.85,20.997,45.706,40.96H36.214C39.065,67.077,58.025,46.08,81.92,46.08z M163.84,250.88c0,2.831-2.289,5.12-5.12,5.12
	H5.12C2.293,256,0,253.711,0,250.88s2.293-5.12,5.12-5.12h153.6C161.551,245.76,163.84,248.049,163.84,250.88z"/>
</svg>
