<?xml version="1.0" encoding="utf-8"?>
<!-- Generator: Adobe Illustrator 16.0.0, SVG Export Plug-In . SVG Version: 6.00 Build 0)  -->
<!DOCTYPE svg PUBLIC "-//W3C//DTD SVG 1.1//EN" "http://www.w3.org/Graphics/SVG/1.1/DTD/svg11.dtd">
<svg version="1.1" id="Layer_1" xmlns="http://www.w3.org/2000/svg" xmlns:xlink="http://www.w3.org/1999/xlink" x="0px" y="0px"
	 width="235.814px" height="235.814px" viewBox="0 0 235.814 235.814" enable-background="new 0 0 235.814 235.814"
	 xml:space="preserve">
<g>
	<path d="M45.748,92.617L45.748,92.617l-32.805-0.012c-3.012,0-5.455-2.445-5.455-5.457c0-3.014,2.442-5.459,5.458-5.459l0,0
		l32.801,0.013c3.016,0,5.458,2.445,5.458,5.458C51.206,90.171,48.761,92.617,45.748,92.617z"/>
</g>
<g>
	<path d="M206.632,203.048c-0.729,0-1.465-0.15-2.17-0.455l-44.71-19.375c-4.977,0.945-19.562,2.84-56.603,2.84
		c-18.63,0-34.947-7.801-47.178-22.564c-16.342-19.727-21.638-47.242-18.423-64.229c6.48-34.26,23.007-50.525,50.558-49.758
		c15.343,0.442,32.17,14.75,46.164,39.256c1.494,2.617,0.584,5.953-2.031,7.447c-2.621,1.498-5.95,0.584-7.45-2.033
		c-11.883-20.813-25.717-33.432-36.997-33.76c-21.813-0.672-34.056,11.986-39.52,40.875c-2.672,14.132,2.063,38.288,16.101,55.237
		c10.234,12.35,23.281,18.609,38.773,18.609c45.021,0,55.449-2.824,55.546-2.85c1.245-0.391,2.58-0.309,3.777,0.207l25.384,11
		c-8.798-10.734-20.232-24.9-30.395-38.211c-1.827-2.393-1.368-5.816,1.027-7.65c2.396-1.83,5.821-1.367,7.654,1.027
		c19.764,25.885,44.415,55.105,44.663,55.398c1.633,1.936,1.72,4.744,0.21,6.779C209.958,202.263,208.316,203.048,206.632,203.048z"
		/>
</g>
<g>
	<circle cx="80.75" cy="84.063" r="6.95"/>
</g>
<g>
	<path d="M126.924,146.775c-12.551,0-20.441-1.648-21.065-1.779c-2.944-0.631-4.82-3.537-4.183-6.486
		c0.635-2.947,3.537-4.822,6.486-4.184c0.265,0.055,27.658,5.648,62.073-5.266c32.572-10.346,43.384-55.511,46.285-71.976h-41.55
		c-2.019,0-3.917-0.064-5.695-0.124c-11.092-0.369-13.408-0.449-15.138,16.081c-3.091,29.697-45.107,31.839-46.895,31.914
		c-2.969,0.135-5.559-2.208-5.687-5.221c-0.128-3.01,2.207-5.555,5.212-5.684c0.475-0.023,34.395-1.835,36.513-22.142
		c2.59-24.798,12.15-26.328,26.357-25.858c1.669,0.056,3.442,0.115,5.33,0.115h47.883c1.547,0,3.017,0.654,4.058,1.805
		c1.034,1.149,1.532,2.682,1.371,4.222c-0.309,2.953-8.109,72.458-54.746,87.268C155.263,145.265,138.949,146.769,126.924,146.775z"
		/>
</g>
<g>
	<path d="M170.34,138.679c-1.936,0-3.812-1.029-4.799-2.848l-13.515-24.835c-1.438-2.649-0.461-5.964,2.186-7.404
		c2.648-1.438,5.965-0.463,7.402,2.186l13.518,24.835c1.438,2.648,0.458,5.963-2.188,7.404
		C172.115,138.462,171.222,138.679,170.34,138.679z"/>
</g>
<g>
	<path d="M215.705,85.655h-42.279c-3.014,0-5.456-2.445-5.456-5.458c0-3.013,2.442-5.458,5.456-5.458h42.279
		c3.017,0,5.459,2.445,5.459,5.458C221.164,83.209,218.722,85.655,215.705,85.655z"/>
</g>
<g>
	<path d="M125.547,140.494c-3.011,0-5.458-2.445-5.458-5.457v-16.992c0-3.012,2.447-5.457,5.458-5.457
		c3.013,0,5.458,2.445,5.458,5.457v16.992C131.006,138.048,128.561,140.494,125.547,140.494z"/>
</g>
</svg>
