<?xml version="1.0" encoding="utf-8"?>
<!-- Generator: Adobe Illustrator 16.0.0, SVG Export Plug-In . SVG Version: 6.00 Build 0)  -->
<!DOCTYPE svg PUBLIC "-//W3C//DTD SVG 1.1//EN" "http://www.w3.org/Graphics/SVG/1.1/DTD/svg11.dtd">
<svg version="1.1" id="Layer_1" xmlns="http://www.w3.org/2000/svg" xmlns:xlink="http://www.w3.org/1999/xlink" x="0px" y="0px"
	 width="204.812px" height="255.467px" viewBox="0 0 204.812 255.467" enable-background="new 0 0 204.812 255.467"
	 xml:space="preserve">
<g>
	<path d="M84.507,56.32c15.519,0,28.144-12.631,28.144-28.16C112.651,12.631,100.026,0,84.507,0
		C68.973,0,56.332,12.631,56.332,28.16C56.332,43.689,68.973,56.32,84.507,56.32z M84.507,10.24c9.872,0,17.905,8.038,17.905,17.92
		c0,9.881-8.033,17.92-17.905,17.92c-9.892,0-17.936-8.039-17.936-17.92C66.572,18.278,74.616,10.24,84.507,10.24z"/>
	<path d="M172.489,122.158c-1.09-7.573-7.771-13.138-15.375-13.01c3.041-3.21,6.016-6.6,8.914-10.153
		c23.926-29.312,38.783-65.285,38.783-93.875c0-2.826-2.288-5.12-5.119-5.12c-2.832,0-5.121,2.294-5.121,5.12
		c0,43.438-29.076,87.327-62.944,112.63l3.584-37.684c7.511-14.423,29.567-56.878,30.766-60.099
		c1.362-3.707,4.981-13.547-5.028-18.565c-7.347-3.676-14.346,1.321-17.576,7.224l-33.705,53.084
		c-6.344,0.625-23.153,2.237-29.737,2.473c-5.75,0.205-10.066,2.232-15.534,5.074c-3.533,1.838-13.209,7.183-18.54,10.138
		c-7.424-8.504-20.639-23.726-22.933-26.732c-6.165-8.089-14.1-7.04-19.021-3.681c-6.251,4.27-4.06,13.65,0.066,20.997
		c3.236,5.76,19.39,28.442,25.047,35.165c8.074,9.605,13.804,8.33,19.927,5.836c2.882-1.172,11.285-4.229,17.142-6.344l5.013,42.634
		c-7.106,16.805-29.25,69.355-34.688,84.285c-2.857,7.854-1.254,17.951,7.352,22.047c2.724,1.296,5.356,1.863,7.849,1.863
		c7.957,0,14.464-5.836,17.767-12.697c3.635-7.582,29.654-52.756,36.48-64.573c2.59,0.144,4.966,0.052,7.131-0.22l-0.338,67.758
		c-0.015,2.832,2.264,5.131,5.096,5.146c0.01,0,0.015,0,0.025,0c2.815,0,5.104-2.272,5.119-5.095l0.344-70.748
		c3-1.412,5.314-3.041,7.152-4.336c0.66-0.467,1.254-0.891,1.807-1.229c2.422-1.496,7.281-5.366,11.479-8.817l3.154,29.932
		c0.148,1.08,1.664,10.67,7.94,15.171c2.826,2.027,6.165,2.76,9.719,2.073c10.997-2.084,13.455-13.649,13.215-19.472
		c0-0.057-0.006-0.107-0.011-0.164C177.517,185.729,173.278,127.708,172.489,122.158z M70.417,92.523
		c-0.579,0-1.167,0.097-1.72,0.302c-0.768,0.271-18.836,6.733-23.608,8.673c-3.896,1.577-4.295,1.741-8.233-2.939
		c-5.151-6.124-21.043-28.411-23.957-33.592c-2.017-3.589-2.667-6.636-2.642-7.88c1.377-0.722,2.729-0.563,4.521,1.787
		c3.354,4.403,25.165,29.327,26.091,30.387c1.587,1.812,4.229,2.273,6.338,1.101c0.174-0.097,17.163-9.543,21.914-12.017
		c5.136-2.667,7.824-3.809,11.177-3.927c8.474-0.312,31.877-2.667,32.865-2.77c1.562-0.159,2.964-1.024,3.804-2.35l35.189-55.439
		c0.031-0.041,2.556-4.111,4.204-3.308c1.29,0.645,1.823,0.917,0.026,5.811c-1.168,2.857-19.462,38.231-30.721,59.853
		c-0.307,0.583-0.496,1.224-0.553,1.879l-4.485,47.104c-13.532,8.248-27.397,13.348-40.151,14.172L75.501,97.04
		c-0.185-1.552-1.06-2.929-2.386-3.753C72.296,92.785,71.359,92.523,70.417,92.523z M162.587,197.77
		c-0.906,0.175-1.387-0.01-1.838-0.332c-2.155-1.531-3.477-6.252-3.753-8.1l-4.142-39.307c-0.195-1.889-1.424-3.518-3.189-4.219
		c-1.768-0.701-3.773-0.374-5.223,0.86c-5.494,4.68-14.721,12.293-17.623,14.09c-0.707,0.436-1.47,0.963-2.314,1.567
		c-4.08,2.867-9.636,6.809-20.812,5.401c-2.068-0.241-4.035,0.737-5.064,2.514c-1.392,2.411-34.14,59.049-38.481,68.097
		c-0.466,0.973-4.787,9.445-11.986,6.021c-3.046-1.449-3.369-5.868-2.12-9.293c5.417-14.889,27.97-68.372,34.754-84.413l0.271-0.646
		c0.051-0.128,0.102-0.261,0.143-0.394c15.754-0.892,31.975-6.656,47.523-16.641c16.559-9.38,23.389-12.856,28.268-13.547
		c2.146-0.317,4.957,1.464,5.346,4.188c0.614,4.307,3.906,48.425,5.131,65.224C167.487,189.502,167.451,196.844,162.587,197.77z"/>
</g>
</svg>
