<?xml version="1.0" encoding="utf-8"?>
<!-- Generator: Adobe Illustrator 16.0.0, SVG Export Plug-In . SVG Version: 6.00 Build 0)  -->
<!DOCTYPE svg PUBLIC "-//W3C//DTD SVG 1.1//EN" "http://www.w3.org/Graphics/SVG/1.1/DTD/svg11.dtd">
<svg version="1.1" id="Layer_1" xmlns="http://www.w3.org/2000/svg" xmlns:xlink="http://www.w3.org/1999/xlink" x="0px" y="0px"
	 width="256.002px" height="243.697px" viewBox="0 0 256.002 243.697" enable-background="new 0 0 256.002 243.697"
	 xml:space="preserve">
<g>
	<path d="M249.176,202.234c-2.34,0.824-4.875,1.225-7.752,1.225c-7.143,0-18.021-2.008-25.189-7.654c-1.858-1.47-4.479-1.47-6.338,0
		c-7.173,5.652-18.047,7.654-25.185,7.654c-7.137,0-18.017-2.008-25.189-7.654c-1.858-1.47-4.479-1.47-6.339,0
		c-7.167,5.652-18.047,7.654-25.184,7.654c-7.137,0-18.017-2.008-25.189-7.654c-1.858-1.47-4.48-1.47-6.338,0
		c-7.167,5.652-18.047,7.654-25.184,7.654c-7.137,0-18.017-2.008-25.185-7.654c-1.858-1.47-4.479-1.47-6.338,0
		c-7.168,5.652-18.047,7.654-25.185,7.654c-2.816,0-5.575-0.221-8.678-0.697c-2.765-0.42-5.407,1.49-5.837,4.285
		c-0.43,2.796,1.49,5.412,4.286,5.837c3.63,0.554,6.881,0.813,10.229,0.813c8.187,0,19.476-2.047,28.359-7.623
		c8.883,5.576,20.167,7.623,28.353,7.623s19.471-2.047,28.354-7.623c8.888,5.576,20.177,7.623,28.358,7.623
		c8.187,0,19.476-2.047,28.354-7.623c8.883,5.576,20.173,7.623,28.358,7.623c8.188,0,19.471-2.047,28.354-7.623
		c8.878,5.576,20.167,7.623,28.359,7.623c4.049,0,7.694-0.588,11.15-1.807c2.668-0.941,4.07-3.86,3.128-6.527
		C254.771,202.695,251.854,201.298,249.176,202.234z"/>
	<path d="M249.176,181.756c-2.34,0.824-4.875,1.223-7.752,1.223c-7.143,0-18.021-2.006-25.189-7.653c-1.858-1.47-4.479-1.47-6.338,0
		c-5.283,4.157-12.564,6.333-18.887,7.193c28.158-12.794,55.883-39.213,64.504-77.847c1.096-4.977,0.332-9.271-2.207-12.441
		c-2.867-3.559-8.314-6.241-12.676-6.241h-39.33l-43.877-49.473c-0.963-1.085-2.36-1.715-3.824-1.715h-40.959
		c-2.207,0-4.157,1.408-4.859,3.502l-9.072,27.217H79.198L55.135,36.645c-0.973-1.167-2.412-1.843-3.932-1.843H30.724
		c-1.7,0-3.287,0.845-4.239,2.248c-0.953,1.403-1.147,3.195-0.517,4.771l9.236,23.09L21.078,85.995h-5.714
		C7.321,85.995,0,93.321,0,101.359v28.358c0,24.027,12.748,41.589,26.705,51.659c-4.352,1.121-8.678,1.602-12.124,1.602
		c-2.816,0-5.575-0.22-8.678-0.695c-2.765-0.426-5.407,1.49-5.837,4.285c-0.43,2.795,1.49,5.412,4.286,5.836
		c3.63,0.553,6.881,0.814,10.229,0.814c8.187,0,19.476-2.048,28.359-7.623c8.883,5.575,20.167,7.623,28.353,7.623
		s19.471-2.048,28.354-7.623c8.888,5.575,20.177,7.623,28.358,7.623c8.187,0,19.476-2.048,28.354-7.623
		c8.883,5.575,20.173,7.623,28.358,7.623c8.188,0,19.471-2.048,28.354-7.623c8.878,5.575,20.167,7.623,28.359,7.623
		c4.049,0,7.694-0.589,11.15-1.807c2.668-0.943,4.07-3.861,3.128-6.528C254.771,182.217,251.854,180.809,249.176,181.756z
		 M116.332,45.042h34.963l18.165,20.479h-59.953L116.332,45.042z M102.401,75.76h76.142l11.473,12.933l-1.873,2.811
		c-0.594-0.236-1.229-0.385-1.904-0.385H32.004c-0.333,0-0.645,0.062-0.958,0.123l-0.384-1.151l9.6-14.331h36.54H102.401z
		 M181.568,101.359l-10.234,15.354H39.54l-5.12-15.354H181.568z M48.807,45.042l17.064,20.479H46.047
		c0-0.645-0.082-1.291-0.328-1.905l-7.434-18.575H48.807z M153.184,175.325c-7.167,5.652-18.047,7.653-25.184,7.653
		c-7.137,0-18.017-2.006-25.189-7.653c-1.858-1.47-4.48-1.47-6.338,0c-7.167,5.652-18.047,7.653-25.184,7.653
		c-7.137,0-18.017-2.006-25.185-7.653c-1.858-1.47-4.479-1.47-6.338,0c-0.533,0.42-1.122,0.778-1.695,1.162
		c-13.608-7.501-27.821-23.536-27.821-46.77v-28.358c0-2.391,2.724-5.115,5.114-5.115h6.543l9.072,27.213
		c0.696,2.094,2.657,3.506,4.864,3.506h138.234c1.715,0,3.312-0.854,4.265-2.277l18.959-28.441h43.333
		c1.137,0,3.754,1.25,4.686,2.412c0.507,0.625,0.568,2.053,0.189,3.804c-9.861,44.163-47.169,70.797-78.159,77.202
		c-2.821-1.117-5.524-2.52-7.828-4.332C157.664,173.855,155.043,173.855,153.184,175.325z"/>
	<path d="M210.255,121.838h10.315c0,0,4.705-0.158,4.705-4.863c0-2.58,0-6.835,0-6.835s-0.152-1.976-3.332-1.976
		c-3.174,0-3.492,1.976-3.492,1.976v4.097c0,0-0.461,1.98-3.486,1.98s-3.344-1.98-3.344-1.98v-4.097c0,0-0.307-1.976-3.48-1.976
		c-3.17,0-3.344,1.976-3.344,1.976s0,3.948,0,6.687C204.797,121.531,210.255,121.838,210.255,121.838z"/>
</g>
</svg>
