
<?xml version="1.0" encoding="utf-8"?>
<!-- Generator: Adobe Illustrator 16.0.0, SVG Export Plug-In . SVG Version: 6.00 Build 0)  -->
<!DOCTYPE svg PUBLIC "-//W3C//DTD SVG 1.1//EN" "http://www.w3.org/Graphics/SVG/1.1/DTD/svg11.dtd">
<svg version="1.1" id="Layer_1" xmlns="http://www.w3.org/2000/svg" xmlns:xlink="http://www.w3.org/1999/xlink" x="0px" y="0px"
	 width="256.001px" height="255.953px" viewBox="0 0 256.001 255.953" enable-background="new 0 0 256.001 255.953"
	 xml:space="preserve">
<path d="M204.256,99.417c-16.33-9.166-31.631-14.677-45.684-16.586c-1.014-22.369-5.654-45.771-13.91-69.665l-0.383-1.116
	l-0.834-0.834c-0.932-0.926-23.373-22.492-80.505-3.265C5.368,27.674,0.358,58.359,0.169,59.659L0,60.851l0.379,1.142
	c26.483,79.957,67.254,105.17,92.023,113.052c-5.23,52.47,21.463,76.63,23.09,78.042l0.829,0.722l1.049,0.317
	c0.246,0.076,6.177,1.827,15.864,1.827c0.005,0,0.005,0,0.005,0c25.854,0,76.088-12.047,122.084-92.725l0.6-1.05l0.066-1.207
	C256.057,159.661,257.085,128.772,204.256,99.417z M10.552,60.15c1.484-4.969,10.455-27.016,55.679-42.512
	c44.921-15.112,65.197-2.789,69.214,0.205c7.498,22.052,11.781,43.607,12.841,64.2c-0.134,0-0.276-0.015-0.409-0.015
	c-15.025,0-22.789,4.733-23.623,5.276l-1.059,0.686l-0.62,1.095c-3.91,6.924-7.364,13.602-10.429,20.05
	c-5,0.287-9.897,1.151-14.958,2.712c-20.87,7.333-27.338,22.711-27.609,23.367c-1.06,2.6,0.184,5.553,2.779,6.638
	c0.64,0.266,1.3,0.389,1.95,0.389c2.001,0,3.905-1.177,4.734-3.127c0.205-0.486,5.215-11.873,21.34-17.548
	c2.308-0.711,4.605-1.233,6.908-1.617c-7.011,16.597-11.238,31.478-13.495,44.769C71.134,156.944,35.05,133.034,10.552,60.15z
	 M133.235,245.712c-5.86,0-10.015-0.737-11.853-1.136c-4.467-4.442-23.709-26.463-18.571-70.694c0.21-0.374,0.415-0.752,0.527-1.187
	c0.215-0.845,0.144-1.674-0.051-2.467c2.154-15.092,7.144-32.655,16.35-52.849c0.563-0.666,0.917-1.474,1.08-2.37
	c2.938-6.29,6.243-12.799,10.046-19.595c2.17-1.008,7.886-3.157,17.123-3.157c14.856,0,32.619,5.562,51.391,16.095
	c41.441,23.023,45.95,46.052,46.441,51.062C202.486,234.463,156.74,245.712,133.235,245.712z M191.555,194.573
	c-0.235-0.051-23.464-5.031-34.963-11.259c-11.371-6.161-27.164-23.351-27.317-23.521c-1.274-1.387-3.193-1.97-5.036-1.51
	c-1.827,0.467-3.25,1.895-3.71,3.727c-0.456,1.821-10.88,44.881,14.718,59.42c4.468,2.537,9.463,3.827,14.836,3.827
	c21.709,0,43.121-21.161,44.021-22.062c1.33-1.326,1.816-3.275,1.289-5.071S193.393,194.967,191.555,194.573z M150.092,215.022
	c-3.633,0-6.831-0.813-9.779-2.486c-12.824-7.287-12.804-26.709-11.447-38.505c6.115,5.982,15.122,14.094,22.854,18.28
	c7.728,4.186,19.513,7.717,27.86,9.907C172.374,207.771,160.911,215.022,150.092,215.022z M213.008,182.69
	c0,0-8.7-4.094-17.4-10.235c-8.188-6.653-16.375-13.306-16.375-13.306s13.816-5.117,21.493-0.512
	C209.938,163.754,213.008,182.69,213.008,182.69z M146.479,144.308c-9.724-4.094-17.911-9.212-17.911-9.212
	s17.399-7.164,26.611-2.047c7.676,4.605,10.746,18.936,10.746,18.936S155.691,148.403,146.479,144.308z M92.745,63.451
	c0,0,11.259-1.023,19.958,0c9.723,1.023,17.912,4.605,17.912,4.605s-11.771,13.306-19.958,12.282
	C98.886,78.804,92.745,63.451,92.745,63.451z M67.669,94.668c-5.629,6.141-23.029,2.047-23.029,2.047l0,0
	c0,0,4.094-7.165,11.259-14.329c6.141-6.141,15.864-12.282,15.864-12.282S75.857,85.968,67.669,94.668z"/>
</svg>

