<?xml version="1.0" encoding="utf-8"?>
<!-- Generator: Adobe Illustrator 16.0.0, SVG Export Plug-In . SVG Version: 6.00 Build 0)  -->
<!DOCTYPE svg PUBLIC "-//W3C//DTD SVG 1.1//EN" "http://www.w3.org/Graphics/SVG/1.1/DTD/svg11.dtd">
<svg version="1.1" id="Layer_1" xmlns="http://www.w3.org/2000/svg" xmlns:xlink="http://www.w3.org/1999/xlink" x="0px" y="0px"
	 width="214.924px" height="232.158px" viewBox="0 0 214.924 232.158" enable-background="new 0 0 214.924 232.158"
	 xml:space="preserve">
<path d="M188.843,3.138c-0.723-1.715-2.314-2.908-4.162-3.108c-1.834-0.2-3.662,0.619-4.742,2.135
	c-10.5,14.874-30.545,19.61-53.76,25.083C94.564,34.712,55.221,44,28.823,84.617c-18.975,29.189-13.174,53.346-4.967,68.465
	c11.689,21.545,33.326,35.307,49.239,39.885c-33.285,22.876-61.829,21.427-67.456,22.887c-8.125,2.109-7.782,16.547,3.072,16.302
	c15.365-1.787,44.856-9.754,73.19-33.285c0.159-0.118,0.328-0.241,0.491-0.358c4.567,13.398,16.993,31.887,50.862,31.887
	c16.471,0,42.357-10.014,61.127-38.236C233.725,133.006,207.802,48.342,188.843,3.138z M185.858,186.495
	c-16.522,24.847-38.661,33.663-52.603,33.663c-28.77,0-38.943-14.75-42.22-28.375c22.257-18.344,54.923-53.493,78.827-114.569
	c1.029-2.632-0.271-5.602-2.902-6.631c-2.627-1.034-5.602,0.267-6.636,2.903c-23.327,59.627-55.091,93.506-76.401,110.909
	c-12.272,0.45-38.907-13.782-51.072-36.198c-10.01-18.442-8.474-37.955,4.552-58c24.161-37.171,59.734-45.568,91.125-52.981
	c20.885-4.931,40.771-9.625,54.012-22.426C220.689,110.806,201.208,163.419,185.858,186.495z"/>
</svg>
