<?xml version="1.0" encoding="utf-8"?>
<!-- Generator: Adobe Illustrator 16.0.0, SVG Export Plug-In . SVG Version: 6.00 Build 0)  -->
<!DOCTYPE svg PUBLIC "-//W3C//DTD SVG 1.1//EN" "http://www.w3.org/Graphics/SVG/1.1/DTD/svg11.dtd">
<svg version="1.1" id="Layer_1" xmlns="http://www.w3.org/2000/svg" xmlns:xlink="http://www.w3.org/1999/xlink" x="0px" y="0px"
	 width="192.502px" height="215.667px" viewBox="0 0 192.502 215.667" enable-background="new 0 0 192.502 215.667"
	 xml:space="preserve">
<path d="M171.226,8.787c11.561,4.679,17.162,17.881,12.475,29.439c-3.597,8.913-12.321,14.234-21.397,14.086
	c-10.86,26.817-50.827,125.461-50.906,125.68c-10.754,25.778-39.368,37.168-65.289,26.68
	c-25.782-10.435-38.975-38.587-28.994-64.503c0.112-0.302,0.652-1.608,2.793-6.896c2.958-7.327,0.459-10.635-3.081-12.077
	c-4.134-1.649-9.688-0.785-9.688-0.785l43.382-18.396c0,0-17.571,43.435-17.878,44.193c-6.657,17.287,2.529,36.392,19.791,43.369
	c17.359,7.035,37.019-0.33,44.231-17.594c0.366-0.936,40.183-99.336,50.9-125.822c-6.378-6.224-9.322-16.143-5.782-24.886
	C146.457,9.712,159.666,4.118,171.226,8.787 M160.514,35.265c3.053,1.225,6.519-0.25,7.751-3.285
	c1.233-3.041-0.238-6.516-3.292-7.749c-3.035-1.233-6.516,0.242-7.732,3.283C156.011,30.555,157.483,34.032,160.514,35.265
	 M173.907,2.17c-15.2-6.15-32.584,1.22-38.728,16.423c-3.812,9.423-2.11,20.51,4.114,28.927l-13.068,32.318
	c-15.149,37.46-35.885,88.748-36.173,89.446c-5.561,13.313-20.924,19.359-34.943,13.684c-13.822-5.6-20.913-20.938-15.809-34.196
	c0.266-0.657,11.786-29.133,17.837-44.087c1.085-2.671,0.449-5.734-1.613-7.766c-0.68-0.665-1.478-1.181-2.33-1.523
	c-1.719-0.699-3.686-0.711-5.465,0.042L4.351,113.819c-3.313,1.412-5.062,5.084-4.078,8.541c0.619,2.177,2.211,3.854,4.187,4.661
	c1.164,0.469,2.467,0.639,3.778,0.428c1.439-0.206,4.285-0.24,5.827,0.352c-0.037,0.464-0.191,1.349-0.778,2.787l-2.01,4.969
	c-0.559,1.37-0.761,1.894-0.827,2.045c-11.275,29.267,3.209,61.646,32.974,73.679c29.657,12,62.393-1.417,74.553-30.544
	c0.166-0.378,38.063-93.939,49.269-121.645c10.239-1.597,19.151-8.475,23.089-18.195C196.48,25.695,189.111,8.324,173.907,2.17
	L173.907,2.17z"/>
</svg>
