<?xml version="1.0" encoding="utf-8"?>
<!-- Generator: Adobe Illustrator 16.0.0, SVG Export Plug-In . SVG Version: 6.00 Build 0)  -->
<!DOCTYPE svg PUBLIC "-//W3C//DTD SVG 1.1//EN" "http://www.w3.org/Graphics/SVG/1.1/DTD/svg11.dtd">
<svg version="1.1" id="Layer_1" xmlns="http://www.w3.org/2000/svg" xmlns:xlink="http://www.w3.org/1999/xlink" x="0px" y="0px"
	 width="163.84px" height="256px" viewBox="0 0 163.84 256" enable-background="new 0 0 163.84 256" xml:space="preserve">
<path d="M143.359,138.24c0-2.15,1.875-5.637,4.25-10.056c6.072-11.28,16.23-30.162,16.23-65.961C163.84,28.8,136.366,0,122.88,0
	c-10.188,0-15.36,6.595-15.36,19.594V235.52c0,12.637,8.832,20.48,23.041,20.48c14.207,0,23.039-7.844,23.039-20.48
	c0-28.6-3.604-49.418-6.502-66.145C145.096,157.777,143.359,147.764,143.359,138.24z M130.561,245.76
	c-8.494,0-12.801-3.445-12.801-10.24V19.594c0-9.354,2.376-9.354,5.12-9.354c6.216,0,30.72,22.728,30.72,51.983
	c0,33.219-9.031,50.007-15.006,61.118c-3.057,5.679-5.474,10.169-5.474,14.899c0,10.404,1.808,20.818,3.892,32.881
	c2.826,16.338,6.348,36.68,6.348,64.398C143.359,242.314,139.055,245.76,130.561,245.76z M72.269,4.403C71.91,1.879,69.75,0,67.2,0
	H14.72c-2.55,0-4.71,1.874-5.068,4.398C8.663,11.325,0,72.381,0,81.92c0,9.794,14.08,25.933,20.393,32.671L15.36,235.52
	c0,12.252,10.286,20.48,25.6,20.48s25.6-8.229,25.595-20.695l-5.028-120.74C67.814,107.74,81.92,91.372,81.92,81.92
	C81.92,72.766,73.257,11.372,72.269,4.403z M52.598,109.123c-0.952,1.003-1.454,2.35-1.393,3.732L56.32,235.52
	c0,9.953-13.788,10.24-15.36,10.24s-15.36-0.287-15.365-10.025l5.12-122.879c0.062-1.398-0.456-2.76-1.429-3.763
	C20.091,99.533,10.24,86.338,10.24,81.92c0-6.927,5.955-50.585,8.924-71.68H25.6V76.8c0,2.826,2.293,5.12,5.12,5.12
	c2.827,0,5.12-2.294,5.12-5.12V10.24h10.24V76.8c0,2.826,2.293,5.12,5.12,5.12c2.827,0,5.12-2.294,5.12-5.12V10.24h6.431
	c2.97,21.202,8.929,65.049,8.929,71.68C71.68,86.113,61.813,99.369,52.598,109.123z"/>
</svg>
