<?xml version="1.0" encoding="utf-8"?>
<!-- Generator: Adobe Illustrator 16.0.0, SVG Export Plug-In . SVG Version: 6.00 Build 0)  -->
<!DOCTYPE svg PUBLIC "-//W3C//DTD SVG 1.1//EN" "http://www.w3.org/Graphics/SVG/1.1/DTD/svg11.dtd">
<svg version="1.1" id="Layer_1" xmlns="http://www.w3.org/2000/svg" xmlns:xlink="http://www.w3.org/1999/xlink" x="0px" y="0px"
	 width="240.213px" height="199.429px" viewBox="30.758 4.244 240.213 199.429"
	 enable-background="new 30.758 4.244 240.213 199.429" xml:space="preserve">
<g id="Your_Icon">
	<path d="M267.427,159.847H34.301c-1.953,0-3.543-1.586-3.543-3.539V83.53c0-1.957,1.589-3.543,3.543-3.543h233.126
		c1.953,0,3.544,1.585,3.544,3.543v72.777C270.971,158.263,269.385,159.847,267.427,159.847z M37.845,152.764h226.039V87.072H37.845
		V152.764z"/>
	<path d="M84.101,203.673H50.176c-1.954,0-3.543-1.586-3.543-3.543v-43.821c0-1.958,1.586-3.544,3.543-3.544
		c1.956,0,3.544,1.586,3.544,3.544v40.276h26.84v-40.276c0-1.958,1.588-3.544,3.542-3.544c1.958,0,3.543,1.586,3.543,3.544v43.821
		C87.646,202.087,86.06,203.673,84.101,203.673z"/>
	<path d="M251.554,203.673h-33.929c-1.961,0-3.54-1.586-3.54-3.543v-43.821c0-1.958,1.582-3.544,3.54-3.544
		c1.955,0,3.543,1.586,3.543,3.544v40.276h26.844v-40.276c0-1.958,1.589-3.544,3.542-3.544c1.956,0,3.545,1.586,3.545,3.544v43.821
		C255.098,202.087,253.509,203.673,251.554,203.673z"/>
	<path d="M68.071,140.967c-10.252,0-18.595-8.338-18.595-18.589s8.342-18.591,18.595-18.591c10.252,0,18.594,8.341,18.594,18.591
		C86.667,132.631,78.327,140.967,68.071,140.967z M68.071,110.871c-6.346,0-11.509,5.158-11.509,11.507
		c0,6.347,5.162,11.512,11.509,11.512c6.345,0,11.508-5.165,11.508-11.512C79.58,116.032,74.414,110.871,68.071,110.871z"/>
	<path d="M233.667,140.967c-10.257,0-18.604-8.338-18.604-18.589s8.348-18.591,18.604-18.591c10.243,0,18.578,8.341,18.578,18.591
		C252.247,132.631,243.911,140.967,233.667,140.967z M233.667,110.871c-6.352,0-11.517,5.158-11.517,11.507
		c0,6.347,5.164,11.512,11.517,11.512c6.335,0,11.495-5.165,11.495-11.512C245.163,116.032,240.008,110.871,233.667,110.871z"/>
	<path d="M256.151,86.489c-1.955,0-3.544-1.587-3.544-3.542V35.948H49.121v46.999c0,1.955-1.585,3.543-3.542,3.543
		c-1.958,0-3.543-1.588-3.543-3.543v-50.54c0-1.957,1.587-3.544,3.543-3.544h210.572c1.955,0,3.544,1.587,3.544,3.544v50.54
		C259.695,84.904,258.104,86.489,256.151,86.489z"/>
	<path d="M256.151,35.948c-1.955,0-3.544-1.587-3.544-3.542V11.331H49.121v21.076c0,1.953-1.585,3.542-3.542,3.542
		c-1.958,0-3.543-1.587-3.543-3.542V7.789c0-1.956,1.587-3.545,3.543-3.545h210.572c1.955,0,3.544,1.589,3.544,3.545v24.619
		C259.695,34.364,258.104,35.948,256.151,35.948z"/>
	<path d="M197.003,140.967h-92.277c-1.956,0-3.542-1.587-3.542-3.543v-29.086c0-1.957,1.586-3.544,3.542-3.544h92.278
		c1.961,0,3.543,1.587,3.543,3.544v29.091C200.547,139.38,198.963,140.967,197.003,140.967z M108.269,133.877h85.19v-22.004h-85.19
		V133.877z"/>
	<path d="M116.58,140.967c-1.955,0-3.542-1.587-3.542-3.543v-29.086c0-1.957,1.587-3.544,3.542-3.544
		c1.958,0,3.543,1.587,3.543,3.544v29.091C120.122,139.38,118.542,140.967,116.58,140.967z"/>
	<path d="M130.295,140.967c-1.953,0-3.544-1.587-3.544-3.543v-29.086c0-1.957,1.586-3.544,3.544-3.544
		c1.959,0,3.544,1.587,3.544,3.544v29.091C133.839,139.38,132.25,140.967,130.295,140.967z"/>
	<path d="M144.009,140.967c-1.956,0-3.544-1.587-3.544-3.543v-29.086c0-1.957,1.588-3.544,3.544-3.544
		c1.954,0,3.543,1.587,3.543,3.544v29.091C147.553,139.38,145.965,140.967,144.009,140.967z"/>
	<path d="M157.722,140.967c-1.959,0-3.541-1.587-3.541-3.543v-29.086c0-1.957,1.584-3.544,3.541-3.544
		c1.952,0,3.541,1.587,3.541,3.544v29.091C161.262,139.38,159.678,140.967,157.722,140.967z"/>
	<path d="M171.439,140.967c-1.956,0-3.542-1.587-3.542-3.543v-29.086c0-1.957,1.586-3.544,3.542-3.544
		c1.955,0,3.543,1.587,3.543,3.544v29.091C174.982,139.38,173.398,140.967,171.439,140.967z"/>
	<path d="M185.152,140.967c-1.957,0-3.544-1.587-3.544-3.543v-29.086c0-1.957,1.587-3.544,3.544-3.544
		c1.953,0,3.54,1.587,3.54,3.544v29.091C188.692,139.38,187.112,140.967,185.152,140.967z"/>
	<path d="M208.897,86.489c-0.357,0-0.708-0.054-1.062-0.163l-53.91-16.93c-1.869-0.586-2.903-2.573-2.316-4.437
		c0.586-1.87,2.577-2.905,4.435-2.317l53.911,16.93c1.87,0.587,2.903,2.574,2.318,4.438
		C211.799,85.521,210.401,86.489,208.897,86.489z"/>
	<path d="M144.111,86.489c-0.353,0-0.708-0.054-1.062-0.163l-53.901-16.93c-1.868-0.586-2.905-2.573-2.319-4.442
		c0.587-1.864,2.571-2.902,4.44-2.316l53.901,16.931c1.868,0.588,2.905,2.574,2.317,4.441
		C147.012,85.521,145.615,86.489,144.111,86.489z"/>
</g>
</svg>
