<?xml version="1.0" encoding="utf-8"?>
<!-- Generator: Adobe Illustrator 16.0.0, SVG Export Plug-In . SVG Version: 6.00 Build 0)  -->
<!DOCTYPE svg PUBLIC "-//W3C//DTD SVG 1.1//EN" "http://www.w3.org/Graphics/SVG/1.1/DTD/svg11.dtd">
<svg version="1.1" id="Layer_1" xmlns="http://www.w3.org/2000/svg" xmlns:xlink="http://www.w3.org/1999/xlink" x="0px" y="0px"
	 width="256.001px" height="220.8px" viewBox="0 0 256.001 220.8" enable-background="new 0 0 256.001 220.8" xml:space="preserve">
<path d="M255.129,147.223L172.503,24.343c-0.947-1.414-2.544-2.263-4.249-2.263s-3.298,0.85-4.25,2.263l-27.396,40.745
	l-27.398-40.745c-1.904-2.832-6.594-2.832-8.499,0l-99.84,148.48c-1.055,1.571-1.157,3.589-0.271,5.258
	c0.891,1.675,2.626,2.719,4.521,2.719H204.8c1.89,0,3.63-1.044,4.521-2.714c0.892-1.668,0.784-3.691-0.271-5.258L197.202,155.2
	h53.678c1.89,0,3.63-1.045,4.521-2.714C256.292,150.817,256.184,148.795,255.129,147.223z M14.73,170.561L104.96,36.375
	l27.325,40.638c0.047,0.077,0.098,0.148,0.144,0.22l50.837,75.598c0.046,0.071,0.092,0.138,0.138,0.204l11.781,17.526H14.73z
	 M190.315,144.96l-47.539-70.697l25.482-37.888l73.006,108.585H190.315z"/>
</svg>
