<?xml version="1.0" encoding="utf-8"?>
<!-- Generator: Adobe Illustrator 16.0.0, SVG Export Plug-In . SVG Version: 6.00 Build 0)  -->
<!DOCTYPE svg PUBLIC "-//W3C//DTD SVG 1.1//EN" "http://www.w3.org/Graphics/SVG/1.1/DTD/svg11.dtd">
<svg version="1.1" id="Layer_1" xmlns="http://www.w3.org/2000/svg" xmlns:xlink="http://www.w3.org/1999/xlink" x="0px" y="0px"
	 width="204.8px" height="202.806px" viewBox="0 0 204.8 202.806" enable-background="new 0 0 204.8 202.806" xml:space="preserve">
<path d="M146.622,12.08c-17.147,0-33.214,7.46-44.222,20.255C91.407,19.54,75.331,12.08,58.184,12.08
	C26.102,12.08,0,38.002,0,69.864c0,51.855,47.662,84.372,79.201,105.897c7.946,5.422,14.812,10.106,19.938,14.346l3.261,2.698
	l3.267-2.698c5.125-4.239,11.991-8.924,19.937-14.352c31.535-21.514,79.197-54.041,79.197-105.892
	C204.8,38.002,178.699,12.08,146.622,12.08z M119.829,167.298c-6.62,4.517-12.509,8.535-17.429,12.319
	c-4.92-3.784-10.808-7.799-17.429-12.319c-31.539-21.52-74.731-50.99-74.731-97.434c0-26.214,21.509-47.544,47.944-47.544
	c16.097,0,31.032,7.967,39.961,21.305l4.255,6.354l4.26-6.354c8.93-13.338,23.869-21.305,39.962-21.305
	c26.435,0,47.938,21.33,47.938,47.544C194.56,116.303,151.368,145.778,119.829,167.298z"/>
</svg>
