<?xml version="1.0" encoding="utf-8"?>
<!-- Generator: Adobe Illustrator 16.0.0, SVG Export Plug-In . SVG Version: 6.00 Build 0)  -->
<!DOCTYPE svg PUBLIC "-//W3C//DTD SVG 1.1//EN" "http://www.w3.org/Graphics/SVG/1.1/DTD/svg11.dtd">
<svg version="1.1" id="Layer_1" xmlns="http://www.w3.org/2000/svg" xmlns:xlink="http://www.w3.org/1999/xlink" x="0px" y="0px"
	 width="255.095px" height="225.64px" viewBox="0 0 255.095 225.64" enable-background="new 0 0 255.095 225.64"
	 xml:space="preserve">
<path d="M252.348,55.666l-24.192-27.85l7.454-9.321c0.997-1.243,1.386-2.87,1.053-4.43c-0.332-1.555-1.34-2.885-2.752-3.622
	c-22.744-11.843-42.731-13.618-59.403-5.3c-25.87,12.907-34.981,45.98-37.237,56.257c-3.182,1.054-9.592,2.67-18.877,2.67
	c-6.584,0-11.577-1.115-17.363-2.409c-6.748-1.509-14.39-3.218-25.609-3.218c-10.569,0-19.143,2.87-25.415,8.277
	c-5.361,0.415-18.12,2.579-29.497,13.593C6.901,93.476,0,114.415,0,142.551c0,2.246,1.412,4.257,3.53,5.014l27.113,9.72
	c1.734,0.619,3.673,0.302,5.116-0.844c1.442-1.151,2.189-2.963,1.975-4.794c-1.995-17.024-1.77-35.687,0.834-47.151
	c2.205,11.198,8.881,28.484,10.942,33.682l-2.415,22.74c-0.066,0.604-0.026,1.217,0.118,1.811l12.846,53.423
	c1.672,5.857,6.379,9.489,12.288,9.489h11.766c1.617,0,3.146-0.736,4.159-1.994c1.013-1.264,1.396-2.916,1.043-4.492L77.625,166.56
	c0.625-0.742,1.381-1.652,2.23-2.742c-0.107,0.771-0.041,1.575,0.2,2.332l11.741,37.278c2.205,7.352,8.927,12.478,16.027,12.478
	c0.005,0,0.015,0,0.021,0l8.697,0.517c1.785,0.071,3.514-0.696,4.583-2.128c1.074-1.433,1.355-3.311,0.747-5.004l-14.923-41.391
	l15.091-21.491c9.833,0.731,21.921,0.256,36.388-2.578l9.889,68.724c0.221,6.973,5.735,12.574,12.482,12.574h8.697
	c1.447,0,2.834-0.588,3.836-1.631c1.008-1.044,1.545-2.451,1.489-3.898c-0.103-2.691-2.03-54.032-3.602-79.355l20.396,6.922
	l-4.308,25.436c-1.652,7.438,2.589,15.111,9.295,17.332l6.139,2.558c1.434,0.599,3.08,0.532,4.467-0.169
	c1.391-0.711,2.409-1.994,2.768-3.52l10.216-42.91c2.23-8.912-1.815-17.951-9.443-21.409l-31.712-15.864
	c-0.006,0-0.011-0.005-0.016-0.005c1.724-8.737,1.99-17.751,2.225-25.763c0.134-4.558,0.287-9.72,0.819-13.822
	c5.985,5.658,15.034,8.067,22.688,6.63c5.12-0.941,12.472,2.225,14.86,3.524c2.067,1.141,4.655,0.778,6.333-0.9l5.633-5.627
	C255.908,68.327,256.327,60.623,252.348,55.666z M39.519,84.401c-6.788,3.647-17.035,16.324-13.244,59.997l-15.567-5.586
	c0.547-23.103,6.277-40.138,17.041-50.682c4.497-4.404,9.239-7.023,13.342-8.579C40.48,81.091,39.959,82.708,39.519,84.401z
	 M96.636,164.042c-0.998,1.417-1.243,3.238-0.655,4.87l13.117,36.398l-0.941-0.057c-2.757,0-5.285-2.016-6.175-4.968L90.752,164.63
	c1.433-4.235,4.83-15.214,4.83-24.131c0-0.045,0-0.097,0-0.138c3.499,1.515,8.328,3.192,14.559,4.44L96.636,164.042z M226.17,134.1
	c3.064,1.392,4.646,5.351,3.674,9.265l-8.784,36.885l-0.722-0.297c-1.852-0.619-3.079-2.973-2.567-5.305l5.116-30.184
	c0.439-2.578-1.064-5.095-3.541-5.939l-28.325-9.597c2.112-3.09,3.775-6.399,5.085-9.858L226.17,134.1z M244.05,65.115l-2.978,2.972
	c-4.292-1.816-11.566-4.169-18.278-2.906c-5.55,1.039-14.534-1.52-16.36-8.845c-0.435-1.739-1.713-3.141-3.406-3.734
	c-1.688-0.583-3.561-0.297-4.998,0.793c-6.728,5.126-7.039,15.726-7.434,29.144c-0.43,14.703-0.921,31.365-9.843,42.322
	c-0.956,1.178-1.366,2.701-1.13,4.201c1.135,7.15,3.34,59.71,4.338,85.406h-3.162c-1.094,0-1.826-1.213-1.826-2.344
	c0-0.256-0.02-0.512-0.057-0.757l-10.748-74.694c-0.209-1.473-1.027-2.793-2.256-3.637c-1.232-0.845-2.772-1.131-4.205-0.799
	c-45.667,10.473-66.565-4.072-66.734-4.194c-1.33-0.993-3.044-1.31-4.63-0.854c-1.596,0.45-2.885,1.611-3.499,3.151
	c-7.664,19.153-18.749,30.925-18.856,31.037c-1.228,1.289-1.734,3.101-1.351,4.834l10.835,48.763h-5.121
	c-0.839,0-1.571-0.127-1.98-1.539l-12.574-52.313l2.46-23.128c0.092-0.87-0.031-1.75-0.358-2.559
	c-4.4-10.906-11.383-30.561-11.383-36.884c0-2.947,0.205-5.678,0.619-8.185c0.276-0.655,0.419-1.376,0.409-2.123
	c1.09-4.901,3.049-8.871,5.863-11.899c0.512-0.348,0.962-0.788,1.325-1.294c4.44-3.965,10.677-5.96,18.683-5.96
	c10.037,0,16.774,1.504,23.287,2.962c5.863,1.31,11.93,2.666,19.686,2.666c16.411,0,25.538-4.466,25.916-4.655
	c1.524-0.762,2.594-2.21,2.875-3.893c0.066-0.389,6.743-38.854,32.086-51.5c12.078-6.026,26.806-5.223,43.847,2.374l-6.062,7.571
	c-1.605,2.011-1.55,4.886,0.139,6.825l26.97,31.042C244.598,63.032,244.602,64.557,244.05,65.115z"/>
</svg>
