<?xml version="1.0" encoding="utf-8"?>
<!-- Generator: Adobe Illustrator 16.0.0, SVG Export Plug-In . SVG Version: 6.00 Build 0)  -->
<!DOCTYPE svg PUBLIC "-//W3C//DTD SVG 1.1//EN" "http://www.w3.org/Graphics/SVG/1.1/DTD/svg11.dtd">
<svg version="1.1" id="Layer_1" xmlns="http://www.w3.org/2000/svg" xmlns:xlink="http://www.w3.org/1999/xlink" x="0px" y="0px"
	 width="256.006px" height="240.343px" viewBox="0 0 256.006 240.343" enable-background="new 0 0 256.006 240.343"
	 xml:space="preserve">
<g>
	<path d="M33.162,205.839c-6.272,2.729-13.414,3.783-18.585,3.783c-2.816,0-5.576-0.22-8.678-0.695
		c-2.765-0.426-5.407,1.489-5.837,4.285c-0.43,2.795,1.49,5.412,4.285,5.837c3.63,0.553,6.876,0.813,10.23,0.813
		c8.187,0,19.477-2.048,28.36-7.623c8.883,5.575,20.167,7.623,28.354,7.623c8.187,0,19.471-2.048,28.354-7.623
		c8.888,5.575,20.178,7.623,28.359,7.623c8.187,0,19.477-2.048,28.354-7.623c8.883,5.575,20.173,7.623,28.359,7.623
		c8.188,0,19.473-2.048,28.355-7.623c8.878,5.575,20.168,7.623,28.359,7.623c4.05,0,7.695-0.588,11.151-1.807
		c2.667-0.942,4.07-3.861,3.128-6.528c-0.937-2.667-3.85-4.081-6.527-3.128c-2.34,0.824-4.875,1.223-7.752,1.223
		c-7.143,0-18.022-2.006-25.19-7.654c-0.728-0.568-1.567-0.921-2.433-1.044c16.349-13.021,32.579-28.145,39.845-45.333
		c1.255-2.964,3.584-8.488,0.671-12.892c-2.627-3.952-7.629-4.46-11.694-4.46h-50.944l11.505-10.619
		c2.15,0.513,4.757,0.825,7.531,0.533c5.761-0.614,10.225-3.748,12.575-8.838c4.751-10.301-1.444-20.039-9.692-23.971
		c-3.65-1.736-83.892-39.839-83.911-39.839c-14.726-8.038-29.343-3.097-39.071,13.164l-42.727,69.57H15.36
		C6.748,138.24,0,144.983,0,153.6C0,171.673,17.546,194.156,33.162,205.839z M242.632,148.48c1.249,0,2.104,0.077,2.673,0.164
		c-0.17,0.614-0.486,1.557-1.08,2.959c-8.617,20.378-33.035,38.723-52.649,53.458l-4.788,3.6c-0.363,0.282-0.686,0.594-0.957,0.947
		c-0.384,0.011-0.752,0.015-1.121,0.015c-7.137,0-18.018-2.006-25.19-7.654c-0.932-0.736-2.048-1.1-3.169-1.1s-2.242,0.363-3.17,1.1
		c-7.168,5.652-18.047,7.654-25.185,7.654c-3.405,0-7.665-0.455-11.96-1.551l64.558-59.592H242.632z M176.589,138.24h-44.544
		l19.656-31.262c11.432,4.603,30.985,12.493,40.831,16.547L176.589,138.24z M99.379,73.984c6.983-11.684,15.523-14.874,25.667-9.354
		c0,0,80.501,38.221,84.152,39.961c2.191,1.045,7.327,4.957,4.798,10.435c-0.559,1.208-1.562,2.647-4.363,2.938
		c-2.519,0.287-5.268-0.501-7.004-1.3c-4.105-1.905-49.162-20.024-51.077-20.792c-2.294-0.917-4.925-0.072-6.246,2.028
		l-25.359,40.34H59.914L99.379,73.984z M15.36,148.48h34.074c0.819,0.205,1.669,0.199,2.463,0h113.603l-59.971,55.357
		c-0.952-0.573-1.864-1.193-2.719-1.869c-1.858-1.469-4.48-1.469-6.338,0c-7.168,5.652-18.048,7.654-25.186,7.654
		c-6.533,0-16.2-1.679-23.291-6.297c-0.43-0.486-0.963-0.901-1.587-1.203c-0.107-0.051-0.215-0.107-0.317-0.154
		c-0.476-0.373-0.993-0.65-1.541-0.834C30.571,193.147,10.24,169.595,10.24,153.6C10.24,151.123,12.037,148.48,15.36,148.48z"/>
	<path d="M249.18,228.879c-2.34,0.824-4.874,1.224-7.751,1.224c-7.143,0-18.022-2.007-25.19-7.654c-1.859-1.469-4.48-1.469-6.339,0
		c-7.173,5.652-18.048,7.654-25.185,7.654c-7.138,0-18.018-2.007-25.191-7.654c-1.858-1.469-4.479-1.469-6.338,0
		c-7.168,5.652-18.049,7.654-25.186,7.654c-7.137,0-18.017-2.007-25.19-7.654c-1.858-1.469-4.48-1.469-6.338,0
		c-7.168,5.652-18.048,7.654-25.186,7.654s-18.017-2.007-25.185-7.654c-1.859-1.469-4.48-1.469-6.339,0
		c-7.168,5.652-18.048,7.654-25.185,7.654c-2.816,0-5.576-0.221-8.678-0.696c-2.765-0.42-5.407,1.49-5.837,4.286
		c-0.43,2.795,1.49,5.411,4.285,5.836c3.63,0.553,6.876,0.814,10.23,0.814c8.187,0,19.477-2.049,28.36-7.624
		c8.883,5.576,20.167,7.624,28.354,7.624c8.187,0,19.471-2.049,28.354-7.624c8.888,5.576,20.178,7.624,28.359,7.624
		c8.187,0,19.477-2.049,28.354-7.624c8.883,5.576,20.173,7.624,28.359,7.624c8.188,0,19.473-2.049,28.355-7.624
		c8.878,5.576,20.168,7.624,28.359,7.624c4.05,0,7.695-0.589,11.151-1.808c2.667-0.942,4.07-3.86,3.128-6.528
		C254.776,229.34,251.857,227.943,249.18,228.879z"/>
	<path d="M156.16,56.32c15.523,0,28.16-12.631,28.16-28.16S171.684,0,156.16,0S128,12.631,128,28.16S140.637,56.32,156.16,56.32z
		 M156.16,10.24c9.881,0,17.92,8.038,17.92,17.92c0,9.881-8.039,17.92-17.92,17.92c-9.882,0-17.92-8.039-17.92-17.92
		C138.24,18.278,146.278,10.24,156.16,10.24z"/>
</g>
</svg>
