<?xml version="1.0" encoding="utf-8"?>
<!-- Generator: Adobe Illustrator 15.1.0, SVG Export Plug-In . SVG Version: 6.00 Build 0)  -->
<!DOCTYPE svg PUBLIC "-//W3C//DTD SVG 1.1//EN" "http://www.w3.org/Graphics/SVG/1.1/DTD/svg11.dtd">
<svg version="1.1" id="Capa_1" xmlns="http://www.w3.org/2000/svg" xmlns:xlink="http://www.w3.org/1999/xlink" x="0px" y="0px"
	 width="256px" height="222.5px" viewBox="0 0 256 222.5" enable-background="new 0 0 256 222.5" xml:space="preserve">
<g>
	<path d="M253.18,90.647c0-49.718-55.747-90.166-124.269-90.166C60.39,0.481,4.644,40.93,4.644,90.647
		c0,30.721,22.125,59.844,57.827,76.239c-2.629,11.737-9.017,23.056-18.524,32.803c-1.493,1.53-1.825,3.829-0.825,5.723
		c0.856,1.612,2.519,2.614,4.34,2.614c0.291,0,0.583-0.027,0.85-0.077c24.816-4.363,46.855-14.027,63.778-27.958
		c1.787,0.173,3.669,0.312,5.585,0.434c12.968,16.017,36.507,25.883,62.128,25.883c2.944,0,5.91-0.132,8.827-0.391
		c9.733,7.792,22.27,13.208,36.3,15.677c0.232,0.041,0.471,0.064,0.724,0.071l0.19,0.006c2.707,0,4.91-2.203,4.91-4.911
		c0-1.509-0.704-2.945-1.891-3.873c-4.397-4.63-7.511-9.928-9.058-15.396c19.941-9.724,32.275-26.572,32.275-44.215
		c0-9.233-3.253-18.22-9.43-26.198C249.633,115.604,253.18,103.368,253.18,90.647z M236.706,135.632
		c3.639,5.554,5.552,11.615,5.552,17.641c0,14.881-11.498,29.009-30.007,36.868c-2.075,0.88-3.281,3.051-2.933,5.278
		c0.705,4.507,2.178,8.901,4.391,13.109c-7.829-2.781-14.802-6.694-20.334-11.431c-0.887-0.761-2.021-1.18-3.192-1.18
		c-0.193,0-0.387,0.012-0.54,0.032c-3.239,0.358-6.55,0.54-9.84,0.54c-18.593,0-36.224-5.814-48.032-15.697
		c0.27-0.005,0.536-0.018,0.805-0.022c0.72-0.015,1.437-0.038,2.152-0.062c0.632-0.021,1.263-0.043,1.893-0.071
		c0.908-0.04,1.813-0.088,2.716-0.142c0.362-0.021,0.724-0.044,1.085-0.068c37.715-2.472,71.24-17.013,91.976-39.734
		c0.091-0.099,0.179-0.2,0.269-0.3c0.641-0.708,1.275-1.421,1.891-2.145c0.187-0.219,0.365-0.442,0.549-0.663
		c0.53-0.635,1.06-1.27,1.569-1.915C236.685,135.657,236.695,135.645,236.706,135.632z M72.87,164.728
		c0.349-2.228-0.856-4.398-2.932-5.279c-34.218-14.53-55.474-40.895-55.474-68.805c0-44.302,51.341-80.345,114.447-80.345
		c63.107,0,114.448,36.042,114.448,80.345c0,11.894-3.648,23.358-10.842,34.072c-0.01,0.014-0.015,0.029-0.023,0.043
		c-18.878,28.087-59.528,46.233-103.579,46.233c-2.669,0-5.437-0.076-8.468-0.233c0,0-0.001,0-0.002,0
		c-3.318-0.174-6.475-0.425-9.378-0.746c-1.354-0.154-2.709,0.271-3.735,1.149c-12.522,10.719-28.687,18.976-46.953,24.013
		C66.924,185.713,71.22,175.266,72.87,164.728z"/>
	<path d="M75.487,73.205c-11.795,0-21.392,9.596-21.392,21.392c0,11.795,9.596,21.391,21.392,21.391s21.392-9.596,21.392-21.391
		C96.879,82.801,87.283,73.205,75.487,73.205z M75.487,106.164c-6.38,0-11.571-5.191-11.571-11.571s5.191-11.571,11.571-11.571
		s11.571,5.191,11.571,11.571S81.868,106.164,75.487,106.164z"/>
	<path d="M132.325,115.988c11.795,0,21.392-9.597,21.392-21.392s-9.597-21.392-21.392-21.392c-11.795,0-21.392,9.596-21.392,21.392
		S120.53,115.988,132.325,115.988z M132.325,83.021c6.381,0,11.571,5.191,11.571,11.571s-5.19,11.571-11.571,11.571
		c-6.38,0-11.571-5.191-11.571-11.571S125.945,83.021,132.325,83.021z"/>
	<path d="M189.16,115.988c5.706,0,11.077-2.228,15.122-6.272c4.044-4.045,6.271-9.415,6.27-15.12
		c0-11.795-9.597-21.392-21.392-21.392c-11.796,0-21.393,9.596-21.393,21.392S177.364,115.988,189.16,115.988z M189.16,83.021
		c6.381,0,11.571,5.191,11.571,11.571s-5.19,11.571-11.571,11.571s-11.572-5.191-11.572-11.571S182.779,83.021,189.16,83.021z"/>
</g>
</svg>
