<?xml version="1.0" encoding="utf-8"?>
<!-- Generator: Adobe Illustrator 16.0.0, SVG Export Plug-In . SVG Version: 6.00 Build 0)  -->
<!DOCTYPE svg PUBLIC "-//W3C//DTD SVG 1.1//EN" "http://www.w3.org/Graphics/SVG/1.1/DTD/svg11.dtd">
<svg version="1.1" id="Layer_1" xmlns="http://www.w3.org/2000/svg" xmlns:xlink="http://www.w3.org/1999/xlink" x="0px" y="0px"
	 width="263.803px" height="264.402px" viewBox="0 -59.331 263.803 264.402" enable-background="new 0 -59.331 263.803 264.402"
	 xml:space="preserve">
<path d="M131.231,5.406C61.52,5.406,4.803,62.123,4.803,131.832c0,5.379,4.356,9.73,9.725,9.73c5.369,0,9.726-4.352,9.726-9.73
	c0-58.972,47.993-106.977,106.978-106.977c58.973,0,106.977,48.005,106.977,106.977c0,5.379,4.358,9.73,9.728,9.73
	c5.367,0,9.722-4.352,9.722-9.73C257.66,62.123,200.941,5.406,131.231,5.406z"/>
<path d="M131.231,34.581c-53.625,0-97.253,43.625-97.253,97.251c0,5.379,4.358,9.73,9.725,9.73c5.368,0,9.726-4.352,9.726-9.73
	c0-42.896,34.904-77.8,77.8-77.8c42.902,0,77.803,34.904,77.803,77.8c0,5.379,4.355,9.73,9.723,9.73c5.369,0,9.724-4.352,9.724-9.73
	C228.481,78.205,184.858,34.581,131.231,34.581z"/>
<path d="M131.231,63.758c-37.541,0-68.075,30.547-68.075,68.075c0,5.379,4.355,9.73,9.722,9.73c5.371,0,9.726-4.352,9.726-9.73
	c0-26.807,21.813-48.625,48.627-48.625c26.812,0,48.626,21.818,48.626,48.625c0,5.379,4.354,9.73,9.726,9.73
	c5.369,0,9.725-4.352,9.725-9.73C199.307,94.305,168.759,63.758,131.231,63.758z"/>
</svg>
