<?xml version="1.0" encoding="utf-8"?>
<!-- Generator: Adobe Illustrator 16.0.0, SVG Export Plug-In . SVG Version: 6.00 Build 0)  -->
<!DOCTYPE svg PUBLIC "-//W3C//DTD SVG 1.1//EN" "http://www.w3.org/Graphics/SVG/1.1/DTD/svg11.dtd">
<svg version="1.1" id="Layer_1" xmlns="http://www.w3.org/2000/svg" xmlns:xlink="http://www.w3.org/1999/xlink" x="0px" y="0px"
	 width="256px" height="255.999px" viewBox="0 0 256 255.999" enable-background="new 0 0 256 255.999" xml:space="preserve">
<path d="M240.641,99.327v-6.656h1.023c7.905,0,14.336-6.431,14.336-14.336v-9.216c0-8.325-6.057-11.08-12.109-13.829L130.227,0.506
	c-1.402-0.671-3.03-0.676-4.428-0.005L12.047,54.814l-1.254,0.619C5.985,57.793,0,60.732,0,68.607v9.216
	c0,6.983,5.018,12.815,11.638,14.08c0.783,0.487,1.705,0.768,2.698,0.768h1.024v6.656c0,6.405,4.301,11.617,10.24,12.969v108.375
	H11.1C5.084,219.949,0,224.844,0,230.911v13.824c0,6.312,4.721,11.264,10.752,11.264h233.984c5.929,0,10.757-4.818,10.757-10.752
	v-13.824c0-5.929-4.823-10.757-10.757-10.757H230.4v-108.37C236.334,110.944,240.641,105.732,240.641,99.327z M20.48,81.919
	c-0.804,0-1.562,0.185-2.237,0.512h-1.674c-0.671-0.328-1.429-0.512-2.232-0.512c-2.299,0-4.096-1.797-4.096-4.096v-9.216
	c0-1.137,0.23-1.607,5.068-3.983L127.99,10.797l111.862,53.909c5.908,2.683,5.908,3.082,5.908,4.414v9.216
	c0,2.299-1.803,4.096-4.096,4.096h-3.912c-0.67-0.328-1.434-0.512-2.232-0.512H174.08c-0.799,0-1.562,0.185-2.237,0.512h-10.891
	c-0.671-0.328-1.434-0.512-2.231-0.512H97.28c-0.804,0-1.562,0.185-2.237,0.512h-10.89c-0.671-0.328-1.429-0.512-2.232-0.512H20.48z
	 M105.472,102.399c-1.782,0-3.072-1.29-3.072-3.072v-6.656h51.2v6.656c0,1.782-1.29,3.072-3.072,3.072h-2.047H105.472z
	 M143.359,112.639v107.52H112.64v-107.52H143.359z M153.6,112.296c5.935-1.352,10.24-6.564,10.24-12.969v-6.656h5.12v6.656
	c0,6.405,4.306,11.622,10.24,12.969v108.375H153.6V112.296z M28.672,102.399c-1.782,0-3.072-1.29-3.072-3.072v-6.656h51.2v6.656
	c0,1.782-1.29,3.072-3.072,3.072H71.68H28.672z M66.56,112.639v107.52H35.84v-107.52H66.56z M76.8,112.296
	c5.939-1.352,10.24-6.564,10.24-12.969v-6.656h5.12v6.656c0,6.405,4.301,11.617,10.24,12.969v108.375H76.8V112.296z
	 M244.736,230.911c0.246,0,0.517,0.271,0.517,0.518v13.823c0,0.246-0.271,0.513-0.517,0.513H10.752
	c-0.251-0.006-0.512-0.39-0.512-1.029l-0.323-13.896c0.271,0.047,0.553,0.072,0.834,0.072H244.736z M189.439,220.159v-107.52h30.721
	v107.52H189.439z M227.328,102.399h-2.049h-43.008c-1.781,0-3.071-1.29-3.071-3.072v-6.656h51.2v6.656
	C230.4,101.109,229.109,102.399,227.328,102.399z"/>
</svg>
