<?xml version="1.0" encoding="utf-8"?>
<!-- Generator: Adobe Illustrator 16.0.0, SVG Export Plug-In . SVG Version: 6.00 Build 0)  -->
<!DOCTYPE svg PUBLIC "-//W3C//DTD SVG 1.1//EN" "http://www.w3.org/Graphics/SVG/1.1/DTD/svg11.dtd">
<svg version="1.1" id="Layer_1" xmlns="http://www.w3.org/2000/svg" xmlns:xlink="http://www.w3.org/1999/xlink" x="0px" y="0px"
	 width="256px" height="240.64px" viewBox="0 0 256 240.64" enable-background="new 0 0 256 240.64" xml:space="preserve">
<g>
	<path d="M220.16,25.6h-11.857l-3.246-8.335C201.165,7.26,191.662,0,182.461,0h-57.722c-9.19,0-18.693,7.26-22.595,17.265
		L98.898,25.6H71.68v-5.12c0-2.826-2.294-5.12-5.12-5.12H30.72c-2.827,0-5.12,2.294-5.12,5.12v6.635C10.537,31.564,0,45.368,0,61.44
		V204.8c0,19.758,16.077,35.84,35.84,35.84h184.32c19.758,0,35.84-16.082,35.84-35.84V61.44C256,41.677,239.918,25.6,220.16,25.6z
		 M245.76,204.8c0,14.115-11.484,25.6-25.6,25.6H35.84c-14.116,0-25.6-11.484-25.6-25.6V61.44c0-12.529,8.97-23.132,21.33-25.211
		c2.463-0.415,4.27-2.55,4.27-5.048V25.6h25.6v5.12c0,2.826,2.294,5.12,5.12,5.12h35.84c2.109,0,4.004-1.295,4.772-3.261
		l4.516-11.597c2.581-6.635,8.786-10.742,13.051-10.742h57.722c4.271,0,10.477,4.106,13.057,10.742l4.516,11.597
		c0.763,1.966,2.657,3.261,4.767,3.261h15.36c14.115,0,25.6,11.484,25.6,25.6V204.8z"/>
	<circle cx="35.84" cy="61.44" r="10.24"/>
	<path d="M153.6,46.08c-36.7,0-66.56,29.86-66.56,66.56c0,36.7,29.86,66.561,66.56,66.561c36.701,0,66.561-29.86,66.561-66.561
		C220.16,75.94,190.301,46.08,153.6,46.08z M153.6,168.96c-31.052,0-56.32-25.268-56.32-56.32s25.268-56.32,56.32-56.32
		c31.053,0,56.32,25.267,56.32,56.32S184.652,168.96,153.6,168.96z"/>
</g>
</svg>
