<?xml version="1.0" encoding="utf-8"?>
<!-- Generator: Adobe Illustrator 16.0.0, SVG Export Plug-In . SVG Version: 6.00 Build 0)  -->
<!DOCTYPE svg PUBLIC "-//W3C//DTD SVG 1.1//EN" "http://www.w3.org/Graphics/SVG/1.1/DTD/svg11.dtd">
<svg version="1.1" id="Layer_1" xmlns="http://www.w3.org/2000/svg" xmlns:xlink="http://www.w3.org/1999/xlink" x="0px" y="0px"
	 width="400px" height="400px" viewBox="-50 -50 400 400" enable-background="new -50 -50 400 400" xml:space="preserve">
<g>
	<path d="M330.232,12.534L233.305-21.77c-0.142-0.124-0.244-0.271-0.392-0.385c-1.751-1.335-3.926-1.892-6.08-1.673
		c-2.067-0.269-4.163,0.219-5.915,1.406L92.341,11.641L-23.66-15.186c-2.528-0.586-5.194,0.01-7.229,1.636
		c-2.036,1.62-3.222,4.082-3.222,6.678v294.947c0,3.976,2.739,7.419,6.607,8.312l115.552,26.713
		c1.204,0.618,2.534,0.947,3.885,0.947c0.185,0,0.372-0.064,0.557-0.072c0.215,0.017,0.427,0.072,0.641,0.072
		c1.484,0,2.946-0.398,4.241-1.143l128.845-34.141l98.329,34.794c0.925,0.331,1.892,0.489,2.843,0.489
		c1.752,0,3.467-0.536,4.923-1.56c2.267-1.604,3.605-4.205,3.605-6.969V20.571C335.917,16.954,333.635,13.731,330.232,12.534z
		 M101.662,204.347c0.584-0.108,1.156-0.309,1.65-0.703c3.452-2.78,6.97-6.321,10.764-10.84c1.316-1.573,1.114-3.909-0.457-5.221
		c-1.565-1.312-3.909-1.115-5.221,0.456c-2.366,2.821-4.586,5.173-6.737,7.188v-44.665c7.068-6.471,14.033-15.057,21.604-24.402
		c21.259-26.257,47.426-58.515,93.946-70.214v21.336c-3.601,0.552-7.244,1.494-10.888,2.858c-1.924,0.715-2.896,2.855-2.18,4.768
		c0.554,1.489,1.966,2.41,3.478,2.41c0.428,0,0.867-0.078,1.292-0.233c2.794-1.039,5.558-1.776,8.298-2.269v28.857
		c-22.913,6.604-43.151,33.607-64.422,62.017c-16.58,22.148-33.627,44.866-51.129,55.892v-27.233H101.662z M236.226,55.996
		c50.482,10.95,73.843,47.634,82.635,66.231v51.979c-1.153,0.918-1.701,2.468-1.249,3.961c0.445,1.501,0.848,3.02,1.249,4.551
		v46.647c-17.153-55.026-47.757-106.818-82.635-115.852V55.996z M318.86,26.604v72.924c-16.629-24.69-43.902-47.125-82.635-54.892
		V-2.645L318.86,26.604z M217.21-3.801v48.348c-51.846,12.072-81.06,48.012-102.594,74.61c-4.531,5.599-8.821,10.875-12.958,15.501
		V26.815L217.21-3.801z M83.408,149.77c-5.047-0.257-9.565-2.476-13.8-6.762C45.657,118.757,42.284,42.933,41.839,17.466
		l41.569,9.611V149.77z M30.652,14.877c0.219,23.51,2.982,107.531,31.042,135.941c6.348,6.428,13.654,9.788,21.712,10.053v73.974
		C2.727,212.519-14.263,122.851-17.055,69.739V3.847L30.652,14.877z M-17.055,281.294V140.528
		c22.273,74.375,71.392,98.236,100.463,105.83v58.159L-17.055,281.294z M101.662,304.115v-59.788
		c21.678-10.785,41.143-36.751,60.031-61.986c18.32-24.475,37.164-49.563,55.521-56.917V273.49L101.662,304.115z M236.226,274.206
		V124.943c37.638,12.424,71.916,89.078,82.635,152.523v25.985L236.226,274.206z"/>
	<path d="M174.894,109.96c0.941,0,1.881-0.354,2.606-1.064c3.564-3.513,7.124-6.695,10.577-9.453
		c1.602-1.279,1.86-3.615,0.581-5.207c-1.273-1.599-3.622-1.867-5.206-0.583c-3.649,2.918-7.408,6.268-11.158,9.962
		c-1.464,1.44-1.479,3.786-0.039,5.246C172.975,109.588,173.938,109.96,174.894,109.96z"/>
	<path d="M286.424,122.957c0.737,0.809,1.74,1.221,2.755,1.221c0.882,0,1.773-0.316,2.482-0.955
		c1.519-1.376,1.637-3.718,0.268-5.239c-3.334-3.686-6.883-7.244-10.542-10.574c-1.512-1.369-3.86-1.263-5.242,0.248
		c-1.376,1.517-1.271,3.859,0.247,5.238C279.881,116.063,283.255,119.449,286.424,122.957z"/>
	<path d="M308.432,155.107c0.645,1.302,1.959,2.043,3.323,2.043c0.551,0,1.123-0.121,1.649-0.389
		c1.826-0.915,2.571-3.146,1.653-4.975c-2.218-4.416-4.682-8.791-7.338-13.004c-1.082-1.731-3.372-2.248-5.109-1.156
		c-1.74,1.09-2.252,3.381-1.159,5.113C303.972,146.741,306.326,150.899,308.432,155.107z"/>
	<path d="M126.288,173.535c1.188,0,2.365-0.567,3.077-1.632c1.728-2.561,3.46-5.174,5.215-7.811l2.88-4.329
		c1.139-1.703,0.678-4.006-1.027-5.146c-1.697-1.137-4.003-0.677-5.143,1.029l-2.887,4.339c-1.747,2.626-3.473,5.224-5.191,7.777
		c-1.142,1.695-0.697,3.998,1.005,5.141C124.851,173.332,125.574,173.535,126.288,173.535z"/>
	<path d="M148.97,140.479c1.138,0,2.256-0.518,2.983-1.501c2.988-4.033,5.948-7.875,8.813-11.416
		c1.285-1.596,1.028-3.927-0.556-5.212c-1.595-1.287-3.926-1.039-5.215,0.556c-2.925,3.622-5.95,7.546-8.996,11.664
		c-1.221,1.645-0.871,3.966,0.771,5.183C147.432,140.245,148.207,140.479,148.97,140.479z"/>
	<path d="M9.867,91.282c0.828,4.9,1.762,9.769,2.781,14.472c0.379,1.737,1.917,2.92,3.622,2.92c0.261,0,0.528-0.027,0.79-0.083
		c2-0.433,3.274-2.409,2.839-4.407c-1-4.589-1.913-9.347-2.712-14.132c-0.341-2.017-2.217-3.355-4.273-3.04
		C10.891,87.351,9.53,89.261,9.867,91.282z"/>
	<path d="M8.751,47.175c-2.044,0.134-3.594,1.899-3.464,3.937c0.319,4.919,0.724,9.848,1.199,14.645
		c0.188,1.918,1.8,3.341,3.684,3.341c0.124,0,0.25-0.006,0.372-0.018c2.038-0.206,3.527-2.017,3.322-4.057
		c-0.464-4.712-0.863-9.553-1.174-14.391C12.559,48.597,10.768,47.104,8.751,47.175z"/>
	<path d="M260.614,91.572c-4.261-2.692-8.655-5.153-13.059-7.315c-1.839-0.903-4.059-0.146-4.961,1.694
		c-0.897,1.834-0.145,4.06,1.696,4.96c4.161,2.05,8.326,4.378,12.366,6.928c0.614,0.385,1.298,0.572,1.973,0.572
		c1.231,0,2.433-0.612,3.137-1.729C262.863,94.957,262.345,92.665,260.614,91.572z"/>
	<path d="M19.307,130.725c1.546,4.793,3.228,9.487,5.01,13.948c0.58,1.453,1.973,2.332,3.445,2.332c0.46,0,0.927-0.083,1.375-0.264
		c1.907-0.759,2.829-2.917,2.068-4.819c-1.724-4.304-3.353-8.831-4.838-13.46c-0.626-1.952-2.718-3.011-4.663-2.396
		C19.753,126.693,18.684,128.779,19.307,130.725z"/>
	<path d="M44.071,180.527c0.732,0.959,1.836,1.466,2.955,1.466c0.783,0,1.574-0.242,2.245-0.76c1.628-1.239,1.942-3.563,0.705-5.188
		c-2.741-3.61-5.388-7.547-7.868-11.729c-1.042-1.771-3.317-2.346-5.075-1.309c-1.765,1.04-2.346,3.319-1.306,5.075
		C38.352,172.512,41.157,176.7,44.071,180.527z"/>
	<path d="M76.153,206.902c0.462,0.193,0.938,0.276,1.409,0.276c1.459,0,2.844-0.863,3.429-2.295
		c0.778-1.898-0.125-4.069-2.021-4.846c-3.967-1.623-7.949-3.897-11.833-6.748c-1.654-1.209-3.976-0.852-5.186,0.797
		c-1.208,1.651-0.853,3.976,0.797,5.18C67.125,202.479,71.631,205.048,76.153,206.902z"/>
	<path d="M7.991,28.847c0.014,0,0.034,0,0.052,0c2.046-0.029,3.68-1.709,3.655-3.76c-0.029-2.424-0.049-4.879-0.049-7.362
		c0-2.049-1.66-3.708-3.708-3.708c-2.046,0-3.708,1.659-3.708,3.708c0,2.521,0.02,5.005,0.052,7.467
		C4.313,27.222,5.972,28.847,7.991,28.847z"/>
</g>
</svg>
