<?xml version="1.0" encoding="utf-8"?>
<!-- Generator: Adobe Illustrator 16.0.0, SVG Export Plug-In . SVG Version: 6.00 Build 0)  -->
<!DOCTYPE svg PUBLIC "-//W3C//DTD SVG 1.1//EN" "http://www.w3.org/Graphics/SVG/1.1/DTD/svg11.dtd">
<svg version="1.1" id="Layer_1" xmlns="http://www.w3.org/2000/svg" xmlns:xlink="http://www.w3.org/1999/xlink" x="0px" y="0px"
	 width="299.5px" height="400px" viewBox="-47.577 2.721 299.5 400" enable-background="new -47.577 2.721 299.5 400"
	 xml:space="preserve">
<g>
	<circle cx="98.637" cy="49.787" r="28.263"/>
	<path d="M193.171,15.576l-46.803,61.202L128.62,86.947l-60.354-0.029L49.679,76.265L3.264,15.578
		C-7.88,1.003-27.14,15.728-15.992,30.304l55.808,72.977l15.437,25.307v0.75h0.457l2.846,4.674l-0.032,244.625
		c0,9.508,7.729,17.234,17.237,17.234c9.528,0,17.244-7.727,17.244-17.234l0.016-144.604h7.678l-0.05,144.604
		c0,9.508,7.719,17.234,17.234,17.234c9.524,0,17.235-7.727,17.235-17.234l0.074-240.216l5.542-9.092l15.892-26.055l2.014-2.631
		l53.79-70.341C223.572,15.727,204.314,1.001,193.171,15.576z"/>
</g>
</svg>
