<?xml version="1.0" encoding="utf-8"?>
<!-- Generator: Adobe Illustrator 16.0.0, SVG Export Plug-In . SVG Version: 6.00 Build 0)  -->
<!DOCTYPE svg PUBLIC "-//W3C//DTD SVG 1.1//EN" "http://www.w3.org/Graphics/SVG/1.1/DTD/svg11.dtd">
<svg version="1.1" id="Layer_1" xmlns="http://www.w3.org/2000/svg" xmlns:xlink="http://www.w3.org/1999/xlink" x="0px" y="0px"
	 width="253.932px" height="255.212px" viewBox="0 0 253.932 255.212" enable-background="new 0 0 253.932 255.212"
	 xml:space="preserve">
<path d="M185.017,61.134c15.524,0,28.16-12.631,28.16-28.16c0-15.529-12.636-28.16-28.16-28.16s-28.159,12.631-28.159,28.16
	C156.857,48.503,169.492,61.134,185.017,61.134z M185.017,15.054c9.882,0,17.92,8.039,17.92,17.92c0,9.882-8.038,17.92-17.92,17.92
	s-17.92-8.039-17.92-17.92C167.097,23.092,175.135,15.054,185.017,15.054z M245.561,235.854c-0.066-0.016-0.128-0.025-0.194-0.041
	l-89.134-16.983c4.203-2.288,7.296-6.298,8.15-11.044l11.301-45.189c1.566-7.05-1.203-14.182-6.61-17.545l-22.519-16.268
	l29.41-26.587l44.861,36.802c3.205,3.205,7.895,3.549,9.764,3.549c3.758,0,8.693-1.541,11.412-5.842
	c2.15-2.965,3.154-6.759,2.771-10.44c-0.42-3.968-2.329-7.429-5.386-9.764L170,59.869c-2.012-1.92-4.01-2.601-5.561-2.775
	l-48.369-14.51l-14.443-33.7c-1.505-3.395-4.368-6.195-7.849-7.685c-3.702-1.587-7.68-1.598-11.203-0.036
	c-7.327,3.256-10.859,11.976-7.757,18.965l16.855,39.838c1.746,4.373,5.274,7.347,9.708,8.208l20.485,6.113l-32.128,30.848
	c-5.043,5.038-5.52,10.158-5.079,13.102l1.874,36.091l-39.66,20.075c-3.901,2.124-6.825,5.626-8.233,9.851
	c-1.388,4.162-1.126,8.51,0.727,12.309l-22.323-4.255c-3.932-0.799-8.049,0.144-11.3,2.55c-3.144,2.33-5.166,5.842-5.473,9.145
	c-0.784,3.932,0.143,8.049,2.549,11.3c2.325,3.149,5.842,5.171,9.396,5.524l5.77,0.86l-9.917,16.527
	c-0.967,1.612-0.973,3.635-0.01,5.248c0.963,1.623,2.673,2.647,4.619,2.499c1.49-0.067,35.103-1.686,50.406-17.531l178.924,26.746
	c0.357,0.025,0.711,0.036,1.055,0.036c6.538,0,10.158-4.224,10.771-8.351C254.49,242.495,251.854,237.308,245.561,235.854z
	 M48.369,187.491c0.579-1.736,1.823-3.23,3.282-4.025l42.496-21.504c1.807-0.916,2.903-2.811,2.801-4.832l-2.094-39.885
	c-0.144-1.029-0.087-2.652,2.063-4.803l38.399-36.864c1.316-1.259,1.859-3.128,1.429-4.899c-0.43-1.772-1.767-3.18-3.513-3.702
	l-29.184-8.704c-0.205-0.062-0.409-0.108-0.619-0.144c-0.384-0.066-1.546-0.256-2.269-2.063L84.229,16.047
	c-0.845-1.895,0.384-4.583,2.524-5.53c1.188-0.533,2.391-0.169,3.005,0.092c1.131,0.486,2.048,1.372,2.493,2.371l15.36,35.84
	c0.599,1.393,1.782,2.453,3.236,2.888l51.201,15.36c0.286,0.087,0.578,0.144,0.881,0.179c-0.006,0.01,0.01,0.036,0.045,0.072
	c0.118,0.123,0.252,0.235,0.385,0.348l69.632,56.832c0.052,0.041,0.107,0.087,0.159,0.128c1.09,0.819,1.371,2.048,1.438,2.713
	c0.123,1.219-0.215,2.469-0.932,3.426c-0.107,0.143-0.204,0.291-0.297,0.439c-0.436,0.723-1.725,1.096-2.774,1.096
	c-1.353,0-2.314-0.357-2.894-0.885l-48.64-39.937c-1.956-1.607-4.798-1.541-6.687,0.159l-37.376,33.792
	c-1.147,1.034-1.761,2.535-1.675,4.076c0.082,1.547,0.861,2.965,2.109,3.871l27.93,20.162c2.32,1.449,2.837,4.562,2.361,6.707
	l-11.336,45.384c-0.594,3.257-3.635,4.977-6.513,4.91c-0.513-0.128-1.163-0.297-1.925-0.368c-1.49-0.486-2.832-1.572-3.723-3.031
	c-0.963-1.572-1.28-3.39-0.875-5.008l9.215-37.376c0.502-2.027-0.281-4.157-1.976-5.376l-31.232-22.527
	c-1.592-1.158-3.702-1.285-5.432-0.354c-1.726,0.937-2.77,2.775-2.678,4.736l1.024,22.297c0,2.811-1.572,5.561-3.881,6.718
	l-48.748,25.14c-1.434,0.783-3.149,0.906-4.823,0.342c-1.735-0.578-3.23-1.822-4.101-3.425
	C47.934,190.879,47.811,189.169,48.369,187.491z M133.479,212.471c0.512,0.834,1.086,1.617,1.715,2.35l-67.824-12.928l43.653-22.508
	c5.673-2.842,9.482-9.211,9.477-16.076l-0.542-11.951l19.835,14.311l-8.382,34.008C130.351,203.911,131.104,208.58,133.479,212.471z
	 M22.134,234.692l6.825-11.372l20.142,3.011C41.15,230.882,30.48,233.422,22.134,234.692z M62.485,217.991
	c-0.404-0.107-0.819-0.17-1.234-0.186l-47.754-7.142c-1.28-0.128-2.073-0.963-2.432-1.449c-0.691-0.937-0.963-2.104-0.666-3.702
	c0.128-1.274,0.963-2.068,1.449-2.432c0.937-0.691,2.115-0.963,3.251-0.732l208.277,39.695L62.485,217.991z"/>
</svg>
