<?xml version="1.0" encoding="utf-8"?>
<!-- Generator: Adobe Illustrator 16.0.0, SVG Export Plug-In . SVG Version: 6.00 Build 0)  -->
<!DOCTYPE svg PUBLIC "-//W3C//DTD SVG 1.1//EN" "http://www.w3.org/Graphics/SVG/1.1/DTD/svg11.dtd">
<svg version="1.1" id="Layer_1" xmlns="http://www.w3.org/2000/svg" xmlns:xlink="http://www.w3.org/1999/xlink" x="0px" y="0px"
	 width="255.988px" height="250.245px" viewBox="0 0 255.988 250.245" enable-background="new 0 0 255.988 250.245"
	 xml:space="preserve">
<path d="M252.77,128.809l-33.761-58.475l-22.514,13L219.3,29.629L201.519,39.9l-15.073-26.665
	c-3.251-5.616-13.271-13.593-24.126-13.03c-0.404,0-0.803,0.01-1.203,0.026C154,0.348,141.794,0.276,126.567,0.164
	C117.73,0.103,107.982,0.036,97.818,0l-0.317,0.01C84.389,0.783,75.163,5.448,70.012,13.952L36.266,72.422l22.522,13.01
	L0.861,92.528l17.787,10.271L3.099,129.178c-3.267,5.642-5.248,18.299,0.855,27.546c2.396,3.64,10.168,17.479,17.029,29.69
	c6.236,11.104,11.719,20.864,14.295,25.073c0.287,0.512,0.599,1.003,0.942,1.484c7.219,10.869,15.836,16.48,25.718,16.676h67.501
	v-26l35.094,46.598l0.02-20.521l30.623,0.277c6.518,0,18.473-4.619,23.419-14.525c1.961-3.907,10.102-17.619,17.274-29.723
	c6.457-10.875,12.13-20.438,14.49-24.765c0.287-0.481,0.543-0.978,0.777-1.49C256.994,147.794,257.558,137.497,252.77,128.809z
	 M161.45,10.46c0.379-0.005,0.747-0.015,1.101-0.021c0.077,0,0.144-0.005,0.215-0.01c6.637-0.343,13.098,4.951,14.793,7.885
	l20.137,35.62l0.22-0.123l-11.51,27.105l-29.24-3.584l0.189-0.108l-23.188-40.171l8.576-14.863
	C145.988,16.548,153.365,10.865,161.45,10.46z M50.249,68.674l28.58-49.505c3.226-5.335,9.661-8.335,19.123-8.924
	c10.091,0.036,19.773,0.103,28.544,0.164c4.439,0.031,8.617,0.062,12.498,0.082c-2.115,2.115-3.851,4.373-5.125,6.584L90.635,92.001
	L50.249,68.674z M37.674,183.675c-1.111,1.93-2.104,4.096-2.893,6.385c-1.582-2.807-3.231-5.744-4.869-8.658
	c-7.281-12.959-14.812-26.363-17.408-30.311c-3.589-5.438-2.258-13.813-0.563-16.747l20.782-35.246l-0.23-0.128l29.225-3.584
	l11.52,27.101l-0.179-0.103l-24.586,42.583c-0.057,0.093-0.108,0.18-0.154,0.271L37.674,183.675z M119.2,219.412H62.04
	c-6.257-0.122-12.104-4.239-17.377-12.227c-0.025-0.04-0.056-0.087-0.087-0.122c-0.133-0.205-0.292-0.456-0.466-0.743
	c-2.33-4.331-0.691-12.118,2.432-17.525l9.247-16.016H119.2V219.412z M61.702,162.54l15.109-26.164l17.833,10.297l-22.83-53.719
	l22.569,13.035l33.869-58.69l15.109,26.184l-17.823,10.296l57.913,7.091l-22.559,13.02l33.873,58.676h-30.202v-20.588
	l-35.118,46.612v-26.056H61.702V162.54z M227.068,180.531c-7.619,12.846-15.498,26.127-17.623,30.366
	c-2.908,5.822-10.829,8.863-14.219,8.863l-40.898-0.363v0.271l-17.735-23.547l17.73-23.532l49.224,0.216c0.062,0,0.117,0,0.189,0
	h21.34c2.232,0,4.598-0.227,6.979-0.687C230.442,174.848,228.752,177.705,227.068,180.531z M241.957,154.987
	c-0.123,0.251-0.291,0.559-0.486,0.927c-2.591,4.178-10.152,6.651-16.395,6.651h-18.482l-31.709-54.928l40.382-23.316l28.591,49.516
	C246.876,139.331,246.238,146.447,241.957,154.987z"/>
</svg>
