<?xml version="1.0" encoding="utf-8"?>
<!-- Generator: Adobe Illustrator 16.0.0, SVG Export Plug-In . SVG Version: 6.00 Build 0)  -->
<!DOCTYPE svg PUBLIC "-//W3C//DTD SVG 1.1//EN" "http://www.w3.org/Graphics/SVG/1.1/DTD/svg11.dtd">
<svg version="1.1" id="Layer_1" xmlns="http://www.w3.org/2000/svg" xmlns:xlink="http://www.w3.org/1999/xlink" x="0px" y="0px"
	 width="256px" height="235.52px" viewBox="0 0 256 235.52" enable-background="new 0 0 256 235.52" xml:space="preserve">
<path d="M229.535,127.263c9.764-6.411,16.225-17.454,16.225-29.983c0-19.763-16.082-35.84-35.84-35.84
	c-4.465,0-8.745,0.819-12.692,2.319c-3.292-3.446-7.035-6.231-11.116-8.294c7.604-5.596,12.545-14.603,12.545-24.745
	c0-16.942-13.778-30.72-30.721-30.72c-16.941,0-30.72,13.778-30.72,30.72c0,10.082,4.885,19.046,12.411,24.653
	c-11.658,5.699-20.039,16.748-22.139,30.152c-2.099-13.404-10.475-24.453-22.139-30.152c7.526-5.606,12.411-14.571,12.411-24.653
	C117.76,13.778,103.982,0,87.04,0S56.32,13.778,56.32,30.72c0,10.143,4.941,19.149,12.539,24.745
	c-3.968,2.007-7.624,4.695-10.849,8.013c-3.728-1.316-7.747-2.038-11.93-2.038c-19.763,0-35.84,16.077-35.84,35.84
	c0,12.529,6.461,23.572,16.225,29.983C10.839,134.646,0,150.559,0,168.96V192c0,1.607,0.758,3.128,2.048,4.096
	c1.188,0.891,12.514,8.704,44.032,8.704c17.756,0,29.102-2.478,35.84-4.803v22.723c0,1.608,0.758,3.128,2.048,4.097
	c1.188,0.891,12.514,8.703,44.032,8.703c31.514,0,42.844-7.812,44.032-8.703c1.29-0.963,2.048-2.484,2.048-4.097v-22.723
	c6.732,2.325,18.084,4.803,35.84,4.803c31.514,0,42.844-7.813,44.032-8.704c1.29-0.963,2.048-2.483,2.048-4.096v-23.04
	C256,150.559,245.161,134.646,229.535,127.263z M209.92,71.68c14.115,0,25.6,11.484,25.6,25.6s-11.484,25.6-25.6,25.6
	s-25.6-11.484-25.6-25.6S195.805,71.68,209.92,71.68z M147.456,30.72c0-11.295,9.185-20.48,20.479-20.48s20.48,9.185,20.48,20.48
	s-9.186,20.48-20.48,20.48S147.456,42.015,147.456,30.72z M128,102.4c14.115,0,25.6,11.484,25.6,25.6
	c0,14.115-11.484,25.6-25.6,25.6c-14.116,0-25.6-11.484-25.6-25.6C102.4,113.884,113.884,102.4,128,102.4z M66.56,30.72
	c0-11.295,9.185-20.48,20.48-20.48s20.48,9.185,20.48,20.48S98.335,51.2,87.04,51.2S66.56,42.015,66.56,30.72z M20.48,97.28
	c0-14.116,11.484-25.6,25.6-25.6c3.784,0,7.383,0.83,10.619,2.309c0.307,0.189,0.63,0.343,0.963,0.466
	c8.31,4.229,14.019,12.877,14.019,22.825c0,14.116-11.484,25.6-25.6,25.6S20.48,111.396,20.48,97.28z M81.92,188.969
	c-4.188,1.904-14.976,5.591-35.84,5.591c-20.91,0-31.703-3.702-35.84-5.586V168.96c0-19.759,16.077-35.841,35.84-35.841
	s35.84,16.082,35.84,35.841V188.969z M65.695,127.263c9.764-6.411,16.225-17.454,16.225-29.983c0-11.725-5.658-22.149-14.387-28.692
	c5.463-4.644,12.216-7.147,19.507-7.147c17.224,0,30.72,13.496,30.72,30.72v1.49c-14.786,4.418-25.6,18.145-25.6,34.35
	c0,12.528,6.461,23.572,16.225,29.982c-6.328,2.99-11.873,7.373-16.225,12.76v-1.782C92.16,150.559,81.321,134.646,65.695,127.263z
	 M163.84,219.688c-4.188,1.905-14.977,5.591-35.84,5.591c-20.91,0-31.703-3.701-35.84-5.586V199.68
	c0-19.758,16.077-35.84,35.84-35.84c19.758,0,35.84,16.082,35.84,35.84V219.688z M163.84,168.96v1.786
	c-4.357-5.386-9.902-9.769-16.225-12.758c9.764-6.416,16.225-17.46,16.225-29.988c0-16.579-11.314-30.562-26.624-34.642V92.16
	c0-17.224,13.497-30.72,30.72-30.72c7.512,0,14.443,2.652,19.984,7.562c-8.412,6.564-13.84,16.799-13.84,28.278
	c0,12.529,6.461,23.572,16.225,29.983C174.68,134.646,163.84,150.559,163.84,168.96z M245.76,188.969
	c-4.188,1.904-14.976,5.591-35.84,5.591c-20.915,0-31.703-3.702-35.84-5.586V168.96c0-19.759,16.082-35.841,35.84-35.841
	s35.84,16.082,35.84,35.841V188.969z"/>
</svg>
