<?xml version="1.0" encoding="utf-8"?>
<!-- Generator: Adobe Illustrator 16.0.0, SVG Export Plug-In . SVG Version: 6.00 Build 0)  -->
<!DOCTYPE svg PUBLIC "-//W3C//DTD SVG 1.1//EN" "http://www.w3.org/Graphics/SVG/1.1/DTD/svg11.dtd">
<svg version="1.1" id="Layer_1" xmlns="http://www.w3.org/2000/svg" xmlns:xlink="http://www.w3.org/1999/xlink" x="0px" y="0px"
	 width="256px" height="248.682px" viewBox="0 0 256 248.682" enable-background="new 0 0 256 248.682" xml:space="preserve">
<path id="friends" d="M205.815,171.654l17.705-84.104c0-0.554,0.277-1.107,0.554-1.384l15.217-32.368V21.703
	c0-3.597,3.042-6.64,6.639-6.64s6.642,3.043,6.642,6.64v33.476c0,1.107-0.277,1.937-0.555,2.766l-15.49,33.2l-17.431,82.722v53.117
	c0,3.596-3.045,6.638-6.642,6.638s-6.639-3.042-6.639-6.638v-53.948C205.815,172.482,205.815,171.927,205.815,171.654z
	 M34.01,95.849c-0.83-3.597-4.426-5.811-8.024-4.98c-3.596,0.83-5.809,4.426-4.979,8.024l16.599,74.975v53.117
	c0,3.596,3.043,6.638,6.64,6.638c3.597,0,6.64-3.042,6.64-6.638v-53.948c0-0.555,0-1.109-0.277-1.383L34.01,95.849z M4.684,83.399
	c-1.659-3.319-0.275-7.47,3.044-8.853l30.432-15.217c-0.275-1.384-0.275-2.767-0.275-4.15c0-13.003,10.512-23.515,23.515-23.515
	c13.005,0,23.517,10.512,23.517,23.515c0,1.107,0,2.214-0.275,3.596l23.239,7.747c-1.937-3.319-2.767-7.193-2.767-11.343
	c0-13.003,10.512-23.515,23.515-23.515s23.515,10.512,23.515,23.515c0,4.15-1.105,8.024-2.765,11.343l23.24-7.747
	c-0.276-1.105-0.276-2.212-0.276-3.596c0-13.003,10.512-23.515,23.514-23.515c13.003,0,23.515,10.512,23.515,23.515
	c0,13.002-10.512,23.516-23.515,23.516c-6.915,0-13.279-3.043-17.431-7.747l-47.583,15.77c-0.555,0.277-1.383,0.277-2.214,0.277
	c-0.828,0-1.383,0-2.214-0.277l-47.86-15.492l-0.277,0.277l21.304,21.302l0,0c0.275,0.277,0.275,0.553,0.553,0.83l0.277,0.277
	c0.275,0.275,0.275,0.83,0.553,1.107v0.275c0,0.277,0.277,0.555,0.277,0.83l16.876,75.803c0,0.555,0.275,0.832,0.275,1.387v53.947
	c0,3.597-3.042,6.639-6.639,6.639c-3.598,0-6.64-3.042-6.64-6.639v-53.394l-9.961-45.373l-9.959,45.373v53.117
	c0,3.596-3.043,6.638-6.64,6.638c-3.597,0-6.64-3.042-6.64-6.638v-53.948c0-0.555,0-1.109,0.277-1.383l15.217-72.208L66.102,78.143
	c-1.659,0.275-3.319,0.552-4.979,0.552c-6.64,0-12.728-2.767-17.153-7.47L13.538,86.442c-0.83,0.553-1.937,0.83-3.043,0.83
	C8.005,86.995,5.791,85.613,4.684,83.399z M185.617,55.456c0,5.533,4.428,9.959,9.964,9.959c5.529,0,9.958-4.426,9.958-9.959
	c0-5.533-4.429-9.959-9.958-9.959C190.045,45.219,185.617,49.923,185.617,55.456z M118.391,55.456c0,5.533,4.428,9.959,9.962,9.959
	c5.53,0,9.958-4.426,9.958-9.959c0-5.533-4.428-9.959-9.958-9.959C122.818,45.219,118.391,49.923,118.391,55.456z M50.887,55.456
	c0,5.533,4.426,9.959,9.959,9.959c5.533,0,9.959-4.426,9.959-9.959c0-5.533-4.426-9.959-9.959-9.959
	C55.313,45.497,50.887,49.923,50.887,55.456z M178.701,233.349c3.597,0,6.642-3.046,6.642-6.642v-53.671
	c0-0.555,0-1.109-0.276-1.383l-16.877-75.805c-0.554-3.044-3.319-5.258-6.638-5.258c-3.319,0-5.814,2.214-6.643,5.258
	l-16.876,75.805c0,0.551-0.277,1.105-0.277,1.383v53.948c0,3.596,3.042,6.638,6.642,6.638c3.597,0,6.639-3.042,6.639-6.638v-53.117
	l9.961-45.373l9.957,45.373v53.117C172.063,230.58,175.105,233.349,178.701,233.349z"/>
</svg>
