
<?xml version="1.0" encoding="utf-8"?>
<!-- Generator: Adobe Illustrator 16.0.0, SVG Export Plug-In . SVG Version: 6.00 Build 0)  -->
<!DOCTYPE svg PUBLIC "-//W3C//DTD SVG 1.1//EN" "http://www.w3.org/Graphics/SVG/1.1/DTD/svg11.dtd">
<svg version="1.1" id="Layer_1" xmlns="http://www.w3.org/2000/svg" xmlns:xlink="http://www.w3.org/1999/xlink" x="0px" y="0px"
	 width="256px" height="248.682px" viewBox="0 0 256 248.682" enable-background="new 0 0 256 248.682" xml:space="preserve">
<path d="M235.151,169.787c-9.979-4.73-21.606-7.664-30.352-7.664s-20.372,2.934-30.279,7.628c-4.209,1.91-7.896,4.562-10.957,7.772
	l-24.182-5.54c-1.526-0.338-3.113,0.016-4.337,0.983c-1.224,0.967-1.925,2.447-1.925,4.004v41.472H10.24v-59.904
	c0-11.632,7.465-22.036,18.468-25.846c14.577-4.705,33.684-6.41,42.972-6.41c7.859,0,26.731,1.336,42.147,6.472l79.944,22.205
	c3.431,1.316,7.143,2.043,11.028,2.043c16.942,0,30.72-13.777,30.72-30.72c0-16.942-13.777-30.72-30.72-30.72
	s-30.72,13.778-30.72,30.72c0,4.817,1.116,9.375,3.098,13.44l-60.36-16.763c-16.379-5.458-36.081-6.917-45.138-6.917
	c-8.551,0-29.194,1.444-46.218,6.938C10.235,128.253,0,142.543,0,158.538v65.024c0,2.831,2.294,5.119,5.12,5.119h133.12
	c2.831,0,5.119-2.288,5.119-5.119v-40.166l13.938,3.194c-2.396,4.966-3.697,10.578-3.697,16.491v20.48
	c0,2.831,2.289,5.119,5.121,5.119h92.159c2.831,0,5.12-2.288,5.12-5.119v-20.48C256,189.279,248.079,176.551,235.151,169.787z
	 M204.8,105.802c11.295,0,20.479,9.186,20.479,20.48c0,11.295-9.185,20.479-20.479,20.479c-1.475,0-2.913-0.152-4.306-0.455
	c-0.307-0.158-0.635-0.287-0.979-0.384l-2.463-0.687c-7.465-3.062-12.732-10.403-12.732-18.954
	C184.32,114.988,193.506,105.802,204.8,105.802z M245.76,218.442h-81.92v-15.36c0-10.623,5.714-19.824,14.992-24.043
	c8.564-4.055,18.754-6.677,25.968-6.677s17.403,2.622,25.784,6.585c9.359,4.904,15.176,14.15,15.176,24.135V218.442z M71.68,110.922
	c22.584,0,40.96-18.375,40.96-40.96s-18.376-40.96-40.96-40.96c-22.584,0-40.96,18.375-40.96,40.96S49.096,110.922,71.68,110.922z
	 M71.68,39.242c16.942,0,30.72,13.778,30.72,30.72s-13.778,30.72-30.72,30.72c-16.942,0-30.72-13.778-30.72-30.72
	S54.738,39.242,71.68,39.242z"/>
</svg>

