<?xml version="1.0" encoding="utf-8"?>
<!-- Generator: Adobe Illustrator 16.0.0, SVG Export Plug-In . SVG Version: 6.00 Build 0)  -->
<!DOCTYPE svg PUBLIC "-//W3C//DTD SVG 1.1//EN" "http://www.w3.org/Graphics/SVG/1.1/DTD/svg11.dtd">
<svg version="1.1" id="Layer_1" xmlns="http://www.w3.org/2000/svg" xmlns:xlink="http://www.w3.org/1999/xlink" x="0px" y="0px"
	 width="169.693px" height="256px" viewBox="0 0 169.693 256" enable-background="new 0 0 169.693 256" xml:space="preserve">
<g>
	<path d="M94.715,56.325c15.528,0,28.165-12.636,28.165-28.17C122.88,12.631,110.243,0,94.715,0C79.19,0,66.56,12.631,66.56,28.155
		C66.56,43.689,79.19,56.325,94.715,56.325z M94.715,10.24c9.887,0,17.925,8.038,17.925,17.915c0,9.887-8.038,17.93-17.925,17.93
		c-9.882,0-17.915-8.043-17.915-17.93C76.8,18.278,84.833,10.24,94.715,10.24z"/>
	<path d="M168.55,81.526c-3.748-7.076-9.672-7.26-14.95-5.755v-12.8c0-2.826-2.288-5.12-5.12-5.12c-2.831,0-5.119,2.293-5.119,5.12
		v17.173l-17.762,8.355L95.253,65.024c-0.656-0.507-1.389-0.83-2.15-0.973c-1.055-0.594-2.243-1.137-3.58-1.633l-19.419-5.479
		c-3.671-1.116-7.368-0.707-10.465,1.162c-3.303-4.122-8.381-6.676-13.343-6.886c-4.972-0.271-17.685,4.982-28.411,15.263
		C9.723,74.291,0,87.767,0,107.52c0,14.597,11.003,25.6,25.6,25.6c4.895,0,8.822-0.773,11.95-1.899
		c-0.118,6.979,1.137,13.127,3.748,18.416c-0.051,0.129-0.098,0.271-0.138,0.41l-10.112,34.877
		c-1.147,2.775-11.351,27.387-17.92,40.715c-9.16,18.605-2.56,25.691,2.196,28.257c13.287,7.179,22.047-6.513,26.752-13.86
		c10.184-15.881,15.38-29.812,18.483-38.144c0.942-2.529,1.761-4.72,2.473-6.164l7.286-17.977l16.466,13.87l-4.285,42.107
		c-0.748,9.134,0.174,14.3,3.184,17.822c2.182,2.545,5.305,3.942,9.549,4.255c8.709,0.66,14.388-5.837,16.906-19.287l0.174-0.974
		c0.057-0.419,5.238-41.901,6.195-47.528c1.214-7.261,1.68-15.478-4.127-21.411c-0.02-0.016-0.035-0.031-0.051-0.047l-28.621-28.441
		c1.322-5.965,4.572-20.624,7.521-33.956l18.693,13.082c4.024,2.883,10.527,4.747,16.025,2.381c0.215-0.097,0.426-0.205,0.63-0.328
		c0.513-0.312,7.645-4.644,14.771-9.021V250.88c0,2.831,2.288,5.12,5.12,5.12c2.831,0,5.119-2.289,5.119-5.12V103.926
		c1.199-0.752,2.223-1.403,2.986-1.905C160.783,99.271,173.552,90.906,168.55,81.526z M39.147,118.344
		c-1.05,1.239-4.685,4.536-13.548,4.536c-7.634,0-15.36-5.273-15.36-15.36c0-31.534,30.633-45.829,35.625-46.085
		c2.54,0.107,7.122,2.575,7.219,6.938L39.147,118.344z M53.724,191.473c-0.799,1.572-1.618,3.773-2.76,6.835
		c-2.964,7.941-7.921,21.233-17.51,36.188c-8.351,13.025-11.075,11.571-13.266,10.378c-2.422-1.306-1.567-7.224,2.125-14.72
		c7.086-14.377,17.858-40.489,18.314-41.595c0.072-0.169,0.128-0.343,0.185-0.527l8.197-28.268c0.046,0.046,0.097,0.097,0.148,0.144
		l12.933,10.895L53.724,191.473z M88.898,76.37c-1.192,5.463-13.788,62.279-13.788,62.279c-0.379,1.716,0.143,3.507,1.387,4.741
		l30.592,30.402c2.575,2.658,2.114,7.818,1.326,12.514c-0.988,5.842-6.042,46.249-6.2,47.605l-0.133,0.717
		c-1.398,7.471-3.523,11.137-6.078,10.967c-0.768-0.061-2.125-0.225-2.529-0.701c-0.44-0.521-1.397-2.561-0.768-10.229l4.551-44.698
		c0.17-1.684-0.501-3.343-1.797-4.434l-39.383-33.172c-0.184-0.241-0.389-0.467-0.609-0.666c-7.204-6.595-9.308-16.113-6.682-29.604
		c0.123-0.353,0.2-0.717,0.241-1.075l14.034-50.289c0.056-0.21,0.102-0.42,0.133-0.635c0.005-0.021,0.005-0.041,0.01-0.062
		c0.021-0.107,0.041-0.215,0.062-0.328c0.261-1.3,0.845-2.309,1.618-2.801c0.609-0.384,1.346-0.435,2.34-0.133l19.123,5.376
		C89.559,73.339,89.559,73.339,88.898,76.37z M150.983,93.45c-5.33,3.477-24.355,15.048-27.325,16.855
		c-1.47,0.451-4.024-0.143-5.806-1.418L95.632,93.343c1.238-5.596,2.262-10.245,2.846-12.877l23.332,18.043
		c1.525,1.172,3.568,1.403,5.314,0.583l23.583-11.095c7.706-3.728,8.089-3,8.704-2.156C159.401,85.939,158.884,88.279,150.983,93.45
		z"/>
</g>
</svg>
