<?xml version="1.0" encoding="utf-8"?>
<!-- Generator: Adobe Illustrator 16.0.0, SVG Export Plug-In . SVG Version: 6.00 Build 0)  -->
<!DOCTYPE svg PUBLIC "-//W3C//DTD SVG 1.1//EN" "http://www.w3.org/Graphics/SVG/1.1/DTD/svg11.dtd">
<svg version="1.1" id="Layer_1" xmlns="http://www.w3.org/2000/svg" xmlns:xlink="http://www.w3.org/1999/xlink" x="0px" y="0px"
	 width="158.816px" height="256.062px" viewBox="0 0 158.816 256.062" enable-background="new 0 0 158.816 256.062"
	 xml:space="preserve">
<g>
	<path d="M158.131,131.687c-1.32-4.096-4.506-7.721-8.31-9.462c-4.044-1.848-26.854-11.182-33.638-13.952
		c-2.663-5.724-10.952-23.613-15.646-34.186c-2.791-8.919-11.25-17.767-21.274-17.767H67.676c-6.39,0-9.764,2.063-12.739,3.886
		c-0.573,0.348-1.157,0.712-1.792,1.065c-0.292,0.164-0.563,0.354-0.819,0.568L21.299,88.208c-3.604,2.202-6.057,5.442-7.491,9.902
		c-0.066,0.205-0.118,0.41-0.159,0.62l-8.115,43.034c-1.393,10.419,4.859,15.514,11.167,16.813c2.995,0.609,6.369,0.129,9.216-1.356
		c3.497-1.812,5.852-4.91,6.636-8.704c0.742-3.574,6.538-29.634,8.136-36.802l8.007-6.139c-2.34,11.244-4.336,21.294-5.089,25.145
		c-0.793,4.045-0.64,7.762,0.062,11.141l-13.629,49.475c-3.092,4.471-19.768,28.59-24.75,35.83
		c-9.308,13.548-4.608,21.422,0.978,25.641c3.103,2.34,6.057,3.257,8.796,3.257c7.306-0.005,13.061-6.513,15.979-9.805l0.492-0.558
		c2.381-2.668,8.479-10.947,14.377-18.945c3.866-5.237,7.439-10.096,9.195-12.303c2.827-3.553,4.813-6.947,6.446-11.008
		c0.492-1.224,4.193-10.875,7.091-18.442c17.833,27.822,35.108,54.604,38.897,59.521c3.763,4.884,12.58,16.338,26.741,8.463
		c3.63-2.018,6.113-5.161,7.188-9.098c1.439-5.279,0.246-11.751-3.287-17.752c-3.655-6.195-42.439-69.227-49.658-80.963
		c0.818-3.655,2.642-11.785,4.623-20.664c0.625,0.932,1.208,1.812,1.71,2.59c2.063,3.216,4.378,4.49,8.218,6.615
		c2.534,1.393,8.376,3.522,17.689,6.851c5.734,2.048,11.663,4.168,14.361,5.376c9.815,4.383,18.248,2.99,22.026-3.655
		C158.961,139.08,159.309,135.322,158.131,131.687z M52.05,199.613c-0.891,2.223-2.176,4.961-4.956,8.459
		c-1.802,2.258-5.463,7.229-9.421,12.6c-5.217,7.081-11.714,15.893-13.778,18.212l-0.517,0.583c-6.042,6.83-8.12,7.291-10.936,5.162
		c-1.654-1.25-4.424-3.339,1.295-11.664c5.488-7.986,25.226-36.516,25.226-36.516c0.328-0.477,0.573-0.998,0.727-1.557
		l10.598-38.477c0.354,0.537,0.702,1.06,1.029,1.562c0.906,1.372,4.546,7.056,9.58,14.915c0.297,0.461,0.589,0.922,0.886,1.387
		C59.397,180.5,52.721,197.944,52.05,199.613z M90.681,88.535l-0.144,0.676c-1.029,4.7-12.462,55.746-12.462,55.746
		c-0.298,1.307-0.067,2.668,0.635,3.805c0.466,0.758,46.756,75.971,50.647,82.564c2.043,3.472,2.918,7.343,2.232,9.867
		c-0.344,1.264-1.07,2.166-2.279,2.842c-4.557,2.519-7.459,2.288-13.66-5.766c-4.424-5.744-31.555-48.123-46.131-70.892
		c-5.074-7.931-8.75-13.671-9.667-15.053c-3.63-5.468-7.752-11.663-6.185-19.636c1.044-5.34,4.5-22.676,7.916-38.512
		c0.451-2.099-0.451-4.255-2.263-5.401c-0.839-0.533-1.792-0.794-2.739-0.794c-1.101,0-2.201,0.354-3.113,1.06l-20.47,15.693
		c-0.958,0.732-1.618,1.776-1.884,2.949c0,0-7.71,34.602-8.571,38.77c-0.103,0.486-0.343,1.182-1.331,1.694
		c-0.855,0.445-1.864,0.522-2.427,0.409c-1.874-0.384-3.661-1.121-3.128-5.156l8.007-42.424c0.702-2.038,1.639-3.246,3.185-4.132
		c0.271-0.153,0.532-0.338,0.768-0.542l30.986-26.337c0.589-0.338,1.147-0.681,1.695-1.014c2.509-1.536,3.886-2.381,7.393-2.381
		h11.587c4.208,0,9.252,4.5,11.224,9.774c0.076,0.389,0.188,0.773,0.353,1.147c0.025,0.046,0.046,0.097,0.066,0.144
		c0.011,0.046,0.026,0.092,0.036,0.133c0,0,0,0.005,0.005,0.005C92.088,82.14,91.592,84.414,90.681,88.535z M148.239,137.227
		c-0.973,1.73-5.329,0.963-8.935-0.646c-3.057-1.367-8.903-3.456-15.094-5.668c-6.322-2.258-14.197-5.074-16.189-6.174
		c-3.625-1.997-3.979-2.289-4.557-3.185c-2.062-3.2-5.52-8.192-7.27-10.695c1.264-5.647,2.416-10.809,3.225-14.444
		c4.348,9.452,8.259,17.854,8.325,17.997c0.543,1.172,1.511,2.089,2.704,2.575c0.307,0.123,30.643,12.503,35.107,14.546
		c1.023,0.471,2.33,1.756,2.831,3.302C148.828,136.191,148.388,136.971,148.239,137.227z"/>
	<path d="M89.636,56.32c15.524,0,28.16-12.631,28.16-28.16C117.796,12.631,105.16,0,89.636,0c-15.529,0-28.16,12.631-28.16,28.16
		C61.476,43.689,74.107,56.32,89.636,56.32z M89.636,10.24c9.882,0,17.921,8.038,17.921,17.92c0,9.881-8.039,17.92-17.921,17.92
		s-17.92-8.039-17.92-17.92C71.716,18.278,79.754,10.24,89.636,10.24z"/>
</g>
</svg>
