<?xml version="1.0" encoding="utf-8"?>
<!-- Generator: Adobe Illustrator 16.0.0, SVG Export Plug-In . SVG Version: 6.00 Build 0)  -->
<!DOCTYPE svg PUBLIC "-//W3C//DTD SVG 1.1//EN" "http://www.w3.org/Graphics/SVG/1.1/DTD/svg11.dtd">
<svg version="1.1" id="Layer_1" xmlns="http://www.w3.org/2000/svg" xmlns:xlink="http://www.w3.org/1999/xlink" x="0px" y="0px"
	 width="222.013px" height="360.014px" viewBox="0 0 222.013 360.014" enable-background="new 0 0 222.013 360.014"
	 xml:space="preserve">
<g>
	<path d="M169.084,55.447h-11.495V7.154c0-2.482-2.022-4.522-4.519-4.522H66.92c-2.502,0-4.521,2.037-4.521,4.522v48.292H50.913
		c-24.958,0-45.248,20.316-45.248,45.273v185.612c0,16.854,9.343,31.427,23.047,39.206c1.527,15.521,14.501,27.734,30.424,27.734
		c13.766,0,25.324-9.169,29.231-21.671h43.266c3.892,12.502,15.42,21.671,29.21,21.671c15.917,0,28.897-12.214,30.444-27.734
		c13.684-7.794,23.054-22.352,23.054-39.206V100.72C214.342,75.763,194.009,55.447,169.084,55.447z M71.447,11.693h77.097v41.694
		H71.447V11.693z M50.912,73.551h118.172c14.974,0,27.15,12.179,27.15,27.169v51.288h-66.433v-10.757
		c0-2.485-2.032-4.522-4.54-4.522H94.718c-2.509,0-4.523,2.037-4.523,4.522v10.757H23.751V100.72
		C23.751,85.729,35.943,73.551,50.912,73.551z M120.742,145.772v21.497H99.236v-21.497H120.742z M59.135,344.231
		c-9.427,0-17.403-6.068-20.377-14.496c3.889,1.096,7.923,1.865,12.153,1.865h27.852C75.316,339.02,67.847,344.231,59.135,344.231z
		 M160.843,344.231c-8.717,0-16.188-5.212-19.612-12.631h27.854c4.232,0,8.257-0.765,12.16-1.88
		C178.265,338.144,170.283,344.231,160.843,344.231z M169.084,313.493H50.912c-14.971,0-27.16-12.194-27.16-27.169V161.055h66.443
		v10.741c0,2.517,2.016,4.537,4.523,4.537h30.544c2.508,0,4.54-2.021,4.54-4.537v-10.741h66.434v125.277
		C196.234,301.298,184.057,313.493,169.084,313.493z"/>
</g>
</svg>
