<?xml version="1.0" encoding="utf-8"?>
<!-- Generator: Adobe Illustrator 16.0.0, SVG Export Plug-In . SVG Version: 6.00 Build 0)  -->
<!DOCTYPE svg PUBLIC "-//W3C//DTD SVG 1.1//EN" "http://www.w3.org/Graphics/SVG/1.1/DTD/svg11.dtd">
<svg version="1.1" id="Layer_1" xmlns="http://www.w3.org/2000/svg" xmlns:xlink="http://www.w3.org/1999/xlink" x="0px" y="0px"
	 width="325.5px" height="325.5px" viewBox="0 0 325.5 325.5" enable-background="new 0 0 325.5 325.5" xml:space="preserve">
<path d="M296.066,121.97c-8.469-6.777-20.274-10.658-32.396-10.658c-15.711,0-20.437,2.437-33.063,8.934
	c-2.605,1.34-5.619,2.89-9.177,4.65c-3.454-4.372-7.336-8.389-11.844-11.86c71.669-16.462,101.182-44.561,107.37-100.246
	c0.378-3.403-2.076-6.467-5.48-6.846c-3.337-0.366-6.469,2.078-6.846,5.476c-4.321,38.918-21.067,62.343-59.566,77.949
	c10.146-15.704,16.127-38.56,16.127-64.86c0-3.422-2.771-6.2-6.198-6.2c-3.43,0-6.201,2.778-6.201,6.2
	c0,38.132-13.686,68.569-33.278,74.012c-0.625,0.174-1.196,0.434-1.711,0.769c-6.496,1.625-13.43,3.138-20.777,4.57
	c-8.657-3.255-18.855-5.108-31.032-5.108s-22.383,1.854-31.032,5.116c-7.348-1.433-14.273-2.945-20.771-4.569
	c-0.515-0.335-1.091-0.602-1.717-0.775c-19.599-5.443-33.289-35.88-33.289-74.013c0-3.422-2.778-6.2-6.201-6.2
	c-3.422,0-6.2,2.778-6.2,6.2c0,26.308,5.984,49.156,16.133,64.868C40.425,73.764,23.665,50.345,19.343,11.426
	c-0.377-3.41-3.454-5.903-6.846-5.482C9.094,6.322,6.638,9.393,7.016,12.79c6.181,55.685,35.701,83.784,107.376,100.246
	c-4.508,3.478-8.389,7.497-11.843,11.868c-3.566-1.761-6.584-3.311-9.184-4.657c-12.629-6.497-17.36-8.934-33.066-8.934
	c-13.263,0-24.863,3.87-32.607,10.838c-1.643,1.433-4.037,4.78-1.668,11.093c4.372,11.619,29.017,40.071,47.296,40.071
	c3,0,5.748-0.297,8.196-0.713c-0.831,7.831,0.006,15.5,2.542,22.675c2.53,7.156,6.697,15.439,11.526,25.024
	c10.163,20.188,22.817,45.305,29.799,77.739c0.05,0.228,0.112,0.453,0.186,0.67c0.588,1.779,6.646,17.373,36.419,17.373
	c29.774,0,35.826-15.594,36.583-17.957c7.124-30.871,19.326-55.609,29.129-75.48c5.234-10.614,9.753-19.786,12.208-27.373
	c2.528-7.161,3.367-14.827,2.536-22.676c2.449,0.423,5.194,0.72,8.203,0.72c18.278,0,42.925-28.453,47.295-40.078
	C300.313,126.931,297.915,123.582,296.066,121.97z M73.322,160.913c-11.359,0-31.665-22.958-35.36-31.119
	c5.494-3.888,13.461-6.083,22.339-6.083c12.705,0,15.52,1.451,27.387,7.564c2.275,1.172,4.861,2.505,7.83,3.987
	c-4.296,7.366-7.774,15.357-10.838,23.536c-0.05,0.13-0.08,0.267-0.124,0.396C82.159,159.94,78.115,160.913,73.322,160.913z
	 M227.852,191.196c-2.219,6.87-6.554,15.649-11.57,25.823c-10.031,20.342-22.506,45.634-29.979,77.678
	c-0.743,1.418-5.481,8.654-24.316,8.654c-19.09,0-23.691-7.439-24.28-8.538c-7.347-33.771-20.87-60.614-30.753-80.236
	c-4.631-9.202-8.637-17.151-10.894-23.543c-3.032-8.587-2.815-18.266,0.577-27.889c11.967-31.9,27.063-51.673,65.344-51.673
	c38.281,0,53.377,19.772,65.301,51.555C230.723,172.769,230.934,182.461,227.852,191.196z M250.649,160.913
	c-4.794,0-8.841-0.973-11.242-1.717c-0.061-0.174-0.098-0.34-0.16-0.515c-3.045-8.128-6.511-16.083-10.789-23.425
	c2.963-1.481,5.549-2.809,7.825-3.98c11.865-6.113,14.688-7.564,27.386-7.564c10.776,0,18.328,3.658,22.272,6.218
	C282.098,138.203,261.94,160.913,250.649,160.913z M180.586,272.519l-4.339,9.3c-1.24,2.479-3.72,4.34-6.82,4.34h-14.881
	c-2.479,0-5.58-1.86-6.82-4.34l-4.341-9.3c-2.481-4.961,1.241-10.541,6.821-10.541h24.18
	C179.348,261.978,183.068,267.558,180.586,272.519z M128.585,176.811c5.492,5.644,6.374,13.703,1.96,18.008
	c-4.416,4.303-12.451,3.211-17.943-2.425c-5.494-5.642-6.375-13.702-1.96-18.006C115.056,170.084,123.092,171.176,128.585,176.811z
	 M213.678,174.288c4.408,4.309,3.521,12.368-1.983,18v0.007c-5.5,5.636-13.542,6.708-17.95,2.399c-4.407-4.31-3.522-12.37,1.982-18
	C201.235,171.059,209.27,169.985,213.678,174.288z"/>
</svg>
