<?xml version="1.0" encoding="utf-8"?>
<!-- Generator: Adobe Illustrator 16.0.0, SVG Export Plug-In . SVG Version: 6.00 Build 0)  -->
<!DOCTYPE svg PUBLIC "-//W3C//DTD SVG 1.1//EN" "http://www.w3.org/Graphics/SVG/1.1/DTD/svg11.dtd">
<svg version="1.1" id="Layer_1" xmlns="http://www.w3.org/2000/svg" xmlns:xlink="http://www.w3.org/1999/xlink" x="0px" y="0px"
	 width="244.23px" height="255.979px" viewBox="0 0 244.23 255.979" enable-background="new 0 0 244.23 255.979"
	 xml:space="preserve">
<g>
	<path d="M216.061,56.32c15.534,0,28.17-12.636,28.17-28.17c0-15.524-12.636-28.15-28.17-28.15
		c-15.519,0-28.149,12.626-28.149,28.15C187.911,43.684,200.542,56.32,216.061,56.32z M216.061,10.24
		c9.887,0,17.931,8.033,17.931,17.91c0,9.887-8.044,17.93-17.931,17.93c-9.876,0-17.91-8.043-17.91-17.93
		C198.15,18.273,206.185,10.24,216.061,10.24z"/>
	<path d="M230.059,237.845c-10.24,13.927-30.044,5.433-30.511,5.243l-71.157-38.764c5.095-5.775,20.608-23.496,35.112-41.329
		c6.912-8.494,9.938-17.06,9.002-25.456c-1.475-13.226-12.493-21.878-16.113-24.72c-2.027-1.592-7.582-5.622-16.937-12.268
		l6.559-4.537l2.176,1.27c0.804,0.476,1.69,0.701,2.565,0.701c0.153,2.862,0.532,5.643,1.285,7.9
		c2.1,6.349,11.069,13.517,49.234,29.625c14.611,6.18,19.722,0.977,21.227-1.553c3.2-5.355,0.107-12.574-8.264-19.312
		c-4.996-4.019-23.424-14.976-31.744-19.866c3.38-8.535,10.537-28.021,10.537-39.956c0-17.726-16.747-26.768-28.006-28.519
		c-28.908-4.562-53.043,15.611-66.33,30.131L50.147,28.006c-2.438-1.434-5.576-0.609-7.004,1.828
		c-1.429,2.438-0.609,5.576,1.828,7.004l47.007,27.525c-2.565,3.282-4.055,5.504-4.295,5.878c-6.19,8.469-8.632,17.899-7.056,27.274
		c2.038,12.149,10.184,21.617,16.538,26.035c4.311,2.995,8.883,5.914,13.164,8.643c4.726,3.011,9.186,5.857,12.288,8.188
		c5.212,3.911,4.219,6.041,2.114,8.847c-3.968,5.294-24.228,30.612-29.414,37.084L7.569,138.517
		c-2.494-1.362-5.596-0.44-6.943,2.043c-1.356,2.483-0.435,5.596,2.043,6.942l192.344,104.756
		c4.274,1.909,10.869,3.722,17.939,3.722c8.914,0,18.592-2.878,25.354-12.062c1.675-2.278,1.183-5.483-1.091-7.157
		C234.942,235.08,231.743,235.566,230.059,237.845z M163.447,36.424c7.772,1.213,19.343,7.111,19.343,18.401
		c0,10.952-8.242,32.676-11.422,40.12c-1.014,2.375-0.103,5.135,2.135,6.436c7.957,4.629,29.629,17.47,34.319,21.243
		c2.975,2.396,4.476,4.347,5.161,5.57c-1.352-0.051-3.783-0.456-7.721-2.12c-35.896-15.145-42.666-21.171-43.5-23.403
		c-1.434-4.336-0.778-14.27-0.031-19.518c0.287-2.012-0.645-4.009-2.375-5.079c-0.83-0.512-1.767-0.768-2.693-0.768
		c-1.019,0-2.037,0.308-2.908,0.906l-8.191,5.658l-37.745-22.103C119.958,49.003,140.366,32.809,163.447,36.424z M104.449,191.283
		c6.559-8.188,24.612-30.771,28.473-35.917c3.595-4.798,7.833-14.183-4.157-23.179c-3.416-2.564-8.039-5.514-12.934-8.632
		c-4.167-2.662-8.627-5.499-12.826-8.417c-3.804-2.642-10.665-9.682-12.283-19.318c-1.121-6.687,0.64-13.261,5.371-19.743
		c0.071-0.107,1.787-2.673,4.849-6.467l35.322,20.69l-8.643,5.975c-1.377,0.953-2.201,2.514-2.211,4.183
		c-0.011,1.674,0.793,3.241,2.16,4.208c12.672,8.976,20.234,14.423,22.498,16.2c4.832,3.794,11.371,9.775,12.267,17.802
		c0.62,5.565-1.653,11.576-6.763,17.859c-16.615,20.418-34.576,40.709-36.398,42.767L104.449,191.283z"/>
</g>
</svg>
